%TF.GenerationSoftware,KiCad,Pcbnew,(6.0.8-1)-1*%
%TF.CreationDate,2022-11-07T15:29:17+01:00*%
%TF.ProjectId,distortion-pedal,64697374-6f72-4746-996f-6e2d70656461,rev?*%
%TF.SameCoordinates,Original*%
%TF.FileFunction,Legend,Bot*%
%TF.FilePolarity,Positive*%
%FSLAX46Y46*%
G04 Gerber Fmt 4.6, Leading zero omitted, Abs format (unit mm)*
G04 Created by KiCad (PCBNEW (6.0.8-1)-1) date 2022-11-07 15:29:17*
%MOMM*%
%LPD*%
G01*
G04 APERTURE LIST*
%ADD10C,0.127000*%
%ADD11C,0.150000*%
%ADD12C,0.120000*%
G04 APERTURE END LIST*
D10*
X47018571Y-64853978D02*
X47018571Y-64520645D01*
X47542380Y-64520645D02*
X46542380Y-64520645D01*
X46542380Y-64996835D01*
X46875714Y-65806359D02*
X47542380Y-65806359D01*
X46875714Y-65377788D02*
X47399523Y-65377788D01*
X47494761Y-65425407D01*
X47542380Y-65520645D01*
X47542380Y-65663502D01*
X47494761Y-65758740D01*
X47447142Y-65806359D01*
X46875714Y-66187311D02*
X46875714Y-66711121D01*
X47542380Y-66187311D01*
X47542380Y-66711121D01*
X46875714Y-66996835D02*
X46875714Y-67520645D01*
X47542380Y-66996835D01*
X47542380Y-67520645D01*
X46494761Y-68615883D02*
X47780476Y-67758740D01*
X47542380Y-68949216D02*
X46542380Y-68949216D01*
X46542380Y-69187311D01*
X46590000Y-69330169D01*
X46685238Y-69425407D01*
X46780476Y-69473026D01*
X46970952Y-69520645D01*
X47113809Y-69520645D01*
X47304285Y-69473026D01*
X47399523Y-69425407D01*
X47494761Y-69330169D01*
X47542380Y-69187311D01*
X47542380Y-68949216D01*
X47542380Y-69949216D02*
X46875714Y-69949216D01*
X46542380Y-69949216D02*
X46590000Y-69901597D01*
X46637619Y-69949216D01*
X46590000Y-69996835D01*
X46542380Y-69949216D01*
X46637619Y-69949216D01*
X47494761Y-70377788D02*
X47542380Y-70473026D01*
X47542380Y-70663502D01*
X47494761Y-70758740D01*
X47399523Y-70806359D01*
X47351904Y-70806359D01*
X47256666Y-70758740D01*
X47209047Y-70663502D01*
X47209047Y-70520645D01*
X47161428Y-70425407D01*
X47066190Y-70377788D01*
X47018571Y-70377788D01*
X46923333Y-70425407D01*
X46875714Y-70520645D01*
X46875714Y-70663502D01*
X46923333Y-70758740D01*
X46875714Y-71092073D02*
X46875714Y-71473026D01*
X46542380Y-71234930D02*
X47399523Y-71234930D01*
X47494761Y-71282550D01*
X47542380Y-71377788D01*
X47542380Y-71473026D01*
X47542380Y-71949216D02*
X47494761Y-71853978D01*
X47447142Y-71806359D01*
X47351904Y-71758740D01*
X47066190Y-71758740D01*
X46970952Y-71806359D01*
X46923333Y-71853978D01*
X46875714Y-71949216D01*
X46875714Y-72092073D01*
X46923333Y-72187311D01*
X46970952Y-72234930D01*
X47066190Y-72282550D01*
X47351904Y-72282550D01*
X47447142Y-72234930D01*
X47494761Y-72187311D01*
X47542380Y-72092073D01*
X47542380Y-71949216D01*
X47542380Y-72711121D02*
X46875714Y-72711121D01*
X47066190Y-72711121D02*
X46970952Y-72758740D01*
X46923333Y-72806359D01*
X46875714Y-72901597D01*
X46875714Y-72996835D01*
X46875714Y-73187311D02*
X46875714Y-73568264D01*
X46542380Y-73330169D02*
X47399523Y-73330169D01*
X47494761Y-73377788D01*
X47542380Y-73473026D01*
X47542380Y-73568264D01*
X47542380Y-73901597D02*
X46875714Y-73901597D01*
X46542380Y-73901597D02*
X46590000Y-73853978D01*
X46637619Y-73901597D01*
X46590000Y-73949216D01*
X46542380Y-73901597D01*
X46637619Y-73901597D01*
X47542380Y-74520645D02*
X47494761Y-74425407D01*
X47447142Y-74377788D01*
X47351904Y-74330169D01*
X47066190Y-74330169D01*
X46970952Y-74377788D01*
X46923333Y-74425407D01*
X46875714Y-74520645D01*
X46875714Y-74663502D01*
X46923333Y-74758740D01*
X46970952Y-74806359D01*
X47066190Y-74853978D01*
X47351904Y-74853978D01*
X47447142Y-74806359D01*
X47494761Y-74758740D01*
X47542380Y-74663502D01*
X47542380Y-74520645D01*
X46875714Y-75282550D02*
X47542380Y-75282550D01*
X46970952Y-75282550D02*
X46923333Y-75330169D01*
X46875714Y-75425407D01*
X46875714Y-75568264D01*
X46923333Y-75663502D01*
X47018571Y-75711121D01*
X47542380Y-75711121D01*
X49152380Y-64520645D02*
X48152380Y-64520645D01*
X48152380Y-64901597D01*
X48200000Y-64996835D01*
X48247619Y-65044454D01*
X48342857Y-65092073D01*
X48485714Y-65092073D01*
X48580952Y-65044454D01*
X48628571Y-64996835D01*
X48676190Y-64901597D01*
X48676190Y-64520645D01*
X49104761Y-65901597D02*
X49152380Y-65806359D01*
X49152380Y-65615883D01*
X49104761Y-65520645D01*
X49009523Y-65473026D01*
X48628571Y-65473026D01*
X48533333Y-65520645D01*
X48485714Y-65615883D01*
X48485714Y-65806359D01*
X48533333Y-65901597D01*
X48628571Y-65949216D01*
X48723809Y-65949216D01*
X48819047Y-65473026D01*
X49152380Y-66806359D02*
X48152380Y-66806359D01*
X49104761Y-66806359D02*
X49152380Y-66711121D01*
X49152380Y-66520645D01*
X49104761Y-66425407D01*
X49057142Y-66377788D01*
X48961904Y-66330169D01*
X48676190Y-66330169D01*
X48580952Y-66377788D01*
X48533333Y-66425407D01*
X48485714Y-66520645D01*
X48485714Y-66711121D01*
X48533333Y-66806359D01*
X49152380Y-67711121D02*
X48628571Y-67711121D01*
X48533333Y-67663502D01*
X48485714Y-67568264D01*
X48485714Y-67377788D01*
X48533333Y-67282550D01*
X49104761Y-67711121D02*
X49152380Y-67615883D01*
X49152380Y-67377788D01*
X49104761Y-67282550D01*
X49009523Y-67234930D01*
X48914285Y-67234930D01*
X48819047Y-67282550D01*
X48771428Y-67377788D01*
X48771428Y-67615883D01*
X48723809Y-67711121D01*
X49152380Y-68330169D02*
X49104761Y-68234930D01*
X49009523Y-68187311D01*
X48152380Y-68187311D01*
X50762380Y-65092073D02*
X50286190Y-64758740D01*
X50762380Y-64520645D02*
X49762380Y-64520645D01*
X49762380Y-64901597D01*
X49810000Y-64996835D01*
X49857619Y-65044454D01*
X49952857Y-65092073D01*
X50095714Y-65092073D01*
X50190952Y-65044454D01*
X50238571Y-64996835D01*
X50286190Y-64901597D01*
X50286190Y-64520645D01*
X50238571Y-65520645D02*
X50238571Y-65853978D01*
X50762380Y-65996835D02*
X50762380Y-65520645D01*
X49762380Y-65520645D01*
X49762380Y-65996835D01*
X49762380Y-66282550D02*
X50762380Y-66615883D01*
X49762380Y-66949216D01*
X49857619Y-67234930D02*
X49810000Y-67282550D01*
X49762380Y-67377788D01*
X49762380Y-67615883D01*
X49810000Y-67711121D01*
X49857619Y-67758740D01*
X49952857Y-67806359D01*
X50048095Y-67806359D01*
X50190952Y-67758740D01*
X50762380Y-67187311D01*
X50762380Y-67806359D01*
D11*
%TO.C,Rcc2*%
X58252180Y-47676190D02*
X57775990Y-47342857D01*
X58252180Y-47104761D02*
X57252180Y-47104761D01*
X57252180Y-47485714D01*
X57299800Y-47580952D01*
X57347419Y-47628571D01*
X57442657Y-47676190D01*
X57585514Y-47676190D01*
X57680752Y-47628571D01*
X57728371Y-47580952D01*
X57775990Y-47485714D01*
X57775990Y-47104761D01*
X58204561Y-48533333D02*
X58252180Y-48438095D01*
X58252180Y-48247619D01*
X58204561Y-48152380D01*
X58156942Y-48104761D01*
X58061704Y-48057142D01*
X57775990Y-48057142D01*
X57680752Y-48104761D01*
X57633133Y-48152380D01*
X57585514Y-48247619D01*
X57585514Y-48438095D01*
X57633133Y-48533333D01*
X58204561Y-49390476D02*
X58252180Y-49295238D01*
X58252180Y-49104761D01*
X58204561Y-49009523D01*
X58156942Y-48961904D01*
X58061704Y-48914285D01*
X57775990Y-48914285D01*
X57680752Y-48961904D01*
X57633133Y-49009523D01*
X57585514Y-49104761D01*
X57585514Y-49295238D01*
X57633133Y-49390476D01*
X57347419Y-49771428D02*
X57299800Y-49819047D01*
X57252180Y-49914285D01*
X57252180Y-50152380D01*
X57299800Y-50247619D01*
X57347419Y-50295238D01*
X57442657Y-50342857D01*
X57537895Y-50342857D01*
X57680752Y-50295238D01*
X58252180Y-49723809D01*
X58252180Y-50342857D01*
%TO.C,Rcc3*%
X63752380Y-42276190D02*
X63276190Y-41942857D01*
X63752380Y-41704761D02*
X62752380Y-41704761D01*
X62752380Y-42085714D01*
X62800000Y-42180952D01*
X62847619Y-42228571D01*
X62942857Y-42276190D01*
X63085714Y-42276190D01*
X63180952Y-42228571D01*
X63228571Y-42180952D01*
X63276190Y-42085714D01*
X63276190Y-41704761D01*
X63704761Y-43133333D02*
X63752380Y-43038095D01*
X63752380Y-42847619D01*
X63704761Y-42752380D01*
X63657142Y-42704761D01*
X63561904Y-42657142D01*
X63276190Y-42657142D01*
X63180952Y-42704761D01*
X63133333Y-42752380D01*
X63085714Y-42847619D01*
X63085714Y-43038095D01*
X63133333Y-43133333D01*
X63704761Y-43990476D02*
X63752380Y-43895238D01*
X63752380Y-43704761D01*
X63704761Y-43609523D01*
X63657142Y-43561904D01*
X63561904Y-43514285D01*
X63276190Y-43514285D01*
X63180952Y-43561904D01*
X63133333Y-43609523D01*
X63085714Y-43704761D01*
X63085714Y-43895238D01*
X63133333Y-43990476D01*
X62752380Y-44323809D02*
X62752380Y-44942857D01*
X63133333Y-44609523D01*
X63133333Y-44752380D01*
X63180952Y-44847619D01*
X63228571Y-44895238D01*
X63323809Y-44942857D01*
X63561904Y-44942857D01*
X63657142Y-44895238D01*
X63704761Y-44847619D01*
X63752380Y-44752380D01*
X63752380Y-44466666D01*
X63704761Y-44371428D01*
X63657142Y-44323809D01*
%TO.C,Rcc4*%
X58252380Y-42276190D02*
X57776190Y-41942857D01*
X58252380Y-41704761D02*
X57252380Y-41704761D01*
X57252380Y-42085714D01*
X57300000Y-42180952D01*
X57347619Y-42228571D01*
X57442857Y-42276190D01*
X57585714Y-42276190D01*
X57680952Y-42228571D01*
X57728571Y-42180952D01*
X57776190Y-42085714D01*
X57776190Y-41704761D01*
X58204761Y-43133333D02*
X58252380Y-43038095D01*
X58252380Y-42847619D01*
X58204761Y-42752380D01*
X58157142Y-42704761D01*
X58061904Y-42657142D01*
X57776190Y-42657142D01*
X57680952Y-42704761D01*
X57633333Y-42752380D01*
X57585714Y-42847619D01*
X57585714Y-43038095D01*
X57633333Y-43133333D01*
X58204761Y-43990476D02*
X58252380Y-43895238D01*
X58252380Y-43704761D01*
X58204761Y-43609523D01*
X58157142Y-43561904D01*
X58061904Y-43514285D01*
X57776190Y-43514285D01*
X57680952Y-43561904D01*
X57633333Y-43609523D01*
X57585714Y-43704761D01*
X57585714Y-43895238D01*
X57633333Y-43990476D01*
X57585714Y-44847619D02*
X58252380Y-44847619D01*
X57204761Y-44609523D02*
X57919047Y-44371428D01*
X57919047Y-44990476D01*
%TO.C,Rcc1*%
X63703380Y-47676190D02*
X63227190Y-47342857D01*
X63703380Y-47104761D02*
X62703380Y-47104761D01*
X62703380Y-47485714D01*
X62751000Y-47580952D01*
X62798619Y-47628571D01*
X62893857Y-47676190D01*
X63036714Y-47676190D01*
X63131952Y-47628571D01*
X63179571Y-47580952D01*
X63227190Y-47485714D01*
X63227190Y-47104761D01*
X63655761Y-48533333D02*
X63703380Y-48438095D01*
X63703380Y-48247619D01*
X63655761Y-48152380D01*
X63608142Y-48104761D01*
X63512904Y-48057142D01*
X63227190Y-48057142D01*
X63131952Y-48104761D01*
X63084333Y-48152380D01*
X63036714Y-48247619D01*
X63036714Y-48438095D01*
X63084333Y-48533333D01*
X63655761Y-49390476D02*
X63703380Y-49295238D01*
X63703380Y-49104761D01*
X63655761Y-49009523D01*
X63608142Y-48961904D01*
X63512904Y-48914285D01*
X63227190Y-48914285D01*
X63131952Y-48961904D01*
X63084333Y-49009523D01*
X63036714Y-49104761D01*
X63036714Y-49295238D01*
X63084333Y-49390476D01*
X63703380Y-50342857D02*
X63703380Y-49771428D01*
X63703380Y-50057142D02*
X62703380Y-50057142D01*
X62846238Y-49961904D01*
X62941476Y-49866666D01*
X62989095Y-49771428D01*
D12*
%TO.C,Rcc2*%
X60135000Y-48472936D02*
X60135000Y-48927064D01*
X58665000Y-48472936D02*
X58665000Y-48927064D01*
%TO.C,Rcc3*%
X62335000Y-43072936D02*
X62335000Y-43527064D01*
X60865000Y-43072936D02*
X60865000Y-43527064D01*
%TO.C,Rcc4*%
X58665000Y-43072936D02*
X58665000Y-43527064D01*
X60135000Y-43072936D02*
X60135000Y-43527064D01*
%TO.C,Rcc1*%
X60865000Y-48472936D02*
X60865000Y-48927064D01*
X62335000Y-48472936D02*
X62335000Y-48927064D01*
%TD*%
M02*
