%TF.GenerationSoftware,KiCad,Pcbnew,(6.0.8-1)-1*%
%TF.CreationDate,2022-11-07T15:29:17+01:00*%
%TF.ProjectId,distortion-pedal,64697374-6f72-4746-996f-6e2d70656461,rev?*%
%TF.SameCoordinates,Original*%
%TF.FileFunction,Soldermask,Bot*%
%TF.FilePolarity,Negative*%
%FSLAX46Y46*%
G04 Gerber Fmt 4.6, Leading zero omitted, Abs format (unit mm)*
G04 Created by KiCad (PCBNEW (6.0.8-1)-1) date 2022-11-07 15:29:17*
%MOMM*%
%LPD*%
G01*
G04 APERTURE LIST*
G04 Aperture macros list*
%AMRoundRect*
0 Rectangle with rounded corners*
0 $1 Rounding radius*
0 $2 $3 $4 $5 $6 $7 $8 $9 X,Y pos of 4 corners*
0 Add a 4 corners polygon primitive as box body*
4,1,4,$2,$3,$4,$5,$6,$7,$8,$9,$2,$3,0*
0 Add four circle primitives for the rounded corners*
1,1,$1+$1,$2,$3*
1,1,$1+$1,$4,$5*
1,1,$1+$1,$6,$7*
1,1,$1+$1,$8,$9*
0 Add four rect primitives between the rounded corners*
20,1,$1+$1,$2,$3,$4,$5,0*
20,1,$1+$1,$4,$5,$6,$7,0*
20,1,$1+$1,$6,$7,$8,$9,0*
20,1,$1+$1,$8,$9,$2,$3,0*%
G04 Aperture macros list end*
%ADD10R,1.700000X1.700000*%
%ADD11O,1.700000X1.700000*%
%ADD12R,1.000000X1.000000*%
%ADD13C,3.800000*%
%ADD14C,2.600000*%
%ADD15RoundRect,0.250000X-0.450000X0.350000X-0.450000X-0.350000X0.450000X-0.350000X0.450000X0.350000X0*%
G04 APERTURE END LIST*
D10*
%TO.C,J4*%
X53800000Y-44170000D03*
D11*
X53800000Y-41630000D03*
%TD*%
D10*
%TO.C,D6*%
X60305000Y-76720000D03*
D11*
X57765000Y-76720000D03*
%TD*%
D10*
%TO.C,Level1*%
X53110000Y-62850000D03*
D11*
X50570000Y-62850000D03*
X48030000Y-62850000D03*
%TD*%
D10*
%TO.C,Gain1*%
X72905000Y-69500000D03*
D11*
X70365000Y-69500000D03*
X67825000Y-69500000D03*
%TD*%
D12*
%TO.C,TP3*%
X66800000Y-45600000D03*
%TD*%
%TO.C,TP2*%
X60790000Y-59370000D03*
%TD*%
D13*
%TO.C,H1*%
X48500000Y-56100000D03*
D14*
X48500000Y-56100000D03*
%TD*%
D12*
%TO.C,TP5*%
X54810000Y-51770000D03*
%TD*%
D10*
%TO.C,Tone1*%
X72890000Y-64195000D03*
D11*
X72890000Y-61655000D03*
X72890000Y-59115000D03*
%TD*%
D13*
%TO.C,H3*%
X48490000Y-77900000D03*
D14*
X48490000Y-77900000D03*
%TD*%
D12*
%TO.C,TP4*%
X57790000Y-51870000D03*
%TD*%
%TO.C,TP6*%
X68250000Y-76540000D03*
%TD*%
%TO.C,TP1*%
X60160000Y-62170000D03*
%TD*%
D10*
%TO.C,J2*%
X72855000Y-83090000D03*
D11*
X70315000Y-83090000D03*
%TD*%
D12*
%TO.C,TP9*%
X51500000Y-69000000D03*
%TD*%
D14*
%TO.C,H4*%
X72500000Y-77900000D03*
D13*
X72500000Y-77900000D03*
%TD*%
D10*
%TO.C,SW1*%
X62825000Y-80545000D03*
D11*
X62825000Y-83085000D03*
X60285000Y-80545000D03*
X60285000Y-83085000D03*
X57745000Y-80545000D03*
X57745000Y-83085000D03*
%TD*%
D13*
%TO.C,H2*%
X72530000Y-51500000D03*
D14*
X72530000Y-51500000D03*
%TD*%
D10*
%TO.C,J1*%
X48065000Y-83110000D03*
D11*
X50605000Y-83110000D03*
%TD*%
D15*
%TO.C,Rcc2*%
X59400000Y-47700000D03*
X59400000Y-49700000D03*
%TD*%
%TO.C,Rcc3*%
X61600000Y-42300000D03*
X61600000Y-44300000D03*
%TD*%
%TO.C,Rcc4*%
X59400000Y-42300000D03*
X59400000Y-44300000D03*
%TD*%
%TO.C,Rcc1*%
X61600000Y-47700000D03*
X61600000Y-49700000D03*
%TD*%
M02*
