M48
; DRILL file {KiCad (6.0.8-1)-1} date 2022 November 07, Monday 15:27:21
; FORMAT={-:-/ absolute / inch / decimal}
; #@! TF.CreationDate,2022-11-07T15:27:21+01:00
; #@! TF.GenerationSoftware,Kicad,Pcbnew,(6.0.8-1)-1
; #@! TF.FileFunction,Plated,1,4,PTH
FMAT,2
INCH
; #@! TA.AperFunction,Plated,PTH,ViaDrill
T1C0.0130
; #@! TA.AperFunction,Plated,PTH,ComponentDrill
T2C0.0197
; #@! TA.AperFunction,Plated,PTH,ComponentDrill
T3C0.0236
; #@! TA.AperFunction,Plated,PTH,ComponentDrill
T4C0.0394
; #@! TA.AperFunction,Plated,PTH,ComponentDrill
T5C0.0866
%
G90
G05
T1
X1.8346Y-2.9016
X1.8382Y-2.8055
X1.874Y-2.0984
X1.9248Y-1.9535
X1.9291Y-2.5697
X1.976Y-2.9398
X2.0146Y-2.0433
X2.0394Y-1.9528
X2.0984Y-1.7913
X2.1028Y-2.9594
X2.1736Y-3.1299
X2.2445Y-2.6146
X2.2736Y-1.7224
X2.3063Y-2.1087
X2.3146Y-2.8071
X2.315Y-2.8622
X2.3256Y-2.165
X2.3622Y-1.811
X2.363Y-2.5496
X2.3953Y-2.728
X2.4008Y-2.9079
X2.4016Y-1.811
X2.4181Y-2.4693
X2.452Y-2.7276
X2.4882Y-2.9083
X2.4913Y-1.7161
X2.4972Y-2.5929
X2.5724Y-2.476
X2.6071Y-2.3449
X2.6335Y-2.6236
X2.6339Y-1.937
X2.648Y-2.8933
X2.652Y-2.2524
X2.6591Y-2.2146
X2.6654Y-2.4921
X2.7122Y-2.426
X2.7244Y-2.0197
X2.7579Y-2.4921
X2.7976Y-2.1535
X2.8984Y-2.1551
X2.9079Y-2.8071
T2
X2.0276Y-2.7165
X2.1579Y-2.0382
X2.2752Y-2.0421
X2.3685Y-2.4476
X2.3933Y-2.3374
X2.6299Y-1.7953
X2.687Y-3.0134
T4
X1.8909Y-2.4744
X1.8923Y-3.272
X1.9909Y-2.4744
X1.9923Y-3.272
X2.0909Y-2.4744
X2.1181Y-1.639
X2.1181Y-1.739
X2.2734Y-3.1711
X2.2734Y-3.2711
X2.2742Y-3.0205
X2.3734Y-3.1711
X2.3734Y-3.2711
X2.3742Y-3.0205
X2.4734Y-3.1711
X2.4734Y-3.2711
X2.6703Y-2.7362
X2.7683Y-3.2713
X2.7703Y-2.7362
X2.8683Y-3.2713
X2.8697Y-2.3274
X2.8697Y-2.4274
X2.8697Y-2.5274
X2.8703Y-2.7362
T5
X1.9091Y-3.0669
X1.9094Y-2.2087
X2.8543Y-3.0669
X2.8555Y-2.0276
T3
G00X2.2118Y-1.6299
M15
G01X2.2118Y-1.6063
M16
G05
G00X2.2118Y-1.7795
M15
G01X2.2118Y-1.7559
M16
G05
G00X2.552Y-1.6299
M15
G01X2.552Y-1.6063
M16
G05
G00X2.552Y-1.7795
M15
G01X2.552Y-1.7559
M16
G05
T0
M30
