%TF.GenerationSoftware,KiCad,Pcbnew,(6.0.8-1)-1*%
%TF.CreationDate,2022-11-07T15:29:17+01:00*%
%TF.ProjectId,distortion-pedal,64697374-6f72-4746-996f-6e2d70656461,rev?*%
%TF.SameCoordinates,Original*%
%TF.FileFunction,Copper,L3,Inr*%
%TF.FilePolarity,Positive*%
%FSLAX46Y46*%
G04 Gerber Fmt 4.6, Leading zero omitted, Abs format (unit mm)*
G04 Created by KiCad (PCBNEW (6.0.8-1)-1) date 2022-11-07 15:29:17*
%MOMM*%
%LPD*%
G01*
G04 APERTURE LIST*
%TA.AperFunction,ComponentPad*%
%ADD10O,0.800000X1.600000*%
%TD*%
%TA.AperFunction,ComponentPad*%
%ADD11R,1.700000X1.700000*%
%TD*%
%TA.AperFunction,ComponentPad*%
%ADD12O,1.700000X1.700000*%
%TD*%
%TA.AperFunction,ComponentPad*%
%ADD13R,1.000000X1.000000*%
%TD*%
%TA.AperFunction,ComponentPad*%
%ADD14C,2.600000*%
%TD*%
%TA.AperFunction,ViaPad*%
%ADD15C,0.685800*%
%TD*%
G04 APERTURE END LIST*
D10*
%TO.N,GND*%
%TO.C,J3*%
X64820000Y-44900000D03*
X56180000Y-44900000D03*
X64820000Y-41100000D03*
X56180000Y-41100000D03*
%TD*%
D11*
%TO.N,+9V*%
%TO.C,J4*%
X53800000Y-44170000D03*
D12*
%TO.N,GND*%
X53800000Y-41630000D03*
%TD*%
D11*
%TO.N,Net-(D6-Pad1)*%
%TO.C,D6*%
X60305000Y-76720000D03*
D12*
%TO.N,Net-(D6-Pad2)*%
X57765000Y-76720000D03*
%TD*%
D11*
%TO.N,Net-(Level1-Pad1)*%
%TO.C,Level1*%
X53110000Y-62850000D03*
D12*
%TO.N,Net-(D1-Pad1)*%
X50570000Y-62850000D03*
X48030000Y-62850000D03*
%TD*%
D11*
%TO.N,Net-(Gain1-Pad1)*%
%TO.C,Gain1*%
X72905000Y-69500000D03*
D12*
%TO.N,Net-(Gain1-Pad2)*%
X70365000Y-69500000D03*
X67825000Y-69500000D03*
%TD*%
D13*
%TO.N,+5V*%
%TO.C,TP3*%
X66800000Y-45600000D03*
%TD*%
%TO.N,effect_out*%
%TO.C,TP2*%
X60790000Y-59370000D03*
%TD*%
D14*
%TO.N,GND*%
%TO.C,H1*%
X48500000Y-56100000D03*
%TD*%
D13*
%TO.N,Net-(JP2-Pad1)*%
%TO.C,TP5*%
X54810000Y-51770000D03*
%TD*%
D11*
%TO.N,Net-(Tone1-Pad1)*%
%TO.C,Tone1*%
X72890000Y-64195000D03*
D12*
X72890000Y-61655000D03*
%TO.N,Net-(R6-Pad1)*%
X72890000Y-59115000D03*
%TD*%
D14*
%TO.N,GND*%
%TO.C,H3*%
X48490000Y-77900000D03*
%TD*%
D13*
%TO.N,Net-(C5-Pad2)*%
%TO.C,TP4*%
X57790000Y-51870000D03*
%TD*%
%TO.N,Net-(C8-Pad1)*%
%TO.C,TP6*%
X68250000Y-76540000D03*
%TD*%
%TO.N,Net-(D2-Pad2)*%
%TO.C,TP1*%
X60160000Y-62170000D03*
%TD*%
D11*
%TO.N,GND*%
%TO.C,J2*%
X72855000Y-83090000D03*
D12*
%TO.N,Net-(J2-Pad2)*%
X70315000Y-83090000D03*
%TD*%
D13*
%TO.N,effect_in*%
%TO.C,TP9*%
X51500000Y-69000000D03*
%TD*%
D14*
%TO.N,GND*%
%TO.C,H4*%
X72500000Y-77900000D03*
%TD*%
D11*
%TO.N,gain_out*%
%TO.C,SW1*%
X62825000Y-80545000D03*
D12*
%TO.N,Net-(J2-Pad2)*%
X62825000Y-83085000D03*
%TO.N,audio_in*%
X60285000Y-80545000D03*
%TO.N,+8V*%
X60285000Y-83085000D03*
%TO.N,Net-(D6-Pad2)*%
X57745000Y-80545000D03*
%TO.N,GND*%
X57745000Y-83085000D03*
%TD*%
D14*
%TO.N,GND*%
%TO.C,H2*%
X72530000Y-51500000D03*
%TD*%
D11*
%TO.N,GND*%
%TO.C,J1*%
X48065000Y-83110000D03*
D12*
%TO.N,audio_in*%
X50605000Y-83110000D03*
%TD*%
D15*
%TO.N,+4V*%
X66890000Y-66640000D03*
%TO.N,GND*%
X63430000Y-65860000D03*
X60980000Y-73860000D03*
X59070000Y-54990000D03*
X46600000Y-73700000D03*
X67360000Y-57210000D03*
X67540000Y-56250000D03*
X61420000Y-62720000D03*
X66900000Y-49200000D03*
X48890000Y-49620000D03*
X57010000Y-66410000D03*
X63200000Y-73870000D03*
X63280000Y-43590000D03*
X60020000Y-64760000D03*
X55208287Y-79500151D03*
X70050000Y-63300000D03*
X67700000Y-63300000D03*
X69200000Y-51300000D03*
X67260000Y-73490000D03*
X51170000Y-51900000D03*
X53410000Y-75170000D03*
X51800000Y-49600000D03*
X50190000Y-74670000D03*
X57750000Y-43750000D03*
%TO.N,+9V*%
X53300000Y-45500000D03*
X47600000Y-53300000D03*
%TO.N,+8V*%
X73620000Y-54740000D03*
X60840000Y-69290000D03*
X46690000Y-71260000D03*
X68890000Y-61620000D03*
X58580000Y-53560000D03*
X62280000Y-69280000D03*
%TO.N,Net-(J3-PadA5)*%
X61000000Y-46000000D03*
%TO.N,Net-(J3-PadB5)*%
X60000000Y-46000000D03*
%TO.N,Net-(R6-Pad2)*%
X66220000Y-59560000D03*
X65340000Y-62890000D03*
%TO.N,+4V*%
X58790000Y-71300000D03*
X58800000Y-72700000D03*
X71060000Y-54700000D03*
X73860000Y-71300000D03*
X49000000Y-65270000D03*
%TD*%
%TA.AperFunction,Conductor*%
%TO.N,+8V*%
G36*
X64173097Y-40274502D02*
G01*
X64219590Y-40328158D01*
X64229694Y-40398432D01*
X64215392Y-40441199D01*
X64210444Y-40450199D01*
X64210442Y-40450204D01*
X64206625Y-40457147D01*
X64165500Y-40617317D01*
X64165500Y-41541178D01*
X64172910Y-41599835D01*
X64178439Y-41643597D01*
X64181024Y-41664061D01*
X64241899Y-41817814D01*
X64246557Y-41824225D01*
X64246558Y-41824227D01*
X64290498Y-41884705D01*
X64339098Y-41951597D01*
X64466514Y-42057005D01*
X64616141Y-42127414D01*
X64711298Y-42145566D01*
X64770791Y-42156915D01*
X64770793Y-42156915D01*
X64778577Y-42158400D01*
X64943616Y-42148017D01*
X65017415Y-42124038D01*
X65093351Y-42099365D01*
X65093354Y-42099364D01*
X65100887Y-42096916D01*
X65107577Y-42092670D01*
X65107580Y-42092669D01*
X65197952Y-42035317D01*
X65240510Y-42008309D01*
X65275223Y-41971344D01*
X65348285Y-41893540D01*
X65353710Y-41887763D01*
X65433375Y-41742853D01*
X65474500Y-41582683D01*
X65474500Y-40658822D01*
X65458976Y-40535939D01*
X65415798Y-40426883D01*
X65409319Y-40356183D01*
X65442091Y-40293203D01*
X65503711Y-40257940D01*
X65532950Y-40254500D01*
X67962524Y-40254500D01*
X67987103Y-40256921D01*
X68000000Y-40259486D01*
X68012170Y-40257065D01*
X68019856Y-40257065D01*
X68032207Y-40257672D01*
X68133092Y-40267609D01*
X68157309Y-40272425D01*
X68273426Y-40307649D01*
X68296226Y-40317093D01*
X68403239Y-40374292D01*
X68423770Y-40388011D01*
X68517556Y-40464981D01*
X68535019Y-40482444D01*
X68611989Y-40576230D01*
X68625708Y-40596761D01*
X68682907Y-40703774D01*
X68692351Y-40726574D01*
X68727575Y-40842691D01*
X68732391Y-40866908D01*
X68742328Y-40967793D01*
X68742935Y-40980144D01*
X68742935Y-40987830D01*
X68740514Y-41000000D01*
X68742935Y-41012170D01*
X68743079Y-41012894D01*
X68745500Y-41037476D01*
X68745500Y-47962524D01*
X68743079Y-47987103D01*
X68740514Y-48000000D01*
X68742346Y-48009209D01*
X68757114Y-48196854D01*
X68803210Y-48388860D01*
X68878776Y-48571292D01*
X68981950Y-48739657D01*
X68985157Y-48743412D01*
X68985160Y-48743416D01*
X69100770Y-48878776D01*
X69110192Y-48889808D01*
X69113948Y-48893016D01*
X69256584Y-49014840D01*
X69256588Y-49014843D01*
X69260343Y-49018050D01*
X69428708Y-49121224D01*
X69433278Y-49123117D01*
X69433282Y-49123119D01*
X69599122Y-49191812D01*
X69611140Y-49196790D01*
X69658617Y-49208188D01*
X69798333Y-49241731D01*
X69798339Y-49241732D01*
X69803146Y-49242886D01*
X69990791Y-49257654D01*
X70000000Y-49259486D01*
X70012897Y-49256921D01*
X70037476Y-49254500D01*
X73962524Y-49254500D01*
X73987103Y-49256921D01*
X74000000Y-49259486D01*
X74012170Y-49257065D01*
X74019856Y-49257065D01*
X74032207Y-49257672D01*
X74133092Y-49267609D01*
X74157309Y-49272425D01*
X74273426Y-49307649D01*
X74296226Y-49317093D01*
X74403239Y-49374292D01*
X74423770Y-49388011D01*
X74517556Y-49464981D01*
X74535019Y-49482444D01*
X74611989Y-49576230D01*
X74625708Y-49596761D01*
X74682907Y-49703774D01*
X74692351Y-49726574D01*
X74727575Y-49842691D01*
X74732391Y-49866908D01*
X74742328Y-49967793D01*
X74742935Y-49980144D01*
X74742935Y-49987830D01*
X74740514Y-50000000D01*
X74742935Y-50012170D01*
X74743079Y-50012894D01*
X74745500Y-50037476D01*
X74745500Y-84162524D01*
X74743079Y-84187103D01*
X74740514Y-84200000D01*
X74742935Y-84212170D01*
X74742935Y-84219856D01*
X74742328Y-84232207D01*
X74732391Y-84333092D01*
X74727575Y-84357309D01*
X74692351Y-84473426D01*
X74682907Y-84496226D01*
X74625708Y-84603239D01*
X74611989Y-84623770D01*
X74535019Y-84717556D01*
X74517556Y-84735019D01*
X74423770Y-84811989D01*
X74403239Y-84825708D01*
X74296226Y-84882907D01*
X74273426Y-84892351D01*
X74157309Y-84927575D01*
X74133092Y-84932391D01*
X74032207Y-84942328D01*
X74019856Y-84942935D01*
X74012170Y-84942935D01*
X74000000Y-84940514D01*
X73987103Y-84943079D01*
X73962524Y-84945500D01*
X47037476Y-84945500D01*
X47012897Y-84943079D01*
X47000000Y-84940514D01*
X46987830Y-84942935D01*
X46980144Y-84942935D01*
X46967793Y-84942328D01*
X46866908Y-84932391D01*
X46842691Y-84927575D01*
X46726574Y-84892351D01*
X46703774Y-84882907D01*
X46596761Y-84825708D01*
X46576230Y-84811989D01*
X46482444Y-84735019D01*
X46464981Y-84717556D01*
X46388011Y-84623770D01*
X46374292Y-84603239D01*
X46317093Y-84496226D01*
X46307649Y-84473426D01*
X46272425Y-84357309D01*
X46267609Y-84333092D01*
X46257672Y-84232207D01*
X46257065Y-84219856D01*
X46257065Y-84212170D01*
X46259486Y-84200000D01*
X46256921Y-84187103D01*
X46254500Y-84162524D01*
X46254500Y-82234933D01*
X46960500Y-82234933D01*
X46960501Y-83985066D01*
X46963780Y-84001552D01*
X46968867Y-84027126D01*
X46975266Y-84059301D01*
X46982161Y-84069620D01*
X46982162Y-84069622D01*
X47022516Y-84130015D01*
X47031516Y-84143484D01*
X47041832Y-84150377D01*
X47089391Y-84182155D01*
X47115699Y-84199734D01*
X47189933Y-84214500D01*
X48064858Y-84214500D01*
X48940066Y-84214499D01*
X48975818Y-84207388D01*
X49002126Y-84202156D01*
X49002128Y-84202155D01*
X49014301Y-84199734D01*
X49024621Y-84192839D01*
X49024622Y-84192838D01*
X49088168Y-84150377D01*
X49098484Y-84143484D01*
X49154734Y-84059301D01*
X49169500Y-83985067D01*
X49169499Y-83080964D01*
X49496148Y-83080964D01*
X49509424Y-83283522D01*
X49510845Y-83289118D01*
X49510846Y-83289123D01*
X49531119Y-83368945D01*
X49559392Y-83480269D01*
X49561809Y-83485512D01*
X49599010Y-83566208D01*
X49644377Y-83664616D01*
X49647710Y-83669332D01*
X49746717Y-83809424D01*
X49761533Y-83830389D01*
X49765675Y-83834424D01*
X49810439Y-83878031D01*
X49906938Y-83972035D01*
X50075720Y-84084812D01*
X50081023Y-84087090D01*
X50081026Y-84087092D01*
X50218644Y-84146217D01*
X50262228Y-84164942D01*
X50335244Y-84181464D01*
X50454579Y-84208467D01*
X50454584Y-84208468D01*
X50460216Y-84209742D01*
X50465987Y-84209969D01*
X50465989Y-84209969D01*
X50525756Y-84212317D01*
X50663053Y-84217712D01*
X50770348Y-84202155D01*
X50858231Y-84189413D01*
X50858236Y-84189412D01*
X50863945Y-84188584D01*
X50869409Y-84186729D01*
X50869414Y-84186728D01*
X51050693Y-84125192D01*
X51050698Y-84125190D01*
X51056165Y-84123334D01*
X51233276Y-84024147D01*
X51257324Y-84004147D01*
X51384913Y-83898031D01*
X51389345Y-83894345D01*
X51459171Y-83810389D01*
X51515453Y-83742718D01*
X51515455Y-83742715D01*
X51519147Y-83738276D01*
X51618334Y-83561165D01*
X51620190Y-83555698D01*
X51620192Y-83555693D01*
X51681728Y-83374414D01*
X51681729Y-83374409D01*
X51683584Y-83368945D01*
X51684412Y-83363236D01*
X51684413Y-83363231D01*
X51712179Y-83171727D01*
X51712712Y-83168053D01*
X51714232Y-83110000D01*
X51709267Y-83055964D01*
X56636148Y-83055964D01*
X56649424Y-83258522D01*
X56650845Y-83264118D01*
X56650846Y-83264123D01*
X56676017Y-83363231D01*
X56699392Y-83455269D01*
X56701809Y-83460512D01*
X56750536Y-83566208D01*
X56784377Y-83639616D01*
X56787710Y-83644332D01*
X56854103Y-83738276D01*
X56901533Y-83805389D01*
X56905675Y-83809424D01*
X56962267Y-83864553D01*
X57046938Y-83947035D01*
X57215720Y-84059812D01*
X57221023Y-84062090D01*
X57221026Y-84062092D01*
X57363921Y-84123484D01*
X57402228Y-84139942D01*
X57467140Y-84154630D01*
X57594579Y-84183467D01*
X57594584Y-84183468D01*
X57600216Y-84184742D01*
X57605987Y-84184969D01*
X57605989Y-84184969D01*
X57660380Y-84187106D01*
X57803053Y-84192712D01*
X57903499Y-84178148D01*
X57998231Y-84164413D01*
X57998236Y-84164412D01*
X58003945Y-84163584D01*
X58009409Y-84161729D01*
X58009414Y-84161728D01*
X58190693Y-84100192D01*
X58190698Y-84100190D01*
X58196165Y-84098334D01*
X58202019Y-84095056D01*
X58359303Y-84006972D01*
X58373276Y-83999147D01*
X58382910Y-83991135D01*
X58524913Y-83873031D01*
X58529345Y-83869345D01*
X58575023Y-83814424D01*
X58655453Y-83717718D01*
X58655455Y-83717715D01*
X58659147Y-83713276D01*
X58758334Y-83536165D01*
X58760190Y-83530698D01*
X58760192Y-83530693D01*
X58820863Y-83351962D01*
X59213671Y-83351962D01*
X59238443Y-83449502D01*
X59242284Y-83460348D01*
X59322394Y-83634120D01*
X59328145Y-83644081D01*
X59438579Y-83800343D01*
X59446057Y-83809098D01*
X59583114Y-83942612D01*
X59592058Y-83949855D01*
X59751156Y-84056161D01*
X59761266Y-84061651D01*
X59937077Y-84137185D01*
X59948020Y-84140740D01*
X60013332Y-84155519D01*
X60027405Y-84154630D01*
X60030828Y-84145681D01*
X60539000Y-84145681D01*
X60542966Y-84159187D01*
X60551672Y-84160433D01*
X60730497Y-84099730D01*
X60740994Y-84095056D01*
X60907958Y-84001552D01*
X60917430Y-83995042D01*
X61064553Y-83872682D01*
X61072682Y-83864553D01*
X61195042Y-83717430D01*
X61201552Y-83707958D01*
X61295056Y-83540994D01*
X61299730Y-83530497D01*
X61360443Y-83351644D01*
X61359210Y-83342993D01*
X61345642Y-83339000D01*
X60557115Y-83339000D01*
X60541876Y-83343475D01*
X60540671Y-83344865D01*
X60539000Y-83352548D01*
X60539000Y-84145681D01*
X60030828Y-84145681D01*
X60031000Y-84145232D01*
X60031000Y-83357115D01*
X60026525Y-83341876D01*
X60025135Y-83340671D01*
X60017452Y-83339000D01*
X59228494Y-83339000D01*
X59214963Y-83342973D01*
X59213671Y-83351962D01*
X58820863Y-83351962D01*
X58821728Y-83349414D01*
X58821729Y-83349409D01*
X58823584Y-83343945D01*
X58824412Y-83338236D01*
X58824413Y-83338231D01*
X58852179Y-83146727D01*
X58852712Y-83143053D01*
X58854232Y-83085000D01*
X58851564Y-83055964D01*
X61716148Y-83055964D01*
X61729424Y-83258522D01*
X61730845Y-83264118D01*
X61730846Y-83264123D01*
X61756017Y-83363231D01*
X61779392Y-83455269D01*
X61781809Y-83460512D01*
X61830536Y-83566208D01*
X61864377Y-83639616D01*
X61867710Y-83644332D01*
X61934103Y-83738276D01*
X61981533Y-83805389D01*
X61985675Y-83809424D01*
X62042267Y-83864553D01*
X62126938Y-83947035D01*
X62295720Y-84059812D01*
X62301023Y-84062090D01*
X62301026Y-84062092D01*
X62443921Y-84123484D01*
X62482228Y-84139942D01*
X62547140Y-84154630D01*
X62674579Y-84183467D01*
X62674584Y-84183468D01*
X62680216Y-84184742D01*
X62685987Y-84184969D01*
X62685989Y-84184969D01*
X62740380Y-84187106D01*
X62883053Y-84192712D01*
X62983499Y-84178148D01*
X63078231Y-84164413D01*
X63078236Y-84164412D01*
X63083945Y-84163584D01*
X63089409Y-84161729D01*
X63089414Y-84161728D01*
X63270693Y-84100192D01*
X63270698Y-84100190D01*
X63276165Y-84098334D01*
X63282019Y-84095056D01*
X63439303Y-84006972D01*
X63453276Y-83999147D01*
X63462910Y-83991135D01*
X63604913Y-83873031D01*
X63609345Y-83869345D01*
X63655023Y-83814424D01*
X63735453Y-83717718D01*
X63735455Y-83717715D01*
X63739147Y-83713276D01*
X63838334Y-83536165D01*
X63840190Y-83530698D01*
X63840192Y-83530693D01*
X63901728Y-83349414D01*
X63901729Y-83349409D01*
X63903584Y-83343945D01*
X63904412Y-83338236D01*
X63904413Y-83338231D01*
X63932179Y-83146727D01*
X63932712Y-83143053D01*
X63934232Y-83085000D01*
X63932023Y-83060964D01*
X69206148Y-83060964D01*
X69219424Y-83263522D01*
X69220845Y-83269118D01*
X69220846Y-83269123D01*
X69241119Y-83348945D01*
X69269392Y-83460269D01*
X69271809Y-83465512D01*
X69315906Y-83561165D01*
X69354377Y-83644616D01*
X69357710Y-83649332D01*
X69464664Y-83800669D01*
X69471533Y-83810389D01*
X69475675Y-83814424D01*
X69492064Y-83830389D01*
X69616938Y-83952035D01*
X69785720Y-84064812D01*
X69791023Y-84067090D01*
X69791026Y-84067092D01*
X69963558Y-84141217D01*
X69972228Y-84144942D01*
X70015043Y-84154630D01*
X70164579Y-84188467D01*
X70164584Y-84188468D01*
X70170216Y-84189742D01*
X70175987Y-84189969D01*
X70175989Y-84189969D01*
X70235756Y-84192317D01*
X70373053Y-84197712D01*
X70480348Y-84182155D01*
X70568231Y-84169413D01*
X70568236Y-84169412D01*
X70573945Y-84168584D01*
X70579409Y-84166729D01*
X70579414Y-84166728D01*
X70760693Y-84105192D01*
X70760698Y-84105190D01*
X70766165Y-84103334D01*
X70771776Y-84100192D01*
X70843879Y-84059812D01*
X70943276Y-84004147D01*
X70953730Y-83995453D01*
X71094913Y-83878031D01*
X71099345Y-83874345D01*
X71156463Y-83805669D01*
X71225453Y-83722718D01*
X71225455Y-83722715D01*
X71229147Y-83718276D01*
X71314309Y-83566208D01*
X71325510Y-83546208D01*
X71325511Y-83546206D01*
X71328334Y-83541165D01*
X71330190Y-83535698D01*
X71330192Y-83535693D01*
X71391728Y-83354414D01*
X71391729Y-83354409D01*
X71393584Y-83348945D01*
X71394412Y-83343236D01*
X71394413Y-83343231D01*
X71422179Y-83151727D01*
X71422712Y-83148053D01*
X71424232Y-83090000D01*
X71412797Y-82965551D01*
X71406187Y-82893613D01*
X71406186Y-82893610D01*
X71405658Y-82887859D01*
X71401710Y-82873861D01*
X71352125Y-82698046D01*
X71352124Y-82698044D01*
X71350557Y-82692487D01*
X71345625Y-82682484D01*
X71263331Y-82515609D01*
X71260776Y-82510428D01*
X71139320Y-82347779D01*
X70995609Y-82214933D01*
X71750500Y-82214933D01*
X71750501Y-83965066D01*
X71756463Y-83995042D01*
X71762814Y-84026972D01*
X71765266Y-84039301D01*
X71772161Y-84049620D01*
X71772162Y-84049622D01*
X71812516Y-84110015D01*
X71821516Y-84123484D01*
X71905699Y-84179734D01*
X71979933Y-84194500D01*
X72854858Y-84194500D01*
X73730066Y-84194499D01*
X73769137Y-84186728D01*
X73792126Y-84182156D01*
X73792128Y-84182155D01*
X73804301Y-84179734D01*
X73814621Y-84172839D01*
X73814622Y-84172838D01*
X73878168Y-84130377D01*
X73888484Y-84123484D01*
X73944734Y-84039301D01*
X73959500Y-83965067D01*
X73959499Y-82214934D01*
X73952388Y-82179182D01*
X73947156Y-82152874D01*
X73947155Y-82152872D01*
X73944734Y-82140699D01*
X73922101Y-82106826D01*
X73895377Y-82066832D01*
X73888484Y-82056516D01*
X73831686Y-82018564D01*
X73814620Y-82007161D01*
X73804301Y-82000266D01*
X73730067Y-81985500D01*
X72855142Y-81985500D01*
X71979934Y-81985501D01*
X71944182Y-81992612D01*
X71917874Y-81997844D01*
X71917872Y-81997845D01*
X71905699Y-82000266D01*
X71895379Y-82007161D01*
X71895378Y-82007162D01*
X71861711Y-82029658D01*
X71821516Y-82056516D01*
X71803269Y-82083824D01*
X71787900Y-82106826D01*
X71765266Y-82140699D01*
X71750500Y-82214933D01*
X70995609Y-82214933D01*
X70990258Y-82209987D01*
X70985375Y-82206906D01*
X70985371Y-82206903D01*
X70829924Y-82108824D01*
X70818581Y-82101667D01*
X70630039Y-82026446D01*
X70624379Y-82025320D01*
X70624375Y-82025319D01*
X70436613Y-81987971D01*
X70436610Y-81987971D01*
X70430946Y-81986844D01*
X70425171Y-81986768D01*
X70425167Y-81986768D01*
X70323793Y-81985441D01*
X70227971Y-81984187D01*
X70222274Y-81985166D01*
X70222273Y-81985166D01*
X70094271Y-82007161D01*
X70027910Y-82018564D01*
X69837463Y-82088824D01*
X69663010Y-82192612D01*
X69658670Y-82196418D01*
X69658666Y-82196421D01*
X69614752Y-82234933D01*
X69510392Y-82326455D01*
X69384720Y-82485869D01*
X69382031Y-82490980D01*
X69382029Y-82490983D01*
X69361276Y-82530428D01*
X69290203Y-82665515D01*
X69230007Y-82859378D01*
X69206148Y-83060964D01*
X63932023Y-83060964D01*
X63917955Y-82907859D01*
X63916187Y-82888613D01*
X63916186Y-82888610D01*
X63915658Y-82882859D01*
X63910654Y-82865115D01*
X63862125Y-82693046D01*
X63862124Y-82693044D01*
X63860557Y-82687487D01*
X63849978Y-82666033D01*
X63773331Y-82510609D01*
X63770776Y-82505428D01*
X63759990Y-82490983D01*
X63655452Y-82350991D01*
X63649320Y-82342779D01*
X63511019Y-82214934D01*
X63504503Y-82208911D01*
X63500258Y-82204987D01*
X63495375Y-82201906D01*
X63495371Y-82201903D01*
X63341389Y-82104748D01*
X63328581Y-82096667D01*
X63140039Y-82021446D01*
X63134379Y-82020320D01*
X63134375Y-82020319D01*
X62946613Y-81982971D01*
X62946610Y-81982971D01*
X62940946Y-81981844D01*
X62935171Y-81981768D01*
X62935167Y-81981768D01*
X62833793Y-81980441D01*
X62737971Y-81979187D01*
X62732274Y-81980166D01*
X62732273Y-81980166D01*
X62575173Y-82007161D01*
X62537910Y-82013564D01*
X62347463Y-82083824D01*
X62173010Y-82187612D01*
X62168670Y-82191418D01*
X62168666Y-82191421D01*
X62024733Y-82317648D01*
X62020392Y-82321455D01*
X61894720Y-82480869D01*
X61892031Y-82485980D01*
X61892029Y-82485983D01*
X61865920Y-82535609D01*
X61800203Y-82660515D01*
X61740007Y-82854378D01*
X61716148Y-83055964D01*
X58851564Y-83055964D01*
X58837955Y-82907859D01*
X58836187Y-82888613D01*
X58836186Y-82888610D01*
X58835658Y-82882859D01*
X58830654Y-82865115D01*
X58820130Y-82827799D01*
X59212943Y-82827799D01*
X59219675Y-82831000D01*
X60012885Y-82831000D01*
X60028124Y-82826525D01*
X60029329Y-82825135D01*
X60031000Y-82817452D01*
X60031000Y-82812885D01*
X60539000Y-82812885D01*
X60543475Y-82828124D01*
X60544865Y-82829329D01*
X60552548Y-82831000D01*
X61342398Y-82831000D01*
X61355929Y-82827027D01*
X61357098Y-82818892D01*
X61321658Y-82693231D01*
X61317533Y-82682484D01*
X61232903Y-82510871D01*
X61226893Y-82501063D01*
X61112400Y-82347739D01*
X61104710Y-82339199D01*
X60964192Y-82209304D01*
X60955067Y-82202303D01*
X60793236Y-82100195D01*
X60782989Y-82094974D01*
X60605260Y-82024068D01*
X60594232Y-82020801D01*
X60556769Y-82013350D01*
X60543894Y-82014502D01*
X60539000Y-82029658D01*
X60539000Y-82812885D01*
X60031000Y-82812885D01*
X60031000Y-82026500D01*
X60027194Y-82013538D01*
X60012279Y-82011602D01*
X60003732Y-82013071D01*
X59992620Y-82016048D01*
X59813095Y-82082279D01*
X59802717Y-82087229D01*
X59638273Y-82185063D01*
X59628961Y-82191829D01*
X59485097Y-82317994D01*
X59477180Y-82326337D01*
X59358718Y-82476605D01*
X59352450Y-82486256D01*
X59263358Y-82655592D01*
X59258953Y-82666227D01*
X59213162Y-82813698D01*
X59212943Y-82827799D01*
X58820130Y-82827799D01*
X58782125Y-82693046D01*
X58782124Y-82693044D01*
X58780557Y-82687487D01*
X58769978Y-82666033D01*
X58693331Y-82510609D01*
X58690776Y-82505428D01*
X58679990Y-82490983D01*
X58575452Y-82350991D01*
X58569320Y-82342779D01*
X58431019Y-82214934D01*
X58424503Y-82208911D01*
X58420258Y-82204987D01*
X58415375Y-82201906D01*
X58415371Y-82201903D01*
X58261389Y-82104748D01*
X58248581Y-82096667D01*
X58060039Y-82021446D01*
X58054379Y-82020320D01*
X58054375Y-82020319D01*
X57866613Y-81982971D01*
X57866610Y-81982971D01*
X57860946Y-81981844D01*
X57855171Y-81981768D01*
X57855167Y-81981768D01*
X57753793Y-81980441D01*
X57657971Y-81979187D01*
X57652274Y-81980166D01*
X57652273Y-81980166D01*
X57495173Y-82007161D01*
X57457910Y-82013564D01*
X57267463Y-82083824D01*
X57093010Y-82187612D01*
X57088670Y-82191418D01*
X57088666Y-82191421D01*
X56944733Y-82317648D01*
X56940392Y-82321455D01*
X56814720Y-82480869D01*
X56812031Y-82485980D01*
X56812029Y-82485983D01*
X56785920Y-82535609D01*
X56720203Y-82660515D01*
X56660007Y-82854378D01*
X56636148Y-83055964D01*
X51709267Y-83055964D01*
X51695658Y-82907859D01*
X51690017Y-82887859D01*
X51642125Y-82718046D01*
X51642124Y-82718044D01*
X51640557Y-82712487D01*
X51630695Y-82692487D01*
X51553331Y-82535609D01*
X51550776Y-82530428D01*
X51535977Y-82510609D01*
X51432777Y-82372409D01*
X51429320Y-82367779D01*
X51280258Y-82229987D01*
X51275375Y-82226906D01*
X51275371Y-82226903D01*
X51113464Y-82124748D01*
X51108581Y-82121667D01*
X50920039Y-82046446D01*
X50914379Y-82045320D01*
X50914375Y-82045319D01*
X50726613Y-82007971D01*
X50726610Y-82007971D01*
X50720946Y-82006844D01*
X50715171Y-82006768D01*
X50715167Y-82006768D01*
X50613793Y-82005441D01*
X50517971Y-82004187D01*
X50512274Y-82005166D01*
X50512273Y-82005166D01*
X50323607Y-82037585D01*
X50317910Y-82038564D01*
X50127463Y-82108824D01*
X49953010Y-82212612D01*
X49948670Y-82216418D01*
X49948666Y-82216421D01*
X49818025Y-82330991D01*
X49800392Y-82346455D01*
X49674720Y-82505869D01*
X49672031Y-82510980D01*
X49672029Y-82510983D01*
X49659073Y-82535609D01*
X49580203Y-82685515D01*
X49520007Y-82879378D01*
X49496148Y-83080964D01*
X49169499Y-83080964D01*
X49169499Y-82234934D01*
X49160926Y-82191829D01*
X49157156Y-82172874D01*
X49157155Y-82172872D01*
X49154734Y-82160699D01*
X49141371Y-82140699D01*
X49105377Y-82086832D01*
X49098484Y-82076516D01*
X49014301Y-82020266D01*
X48940067Y-82005500D01*
X48065142Y-82005500D01*
X47189934Y-82005501D01*
X47159260Y-82011602D01*
X47127874Y-82017844D01*
X47127872Y-82017845D01*
X47115699Y-82020266D01*
X47105379Y-82027161D01*
X47105378Y-82027162D01*
X47061448Y-82056516D01*
X47031516Y-82076516D01*
X46975266Y-82160699D01*
X46960500Y-82234933D01*
X46254500Y-82234933D01*
X46254500Y-80515964D01*
X56636148Y-80515964D01*
X56649424Y-80718522D01*
X56650845Y-80724118D01*
X56650846Y-80724123D01*
X56671119Y-80803945D01*
X56699392Y-80915269D01*
X56701809Y-80920512D01*
X56739010Y-81001208D01*
X56784377Y-81099616D01*
X56901533Y-81265389D01*
X57046938Y-81407035D01*
X57215720Y-81519812D01*
X57221023Y-81522090D01*
X57221026Y-81522092D01*
X57352283Y-81578484D01*
X57402228Y-81599942D01*
X57475244Y-81616464D01*
X57594579Y-81643467D01*
X57594584Y-81643468D01*
X57600216Y-81644742D01*
X57605987Y-81644969D01*
X57605989Y-81644969D01*
X57665756Y-81647317D01*
X57803053Y-81652712D01*
X57910348Y-81637155D01*
X57998231Y-81624413D01*
X57998236Y-81624412D01*
X58003945Y-81623584D01*
X58009409Y-81621729D01*
X58009414Y-81621728D01*
X58190693Y-81560192D01*
X58190698Y-81560190D01*
X58196165Y-81558334D01*
X58373276Y-81459147D01*
X58412969Y-81426135D01*
X58524913Y-81333031D01*
X58529345Y-81329345D01*
X58659147Y-81173276D01*
X58758334Y-80996165D01*
X58760190Y-80990698D01*
X58760192Y-80990693D01*
X58821728Y-80809414D01*
X58821729Y-80809409D01*
X58823584Y-80803945D01*
X58824412Y-80798236D01*
X58824413Y-80798231D01*
X58852179Y-80606727D01*
X58852712Y-80603053D01*
X58854232Y-80545000D01*
X58851564Y-80515964D01*
X59176148Y-80515964D01*
X59189424Y-80718522D01*
X59190845Y-80724118D01*
X59190846Y-80724123D01*
X59211119Y-80803945D01*
X59239392Y-80915269D01*
X59241809Y-80920512D01*
X59279010Y-81001208D01*
X59324377Y-81099616D01*
X59441533Y-81265389D01*
X59586938Y-81407035D01*
X59755720Y-81519812D01*
X59761023Y-81522090D01*
X59761026Y-81522092D01*
X59892283Y-81578484D01*
X59942228Y-81599942D01*
X60015244Y-81616464D01*
X60134579Y-81643467D01*
X60134584Y-81643468D01*
X60140216Y-81644742D01*
X60145987Y-81644969D01*
X60145989Y-81644969D01*
X60205756Y-81647317D01*
X60343053Y-81652712D01*
X60450348Y-81637155D01*
X60538231Y-81624413D01*
X60538236Y-81624412D01*
X60543945Y-81623584D01*
X60549409Y-81621729D01*
X60549414Y-81621728D01*
X60730693Y-81560192D01*
X60730698Y-81560190D01*
X60736165Y-81558334D01*
X60913276Y-81459147D01*
X60952969Y-81426135D01*
X61064913Y-81333031D01*
X61069345Y-81329345D01*
X61199147Y-81173276D01*
X61298334Y-80996165D01*
X61300190Y-80990698D01*
X61300192Y-80990693D01*
X61361728Y-80809414D01*
X61361729Y-80809409D01*
X61363584Y-80803945D01*
X61364412Y-80798236D01*
X61364413Y-80798231D01*
X61392179Y-80606727D01*
X61392712Y-80603053D01*
X61394232Y-80545000D01*
X61375658Y-80342859D01*
X61374090Y-80337299D01*
X61322125Y-80153046D01*
X61322124Y-80153044D01*
X61320557Y-80147487D01*
X61309978Y-80126033D01*
X61233331Y-79970609D01*
X61230776Y-79965428D01*
X61109320Y-79802779D01*
X60965609Y-79669933D01*
X61720500Y-79669933D01*
X61720501Y-81420066D01*
X61735266Y-81494301D01*
X61742161Y-81504620D01*
X61742162Y-81504622D01*
X61782516Y-81565015D01*
X61791516Y-81578484D01*
X61875699Y-81634734D01*
X61949933Y-81649500D01*
X62824858Y-81649500D01*
X63700066Y-81649499D01*
X63735818Y-81642388D01*
X63762126Y-81637156D01*
X63762128Y-81637155D01*
X63774301Y-81634734D01*
X63784621Y-81627839D01*
X63784622Y-81627838D01*
X63848168Y-81585377D01*
X63858484Y-81578484D01*
X63914734Y-81494301D01*
X63929500Y-81420067D01*
X63929499Y-79669934D01*
X63914734Y-79595699D01*
X63888654Y-79556667D01*
X63865377Y-79521832D01*
X63858484Y-79511516D01*
X63774301Y-79455266D01*
X63700067Y-79440500D01*
X62825142Y-79440500D01*
X61949934Y-79440501D01*
X61914182Y-79447612D01*
X61887874Y-79452844D01*
X61887872Y-79452845D01*
X61875699Y-79455266D01*
X61865379Y-79462161D01*
X61865378Y-79462162D01*
X61820779Y-79491963D01*
X61791516Y-79511516D01*
X61735266Y-79595699D01*
X61720500Y-79669933D01*
X60965609Y-79669933D01*
X60960258Y-79664987D01*
X60955375Y-79661906D01*
X60955371Y-79661903D01*
X60793464Y-79559748D01*
X60788581Y-79556667D01*
X60600039Y-79481446D01*
X60594379Y-79480320D01*
X60594375Y-79480319D01*
X60406613Y-79442971D01*
X60406610Y-79442971D01*
X60400946Y-79441844D01*
X60395171Y-79441768D01*
X60395167Y-79441768D01*
X60293793Y-79440441D01*
X60197971Y-79439187D01*
X60192274Y-79440166D01*
X60192273Y-79440166D01*
X60104397Y-79455266D01*
X59997910Y-79473564D01*
X59807463Y-79543824D01*
X59633010Y-79647612D01*
X59628670Y-79651418D01*
X59628666Y-79651421D01*
X59484733Y-79777648D01*
X59480392Y-79781455D01*
X59476817Y-79785990D01*
X59476816Y-79785991D01*
X59463581Y-79802779D01*
X59354720Y-79940869D01*
X59352031Y-79945980D01*
X59352029Y-79945983D01*
X59312046Y-80021979D01*
X59260203Y-80120515D01*
X59200007Y-80314378D01*
X59176148Y-80515964D01*
X58851564Y-80515964D01*
X58835658Y-80342859D01*
X58834090Y-80337299D01*
X58782125Y-80153046D01*
X58782124Y-80153044D01*
X58780557Y-80147487D01*
X58769978Y-80126033D01*
X58693331Y-79970609D01*
X58690776Y-79965428D01*
X58569320Y-79802779D01*
X58420258Y-79664987D01*
X58415375Y-79661906D01*
X58415371Y-79661903D01*
X58253464Y-79559748D01*
X58248581Y-79556667D01*
X58060039Y-79481446D01*
X58054379Y-79480320D01*
X58054375Y-79480319D01*
X57866613Y-79442971D01*
X57866610Y-79442971D01*
X57860946Y-79441844D01*
X57855171Y-79441768D01*
X57855167Y-79441768D01*
X57753793Y-79440441D01*
X57657971Y-79439187D01*
X57652274Y-79440166D01*
X57652273Y-79440166D01*
X57564397Y-79455266D01*
X57457910Y-79473564D01*
X57267463Y-79543824D01*
X57093010Y-79647612D01*
X57088670Y-79651418D01*
X57088666Y-79651421D01*
X56944733Y-79777648D01*
X56940392Y-79781455D01*
X56936817Y-79785990D01*
X56936816Y-79785991D01*
X56923581Y-79802779D01*
X56814720Y-79940869D01*
X56812031Y-79945980D01*
X56812029Y-79945983D01*
X56772046Y-80021979D01*
X56720203Y-80120515D01*
X56660007Y-80314378D01*
X56636148Y-80515964D01*
X46254500Y-80515964D01*
X46254500Y-79500151D01*
X54605732Y-79500151D01*
X54626264Y-79656104D01*
X54686459Y-79801428D01*
X54782216Y-79926222D01*
X54907009Y-80021979D01*
X55052334Y-80082174D01*
X55208287Y-80102706D01*
X55364240Y-80082174D01*
X55509565Y-80021979D01*
X55634358Y-79926222D01*
X55730115Y-79801428D01*
X55790310Y-79656104D01*
X55810842Y-79500151D01*
X55790310Y-79344198D01*
X55730115Y-79198874D01*
X55634358Y-79074080D01*
X55509565Y-78978323D01*
X55364240Y-78918128D01*
X55208287Y-78897596D01*
X55052334Y-78918128D01*
X54907010Y-78978323D01*
X54782216Y-79074080D01*
X54686459Y-79198874D01*
X54626264Y-79344198D01*
X54605732Y-79500151D01*
X46254500Y-79500151D01*
X46254500Y-77900000D01*
X46930693Y-77900000D01*
X46949891Y-78143929D01*
X47007011Y-78381852D01*
X47100647Y-78607911D01*
X47228494Y-78816538D01*
X47387403Y-79002597D01*
X47573462Y-79161506D01*
X47782089Y-79289353D01*
X47786659Y-79291246D01*
X47786663Y-79291248D01*
X48003575Y-79381095D01*
X48008148Y-79382989D01*
X48090452Y-79402748D01*
X48241258Y-79438954D01*
X48241264Y-79438955D01*
X48246071Y-79440109D01*
X48490000Y-79459307D01*
X48733929Y-79440109D01*
X48738736Y-79438955D01*
X48738742Y-79438954D01*
X48889548Y-79402748D01*
X48971852Y-79382989D01*
X48976425Y-79381095D01*
X49193337Y-79291248D01*
X49193341Y-79291246D01*
X49197911Y-79289353D01*
X49406538Y-79161506D01*
X49592597Y-79002597D01*
X49751506Y-78816538D01*
X49879353Y-78607911D01*
X49972989Y-78381852D01*
X50030109Y-78143929D01*
X50049307Y-77900000D01*
X70940693Y-77900000D01*
X70959891Y-78143929D01*
X71017011Y-78381852D01*
X71110647Y-78607911D01*
X71238494Y-78816538D01*
X71397403Y-79002597D01*
X71583462Y-79161506D01*
X71792089Y-79289353D01*
X71796659Y-79291246D01*
X71796663Y-79291248D01*
X72013575Y-79381095D01*
X72018148Y-79382989D01*
X72100452Y-79402748D01*
X72251258Y-79438954D01*
X72251264Y-79438955D01*
X72256071Y-79440109D01*
X72500000Y-79459307D01*
X72743929Y-79440109D01*
X72748736Y-79438955D01*
X72748742Y-79438954D01*
X72899548Y-79402748D01*
X72981852Y-79382989D01*
X72986425Y-79381095D01*
X73203337Y-79291248D01*
X73203341Y-79291246D01*
X73207911Y-79289353D01*
X73416538Y-79161506D01*
X73602597Y-79002597D01*
X73761506Y-78816538D01*
X73889353Y-78607911D01*
X73982989Y-78381852D01*
X74040109Y-78143929D01*
X74059307Y-77900000D01*
X74040109Y-77656071D01*
X74025464Y-77595067D01*
X73989297Y-77444424D01*
X73982989Y-77418148D01*
X73955887Y-77352718D01*
X73891248Y-77196663D01*
X73891246Y-77196659D01*
X73889353Y-77192089D01*
X73761506Y-76983462D01*
X73602597Y-76797403D01*
X73416538Y-76638494D01*
X73207911Y-76510647D01*
X73203341Y-76508754D01*
X73203337Y-76508752D01*
X72986425Y-76418905D01*
X72986423Y-76418904D01*
X72981852Y-76417011D01*
X72899548Y-76397252D01*
X72748742Y-76361046D01*
X72748736Y-76361045D01*
X72743929Y-76359891D01*
X72500000Y-76340693D01*
X72256071Y-76359891D01*
X72251264Y-76361045D01*
X72251258Y-76361046D01*
X72100452Y-76397252D01*
X72018148Y-76417011D01*
X72013577Y-76418904D01*
X72013575Y-76418905D01*
X71796663Y-76508752D01*
X71796659Y-76508754D01*
X71792089Y-76510647D01*
X71583462Y-76638494D01*
X71397403Y-76797403D01*
X71238494Y-76983462D01*
X71110647Y-77192089D01*
X71108754Y-77196659D01*
X71108752Y-77196663D01*
X71044113Y-77352718D01*
X71017011Y-77418148D01*
X71010703Y-77444424D01*
X70974537Y-77595067D01*
X70959891Y-77656071D01*
X70940693Y-77900000D01*
X50049307Y-77900000D01*
X50030109Y-77656071D01*
X50015464Y-77595067D01*
X49979297Y-77444424D01*
X49972989Y-77418148D01*
X49945887Y-77352718D01*
X49881248Y-77196663D01*
X49881246Y-77196659D01*
X49879353Y-77192089D01*
X49751506Y-76983462D01*
X49592597Y-76797403D01*
X49467973Y-76690964D01*
X56656148Y-76690964D01*
X56669424Y-76893522D01*
X56670845Y-76899118D01*
X56670846Y-76899123D01*
X56714533Y-77071137D01*
X56719392Y-77090269D01*
X56721809Y-77095512D01*
X56759010Y-77176208D01*
X56804377Y-77274616D01*
X56921533Y-77440389D01*
X57066938Y-77582035D01*
X57235720Y-77694812D01*
X57241023Y-77697090D01*
X57241026Y-77697092D01*
X57372283Y-77753484D01*
X57422228Y-77774942D01*
X57495244Y-77791464D01*
X57614579Y-77818467D01*
X57614584Y-77818468D01*
X57620216Y-77819742D01*
X57625987Y-77819969D01*
X57625989Y-77819969D01*
X57685756Y-77822317D01*
X57823053Y-77827712D01*
X57930348Y-77812155D01*
X58018231Y-77799413D01*
X58018236Y-77799412D01*
X58023945Y-77798584D01*
X58029409Y-77796729D01*
X58029414Y-77796728D01*
X58210693Y-77735192D01*
X58210698Y-77735190D01*
X58216165Y-77733334D01*
X58393276Y-77634147D01*
X58432969Y-77601135D01*
X58544913Y-77508031D01*
X58549345Y-77504345D01*
X58679147Y-77348276D01*
X58754811Y-77213168D01*
X58775510Y-77176208D01*
X58775511Y-77176206D01*
X58778334Y-77171165D01*
X58780190Y-77165698D01*
X58780192Y-77165693D01*
X58841728Y-76984414D01*
X58841729Y-76984409D01*
X58843584Y-76978945D01*
X58844412Y-76973236D01*
X58844413Y-76973231D01*
X58872179Y-76781727D01*
X58872712Y-76778053D01*
X58874232Y-76720000D01*
X58855658Y-76517859D01*
X58853090Y-76508752D01*
X58802125Y-76328046D01*
X58802124Y-76328044D01*
X58800557Y-76322487D01*
X58789978Y-76301033D01*
X58713331Y-76145609D01*
X58710776Y-76140428D01*
X58589320Y-75977779D01*
X58445609Y-75844933D01*
X59200500Y-75844933D01*
X59200501Y-77595066D01*
X59207539Y-77630453D01*
X59212635Y-77656071D01*
X59215266Y-77669301D01*
X59222161Y-77679620D01*
X59222162Y-77679622D01*
X59262516Y-77740015D01*
X59271516Y-77753484D01*
X59355699Y-77809734D01*
X59429933Y-77824500D01*
X60304858Y-77824500D01*
X61180066Y-77824499D01*
X61215818Y-77817388D01*
X61242126Y-77812156D01*
X61242128Y-77812155D01*
X61254301Y-77809734D01*
X61264621Y-77802839D01*
X61264622Y-77802838D01*
X61328168Y-77760377D01*
X61338484Y-77753484D01*
X61394734Y-77669301D01*
X61409500Y-77595067D01*
X61409499Y-76014933D01*
X67495500Y-76014933D01*
X67495501Y-77065066D01*
X67510266Y-77139301D01*
X67517161Y-77149620D01*
X67517162Y-77149622D01*
X67557516Y-77210015D01*
X67566516Y-77223484D01*
X67650699Y-77279734D01*
X67724933Y-77294500D01*
X68249915Y-77294500D01*
X68775066Y-77294499D01*
X68810818Y-77287388D01*
X68837126Y-77282156D01*
X68837128Y-77282155D01*
X68849301Y-77279734D01*
X68859621Y-77272839D01*
X68859622Y-77272838D01*
X68923168Y-77230377D01*
X68933484Y-77223484D01*
X68989734Y-77139301D01*
X69004500Y-77065067D01*
X69004499Y-76014934D01*
X68989734Y-75940699D01*
X68933484Y-75856516D01*
X68849301Y-75800266D01*
X68775067Y-75785500D01*
X68250085Y-75785500D01*
X67724934Y-75785501D01*
X67689182Y-75792612D01*
X67662874Y-75797844D01*
X67662872Y-75797845D01*
X67650699Y-75800266D01*
X67640379Y-75807161D01*
X67640378Y-75807162D01*
X67592935Y-75838863D01*
X67566516Y-75856516D01*
X67510266Y-75940699D01*
X67495500Y-76014933D01*
X61409499Y-76014933D01*
X61409499Y-75844934D01*
X61400133Y-75797844D01*
X61397156Y-75782874D01*
X61397155Y-75782872D01*
X61394734Y-75770699D01*
X61382976Y-75753101D01*
X61345377Y-75696832D01*
X61338484Y-75686516D01*
X61254301Y-75630266D01*
X61180067Y-75615500D01*
X60305142Y-75615500D01*
X59429934Y-75615501D01*
X59394182Y-75622612D01*
X59367874Y-75627844D01*
X59367872Y-75627845D01*
X59355699Y-75630266D01*
X59345379Y-75637161D01*
X59345378Y-75637162D01*
X59284985Y-75677516D01*
X59271516Y-75686516D01*
X59215266Y-75770699D01*
X59200500Y-75844933D01*
X58445609Y-75844933D01*
X58440258Y-75839987D01*
X58435375Y-75836906D01*
X58435371Y-75836903D01*
X58273464Y-75734748D01*
X58268581Y-75731667D01*
X58080039Y-75656446D01*
X58074379Y-75655320D01*
X58074375Y-75655319D01*
X57886613Y-75617971D01*
X57886610Y-75617971D01*
X57880946Y-75616844D01*
X57875171Y-75616768D01*
X57875167Y-75616768D01*
X57773793Y-75615441D01*
X57677971Y-75614187D01*
X57672274Y-75615166D01*
X57672273Y-75615166D01*
X57584397Y-75630266D01*
X57477910Y-75648564D01*
X57287463Y-75718824D01*
X57113010Y-75822612D01*
X57108670Y-75826418D01*
X57108666Y-75826421D01*
X57074350Y-75856516D01*
X56960392Y-75956455D01*
X56834720Y-76115869D01*
X56832031Y-76120980D01*
X56832029Y-76120983D01*
X56819073Y-76145609D01*
X56740203Y-76295515D01*
X56680007Y-76489378D01*
X56656148Y-76690964D01*
X49467973Y-76690964D01*
X49406538Y-76638494D01*
X49197911Y-76510647D01*
X49193341Y-76508754D01*
X49193337Y-76508752D01*
X48976425Y-76418905D01*
X48976423Y-76418904D01*
X48971852Y-76417011D01*
X48889548Y-76397252D01*
X48738742Y-76361046D01*
X48738736Y-76361045D01*
X48733929Y-76359891D01*
X48490000Y-76340693D01*
X48246071Y-76359891D01*
X48241264Y-76361045D01*
X48241258Y-76361046D01*
X48090452Y-76397252D01*
X48008148Y-76417011D01*
X48003577Y-76418904D01*
X48003575Y-76418905D01*
X47786663Y-76508752D01*
X47786659Y-76508754D01*
X47782089Y-76510647D01*
X47573462Y-76638494D01*
X47387403Y-76797403D01*
X47228494Y-76983462D01*
X47100647Y-77192089D01*
X47098754Y-77196659D01*
X47098752Y-77196663D01*
X47034113Y-77352718D01*
X47007011Y-77418148D01*
X47000703Y-77444424D01*
X46964537Y-77595067D01*
X46949891Y-77656071D01*
X46930693Y-77900000D01*
X46254500Y-77900000D01*
X46254500Y-74670000D01*
X49587445Y-74670000D01*
X49607977Y-74825953D01*
X49668172Y-74971277D01*
X49763929Y-75096071D01*
X49888722Y-75191828D01*
X50034047Y-75252023D01*
X50190000Y-75272555D01*
X50345953Y-75252023D01*
X50491278Y-75191828D01*
X50519725Y-75170000D01*
X52807445Y-75170000D01*
X52827977Y-75325953D01*
X52888172Y-75471277D01*
X52983929Y-75596071D01*
X53108722Y-75691828D01*
X53254047Y-75752023D01*
X53410000Y-75772555D01*
X53565953Y-75752023D01*
X53711278Y-75691828D01*
X53836071Y-75596071D01*
X53931828Y-75471277D01*
X53992023Y-75325953D01*
X54012555Y-75170000D01*
X53992023Y-75014047D01*
X53931828Y-74868723D01*
X53836071Y-74743929D01*
X53711278Y-74648172D01*
X53565953Y-74587977D01*
X53410000Y-74567445D01*
X53254047Y-74587977D01*
X53108723Y-74648172D01*
X52983929Y-74743929D01*
X52888172Y-74868723D01*
X52827977Y-75014047D01*
X52807445Y-75170000D01*
X50519725Y-75170000D01*
X50616071Y-75096071D01*
X50711828Y-74971277D01*
X50772023Y-74825953D01*
X50792555Y-74670000D01*
X50772023Y-74514047D01*
X50711828Y-74368723D01*
X50616071Y-74243929D01*
X50491278Y-74148172D01*
X50345953Y-74087977D01*
X50190000Y-74067445D01*
X50034047Y-74087977D01*
X49888723Y-74148172D01*
X49763929Y-74243929D01*
X49668172Y-74368723D01*
X49607977Y-74514047D01*
X49587445Y-74670000D01*
X46254500Y-74670000D01*
X46254500Y-74392083D01*
X46274502Y-74323962D01*
X46328158Y-74277469D01*
X46398432Y-74267365D01*
X46428715Y-74275673D01*
X46436413Y-74278861D01*
X46444047Y-74282023D01*
X46600000Y-74302555D01*
X46755953Y-74282023D01*
X46901278Y-74221828D01*
X47026071Y-74126071D01*
X47121828Y-74001277D01*
X47180347Y-73860000D01*
X60377445Y-73860000D01*
X60397977Y-74015953D01*
X60458172Y-74161277D01*
X60553929Y-74286071D01*
X60678722Y-74381828D01*
X60824047Y-74442023D01*
X60980000Y-74462555D01*
X61135953Y-74442023D01*
X61281278Y-74381828D01*
X61406071Y-74286071D01*
X61501828Y-74161277D01*
X61562023Y-74015953D01*
X61581238Y-73870000D01*
X62597445Y-73870000D01*
X62617977Y-74025953D01*
X62678172Y-74171277D01*
X62773929Y-74296071D01*
X62898722Y-74391828D01*
X63044047Y-74452023D01*
X63200000Y-74472555D01*
X63355953Y-74452023D01*
X63501278Y-74391828D01*
X63626071Y-74296071D01*
X63721828Y-74171277D01*
X63782023Y-74025953D01*
X63802555Y-73870000D01*
X63782023Y-73714047D01*
X63721828Y-73568723D01*
X63661422Y-73490000D01*
X66657445Y-73490000D01*
X66677977Y-73645953D01*
X66738172Y-73791277D01*
X66833929Y-73916071D01*
X66958722Y-74011828D01*
X67104047Y-74072023D01*
X67260000Y-74092555D01*
X67415953Y-74072023D01*
X67561278Y-74011828D01*
X67686071Y-73916071D01*
X67781828Y-73791277D01*
X67842023Y-73645953D01*
X67862555Y-73490000D01*
X67842023Y-73334047D01*
X67781828Y-73188723D01*
X67686071Y-73063929D01*
X67561278Y-72968172D01*
X67415953Y-72907977D01*
X67260000Y-72887445D01*
X67104047Y-72907977D01*
X66958723Y-72968172D01*
X66833929Y-73063929D01*
X66738172Y-73188723D01*
X66677977Y-73334047D01*
X66657445Y-73490000D01*
X63661422Y-73490000D01*
X63626071Y-73443929D01*
X63501278Y-73348172D01*
X63355953Y-73287977D01*
X63200000Y-73267445D01*
X63044047Y-73287977D01*
X62898723Y-73348172D01*
X62773929Y-73443929D01*
X62678172Y-73568723D01*
X62617977Y-73714047D01*
X62597445Y-73870000D01*
X61581238Y-73870000D01*
X61582555Y-73860000D01*
X61562023Y-73704047D01*
X61501828Y-73558723D01*
X61406071Y-73433929D01*
X61281278Y-73338172D01*
X61135953Y-73277977D01*
X60980000Y-73257445D01*
X60824047Y-73277977D01*
X60678723Y-73338172D01*
X60553929Y-73433929D01*
X60458172Y-73558723D01*
X60397977Y-73704047D01*
X60377445Y-73860000D01*
X47180347Y-73860000D01*
X47182023Y-73855953D01*
X47202555Y-73700000D01*
X47182023Y-73544047D01*
X47121828Y-73398723D01*
X47026071Y-73273929D01*
X46901278Y-73178172D01*
X46755953Y-73117977D01*
X46600000Y-73097445D01*
X46444047Y-73117977D01*
X46436414Y-73121139D01*
X46436413Y-73121139D01*
X46428715Y-73124327D01*
X46358125Y-73131914D01*
X46294639Y-73100133D01*
X46258413Y-73039074D01*
X46254500Y-73007917D01*
X46254500Y-71300000D01*
X58187445Y-71300000D01*
X58207977Y-71455953D01*
X58268172Y-71601277D01*
X58363929Y-71726071D01*
X58488722Y-71821828D01*
X58587914Y-71862914D01*
X58626416Y-71878862D01*
X58634047Y-71882023D01*
X58633879Y-71882429D01*
X58689916Y-71916587D01*
X58720937Y-71980448D01*
X58712507Y-72050942D01*
X58667303Y-72105688D01*
X58643464Y-72116570D01*
X58644047Y-72117977D01*
X58498723Y-72178172D01*
X58373929Y-72273929D01*
X58278172Y-72398723D01*
X58217977Y-72544047D01*
X58197445Y-72700000D01*
X58217977Y-72855953D01*
X58278172Y-73001277D01*
X58373929Y-73126071D01*
X58498722Y-73221828D01*
X58644047Y-73282023D01*
X58800000Y-73302555D01*
X58955953Y-73282023D01*
X59101278Y-73221828D01*
X59226071Y-73126071D01*
X59321828Y-73001277D01*
X59382023Y-72855953D01*
X59402555Y-72700000D01*
X59382023Y-72544047D01*
X59321828Y-72398723D01*
X59226071Y-72273929D01*
X59101278Y-72178172D01*
X58955953Y-72117977D01*
X58956121Y-72117571D01*
X58900084Y-72083413D01*
X58869063Y-72019552D01*
X58877493Y-71949058D01*
X58922697Y-71894312D01*
X58946536Y-71883430D01*
X58945953Y-71882023D01*
X58953584Y-71878862D01*
X59091278Y-71821828D01*
X59216071Y-71726071D01*
X59311828Y-71601277D01*
X59372023Y-71455953D01*
X59392555Y-71300000D01*
X59372023Y-71144047D01*
X59311828Y-70998723D01*
X59216071Y-70873929D01*
X59091278Y-70778172D01*
X58945953Y-70717977D01*
X58790000Y-70697445D01*
X58634047Y-70717977D01*
X58488723Y-70778172D01*
X58363929Y-70873929D01*
X58268172Y-70998723D01*
X58207977Y-71144047D01*
X58187445Y-71300000D01*
X46254500Y-71300000D01*
X46254500Y-68474933D01*
X50745500Y-68474933D01*
X50745501Y-69525066D01*
X50760266Y-69599301D01*
X50816516Y-69683484D01*
X50900699Y-69739734D01*
X50974933Y-69754500D01*
X51499915Y-69754500D01*
X52025066Y-69754499D01*
X52060818Y-69747388D01*
X52087126Y-69742156D01*
X52087128Y-69742155D01*
X52099301Y-69739734D01*
X52109621Y-69732839D01*
X52109622Y-69732838D01*
X52173168Y-69690377D01*
X52183484Y-69683484D01*
X52239734Y-69599301D01*
X52254500Y-69525067D01*
X52254500Y-69470964D01*
X66716148Y-69470964D01*
X66729424Y-69673522D01*
X66730845Y-69679118D01*
X66730846Y-69679123D01*
X66749990Y-69754500D01*
X66779392Y-69870269D01*
X66781809Y-69875512D01*
X66819010Y-69956208D01*
X66864377Y-70054616D01*
X66981533Y-70220389D01*
X67126938Y-70362035D01*
X67295720Y-70474812D01*
X67301023Y-70477090D01*
X67301026Y-70477092D01*
X67432283Y-70533484D01*
X67482228Y-70554942D01*
X67555244Y-70571464D01*
X67674579Y-70598467D01*
X67674584Y-70598468D01*
X67680216Y-70599742D01*
X67685987Y-70599969D01*
X67685989Y-70599969D01*
X67745756Y-70602317D01*
X67883053Y-70607712D01*
X67990348Y-70592155D01*
X68078231Y-70579413D01*
X68078236Y-70579412D01*
X68083945Y-70578584D01*
X68089409Y-70576729D01*
X68089414Y-70576728D01*
X68270693Y-70515192D01*
X68270698Y-70515190D01*
X68276165Y-70513334D01*
X68453276Y-70414147D01*
X68492969Y-70381135D01*
X68604913Y-70288031D01*
X68609345Y-70284345D01*
X68739147Y-70128276D01*
X68838334Y-69951165D01*
X68840190Y-69945698D01*
X68840192Y-69945693D01*
X68901728Y-69764414D01*
X68901729Y-69764409D01*
X68903584Y-69758945D01*
X68904412Y-69753236D01*
X68904413Y-69753231D01*
X68928496Y-69587128D01*
X68932712Y-69558053D01*
X68934232Y-69500000D01*
X68931564Y-69470964D01*
X69256148Y-69470964D01*
X69269424Y-69673522D01*
X69270845Y-69679118D01*
X69270846Y-69679123D01*
X69289990Y-69754500D01*
X69319392Y-69870269D01*
X69321809Y-69875512D01*
X69359010Y-69956208D01*
X69404377Y-70054616D01*
X69521533Y-70220389D01*
X69666938Y-70362035D01*
X69835720Y-70474812D01*
X69841023Y-70477090D01*
X69841026Y-70477092D01*
X69972283Y-70533484D01*
X70022228Y-70554942D01*
X70095244Y-70571464D01*
X70214579Y-70598467D01*
X70214584Y-70598468D01*
X70220216Y-70599742D01*
X70225987Y-70599969D01*
X70225989Y-70599969D01*
X70285756Y-70602317D01*
X70423053Y-70607712D01*
X70530348Y-70592155D01*
X70618231Y-70579413D01*
X70618236Y-70579412D01*
X70623945Y-70578584D01*
X70629409Y-70576729D01*
X70629414Y-70576728D01*
X70810693Y-70515192D01*
X70810698Y-70515190D01*
X70816165Y-70513334D01*
X70993276Y-70414147D01*
X71032969Y-70381135D01*
X71144913Y-70288031D01*
X71149345Y-70284345D01*
X71279147Y-70128276D01*
X71378334Y-69951165D01*
X71380190Y-69945698D01*
X71380192Y-69945693D01*
X71441728Y-69764414D01*
X71441729Y-69764409D01*
X71443584Y-69758945D01*
X71444412Y-69753236D01*
X71444413Y-69753231D01*
X71468496Y-69587128D01*
X71472712Y-69558053D01*
X71474232Y-69500000D01*
X71455658Y-69297859D01*
X71454090Y-69292299D01*
X71402125Y-69108046D01*
X71402124Y-69108044D01*
X71400557Y-69102487D01*
X71389978Y-69081033D01*
X71313331Y-68925609D01*
X71310776Y-68920428D01*
X71189320Y-68757779D01*
X71045609Y-68624933D01*
X71800500Y-68624933D01*
X71800501Y-70375066D01*
X71815266Y-70449301D01*
X71822161Y-70459620D01*
X71822162Y-70459622D01*
X71862516Y-70520015D01*
X71871516Y-70533484D01*
X71955699Y-70589734D01*
X72029933Y-70604500D01*
X72059011Y-70604500D01*
X73413874Y-70604499D01*
X73481994Y-70624501D01*
X73528487Y-70678157D01*
X73538591Y-70748431D01*
X73509098Y-70813011D01*
X73490576Y-70830462D01*
X73440478Y-70868903D01*
X73440475Y-70868906D01*
X73433929Y-70873929D01*
X73338172Y-70998723D01*
X73277977Y-71144047D01*
X73257445Y-71300000D01*
X73277977Y-71455953D01*
X73338172Y-71601277D01*
X73433929Y-71726071D01*
X73558722Y-71821828D01*
X73704047Y-71882023D01*
X73860000Y-71902555D01*
X74015953Y-71882023D01*
X74161278Y-71821828D01*
X74286071Y-71726071D01*
X74381828Y-71601277D01*
X74442023Y-71455953D01*
X74462555Y-71300000D01*
X74442023Y-71144047D01*
X74381828Y-70998723D01*
X74286071Y-70873929D01*
X74161278Y-70778172D01*
X74015953Y-70717977D01*
X74012867Y-70717571D01*
X73954281Y-70681863D01*
X73923258Y-70618003D01*
X73931685Y-70547508D01*
X73942748Y-70527103D01*
X73987839Y-70459620D01*
X73994734Y-70449301D01*
X74009500Y-70375067D01*
X74009499Y-68624934D01*
X73994734Y-68550699D01*
X73968654Y-68511667D01*
X73945377Y-68476832D01*
X73938484Y-68466516D01*
X73854301Y-68410266D01*
X73780067Y-68395500D01*
X72905142Y-68395500D01*
X72029934Y-68395501D01*
X72003800Y-68400699D01*
X71967874Y-68407844D01*
X71967872Y-68407845D01*
X71955699Y-68410266D01*
X71945379Y-68417161D01*
X71945378Y-68417162D01*
X71884985Y-68457516D01*
X71871516Y-68466516D01*
X71815266Y-68550699D01*
X71800500Y-68624933D01*
X71045609Y-68624933D01*
X71040258Y-68619987D01*
X71035375Y-68616906D01*
X71035371Y-68616903D01*
X70873464Y-68514748D01*
X70868581Y-68511667D01*
X70680039Y-68436446D01*
X70674379Y-68435320D01*
X70674375Y-68435319D01*
X70486613Y-68397971D01*
X70486610Y-68397971D01*
X70480946Y-68396844D01*
X70475171Y-68396768D01*
X70475167Y-68396768D01*
X70373793Y-68395441D01*
X70277971Y-68394187D01*
X70272274Y-68395166D01*
X70272273Y-68395166D01*
X70144271Y-68417161D01*
X70077910Y-68428564D01*
X69887463Y-68498824D01*
X69713010Y-68602612D01*
X69708670Y-68606418D01*
X69708666Y-68606421D01*
X69564733Y-68732648D01*
X69560392Y-68736455D01*
X69434720Y-68895869D01*
X69432031Y-68900980D01*
X69432029Y-68900983D01*
X69419073Y-68925609D01*
X69340203Y-69075515D01*
X69280007Y-69269378D01*
X69256148Y-69470964D01*
X68931564Y-69470964D01*
X68915658Y-69297859D01*
X68914090Y-69292299D01*
X68862125Y-69108046D01*
X68862124Y-69108044D01*
X68860557Y-69102487D01*
X68849978Y-69081033D01*
X68773331Y-68925609D01*
X68770776Y-68920428D01*
X68649320Y-68757779D01*
X68500258Y-68619987D01*
X68495375Y-68616906D01*
X68495371Y-68616903D01*
X68333464Y-68514748D01*
X68328581Y-68511667D01*
X68140039Y-68436446D01*
X68134379Y-68435320D01*
X68134375Y-68435319D01*
X67946613Y-68397971D01*
X67946610Y-68397971D01*
X67940946Y-68396844D01*
X67935171Y-68396768D01*
X67935167Y-68396768D01*
X67833793Y-68395441D01*
X67737971Y-68394187D01*
X67732274Y-68395166D01*
X67732273Y-68395166D01*
X67604271Y-68417161D01*
X67537910Y-68428564D01*
X67347463Y-68498824D01*
X67173010Y-68602612D01*
X67168670Y-68606418D01*
X67168666Y-68606421D01*
X67024733Y-68732648D01*
X67020392Y-68736455D01*
X66894720Y-68895869D01*
X66892031Y-68900980D01*
X66892029Y-68900983D01*
X66879073Y-68925609D01*
X66800203Y-69075515D01*
X66740007Y-69269378D01*
X66716148Y-69470964D01*
X52254500Y-69470964D01*
X52254499Y-68474934D01*
X52245082Y-68427585D01*
X52242156Y-68412874D01*
X52242155Y-68412872D01*
X52239734Y-68400699D01*
X52183484Y-68316516D01*
X52099301Y-68260266D01*
X52025067Y-68245500D01*
X51500085Y-68245500D01*
X50974934Y-68245501D01*
X50939182Y-68252612D01*
X50912874Y-68257844D01*
X50912872Y-68257845D01*
X50900699Y-68260266D01*
X50890379Y-68267161D01*
X50890378Y-68267162D01*
X50829985Y-68307516D01*
X50816516Y-68316516D01*
X50760266Y-68400699D01*
X50745500Y-68474933D01*
X46254500Y-68474933D01*
X46254500Y-66410000D01*
X56407445Y-66410000D01*
X56427977Y-66565953D01*
X56488172Y-66711277D01*
X56583929Y-66836071D01*
X56708722Y-66931828D01*
X56854047Y-66992023D01*
X57010000Y-67012555D01*
X57165953Y-66992023D01*
X57311278Y-66931828D01*
X57436071Y-66836071D01*
X57531828Y-66711277D01*
X57561352Y-66640000D01*
X66287445Y-66640000D01*
X66307977Y-66795953D01*
X66368172Y-66941277D01*
X66463929Y-67066071D01*
X66588722Y-67161828D01*
X66734047Y-67222023D01*
X66890000Y-67242555D01*
X67045953Y-67222023D01*
X67191278Y-67161828D01*
X67316071Y-67066071D01*
X67411828Y-66941277D01*
X67472023Y-66795953D01*
X67492555Y-66640000D01*
X67472023Y-66484047D01*
X67411828Y-66338723D01*
X67316071Y-66213929D01*
X67191278Y-66118172D01*
X67045953Y-66057977D01*
X66890000Y-66037445D01*
X66734047Y-66057977D01*
X66588723Y-66118172D01*
X66463929Y-66213929D01*
X66368172Y-66338723D01*
X66307977Y-66484047D01*
X66287445Y-66640000D01*
X57561352Y-66640000D01*
X57592023Y-66565953D01*
X57612555Y-66410000D01*
X57592023Y-66254047D01*
X57531828Y-66108723D01*
X57436071Y-65983929D01*
X57311278Y-65888172D01*
X57243264Y-65860000D01*
X62827445Y-65860000D01*
X62847977Y-66015953D01*
X62908172Y-66161277D01*
X63003929Y-66286071D01*
X63128722Y-66381828D01*
X63274047Y-66442023D01*
X63430000Y-66462555D01*
X63585953Y-66442023D01*
X63731278Y-66381828D01*
X63856071Y-66286071D01*
X63951828Y-66161277D01*
X64012023Y-66015953D01*
X64032555Y-65860000D01*
X64012023Y-65704047D01*
X63951828Y-65558723D01*
X63856071Y-65433929D01*
X63845677Y-65425953D01*
X63821985Y-65407774D01*
X63731278Y-65338172D01*
X63585953Y-65277977D01*
X63430000Y-65257445D01*
X63274047Y-65277977D01*
X63128723Y-65338172D01*
X63003929Y-65433929D01*
X62908172Y-65558723D01*
X62847977Y-65704047D01*
X62827445Y-65860000D01*
X57243264Y-65860000D01*
X57165953Y-65827977D01*
X57010000Y-65807445D01*
X56854047Y-65827977D01*
X56708723Y-65888172D01*
X56583929Y-65983929D01*
X56488172Y-66108723D01*
X56427977Y-66254047D01*
X56407445Y-66410000D01*
X46254500Y-66410000D01*
X46254500Y-65270000D01*
X48397445Y-65270000D01*
X48417977Y-65425953D01*
X48478172Y-65571277D01*
X48573929Y-65696071D01*
X48580475Y-65701094D01*
X48594996Y-65712236D01*
X48698722Y-65791828D01*
X48844047Y-65852023D01*
X49000000Y-65872555D01*
X49155953Y-65852023D01*
X49301278Y-65791828D01*
X49405004Y-65712236D01*
X49419525Y-65701094D01*
X49426071Y-65696071D01*
X49521828Y-65571277D01*
X49582023Y-65425953D01*
X49602555Y-65270000D01*
X49582023Y-65114047D01*
X49521828Y-64968723D01*
X49426071Y-64843929D01*
X49316693Y-64760000D01*
X59417445Y-64760000D01*
X59437977Y-64915953D01*
X59498172Y-65061277D01*
X59593929Y-65186071D01*
X59718722Y-65281828D01*
X59864047Y-65342023D01*
X60020000Y-65362555D01*
X60175953Y-65342023D01*
X60321278Y-65281828D01*
X60446071Y-65186071D01*
X60541828Y-65061277D01*
X60602023Y-64915953D01*
X60622555Y-64760000D01*
X60602023Y-64604047D01*
X60541828Y-64458723D01*
X60446071Y-64333929D01*
X60321278Y-64238172D01*
X60175953Y-64177977D01*
X60020000Y-64157445D01*
X59864047Y-64177977D01*
X59718723Y-64238172D01*
X59593929Y-64333929D01*
X59498172Y-64458723D01*
X59437977Y-64604047D01*
X59417445Y-64760000D01*
X49316693Y-64760000D01*
X49301278Y-64748172D01*
X49155953Y-64687977D01*
X49000000Y-64667445D01*
X48844047Y-64687977D01*
X48698723Y-64748172D01*
X48573929Y-64843929D01*
X48478172Y-64968723D01*
X48417977Y-65114047D01*
X48397445Y-65270000D01*
X46254500Y-65270000D01*
X46254500Y-62820964D01*
X46921148Y-62820964D01*
X46934424Y-63023522D01*
X46935845Y-63029118D01*
X46935846Y-63029123D01*
X46967720Y-63154623D01*
X46984392Y-63220269D01*
X46986809Y-63225512D01*
X47022081Y-63302023D01*
X47069377Y-63404616D01*
X47186533Y-63570389D01*
X47331938Y-63712035D01*
X47500720Y-63824812D01*
X47506023Y-63827090D01*
X47506026Y-63827092D01*
X47637283Y-63883484D01*
X47687228Y-63904942D01*
X47760244Y-63921464D01*
X47879579Y-63948467D01*
X47879584Y-63948468D01*
X47885216Y-63949742D01*
X47890987Y-63949969D01*
X47890989Y-63949969D01*
X47950756Y-63952317D01*
X48088053Y-63957712D01*
X48195348Y-63942155D01*
X48283231Y-63929413D01*
X48283236Y-63929412D01*
X48288945Y-63928584D01*
X48294409Y-63926729D01*
X48294414Y-63926728D01*
X48475693Y-63865192D01*
X48475698Y-63865190D01*
X48481165Y-63863334D01*
X48658276Y-63764147D01*
X48697969Y-63731135D01*
X48809913Y-63638031D01*
X48814345Y-63634345D01*
X48871463Y-63565669D01*
X48940453Y-63482718D01*
X48940455Y-63482715D01*
X48944147Y-63478276D01*
X49032823Y-63319934D01*
X49040510Y-63306208D01*
X49040511Y-63306206D01*
X49043334Y-63301165D01*
X49045190Y-63295698D01*
X49045192Y-63295693D01*
X49106728Y-63114414D01*
X49106729Y-63114409D01*
X49108584Y-63108945D01*
X49109412Y-63103236D01*
X49109413Y-63103231D01*
X49135502Y-62923293D01*
X49137712Y-62908053D01*
X49139232Y-62850000D01*
X49136564Y-62820964D01*
X49461148Y-62820964D01*
X49474424Y-63023522D01*
X49475845Y-63029118D01*
X49475846Y-63029123D01*
X49507720Y-63154623D01*
X49524392Y-63220269D01*
X49526809Y-63225512D01*
X49562081Y-63302023D01*
X49609377Y-63404616D01*
X49726533Y-63570389D01*
X49871938Y-63712035D01*
X50040720Y-63824812D01*
X50046023Y-63827090D01*
X50046026Y-63827092D01*
X50177283Y-63883484D01*
X50227228Y-63904942D01*
X50300244Y-63921464D01*
X50419579Y-63948467D01*
X50419584Y-63948468D01*
X50425216Y-63949742D01*
X50430987Y-63949969D01*
X50430989Y-63949969D01*
X50490756Y-63952317D01*
X50628053Y-63957712D01*
X50735348Y-63942155D01*
X50823231Y-63929413D01*
X50823236Y-63929412D01*
X50828945Y-63928584D01*
X50834409Y-63926729D01*
X50834414Y-63926728D01*
X51015693Y-63865192D01*
X51015698Y-63865190D01*
X51021165Y-63863334D01*
X51198276Y-63764147D01*
X51237969Y-63731135D01*
X51349913Y-63638031D01*
X51354345Y-63634345D01*
X51411463Y-63565669D01*
X51480453Y-63482718D01*
X51480455Y-63482715D01*
X51484147Y-63478276D01*
X51572823Y-63319934D01*
X51580510Y-63306208D01*
X51580511Y-63306206D01*
X51583334Y-63301165D01*
X51585190Y-63295698D01*
X51585192Y-63295693D01*
X51646728Y-63114414D01*
X51646729Y-63114409D01*
X51648584Y-63108945D01*
X51649412Y-63103236D01*
X51649413Y-63103231D01*
X51675502Y-62923293D01*
X51677712Y-62908053D01*
X51679232Y-62850000D01*
X51662710Y-62670192D01*
X51661187Y-62653613D01*
X51661186Y-62653610D01*
X51660658Y-62647859D01*
X51654663Y-62626602D01*
X51607125Y-62458046D01*
X51607124Y-62458044D01*
X51605557Y-62452487D01*
X51599077Y-62439345D01*
X51518331Y-62275609D01*
X51515776Y-62270428D01*
X51394320Y-62107779D01*
X51250609Y-61974933D01*
X52005500Y-61974933D01*
X52005501Y-63725066D01*
X52020266Y-63799301D01*
X52027161Y-63809620D01*
X52027162Y-63809622D01*
X52067516Y-63870015D01*
X52076516Y-63883484D01*
X52160699Y-63939734D01*
X52234933Y-63954500D01*
X53109858Y-63954500D01*
X53985066Y-63954499D01*
X54020818Y-63947388D01*
X54047126Y-63942156D01*
X54047128Y-63942155D01*
X54059301Y-63939734D01*
X54069621Y-63932839D01*
X54069622Y-63932838D01*
X54133168Y-63890377D01*
X54143484Y-63883484D01*
X54199734Y-63799301D01*
X54214500Y-63725067D01*
X54214499Y-61974934D01*
X54207388Y-61939182D01*
X54202156Y-61912874D01*
X54202155Y-61912872D01*
X54199734Y-61900699D01*
X54173654Y-61861667D01*
X54150377Y-61826832D01*
X54143484Y-61816516D01*
X54059301Y-61760266D01*
X53985067Y-61745500D01*
X53110142Y-61745500D01*
X52234934Y-61745501D01*
X52199182Y-61752612D01*
X52172874Y-61757844D01*
X52172872Y-61757845D01*
X52160699Y-61760266D01*
X52150379Y-61767161D01*
X52150378Y-61767162D01*
X52089985Y-61807516D01*
X52076516Y-61816516D01*
X52020266Y-61900699D01*
X52005500Y-61974933D01*
X51250609Y-61974933D01*
X51245258Y-61969987D01*
X51240375Y-61966906D01*
X51240371Y-61966903D01*
X51078464Y-61864748D01*
X51073581Y-61861667D01*
X50885039Y-61786446D01*
X50879379Y-61785320D01*
X50879375Y-61785319D01*
X50691613Y-61747971D01*
X50691610Y-61747971D01*
X50685946Y-61746844D01*
X50680171Y-61746768D01*
X50680167Y-61746768D01*
X50578793Y-61745441D01*
X50482971Y-61744187D01*
X50477274Y-61745166D01*
X50477273Y-61745166D01*
X50389397Y-61760266D01*
X50282910Y-61778564D01*
X50092463Y-61848824D01*
X49918010Y-61952612D01*
X49913670Y-61956418D01*
X49913666Y-61956421D01*
X49835161Y-62025269D01*
X49765392Y-62086455D01*
X49639720Y-62245869D01*
X49637031Y-62250980D01*
X49637029Y-62250983D01*
X49617702Y-62287718D01*
X49545203Y-62425515D01*
X49485007Y-62619378D01*
X49461148Y-62820964D01*
X49136564Y-62820964D01*
X49122710Y-62670192D01*
X49121187Y-62653613D01*
X49121186Y-62653610D01*
X49120658Y-62647859D01*
X49114663Y-62626602D01*
X49067125Y-62458046D01*
X49067124Y-62458044D01*
X49065557Y-62452487D01*
X49059077Y-62439345D01*
X48978331Y-62275609D01*
X48975776Y-62270428D01*
X48854320Y-62107779D01*
X48705258Y-61969987D01*
X48700375Y-61966906D01*
X48700371Y-61966903D01*
X48538464Y-61864748D01*
X48533581Y-61861667D01*
X48345039Y-61786446D01*
X48339379Y-61785320D01*
X48339375Y-61785319D01*
X48151613Y-61747971D01*
X48151610Y-61747971D01*
X48145946Y-61746844D01*
X48140171Y-61746768D01*
X48140167Y-61746768D01*
X48038793Y-61745441D01*
X47942971Y-61744187D01*
X47937274Y-61745166D01*
X47937273Y-61745166D01*
X47849397Y-61760266D01*
X47742910Y-61778564D01*
X47552463Y-61848824D01*
X47378010Y-61952612D01*
X47373670Y-61956418D01*
X47373666Y-61956421D01*
X47295161Y-62025269D01*
X47225392Y-62086455D01*
X47099720Y-62245869D01*
X47097031Y-62250980D01*
X47097029Y-62250983D01*
X47077702Y-62287718D01*
X47005203Y-62425515D01*
X46945007Y-62619378D01*
X46921148Y-62820964D01*
X46254500Y-62820964D01*
X46254500Y-61644933D01*
X59405500Y-61644933D01*
X59405501Y-62695066D01*
X59410058Y-62717977D01*
X59417117Y-62753467D01*
X59420266Y-62769301D01*
X59427161Y-62779621D01*
X59427162Y-62779622D01*
X59458639Y-62826730D01*
X59476516Y-62853484D01*
X59560699Y-62909734D01*
X59634933Y-62924500D01*
X60159915Y-62924500D01*
X60685066Y-62924499D01*
X60743499Y-62912877D01*
X60814213Y-62919206D01*
X60870279Y-62962761D01*
X60884486Y-62988237D01*
X60898172Y-63021277D01*
X60993929Y-63146071D01*
X61118722Y-63241828D01*
X61264047Y-63302023D01*
X61420000Y-63322555D01*
X61575953Y-63302023D01*
X61721278Y-63241828D01*
X61846071Y-63146071D01*
X61941828Y-63021277D01*
X61996205Y-62890000D01*
X64737445Y-62890000D01*
X64757977Y-63045953D01*
X64818172Y-63191277D01*
X64913929Y-63316071D01*
X65038722Y-63411828D01*
X65184047Y-63472023D01*
X65340000Y-63492555D01*
X65495953Y-63472023D01*
X65641278Y-63411828D01*
X65766071Y-63316071D01*
X65778403Y-63300000D01*
X67097445Y-63300000D01*
X67117977Y-63455953D01*
X67178172Y-63601277D01*
X67273929Y-63726071D01*
X67280475Y-63731094D01*
X67382815Y-63809622D01*
X67398722Y-63821828D01*
X67544047Y-63882023D01*
X67700000Y-63902555D01*
X67855953Y-63882023D01*
X68001278Y-63821828D01*
X68017186Y-63809622D01*
X68119525Y-63731094D01*
X68126071Y-63726071D01*
X68221828Y-63601277D01*
X68282023Y-63455953D01*
X68302555Y-63300000D01*
X69447445Y-63300000D01*
X69467977Y-63455953D01*
X69528172Y-63601277D01*
X69623929Y-63726071D01*
X69630475Y-63731094D01*
X69732815Y-63809622D01*
X69748722Y-63821828D01*
X69894047Y-63882023D01*
X70050000Y-63902555D01*
X70205953Y-63882023D01*
X70351278Y-63821828D01*
X70367186Y-63809622D01*
X70469525Y-63731094D01*
X70476071Y-63726071D01*
X70571828Y-63601277D01*
X70632023Y-63455953D01*
X70649931Y-63319933D01*
X71785500Y-63319933D01*
X71785501Y-65070066D01*
X71792612Y-65105818D01*
X71794249Y-65114047D01*
X71800266Y-65144301D01*
X71856516Y-65228484D01*
X71940699Y-65284734D01*
X72014933Y-65299500D01*
X72889858Y-65299500D01*
X73765066Y-65299499D01*
X73800818Y-65292388D01*
X73827126Y-65287156D01*
X73827128Y-65287155D01*
X73839301Y-65284734D01*
X73849621Y-65277839D01*
X73849622Y-65277838D01*
X73913168Y-65235377D01*
X73923484Y-65228484D01*
X73979734Y-65144301D01*
X73994500Y-65070067D01*
X73994499Y-63319934D01*
X73979734Y-63245699D01*
X73966246Y-63225512D01*
X73930377Y-63171832D01*
X73923484Y-63161516D01*
X73839301Y-63105266D01*
X73765067Y-63090500D01*
X72890142Y-63090500D01*
X72014934Y-63090501D01*
X71979182Y-63097612D01*
X71952874Y-63102844D01*
X71952872Y-63102845D01*
X71940699Y-63105266D01*
X71930379Y-63112161D01*
X71930378Y-63112162D01*
X71927008Y-63114414D01*
X71856516Y-63161516D01*
X71849623Y-63171832D01*
X71820997Y-63214674D01*
X71800266Y-63245699D01*
X71785500Y-63319933D01*
X70649931Y-63319933D01*
X70652555Y-63300000D01*
X70632023Y-63144047D01*
X70571828Y-62998723D01*
X70476071Y-62873929D01*
X70351278Y-62778172D01*
X70205953Y-62717977D01*
X70050000Y-62697445D01*
X69894047Y-62717977D01*
X69748723Y-62778172D01*
X69623929Y-62873929D01*
X69528172Y-62998723D01*
X69467977Y-63144047D01*
X69447445Y-63300000D01*
X68302555Y-63300000D01*
X68282023Y-63144047D01*
X68221828Y-62998723D01*
X68126071Y-62873929D01*
X68001278Y-62778172D01*
X67855953Y-62717977D01*
X67700000Y-62697445D01*
X67544047Y-62717977D01*
X67398723Y-62778172D01*
X67273929Y-62873929D01*
X67178172Y-62998723D01*
X67117977Y-63144047D01*
X67097445Y-63300000D01*
X65778403Y-63300000D01*
X65861828Y-63191277D01*
X65922023Y-63045953D01*
X65942555Y-62890000D01*
X65922023Y-62734047D01*
X65861828Y-62588723D01*
X65766071Y-62463929D01*
X65751160Y-62452487D01*
X65716009Y-62425515D01*
X65641278Y-62368172D01*
X65495953Y-62307977D01*
X65340000Y-62287445D01*
X65184047Y-62307977D01*
X65038723Y-62368172D01*
X64913929Y-62463929D01*
X64818172Y-62588723D01*
X64757977Y-62734047D01*
X64737445Y-62890000D01*
X61996205Y-62890000D01*
X62002023Y-62875953D01*
X62022555Y-62720000D01*
X62002023Y-62564047D01*
X61941828Y-62418723D01*
X61846071Y-62293929D01*
X61721278Y-62198172D01*
X61575953Y-62137977D01*
X61420000Y-62117445D01*
X61264047Y-62137977D01*
X61118723Y-62198172D01*
X61112171Y-62203199D01*
X61105018Y-62207329D01*
X61103468Y-62204644D01*
X61051006Y-62224936D01*
X60981455Y-62210684D01*
X60930650Y-62161092D01*
X60914500Y-62099375D01*
X60914499Y-61651123D01*
X60914499Y-61644934D01*
X60910726Y-61625964D01*
X71781148Y-61625964D01*
X71794424Y-61828522D01*
X71795845Y-61834118D01*
X71795846Y-61834123D01*
X71831608Y-61974933D01*
X71844392Y-62025269D01*
X71846809Y-62030512D01*
X71882430Y-62107779D01*
X71929377Y-62209616D01*
X71932710Y-62214332D01*
X72041433Y-62368172D01*
X72046533Y-62375389D01*
X72191938Y-62517035D01*
X72360720Y-62629812D01*
X72366023Y-62632090D01*
X72366026Y-62632092D01*
X72526734Y-62701137D01*
X72547228Y-62709942D01*
X72620033Y-62726416D01*
X72739579Y-62753467D01*
X72739584Y-62753468D01*
X72745216Y-62754742D01*
X72750987Y-62754969D01*
X72750989Y-62754969D01*
X72805889Y-62757126D01*
X72948053Y-62762712D01*
X73048499Y-62748148D01*
X73143231Y-62734413D01*
X73143236Y-62734412D01*
X73148945Y-62733584D01*
X73154409Y-62731729D01*
X73154414Y-62731728D01*
X73335693Y-62670192D01*
X73335698Y-62670190D01*
X73341165Y-62668334D01*
X73518276Y-62569147D01*
X73524409Y-62564047D01*
X73669913Y-62443031D01*
X73674345Y-62439345D01*
X73733539Y-62368172D01*
X73800453Y-62287718D01*
X73800455Y-62287715D01*
X73804147Y-62283276D01*
X73883748Y-62141138D01*
X73900510Y-62111208D01*
X73900511Y-62111206D01*
X73903334Y-62106165D01*
X73905190Y-62100698D01*
X73905192Y-62100693D01*
X73966728Y-61919414D01*
X73966729Y-61919409D01*
X73968584Y-61913945D01*
X73969412Y-61908236D01*
X73969413Y-61908231D01*
X73988355Y-61777585D01*
X73997712Y-61713053D01*
X73999232Y-61655000D01*
X73980658Y-61452859D01*
X73974286Y-61430266D01*
X73927125Y-61263046D01*
X73927124Y-61263044D01*
X73925557Y-61257487D01*
X73914978Y-61236033D01*
X73838331Y-61080609D01*
X73835776Y-61075428D01*
X73714320Y-60912779D01*
X73565258Y-60774987D01*
X73560375Y-60771906D01*
X73560371Y-60771903D01*
X73398464Y-60669748D01*
X73393581Y-60666667D01*
X73205039Y-60591446D01*
X73199379Y-60590320D01*
X73199375Y-60590319D01*
X73011613Y-60552971D01*
X73011610Y-60552971D01*
X73005946Y-60551844D01*
X73000171Y-60551768D01*
X73000167Y-60551768D01*
X72898793Y-60550441D01*
X72802971Y-60549187D01*
X72797274Y-60550166D01*
X72797273Y-60550166D01*
X72608607Y-60582585D01*
X72602910Y-60583564D01*
X72412463Y-60653824D01*
X72238010Y-60757612D01*
X72233670Y-60761418D01*
X72233666Y-60761421D01*
X72213723Y-60778911D01*
X72085392Y-60891455D01*
X71959720Y-61050869D01*
X71957031Y-61055980D01*
X71957029Y-61055983D01*
X71944073Y-61080609D01*
X71865203Y-61230515D01*
X71805007Y-61424378D01*
X71781148Y-61625964D01*
X60910726Y-61625964D01*
X60899734Y-61570699D01*
X60843484Y-61486516D01*
X60759301Y-61430266D01*
X60685067Y-61415500D01*
X60160085Y-61415500D01*
X59634934Y-61415501D01*
X59599182Y-61422612D01*
X59572874Y-61427844D01*
X59572872Y-61427845D01*
X59560699Y-61430266D01*
X59550379Y-61437161D01*
X59550378Y-61437162D01*
X59518275Y-61458613D01*
X59476516Y-61486516D01*
X59420266Y-61570699D01*
X59405500Y-61644933D01*
X46254500Y-61644933D01*
X46254500Y-58844933D01*
X60035500Y-58844933D01*
X60035501Y-59895066D01*
X60050266Y-59969301D01*
X60057161Y-59979620D01*
X60057162Y-59979622D01*
X60061471Y-59986071D01*
X60106516Y-60053484D01*
X60190699Y-60109734D01*
X60264933Y-60124500D01*
X60789915Y-60124500D01*
X61315066Y-60124499D01*
X61350818Y-60117388D01*
X61377126Y-60112156D01*
X61377128Y-60112155D01*
X61389301Y-60109734D01*
X61399621Y-60102839D01*
X61399622Y-60102838D01*
X61463168Y-60060377D01*
X61473484Y-60053484D01*
X61529734Y-59969301D01*
X61544500Y-59895067D01*
X61544500Y-59560000D01*
X65617445Y-59560000D01*
X65637977Y-59715953D01*
X65698172Y-59861277D01*
X65793929Y-59986071D01*
X65918722Y-60081828D01*
X66064047Y-60142023D01*
X66220000Y-60162555D01*
X66375953Y-60142023D01*
X66521278Y-60081828D01*
X66646071Y-59986071D01*
X66741828Y-59861277D01*
X66802023Y-59715953D01*
X66822555Y-59560000D01*
X66802023Y-59404047D01*
X66741828Y-59258723D01*
X66646071Y-59133929D01*
X66583562Y-59085964D01*
X71781148Y-59085964D01*
X71794424Y-59288522D01*
X71795845Y-59294118D01*
X71795846Y-59294123D01*
X71816119Y-59373945D01*
X71844392Y-59485269D01*
X71846809Y-59490512D01*
X71882618Y-59568188D01*
X71929377Y-59669616D01*
X72046533Y-59835389D01*
X72050675Y-59839424D01*
X72073108Y-59861277D01*
X72191938Y-59977035D01*
X72360720Y-60089812D01*
X72366023Y-60092090D01*
X72366026Y-60092092D01*
X72527525Y-60161477D01*
X72547228Y-60169942D01*
X72620244Y-60186464D01*
X72739579Y-60213467D01*
X72739584Y-60213468D01*
X72745216Y-60214742D01*
X72750987Y-60214969D01*
X72750989Y-60214969D01*
X72810756Y-60217317D01*
X72948053Y-60222712D01*
X73048499Y-60208148D01*
X73143231Y-60194413D01*
X73143236Y-60194412D01*
X73148945Y-60193584D01*
X73154409Y-60191729D01*
X73154414Y-60191728D01*
X73335693Y-60130192D01*
X73335698Y-60130190D01*
X73341165Y-60128334D01*
X73350167Y-60123293D01*
X73474819Y-60053484D01*
X73518276Y-60029147D01*
X73564030Y-59991094D01*
X73669913Y-59903031D01*
X73674345Y-59899345D01*
X73804147Y-59743276D01*
X73903334Y-59566165D01*
X73905190Y-59560698D01*
X73905192Y-59560693D01*
X73966728Y-59379414D01*
X73966729Y-59379409D01*
X73968584Y-59373945D01*
X73969412Y-59368236D01*
X73969413Y-59368231D01*
X73997179Y-59176727D01*
X73997712Y-59173053D01*
X73999232Y-59115000D01*
X73986932Y-58981138D01*
X73981187Y-58918613D01*
X73981186Y-58918610D01*
X73980658Y-58912859D01*
X73979090Y-58907299D01*
X73927125Y-58723046D01*
X73927124Y-58723044D01*
X73925557Y-58717487D01*
X73915372Y-58696832D01*
X73838331Y-58540609D01*
X73835776Y-58535428D01*
X73714320Y-58372779D01*
X73565258Y-58234987D01*
X73560375Y-58231906D01*
X73560371Y-58231903D01*
X73398464Y-58129748D01*
X73393581Y-58126667D01*
X73205039Y-58051446D01*
X73199379Y-58050320D01*
X73199375Y-58050319D01*
X73011613Y-58012971D01*
X73011610Y-58012971D01*
X73005946Y-58011844D01*
X73000171Y-58011768D01*
X73000167Y-58011768D01*
X72898793Y-58010441D01*
X72802971Y-58009187D01*
X72797274Y-58010166D01*
X72797273Y-58010166D01*
X72608607Y-58042585D01*
X72602910Y-58043564D01*
X72412463Y-58113824D01*
X72238010Y-58217612D01*
X72233670Y-58221418D01*
X72233666Y-58221421D01*
X72213723Y-58238911D01*
X72085392Y-58351455D01*
X71959720Y-58510869D01*
X71957031Y-58515980D01*
X71957029Y-58515983D01*
X71944073Y-58540609D01*
X71865203Y-58690515D01*
X71805007Y-58884378D01*
X71781148Y-59085964D01*
X66583562Y-59085964D01*
X66521278Y-59038172D01*
X66375953Y-58977977D01*
X66220000Y-58957445D01*
X66064047Y-58977977D01*
X65918723Y-59038172D01*
X65793929Y-59133929D01*
X65698172Y-59258723D01*
X65637977Y-59404047D01*
X65617445Y-59560000D01*
X61544500Y-59560000D01*
X61544499Y-58844934D01*
X61529734Y-58770699D01*
X61494179Y-58717487D01*
X61480377Y-58696832D01*
X61473484Y-58686516D01*
X61389301Y-58630266D01*
X61315067Y-58615500D01*
X60790085Y-58615500D01*
X60264934Y-58615501D01*
X60229182Y-58622612D01*
X60202874Y-58627844D01*
X60202872Y-58627845D01*
X60190699Y-58630266D01*
X60180379Y-58637161D01*
X60180378Y-58637162D01*
X60119985Y-58677516D01*
X60106516Y-58686516D01*
X60050266Y-58770699D01*
X60035500Y-58844933D01*
X46254500Y-58844933D01*
X46254500Y-55605500D01*
X46274502Y-55537379D01*
X46328158Y-55490886D01*
X46380500Y-55479500D01*
X46890467Y-55479500D01*
X46958588Y-55499502D01*
X47005081Y-55553158D01*
X47015185Y-55623432D01*
X47012987Y-55634911D01*
X47009719Y-55648523D01*
X46967608Y-55823929D01*
X46959891Y-55856071D01*
X46940693Y-56100000D01*
X46959891Y-56343929D01*
X46961045Y-56348736D01*
X46961046Y-56348742D01*
X46997252Y-56499548D01*
X47017011Y-56581852D01*
X47018904Y-56586423D01*
X47018905Y-56586425D01*
X47104098Y-56792099D01*
X47110647Y-56807911D01*
X47238494Y-57016538D01*
X47397403Y-57202597D01*
X47583462Y-57361506D01*
X47792089Y-57489353D01*
X47796659Y-57491246D01*
X47796663Y-57491248D01*
X48013575Y-57581095D01*
X48018148Y-57582989D01*
X48100452Y-57602748D01*
X48251258Y-57638954D01*
X48251264Y-57638955D01*
X48256071Y-57640109D01*
X48500000Y-57659307D01*
X48743929Y-57640109D01*
X48748736Y-57638955D01*
X48748742Y-57638954D01*
X48899548Y-57602748D01*
X48981852Y-57582989D01*
X48986425Y-57581095D01*
X49203337Y-57491248D01*
X49203341Y-57491246D01*
X49207911Y-57489353D01*
X49416538Y-57361506D01*
X49593929Y-57210000D01*
X66757445Y-57210000D01*
X66777977Y-57365953D01*
X66838172Y-57511277D01*
X66933929Y-57636071D01*
X67058722Y-57731828D01*
X67204047Y-57792023D01*
X67360000Y-57812555D01*
X67515953Y-57792023D01*
X67661278Y-57731828D01*
X67786071Y-57636071D01*
X67881828Y-57511277D01*
X67942023Y-57365953D01*
X67962555Y-57210000D01*
X67942023Y-57054047D01*
X67881828Y-56908723D01*
X67876801Y-56902171D01*
X67872671Y-56895018D01*
X67874026Y-56894236D01*
X67851789Y-56836718D01*
X67866054Y-56767169D01*
X67900649Y-56726271D01*
X67959522Y-56681097D01*
X67959525Y-56681094D01*
X67966071Y-56676071D01*
X68061828Y-56551277D01*
X68122023Y-56405953D01*
X68142555Y-56250000D01*
X68122023Y-56094047D01*
X68061828Y-55948723D01*
X67966071Y-55823929D01*
X67841278Y-55728172D01*
X67695953Y-55667977D01*
X67540000Y-55647445D01*
X67384047Y-55667977D01*
X67238723Y-55728172D01*
X67113929Y-55823929D01*
X67018172Y-55948723D01*
X66957977Y-56094047D01*
X66937445Y-56250000D01*
X66957977Y-56405953D01*
X67018172Y-56551277D01*
X67023199Y-56557828D01*
X67027328Y-56564979D01*
X67025973Y-56565761D01*
X67048211Y-56623281D01*
X67033946Y-56692830D01*
X66999352Y-56733727D01*
X66940479Y-56778902D01*
X66940474Y-56778907D01*
X66933929Y-56783929D01*
X66838172Y-56908723D01*
X66777977Y-57054047D01*
X66757445Y-57210000D01*
X49593929Y-57210000D01*
X49602597Y-57202597D01*
X49761506Y-57016538D01*
X49889353Y-56807911D01*
X49895903Y-56792099D01*
X49981095Y-56586425D01*
X49981096Y-56586423D01*
X49982989Y-56581852D01*
X50002748Y-56499548D01*
X50038954Y-56348742D01*
X50038955Y-56348736D01*
X50040109Y-56343929D01*
X50059307Y-56100000D01*
X50040109Y-55856071D01*
X50032393Y-55823929D01*
X49990281Y-55648523D01*
X49987014Y-55634914D01*
X49990561Y-55564006D01*
X50031881Y-55506272D01*
X50097855Y-55480042D01*
X50109533Y-55479500D01*
X56674000Y-55479500D01*
X56677346Y-55479140D01*
X56677351Y-55479140D01*
X56725795Y-55473932D01*
X56725801Y-55473931D01*
X56729159Y-55473570D01*
X56781501Y-55462184D01*
X56808291Y-55454834D01*
X56815142Y-55450933D01*
X56815144Y-55450932D01*
X56890899Y-55407794D01*
X56896278Y-55404731D01*
X56949934Y-55358238D01*
X56982056Y-55324949D01*
X57028987Y-55235230D01*
X57048989Y-55167109D01*
X57054890Y-55126071D01*
X57058861Y-55098448D01*
X57058861Y-55098441D01*
X57059500Y-55094000D01*
X57059500Y-54990000D01*
X58467445Y-54990000D01*
X58487977Y-55145953D01*
X58548172Y-55291277D01*
X58643929Y-55416071D01*
X58768722Y-55511828D01*
X58914047Y-55572023D01*
X59070000Y-55592555D01*
X59225953Y-55572023D01*
X59371278Y-55511828D01*
X59496071Y-55416071D01*
X59591828Y-55291277D01*
X59652023Y-55145953D01*
X59672555Y-54990000D01*
X59652023Y-54834047D01*
X59596499Y-54700000D01*
X70457445Y-54700000D01*
X70477977Y-54855953D01*
X70538172Y-55001277D01*
X70633929Y-55126071D01*
X70758722Y-55221828D01*
X70904047Y-55282023D01*
X71060000Y-55302555D01*
X71215953Y-55282023D01*
X71361278Y-55221828D01*
X71486071Y-55126071D01*
X71581828Y-55001277D01*
X71642023Y-54855953D01*
X71662555Y-54700000D01*
X71642023Y-54544047D01*
X71581828Y-54398723D01*
X71486071Y-54273929D01*
X71361278Y-54178172D01*
X71215953Y-54117977D01*
X71060000Y-54097445D01*
X70904047Y-54117977D01*
X70758723Y-54178172D01*
X70633929Y-54273929D01*
X70538172Y-54398723D01*
X70477977Y-54544047D01*
X70457445Y-54700000D01*
X59596499Y-54700000D01*
X59591828Y-54688723D01*
X59496071Y-54563929D01*
X59371278Y-54468172D01*
X59225953Y-54407977D01*
X59070000Y-54387445D01*
X58914047Y-54407977D01*
X58768723Y-54468172D01*
X58643929Y-54563929D01*
X58548172Y-54688723D01*
X58487977Y-54834047D01*
X58467445Y-54990000D01*
X57059500Y-54990000D01*
X57059500Y-52737168D01*
X57079502Y-52669047D01*
X57133158Y-52622554D01*
X57210080Y-52613589D01*
X57264933Y-52624500D01*
X57789915Y-52624500D01*
X58315066Y-52624499D01*
X58350818Y-52617388D01*
X58377126Y-52612156D01*
X58377128Y-52612155D01*
X58389301Y-52609734D01*
X58399621Y-52602839D01*
X58399622Y-52602838D01*
X58463168Y-52560377D01*
X58473484Y-52553484D01*
X58529734Y-52469301D01*
X58544500Y-52395067D01*
X58544499Y-51344934D01*
X58535562Y-51300000D01*
X68597445Y-51300000D01*
X68617977Y-51455953D01*
X68678172Y-51601277D01*
X68773929Y-51726071D01*
X68898722Y-51821828D01*
X69044047Y-51882023D01*
X69200000Y-51902555D01*
X69355953Y-51882023D01*
X69501278Y-51821828D01*
X69626071Y-51726071D01*
X69721828Y-51601277D01*
X69763778Y-51500000D01*
X70970693Y-51500000D01*
X70989891Y-51743929D01*
X71047011Y-51981852D01*
X71140647Y-52207911D01*
X71268494Y-52416538D01*
X71427403Y-52602597D01*
X71613462Y-52761506D01*
X71822089Y-52889353D01*
X71826659Y-52891246D01*
X71826663Y-52891248D01*
X72043575Y-52981095D01*
X72048148Y-52982989D01*
X72130452Y-53002748D01*
X72281258Y-53038954D01*
X72281264Y-53038955D01*
X72286071Y-53040109D01*
X72530000Y-53059307D01*
X72773929Y-53040109D01*
X72778736Y-53038955D01*
X72778742Y-53038954D01*
X72929548Y-53002748D01*
X73011852Y-52982989D01*
X73016425Y-52981095D01*
X73233337Y-52891248D01*
X73233341Y-52891246D01*
X73237911Y-52889353D01*
X73446538Y-52761506D01*
X73632597Y-52602597D01*
X73791506Y-52416538D01*
X73919353Y-52207911D01*
X74012989Y-51981852D01*
X74070109Y-51743929D01*
X74089307Y-51500000D01*
X74070109Y-51256071D01*
X74053411Y-51186516D01*
X74014144Y-51022960D01*
X74012989Y-51018148D01*
X74011095Y-51013575D01*
X73921248Y-50796663D01*
X73921246Y-50796659D01*
X73919353Y-50792089D01*
X73791506Y-50583462D01*
X73632597Y-50397403D01*
X73446538Y-50238494D01*
X73237911Y-50110647D01*
X73233341Y-50108754D01*
X73233337Y-50108752D01*
X73016425Y-50018905D01*
X73016423Y-50018904D01*
X73011852Y-50017011D01*
X72929548Y-49997252D01*
X72778742Y-49961046D01*
X72778736Y-49961045D01*
X72773929Y-49959891D01*
X72530000Y-49940693D01*
X72286071Y-49959891D01*
X72281264Y-49961045D01*
X72281258Y-49961046D01*
X72130452Y-49997252D01*
X72048148Y-50017011D01*
X72043577Y-50018904D01*
X72043575Y-50018905D01*
X71826663Y-50108752D01*
X71826659Y-50108754D01*
X71822089Y-50110647D01*
X71613462Y-50238494D01*
X71427403Y-50397403D01*
X71268494Y-50583462D01*
X71140647Y-50792089D01*
X71138754Y-50796659D01*
X71138752Y-50796663D01*
X71048905Y-51013575D01*
X71047011Y-51018148D01*
X71045856Y-51022960D01*
X71006590Y-51186516D01*
X70989891Y-51256071D01*
X70970693Y-51500000D01*
X69763778Y-51500000D01*
X69782023Y-51455953D01*
X69802555Y-51300000D01*
X69782023Y-51144047D01*
X69721828Y-50998723D01*
X69626071Y-50873929D01*
X69501278Y-50778172D01*
X69355953Y-50717977D01*
X69200000Y-50697445D01*
X69044047Y-50717977D01*
X68898723Y-50778172D01*
X68773929Y-50873929D01*
X68678172Y-50998723D01*
X68617977Y-51144047D01*
X68597445Y-51300000D01*
X58535562Y-51300000D01*
X58532156Y-51282874D01*
X58532155Y-51282872D01*
X58529734Y-51270699D01*
X58520501Y-51256880D01*
X58480377Y-51196832D01*
X58473484Y-51186516D01*
X58389301Y-51130266D01*
X58315067Y-51115500D01*
X57790085Y-51115500D01*
X57264934Y-51115501D01*
X57210077Y-51126412D01*
X57139365Y-51120082D01*
X57083298Y-51076526D01*
X57059500Y-51002832D01*
X57059500Y-49200000D01*
X66297445Y-49200000D01*
X66317977Y-49355953D01*
X66378172Y-49501277D01*
X66473929Y-49626071D01*
X66598722Y-49721828D01*
X66744047Y-49782023D01*
X66900000Y-49802555D01*
X67055953Y-49782023D01*
X67201278Y-49721828D01*
X67326071Y-49626071D01*
X67421828Y-49501277D01*
X67482023Y-49355953D01*
X67502555Y-49200000D01*
X67482023Y-49044047D01*
X67421828Y-48898723D01*
X67326071Y-48773929D01*
X67201278Y-48678172D01*
X67055953Y-48617977D01*
X66900000Y-48597445D01*
X66744047Y-48617977D01*
X66598723Y-48678172D01*
X66473929Y-48773929D01*
X66378172Y-48898723D01*
X66317977Y-49044047D01*
X66297445Y-49200000D01*
X57059500Y-49200000D01*
X57059500Y-46000000D01*
X59397445Y-46000000D01*
X59417977Y-46155953D01*
X59478172Y-46301277D01*
X59573929Y-46426071D01*
X59698722Y-46521828D01*
X59844047Y-46582023D01*
X60000000Y-46602555D01*
X60155953Y-46582023D01*
X60301278Y-46521828D01*
X60307831Y-46516800D01*
X60307834Y-46516798D01*
X60423296Y-46428201D01*
X60489516Y-46402600D01*
X60559065Y-46416865D01*
X60576704Y-46428201D01*
X60692166Y-46516798D01*
X60692169Y-46516800D01*
X60698722Y-46521828D01*
X60844047Y-46582023D01*
X61000000Y-46602555D01*
X61155953Y-46582023D01*
X61301278Y-46521828D01*
X61426071Y-46426071D01*
X61521828Y-46301277D01*
X61582023Y-46155953D01*
X61602555Y-46000000D01*
X61582023Y-45844047D01*
X61521828Y-45698723D01*
X61426071Y-45573929D01*
X61301278Y-45478172D01*
X61155953Y-45417977D01*
X61000000Y-45397445D01*
X60844047Y-45417977D01*
X60698723Y-45478172D01*
X60580476Y-45568906D01*
X60576704Y-45571800D01*
X60510483Y-45597400D01*
X60440935Y-45583135D01*
X60423296Y-45571799D01*
X60307834Y-45483202D01*
X60307829Y-45483199D01*
X60301278Y-45478172D01*
X60155953Y-45417977D01*
X60000000Y-45397445D01*
X59844047Y-45417977D01*
X59698723Y-45478172D01*
X59573929Y-45573929D01*
X59478172Y-45698723D01*
X59417977Y-45844047D01*
X59397445Y-46000000D01*
X57059500Y-46000000D01*
X57059500Y-45909750D01*
X57049807Y-45839487D01*
X57031332Y-45773803D01*
X57023031Y-45751597D01*
X57019260Y-45741509D01*
X57019259Y-45741507D01*
X57016167Y-45733236D01*
X56955893Y-45651879D01*
X56951306Y-45647717D01*
X56905402Y-45606069D01*
X56905398Y-45606066D01*
X56903313Y-45604174D01*
X56866419Y-45576267D01*
X56868450Y-45573581D01*
X56830025Y-45534786D01*
X56815267Y-45465340D01*
X56818858Y-45443606D01*
X56834500Y-45382683D01*
X56834500Y-45341178D01*
X64165500Y-45341178D01*
X64172608Y-45397445D01*
X64178439Y-45443597D01*
X64181024Y-45464061D01*
X64241899Y-45617814D01*
X64246557Y-45624225D01*
X64246558Y-45624227D01*
X64290498Y-45684705D01*
X64339098Y-45751597D01*
X64466514Y-45857005D01*
X64616141Y-45927414D01*
X64711298Y-45945566D01*
X64770791Y-45956915D01*
X64770793Y-45956915D01*
X64778577Y-45958400D01*
X64943616Y-45948017D01*
X65017415Y-45924038D01*
X65093351Y-45899365D01*
X65093354Y-45899364D01*
X65100887Y-45896916D01*
X65107577Y-45892670D01*
X65107580Y-45892669D01*
X65197952Y-45835317D01*
X65240510Y-45808309D01*
X65275223Y-45771344D01*
X65348285Y-45693540D01*
X65353710Y-45687763D01*
X65433375Y-45542853D01*
X65474500Y-45382683D01*
X65474500Y-45074933D01*
X66045500Y-45074933D01*
X66045501Y-46125066D01*
X66060266Y-46199301D01*
X66116516Y-46283484D01*
X66200699Y-46339734D01*
X66274933Y-46354500D01*
X66799915Y-46354500D01*
X67325066Y-46354499D01*
X67360818Y-46347388D01*
X67387126Y-46342156D01*
X67387128Y-46342155D01*
X67399301Y-46339734D01*
X67409621Y-46332839D01*
X67409622Y-46332838D01*
X67473168Y-46290377D01*
X67483484Y-46283484D01*
X67539734Y-46199301D01*
X67554500Y-46125067D01*
X67554499Y-45074934D01*
X67539734Y-45000699D01*
X67483484Y-44916516D01*
X67399301Y-44860266D01*
X67325067Y-44845500D01*
X66800085Y-44845500D01*
X66274934Y-44845501D01*
X66239182Y-44852612D01*
X66212874Y-44857844D01*
X66212872Y-44857845D01*
X66200699Y-44860266D01*
X66190379Y-44867161D01*
X66190378Y-44867162D01*
X66129985Y-44907516D01*
X66116516Y-44916516D01*
X66060266Y-45000699D01*
X66045500Y-45074933D01*
X65474500Y-45074933D01*
X65474500Y-44458822D01*
X65458976Y-44335939D01*
X65398101Y-44182186D01*
X65391501Y-44173101D01*
X65313219Y-44065356D01*
X65300902Y-44048403D01*
X65173486Y-43942995D01*
X65023859Y-43872586D01*
X64913243Y-43851485D01*
X64869209Y-43843085D01*
X64869207Y-43843085D01*
X64861423Y-43841600D01*
X64696384Y-43851983D01*
X64688840Y-43854434D01*
X64688841Y-43854434D01*
X64546649Y-43900635D01*
X64546646Y-43900636D01*
X64539113Y-43903084D01*
X64532423Y-43907330D01*
X64532420Y-43907331D01*
X64476223Y-43942995D01*
X64399490Y-43991691D01*
X64286290Y-44112237D01*
X64206625Y-44257147D01*
X64165500Y-44417317D01*
X64165500Y-45341178D01*
X56834500Y-45341178D01*
X56834500Y-44458822D01*
X56819462Y-44339788D01*
X56830768Y-44269698D01*
X56882117Y-44214505D01*
X56890899Y-44209504D01*
X56896278Y-44206441D01*
X56935999Y-44172023D01*
X56947811Y-44161788D01*
X56947816Y-44161783D01*
X56949934Y-44159948D01*
X56982056Y-44126659D01*
X57014123Y-44065356D01*
X57063421Y-44014266D01*
X57132515Y-43997939D01*
X57199468Y-44021558D01*
X57227080Y-44052115D01*
X57228172Y-44051277D01*
X57323929Y-44176071D01*
X57448722Y-44271828D01*
X57594047Y-44332023D01*
X57750000Y-44352555D01*
X57905953Y-44332023D01*
X58051278Y-44271828D01*
X58176071Y-44176071D01*
X58271828Y-44051277D01*
X58332023Y-43905953D01*
X58352555Y-43750000D01*
X58332023Y-43594047D01*
X58330347Y-43590000D01*
X62677445Y-43590000D01*
X62697977Y-43745953D01*
X62758172Y-43891277D01*
X62853929Y-44016071D01*
X62978722Y-44111828D01*
X63124047Y-44172023D01*
X63280000Y-44192555D01*
X63435953Y-44172023D01*
X63581278Y-44111828D01*
X63706071Y-44016071D01*
X63801828Y-43891277D01*
X63862023Y-43745953D01*
X63882555Y-43590000D01*
X63862023Y-43434047D01*
X63801828Y-43288723D01*
X63706071Y-43163929D01*
X63581278Y-43068172D01*
X63435953Y-43007977D01*
X63280000Y-42987445D01*
X63124047Y-43007977D01*
X62978723Y-43068172D01*
X62853929Y-43163929D01*
X62758172Y-43288723D01*
X62697977Y-43434047D01*
X62677445Y-43590000D01*
X58330347Y-43590000D01*
X58271828Y-43448723D01*
X58176071Y-43323929D01*
X58051278Y-43228172D01*
X57905953Y-43167977D01*
X57750000Y-43147445D01*
X57594047Y-43167977D01*
X57448723Y-43228172D01*
X57323929Y-43323929D01*
X57318907Y-43330474D01*
X57318906Y-43330475D01*
X57285463Y-43374059D01*
X57228125Y-43415926D01*
X57157254Y-43420148D01*
X57095351Y-43385384D01*
X57062070Y-43322671D01*
X57059500Y-43297355D01*
X57059500Y-42109750D01*
X57049807Y-42039487D01*
X57031332Y-41973803D01*
X57023031Y-41951597D01*
X57019260Y-41941509D01*
X57019259Y-41941507D01*
X57016167Y-41933236D01*
X56955893Y-41851879D01*
X56951306Y-41847717D01*
X56905402Y-41806069D01*
X56905398Y-41806066D01*
X56903313Y-41804174D01*
X56866419Y-41776267D01*
X56868450Y-41773581D01*
X56830025Y-41734786D01*
X56815267Y-41665340D01*
X56818858Y-41643606D01*
X56834500Y-41582683D01*
X56834500Y-40658822D01*
X56818976Y-40535939D01*
X56775798Y-40426883D01*
X56769319Y-40356183D01*
X56802091Y-40293203D01*
X56863711Y-40257940D01*
X56892950Y-40254500D01*
X64104976Y-40254500D01*
X64173097Y-40274502D01*
G37*
%TD.AperFunction*%
%TD*%
%TA.AperFunction,Conductor*%
%TO.N,+9V*%
G36*
X55533097Y-40274502D02*
G01*
X55579590Y-40328158D01*
X55589694Y-40398432D01*
X55575392Y-40441199D01*
X55570444Y-40450199D01*
X55570442Y-40450204D01*
X55566625Y-40457147D01*
X55525500Y-40617317D01*
X55525500Y-41541178D01*
X55541024Y-41664061D01*
X55543941Y-41671428D01*
X55543941Y-41671429D01*
X55550523Y-41688053D01*
X55601899Y-41817814D01*
X55699098Y-41951597D01*
X55826514Y-42057005D01*
X55976141Y-42127414D01*
X56071298Y-42145566D01*
X56130791Y-42156915D01*
X56130793Y-42156915D01*
X56138577Y-42158400D01*
X56303616Y-42148017D01*
X56377415Y-42124038D01*
X56453351Y-42099365D01*
X56453354Y-42099364D01*
X56460887Y-42096916D01*
X56467577Y-42092670D01*
X56467580Y-42092669D01*
X56600510Y-42008309D01*
X56601221Y-42009430D01*
X56658920Y-41984656D01*
X56728945Y-41996361D01*
X56781525Y-42044066D01*
X56800000Y-42109750D01*
X56800000Y-43895710D01*
X56779998Y-43963831D01*
X56726342Y-44010324D01*
X56656068Y-44020428D01*
X56593685Y-43992795D01*
X56539594Y-43948047D01*
X56539589Y-43948044D01*
X56533486Y-43942995D01*
X56383859Y-43872586D01*
X56273243Y-43851485D01*
X56229209Y-43843085D01*
X56229207Y-43843085D01*
X56221423Y-43841600D01*
X56056384Y-43851983D01*
X56048840Y-43854434D01*
X56048841Y-43854434D01*
X55906649Y-43900635D01*
X55906646Y-43900636D01*
X55899113Y-43903084D01*
X55892423Y-43907330D01*
X55892420Y-43907331D01*
X55836223Y-43942995D01*
X55759490Y-43991691D01*
X55646290Y-44112237D01*
X55566625Y-44257147D01*
X55525500Y-44417317D01*
X55525500Y-45341178D01*
X55541024Y-45464061D01*
X55601899Y-45617814D01*
X55699098Y-45751597D01*
X55826514Y-45857005D01*
X55976141Y-45927414D01*
X56071298Y-45945566D01*
X56130791Y-45956915D01*
X56130793Y-45956915D01*
X56138577Y-45958400D01*
X56303616Y-45948017D01*
X56377415Y-45924038D01*
X56453351Y-45899365D01*
X56453354Y-45899364D01*
X56460887Y-45896916D01*
X56467577Y-45892670D01*
X56467580Y-45892669D01*
X56600510Y-45808309D01*
X56601221Y-45809430D01*
X56658920Y-45784656D01*
X56728945Y-45796361D01*
X56781525Y-45844066D01*
X56800000Y-45909750D01*
X56800000Y-55094000D01*
X56779998Y-55162121D01*
X56726342Y-55208614D01*
X56674000Y-55220000D01*
X49850799Y-55220000D01*
X49782678Y-55199998D01*
X49754988Y-55175830D01*
X49605810Y-55001165D01*
X49602597Y-54997403D01*
X49416538Y-54838494D01*
X49207911Y-54710647D01*
X49203341Y-54708754D01*
X49203337Y-54708752D01*
X48986425Y-54618905D01*
X48986423Y-54618904D01*
X48981852Y-54617011D01*
X48899548Y-54597252D01*
X48748742Y-54561046D01*
X48748736Y-54561045D01*
X48743929Y-54559891D01*
X48500000Y-54540693D01*
X48256071Y-54559891D01*
X48251264Y-54561045D01*
X48251258Y-54561046D01*
X48100452Y-54597252D01*
X48018148Y-54617011D01*
X48013577Y-54618904D01*
X48013575Y-54618905D01*
X47796663Y-54708752D01*
X47796659Y-54708754D01*
X47792089Y-54710647D01*
X47583462Y-54838494D01*
X47397403Y-54997403D01*
X47394190Y-55001165D01*
X47245012Y-55175830D01*
X47185562Y-55214640D01*
X47149201Y-55220000D01*
X46380500Y-55220000D01*
X46312379Y-55199998D01*
X46265886Y-55146342D01*
X46254500Y-55094000D01*
X46254500Y-51900000D01*
X50567445Y-51900000D01*
X50587977Y-52055953D01*
X50648172Y-52201277D01*
X50743929Y-52326071D01*
X50868722Y-52421828D01*
X51014047Y-52482023D01*
X51170000Y-52502555D01*
X51325953Y-52482023D01*
X51471278Y-52421828D01*
X51596071Y-52326071D01*
X51691828Y-52201277D01*
X51752023Y-52055953D01*
X51772555Y-51900000D01*
X51752023Y-51744047D01*
X51691828Y-51598723D01*
X51596071Y-51473929D01*
X51471278Y-51378172D01*
X51325953Y-51317977D01*
X51170000Y-51297445D01*
X51014047Y-51317977D01*
X50868723Y-51378172D01*
X50743929Y-51473929D01*
X50648172Y-51598723D01*
X50587977Y-51744047D01*
X50567445Y-51900000D01*
X46254500Y-51900000D01*
X46254500Y-51244933D01*
X54055500Y-51244933D01*
X54055501Y-52295066D01*
X54070266Y-52369301D01*
X54126516Y-52453484D01*
X54210699Y-52509734D01*
X54284933Y-52524500D01*
X54809915Y-52524500D01*
X55335066Y-52524499D01*
X55370818Y-52517388D01*
X55397126Y-52512156D01*
X55397128Y-52512155D01*
X55409301Y-52509734D01*
X55419621Y-52502839D01*
X55419622Y-52502838D01*
X55483168Y-52460377D01*
X55493484Y-52453484D01*
X55549734Y-52369301D01*
X55564500Y-52295067D01*
X55564499Y-51244934D01*
X55549734Y-51170699D01*
X55493484Y-51086516D01*
X55409301Y-51030266D01*
X55335067Y-51015500D01*
X54810085Y-51015500D01*
X54284934Y-51015501D01*
X54249182Y-51022612D01*
X54222874Y-51027844D01*
X54222872Y-51027845D01*
X54210699Y-51030266D01*
X54200379Y-51037161D01*
X54200378Y-51037162D01*
X54139985Y-51077516D01*
X54126516Y-51086516D01*
X54070266Y-51170699D01*
X54055500Y-51244933D01*
X46254500Y-51244933D01*
X46254500Y-50037476D01*
X46256921Y-50012894D01*
X46257065Y-50012170D01*
X46259486Y-50000000D01*
X46257065Y-49987830D01*
X46257065Y-49980144D01*
X46257672Y-49967793D01*
X46267609Y-49866908D01*
X46272425Y-49842691D01*
X46307649Y-49726574D01*
X46317093Y-49703774D01*
X46374292Y-49596761D01*
X46388011Y-49576230D01*
X46464981Y-49482444D01*
X46482444Y-49464981D01*
X46576230Y-49388011D01*
X46596761Y-49374292D01*
X46703774Y-49317093D01*
X46726574Y-49307649D01*
X46842691Y-49272425D01*
X46866908Y-49267609D01*
X46967793Y-49257672D01*
X46980144Y-49257065D01*
X46987830Y-49257065D01*
X47000000Y-49259486D01*
X47012897Y-49256921D01*
X47037476Y-49254500D01*
X48206202Y-49254500D01*
X48274323Y-49274502D01*
X48320816Y-49328158D01*
X48330920Y-49398432D01*
X48322612Y-49428714D01*
X48307977Y-49464047D01*
X48287445Y-49620000D01*
X48307977Y-49775953D01*
X48368172Y-49921277D01*
X48463929Y-50046071D01*
X48588722Y-50141828D01*
X48734047Y-50202023D01*
X48890000Y-50222555D01*
X49045953Y-50202023D01*
X49191278Y-50141828D01*
X49316071Y-50046071D01*
X49411828Y-49921277D01*
X49472023Y-49775953D01*
X49492555Y-49620000D01*
X49472023Y-49464047D01*
X49457389Y-49428717D01*
X49449800Y-49358129D01*
X49481579Y-49294642D01*
X49542637Y-49258414D01*
X49573798Y-49254500D01*
X50962524Y-49254500D01*
X50987103Y-49256921D01*
X51000000Y-49259486D01*
X51009209Y-49257654D01*
X51099841Y-49250521D01*
X51169321Y-49265117D01*
X51219880Y-49314960D01*
X51235466Y-49384225D01*
X51226136Y-49424349D01*
X51217977Y-49444047D01*
X51197445Y-49600000D01*
X51217977Y-49755953D01*
X51278172Y-49901277D01*
X51373929Y-50026071D01*
X51380475Y-50031094D01*
X51406540Y-50051094D01*
X51498722Y-50121828D01*
X51644047Y-50182023D01*
X51800000Y-50202555D01*
X51955953Y-50182023D01*
X52101278Y-50121828D01*
X52193460Y-50051094D01*
X52219525Y-50031094D01*
X52226071Y-50026071D01*
X52321828Y-49901277D01*
X52382023Y-49755953D01*
X52402555Y-49600000D01*
X52382023Y-49444047D01*
X52321828Y-49298723D01*
X52226071Y-49173929D01*
X52101278Y-49078172D01*
X52093651Y-49075013D01*
X52093646Y-49075010D01*
X51986457Y-49030612D01*
X51931175Y-48986064D01*
X51908754Y-48918701D01*
X51926312Y-48849910D01*
X51938863Y-48832372D01*
X52014840Y-48743416D01*
X52014843Y-48743412D01*
X52018050Y-48739657D01*
X52121224Y-48571292D01*
X52196790Y-48388860D01*
X52242886Y-48196854D01*
X52257654Y-48009209D01*
X52259486Y-48000000D01*
X52256921Y-47987103D01*
X52254500Y-47962524D01*
X52254500Y-45038828D01*
X52696001Y-45038828D01*
X52697209Y-45051088D01*
X52708315Y-45106931D01*
X52717633Y-45129427D01*
X52759983Y-45192808D01*
X52777192Y-45210017D01*
X52840575Y-45252368D01*
X52863066Y-45261684D01*
X52918915Y-45272793D01*
X52931170Y-45274000D01*
X53527885Y-45274000D01*
X53543124Y-45269525D01*
X53544329Y-45268135D01*
X53546000Y-45260452D01*
X53546000Y-45255884D01*
X54054000Y-45255884D01*
X54058475Y-45271123D01*
X54059865Y-45272328D01*
X54067548Y-45273999D01*
X54668828Y-45273999D01*
X54681088Y-45272791D01*
X54736931Y-45261685D01*
X54759427Y-45252367D01*
X54822808Y-45210017D01*
X54840017Y-45192808D01*
X54882368Y-45129425D01*
X54891684Y-45106934D01*
X54902793Y-45051085D01*
X54904000Y-45038830D01*
X54904000Y-44442115D01*
X54899525Y-44426876D01*
X54898135Y-44425671D01*
X54890452Y-44424000D01*
X54072115Y-44424000D01*
X54056876Y-44428475D01*
X54055671Y-44429865D01*
X54054000Y-44437548D01*
X54054000Y-45255884D01*
X53546000Y-45255884D01*
X53546000Y-44442115D01*
X53541525Y-44426876D01*
X53540135Y-44425671D01*
X53532452Y-44424000D01*
X52714116Y-44424000D01*
X52698877Y-44428475D01*
X52697672Y-44429865D01*
X52696001Y-44437548D01*
X52696001Y-45038828D01*
X52254500Y-45038828D01*
X52254500Y-43897885D01*
X52696000Y-43897885D01*
X52700475Y-43913124D01*
X52701865Y-43914329D01*
X52709548Y-43916000D01*
X53527885Y-43916000D01*
X53543124Y-43911525D01*
X53544329Y-43910135D01*
X53546000Y-43902452D01*
X53546000Y-43897885D01*
X54054000Y-43897885D01*
X54058475Y-43913124D01*
X54059865Y-43914329D01*
X54067548Y-43916000D01*
X54885884Y-43916000D01*
X54901123Y-43911525D01*
X54902328Y-43910135D01*
X54903999Y-43902452D01*
X54903999Y-43301172D01*
X54902791Y-43288912D01*
X54891685Y-43233069D01*
X54882367Y-43210573D01*
X54840017Y-43147192D01*
X54822808Y-43129983D01*
X54759425Y-43087632D01*
X54736934Y-43078316D01*
X54681085Y-43067207D01*
X54668830Y-43066000D01*
X54072115Y-43066000D01*
X54056876Y-43070475D01*
X54055671Y-43071865D01*
X54054000Y-43079548D01*
X54054000Y-43897885D01*
X53546000Y-43897885D01*
X53546000Y-43084116D01*
X53541525Y-43068877D01*
X53540135Y-43067672D01*
X53532452Y-43066001D01*
X52931172Y-43066001D01*
X52918912Y-43067209D01*
X52863069Y-43078315D01*
X52840573Y-43087633D01*
X52777192Y-43129983D01*
X52759983Y-43147192D01*
X52717632Y-43210575D01*
X52708316Y-43233066D01*
X52697207Y-43288915D01*
X52696000Y-43301170D01*
X52696000Y-43897885D01*
X52254500Y-43897885D01*
X52254500Y-41600964D01*
X52691148Y-41600964D01*
X52704424Y-41803522D01*
X52705845Y-41809118D01*
X52705846Y-41809123D01*
X52750427Y-41984656D01*
X52754392Y-42000269D01*
X52756809Y-42005512D01*
X52794010Y-42086208D01*
X52839377Y-42184616D01*
X52956533Y-42350389D01*
X53101938Y-42492035D01*
X53270720Y-42604812D01*
X53276023Y-42607090D01*
X53276026Y-42607092D01*
X53364707Y-42645192D01*
X53457228Y-42684942D01*
X53530244Y-42701464D01*
X53649579Y-42728467D01*
X53649584Y-42728468D01*
X53655216Y-42729742D01*
X53660987Y-42729969D01*
X53660989Y-42729969D01*
X53720756Y-42732317D01*
X53858053Y-42737712D01*
X53958499Y-42723148D01*
X54053231Y-42709413D01*
X54053236Y-42709412D01*
X54058945Y-42708584D01*
X54064409Y-42706729D01*
X54064414Y-42706728D01*
X54245693Y-42645192D01*
X54245698Y-42645190D01*
X54251165Y-42643334D01*
X54428276Y-42544147D01*
X54490934Y-42492035D01*
X54579913Y-42418031D01*
X54584345Y-42414345D01*
X54714147Y-42258276D01*
X54804513Y-42096916D01*
X54810510Y-42086208D01*
X54810511Y-42086206D01*
X54813334Y-42081165D01*
X54815190Y-42075698D01*
X54815192Y-42075693D01*
X54876728Y-41894414D01*
X54876729Y-41894409D01*
X54878584Y-41888945D01*
X54879412Y-41883236D01*
X54879413Y-41883231D01*
X54907179Y-41691727D01*
X54907712Y-41688053D01*
X54909232Y-41630000D01*
X54890658Y-41427859D01*
X54889090Y-41422299D01*
X54837125Y-41238046D01*
X54837124Y-41238044D01*
X54835557Y-41232487D01*
X54824978Y-41211033D01*
X54748331Y-41055609D01*
X54745776Y-41050428D01*
X54624320Y-40887779D01*
X54475258Y-40749987D01*
X54470375Y-40746906D01*
X54470371Y-40746903D01*
X54308464Y-40644748D01*
X54303581Y-40641667D01*
X54115039Y-40566446D01*
X54109379Y-40565320D01*
X54109375Y-40565319D01*
X53921613Y-40527971D01*
X53921610Y-40527971D01*
X53915946Y-40526844D01*
X53910171Y-40526768D01*
X53910167Y-40526768D01*
X53808793Y-40525441D01*
X53712971Y-40524187D01*
X53707274Y-40525166D01*
X53707273Y-40525166D01*
X53518607Y-40557585D01*
X53512910Y-40558564D01*
X53322463Y-40628824D01*
X53148010Y-40732612D01*
X53143670Y-40736418D01*
X53143666Y-40736421D01*
X53022499Y-40842683D01*
X52995392Y-40866455D01*
X52869720Y-41025869D01*
X52867031Y-41030980D01*
X52867029Y-41030983D01*
X52854073Y-41055609D01*
X52775203Y-41205515D01*
X52715007Y-41399378D01*
X52691148Y-41600964D01*
X52254500Y-41600964D01*
X52254500Y-41037476D01*
X52256921Y-41012894D01*
X52257065Y-41012170D01*
X52259486Y-41000000D01*
X52257065Y-40987830D01*
X52257065Y-40980144D01*
X52257672Y-40967793D01*
X52267609Y-40866908D01*
X52272425Y-40842691D01*
X52307649Y-40726574D01*
X52317093Y-40703774D01*
X52374292Y-40596761D01*
X52388011Y-40576230D01*
X52464981Y-40482444D01*
X52482444Y-40464981D01*
X52576230Y-40388011D01*
X52596761Y-40374292D01*
X52703774Y-40317093D01*
X52726574Y-40307649D01*
X52842691Y-40272425D01*
X52866908Y-40267609D01*
X52967793Y-40257672D01*
X52980144Y-40257065D01*
X52987830Y-40257065D01*
X53000000Y-40259486D01*
X53012897Y-40256921D01*
X53037476Y-40254500D01*
X55464976Y-40254500D01*
X55533097Y-40274502D01*
G37*
%TD.AperFunction*%
%TD*%
M02*
