%TF.GenerationSoftware,KiCad,Pcbnew,(6.0.9-0)*%
%TF.CreationDate,2022-12-16T17:36:52+01:00*%
%TF.ProjectId,distortion-pedal,64697374-6f72-4746-996f-6e2d70656461,rev?*%
%TF.SameCoordinates,Original*%
%TF.FileFunction,Legend,Bot*%
%TF.FilePolarity,Positive*%
%FSLAX46Y46*%
G04 Gerber Fmt 4.6, Leading zero omitted, Abs format (unit mm)*
G04 Created by KiCad (PCBNEW (6.0.9-0)) date 2022-12-16 17:36:52*
%MOMM*%
%LPD*%
G01*
G04 APERTURE LIST*
%ADD10C,0.127000*%
%ADD11C,0.150000*%
%ADD12C,0.120000*%
G04 APERTURE END LIST*
D10*
X49188571Y-57983978D02*
X49188571Y-57650645D01*
X49712380Y-57650645D02*
X48712380Y-57650645D01*
X48712380Y-58126835D01*
X49045714Y-58936359D02*
X49712380Y-58936359D01*
X49045714Y-58507788D02*
X49569523Y-58507788D01*
X49664761Y-58555407D01*
X49712380Y-58650645D01*
X49712380Y-58793502D01*
X49664761Y-58888740D01*
X49617142Y-58936359D01*
X49045714Y-59317311D02*
X49045714Y-59841121D01*
X49712380Y-59317311D01*
X49712380Y-59841121D01*
X49045714Y-60126835D02*
X49045714Y-60650645D01*
X49712380Y-60126835D01*
X49712380Y-60650645D01*
X48664761Y-61745883D02*
X49950476Y-60888740D01*
X49712380Y-62079216D02*
X48712380Y-62079216D01*
X48712380Y-62317311D01*
X48760000Y-62460169D01*
X48855238Y-62555407D01*
X48950476Y-62603026D01*
X49140952Y-62650645D01*
X49283809Y-62650645D01*
X49474285Y-62603026D01*
X49569523Y-62555407D01*
X49664761Y-62460169D01*
X49712380Y-62317311D01*
X49712380Y-62079216D01*
X49712380Y-63079216D02*
X49045714Y-63079216D01*
X48712380Y-63079216D02*
X48760000Y-63031597D01*
X48807619Y-63079216D01*
X48760000Y-63126835D01*
X48712380Y-63079216D01*
X48807619Y-63079216D01*
X49664761Y-63507788D02*
X49712380Y-63603026D01*
X49712380Y-63793502D01*
X49664761Y-63888740D01*
X49569523Y-63936359D01*
X49521904Y-63936359D01*
X49426666Y-63888740D01*
X49379047Y-63793502D01*
X49379047Y-63650645D01*
X49331428Y-63555407D01*
X49236190Y-63507788D01*
X49188571Y-63507788D01*
X49093333Y-63555407D01*
X49045714Y-63650645D01*
X49045714Y-63793502D01*
X49093333Y-63888740D01*
X49045714Y-64222073D02*
X49045714Y-64603026D01*
X48712380Y-64364930D02*
X49569523Y-64364930D01*
X49664761Y-64412550D01*
X49712380Y-64507788D01*
X49712380Y-64603026D01*
X49712380Y-65079216D02*
X49664761Y-64983978D01*
X49617142Y-64936359D01*
X49521904Y-64888740D01*
X49236190Y-64888740D01*
X49140952Y-64936359D01*
X49093333Y-64983978D01*
X49045714Y-65079216D01*
X49045714Y-65222073D01*
X49093333Y-65317311D01*
X49140952Y-65364930D01*
X49236190Y-65412550D01*
X49521904Y-65412550D01*
X49617142Y-65364930D01*
X49664761Y-65317311D01*
X49712380Y-65222073D01*
X49712380Y-65079216D01*
X49712380Y-65841121D02*
X49045714Y-65841121D01*
X49236190Y-65841121D02*
X49140952Y-65888740D01*
X49093333Y-65936359D01*
X49045714Y-66031597D01*
X49045714Y-66126835D01*
X49045714Y-66317311D02*
X49045714Y-66698264D01*
X48712380Y-66460169D02*
X49569523Y-66460169D01*
X49664761Y-66507788D01*
X49712380Y-66603026D01*
X49712380Y-66698264D01*
X49712380Y-67031597D02*
X49045714Y-67031597D01*
X48712380Y-67031597D02*
X48760000Y-66983978D01*
X48807619Y-67031597D01*
X48760000Y-67079216D01*
X48712380Y-67031597D01*
X48807619Y-67031597D01*
X49712380Y-67650645D02*
X49664761Y-67555407D01*
X49617142Y-67507788D01*
X49521904Y-67460169D01*
X49236190Y-67460169D01*
X49140952Y-67507788D01*
X49093333Y-67555407D01*
X49045714Y-67650645D01*
X49045714Y-67793502D01*
X49093333Y-67888740D01*
X49140952Y-67936359D01*
X49236190Y-67983978D01*
X49521904Y-67983978D01*
X49617142Y-67936359D01*
X49664761Y-67888740D01*
X49712380Y-67793502D01*
X49712380Y-67650645D01*
X49045714Y-68412550D02*
X49712380Y-68412550D01*
X49140952Y-68412550D02*
X49093333Y-68460169D01*
X49045714Y-68555407D01*
X49045714Y-68698264D01*
X49093333Y-68793502D01*
X49188571Y-68841121D01*
X49712380Y-68841121D01*
X51322380Y-57650645D02*
X50322380Y-57650645D01*
X50322380Y-58031597D01*
X50370000Y-58126835D01*
X50417619Y-58174454D01*
X50512857Y-58222073D01*
X50655714Y-58222073D01*
X50750952Y-58174454D01*
X50798571Y-58126835D01*
X50846190Y-58031597D01*
X50846190Y-57650645D01*
X51274761Y-59031597D02*
X51322380Y-58936359D01*
X51322380Y-58745883D01*
X51274761Y-58650645D01*
X51179523Y-58603026D01*
X50798571Y-58603026D01*
X50703333Y-58650645D01*
X50655714Y-58745883D01*
X50655714Y-58936359D01*
X50703333Y-59031597D01*
X50798571Y-59079216D01*
X50893809Y-59079216D01*
X50989047Y-58603026D01*
X51322380Y-59936359D02*
X50322380Y-59936359D01*
X51274761Y-59936359D02*
X51322380Y-59841121D01*
X51322380Y-59650645D01*
X51274761Y-59555407D01*
X51227142Y-59507788D01*
X51131904Y-59460169D01*
X50846190Y-59460169D01*
X50750952Y-59507788D01*
X50703333Y-59555407D01*
X50655714Y-59650645D01*
X50655714Y-59841121D01*
X50703333Y-59936359D01*
X51322380Y-60841121D02*
X50798571Y-60841121D01*
X50703333Y-60793502D01*
X50655714Y-60698264D01*
X50655714Y-60507788D01*
X50703333Y-60412550D01*
X51274761Y-60841121D02*
X51322380Y-60745883D01*
X51322380Y-60507788D01*
X51274761Y-60412550D01*
X51179523Y-60364930D01*
X51084285Y-60364930D01*
X50989047Y-60412550D01*
X50941428Y-60507788D01*
X50941428Y-60745883D01*
X50893809Y-60841121D01*
X51322380Y-61460169D02*
X51274761Y-61364930D01*
X51179523Y-61317311D01*
X50322380Y-61317311D01*
X52932380Y-58222073D02*
X52456190Y-57888740D01*
X52932380Y-57650645D02*
X51932380Y-57650645D01*
X51932380Y-58031597D01*
X51980000Y-58126835D01*
X52027619Y-58174454D01*
X52122857Y-58222073D01*
X52265714Y-58222073D01*
X52360952Y-58174454D01*
X52408571Y-58126835D01*
X52456190Y-58031597D01*
X52456190Y-57650645D01*
X52408571Y-58650645D02*
X52408571Y-58983978D01*
X52932380Y-59126835D02*
X52932380Y-58650645D01*
X51932380Y-58650645D01*
X51932380Y-59126835D01*
X51932380Y-59412550D02*
X52932380Y-59745883D01*
X51932380Y-60079216D01*
X51932380Y-60317311D02*
X51932380Y-60936359D01*
X52313333Y-60603026D01*
X52313333Y-60745883D01*
X52360952Y-60841121D01*
X52408571Y-60888740D01*
X52503809Y-60936359D01*
X52741904Y-60936359D01*
X52837142Y-60888740D01*
X52884761Y-60841121D01*
X52932380Y-60745883D01*
X52932380Y-60460169D01*
X52884761Y-60364930D01*
X52837142Y-60317311D01*
D11*
%TO.C,Rcc2*%
X58252180Y-47676190D02*
X57775990Y-47342857D01*
X58252180Y-47104761D02*
X57252180Y-47104761D01*
X57252180Y-47485714D01*
X57299800Y-47580952D01*
X57347419Y-47628571D01*
X57442657Y-47676190D01*
X57585514Y-47676190D01*
X57680752Y-47628571D01*
X57728371Y-47580952D01*
X57775990Y-47485714D01*
X57775990Y-47104761D01*
X58204561Y-48533333D02*
X58252180Y-48438095D01*
X58252180Y-48247619D01*
X58204561Y-48152380D01*
X58156942Y-48104761D01*
X58061704Y-48057142D01*
X57775990Y-48057142D01*
X57680752Y-48104761D01*
X57633133Y-48152380D01*
X57585514Y-48247619D01*
X57585514Y-48438095D01*
X57633133Y-48533333D01*
X58204561Y-49390476D02*
X58252180Y-49295238D01*
X58252180Y-49104761D01*
X58204561Y-49009523D01*
X58156942Y-48961904D01*
X58061704Y-48914285D01*
X57775990Y-48914285D01*
X57680752Y-48961904D01*
X57633133Y-49009523D01*
X57585514Y-49104761D01*
X57585514Y-49295238D01*
X57633133Y-49390476D01*
X57347419Y-49771428D02*
X57299800Y-49819047D01*
X57252180Y-49914285D01*
X57252180Y-50152380D01*
X57299800Y-50247619D01*
X57347419Y-50295238D01*
X57442657Y-50342857D01*
X57537895Y-50342857D01*
X57680752Y-50295238D01*
X58252180Y-49723809D01*
X58252180Y-50342857D01*
%TO.C,Rcc3*%
X63752380Y-42276190D02*
X63276190Y-41942857D01*
X63752380Y-41704761D02*
X62752380Y-41704761D01*
X62752380Y-42085714D01*
X62800000Y-42180952D01*
X62847619Y-42228571D01*
X62942857Y-42276190D01*
X63085714Y-42276190D01*
X63180952Y-42228571D01*
X63228571Y-42180952D01*
X63276190Y-42085714D01*
X63276190Y-41704761D01*
X63704761Y-43133333D02*
X63752380Y-43038095D01*
X63752380Y-42847619D01*
X63704761Y-42752380D01*
X63657142Y-42704761D01*
X63561904Y-42657142D01*
X63276190Y-42657142D01*
X63180952Y-42704761D01*
X63133333Y-42752380D01*
X63085714Y-42847619D01*
X63085714Y-43038095D01*
X63133333Y-43133333D01*
X63704761Y-43990476D02*
X63752380Y-43895238D01*
X63752380Y-43704761D01*
X63704761Y-43609523D01*
X63657142Y-43561904D01*
X63561904Y-43514285D01*
X63276190Y-43514285D01*
X63180952Y-43561904D01*
X63133333Y-43609523D01*
X63085714Y-43704761D01*
X63085714Y-43895238D01*
X63133333Y-43990476D01*
X62752380Y-44323809D02*
X62752380Y-44942857D01*
X63133333Y-44609523D01*
X63133333Y-44752380D01*
X63180952Y-44847619D01*
X63228571Y-44895238D01*
X63323809Y-44942857D01*
X63561904Y-44942857D01*
X63657142Y-44895238D01*
X63704761Y-44847619D01*
X63752380Y-44752380D01*
X63752380Y-44466666D01*
X63704761Y-44371428D01*
X63657142Y-44323809D01*
%TO.C,Rcc4*%
X58252380Y-42276190D02*
X57776190Y-41942857D01*
X58252380Y-41704761D02*
X57252380Y-41704761D01*
X57252380Y-42085714D01*
X57300000Y-42180952D01*
X57347619Y-42228571D01*
X57442857Y-42276190D01*
X57585714Y-42276190D01*
X57680952Y-42228571D01*
X57728571Y-42180952D01*
X57776190Y-42085714D01*
X57776190Y-41704761D01*
X58204761Y-43133333D02*
X58252380Y-43038095D01*
X58252380Y-42847619D01*
X58204761Y-42752380D01*
X58157142Y-42704761D01*
X58061904Y-42657142D01*
X57776190Y-42657142D01*
X57680952Y-42704761D01*
X57633333Y-42752380D01*
X57585714Y-42847619D01*
X57585714Y-43038095D01*
X57633333Y-43133333D01*
X58204761Y-43990476D02*
X58252380Y-43895238D01*
X58252380Y-43704761D01*
X58204761Y-43609523D01*
X58157142Y-43561904D01*
X58061904Y-43514285D01*
X57776190Y-43514285D01*
X57680952Y-43561904D01*
X57633333Y-43609523D01*
X57585714Y-43704761D01*
X57585714Y-43895238D01*
X57633333Y-43990476D01*
X57585714Y-44847619D02*
X58252380Y-44847619D01*
X57204761Y-44609523D02*
X57919047Y-44371428D01*
X57919047Y-44990476D01*
%TO.C,Rcc1*%
X63703380Y-47676190D02*
X63227190Y-47342857D01*
X63703380Y-47104761D02*
X62703380Y-47104761D01*
X62703380Y-47485714D01*
X62751000Y-47580952D01*
X62798619Y-47628571D01*
X62893857Y-47676190D01*
X63036714Y-47676190D01*
X63131952Y-47628571D01*
X63179571Y-47580952D01*
X63227190Y-47485714D01*
X63227190Y-47104761D01*
X63655761Y-48533333D02*
X63703380Y-48438095D01*
X63703380Y-48247619D01*
X63655761Y-48152380D01*
X63608142Y-48104761D01*
X63512904Y-48057142D01*
X63227190Y-48057142D01*
X63131952Y-48104761D01*
X63084333Y-48152380D01*
X63036714Y-48247619D01*
X63036714Y-48438095D01*
X63084333Y-48533333D01*
X63655761Y-49390476D02*
X63703380Y-49295238D01*
X63703380Y-49104761D01*
X63655761Y-49009523D01*
X63608142Y-48961904D01*
X63512904Y-48914285D01*
X63227190Y-48914285D01*
X63131952Y-48961904D01*
X63084333Y-49009523D01*
X63036714Y-49104761D01*
X63036714Y-49295238D01*
X63084333Y-49390476D01*
X63703380Y-50342857D02*
X63703380Y-49771428D01*
X63703380Y-50057142D02*
X62703380Y-50057142D01*
X62846238Y-49961904D01*
X62941476Y-49866666D01*
X62989095Y-49771428D01*
D12*
%TO.C,Rcc2*%
X60135000Y-48472936D02*
X60135000Y-48927064D01*
X58665000Y-48472936D02*
X58665000Y-48927064D01*
%TO.C,Rcc3*%
X62335000Y-43072936D02*
X62335000Y-43527064D01*
X60865000Y-43072936D02*
X60865000Y-43527064D01*
%TO.C,Rcc4*%
X58665000Y-43072936D02*
X58665000Y-43527064D01*
X60135000Y-43072936D02*
X60135000Y-43527064D01*
%TO.C,Rcc1*%
X60865000Y-48472936D02*
X60865000Y-48927064D01*
X62335000Y-48472936D02*
X62335000Y-48927064D01*
%TD*%
M02*
