%TF.GenerationSoftware,KiCad,Pcbnew,(6.0.9-0)*%
%TF.CreationDate,2022-12-16T17:36:52+01:00*%
%TF.ProjectId,distortion-pedal,64697374-6f72-4746-996f-6e2d70656461,rev?*%
%TF.SameCoordinates,Original*%
%TF.FileFunction,Copper,L4,Bot*%
%TF.FilePolarity,Positive*%
%FSLAX46Y46*%
G04 Gerber Fmt 4.6, Leading zero omitted, Abs format (unit mm)*
G04 Created by KiCad (PCBNEW (6.0.9-0)) date 2022-12-16 17:36:52*
%MOMM*%
%LPD*%
G01*
G04 APERTURE LIST*
G04 Aperture macros list*
%AMRoundRect*
0 Rectangle with rounded corners*
0 $1 Rounding radius*
0 $2 $3 $4 $5 $6 $7 $8 $9 X,Y pos of 4 corners*
0 Add a 4 corners polygon primitive as box body*
4,1,4,$2,$3,$4,$5,$6,$7,$8,$9,$2,$3,0*
0 Add four circle primitives for the rounded corners*
1,1,$1+$1,$2,$3*
1,1,$1+$1,$4,$5*
1,1,$1+$1,$6,$7*
1,1,$1+$1,$8,$9*
0 Add four rect primitives between the rounded corners*
20,1,$1+$1,$2,$3,$4,$5,0*
20,1,$1+$1,$4,$5,$6,$7,0*
20,1,$1+$1,$6,$7,$8,$9,0*
20,1,$1+$1,$8,$9,$2,$3,0*%
G04 Aperture macros list end*
%TA.AperFunction,ComponentPad*%
%ADD10RoundRect,0.500000X0.500000X-0.500000X0.500000X0.500000X-0.500000X0.500000X-0.500000X-0.500000X0*%
%TD*%
%TA.AperFunction,ComponentPad*%
%ADD11C,2.000000*%
%TD*%
%TA.AperFunction,ComponentPad*%
%ADD12RoundRect,0.500000X0.500000X0.500000X-0.500000X0.500000X-0.500000X-0.500000X0.500000X-0.500000X0*%
%TD*%
%TA.AperFunction,ComponentPad*%
%ADD13R,1.000000X1.000000*%
%TD*%
%TA.AperFunction,ConnectorPad*%
%ADD14C,3.800000*%
%TD*%
%TA.AperFunction,ComponentPad*%
%ADD15C,2.600000*%
%TD*%
%TA.AperFunction,ComponentPad*%
%ADD16O,0.800000X1.600000*%
%TD*%
%TA.AperFunction,ComponentPad*%
%ADD17RoundRect,0.500000X-0.500000X-0.500000X0.500000X-0.500000X0.500000X0.500000X-0.500000X0.500000X0*%
%TD*%
%TA.AperFunction,SMDPad,CuDef*%
%ADD18RoundRect,0.250000X-0.450000X0.350000X-0.450000X-0.350000X0.450000X-0.350000X0.450000X0.350000X0*%
%TD*%
%TA.AperFunction,ViaPad*%
%ADD19C,0.685800*%
%TD*%
%TA.AperFunction,Conductor*%
%ADD20C,0.254000*%
%TD*%
G04 APERTURE END LIST*
D10*
%TO.P,J4,1*%
%TO.N,+9V*%
X53940000Y-43950000D03*
D11*
%TO.P,J4,2*%
%TO.N,GND*%
X53940000Y-41450000D03*
%TD*%
D12*
%TO.P,D6,1,K*%
%TO.N,Net-(D6-Pad1)*%
X64850000Y-69400000D03*
D11*
%TO.P,D6,2,A*%
%TO.N,Net-(D6-Pad2)*%
X62350000Y-69400000D03*
%TD*%
D10*
%TO.P,Level1,1,1*%
%TO.N,Net-(Level1-Pad1)*%
X47200000Y-61550000D03*
D11*
%TO.P,Level1,2,2*%
%TO.N,Net-(D1-Pad1)*%
X47200000Y-59050000D03*
%TO.P,Level1,3,3*%
X47200000Y-59050000D03*
%TD*%
D10*
%TO.P,Gain1,1,1*%
%TO.N,Net-(Gain1-Pad1)*%
X73900000Y-65650000D03*
D11*
%TO.P,Gain1,2,2*%
%TO.N,Net-(Gain1-Pad2)*%
X73900000Y-63150000D03*
%TO.P,Gain1,3,3*%
X73900000Y-63150000D03*
%TD*%
D13*
%TO.P,TP3,1,1*%
%TO.N,+5V*%
X66800000Y-45600000D03*
%TD*%
%TO.P,TP2,1,1*%
%TO.N,effect_out*%
X61350000Y-56400000D03*
%TD*%
D14*
%TO.P,H1,1,1*%
%TO.N,GND*%
X48000000Y-55300000D03*
D15*
X48000000Y-55300000D03*
%TD*%
D16*
%TO.P,J3,S1,SHIELD*%
%TO.N,GND*%
X64820000Y-44900000D03*
%TO.P,J3,S2,SHIELD*%
X56180000Y-44900000D03*
%TO.P,J3,S3,SHIELD*%
X64820000Y-41100000D03*
%TO.P,J3,S4,SHIELD*%
X56180000Y-41100000D03*
%TD*%
D13*
%TO.P,TP5,1,1*%
%TO.N,Net-(JP2-Pad1)*%
X52500000Y-50800000D03*
%TD*%
D10*
%TO.P,Tone1,1,1*%
%TO.N,Net-(C10-Pad1)*%
X73900000Y-60050000D03*
%TO.P,Tone1,2,2*%
X73900000Y-60050000D03*
D11*
%TO.P,Tone1,3,3*%
%TO.N,Net-(R6-Pad1)*%
X73900000Y-57550000D03*
%TD*%
D14*
%TO.P,H3,1,1*%
%TO.N,GND*%
X48000000Y-71400000D03*
D15*
X48000000Y-71400000D03*
%TD*%
D13*
%TO.P,TP4,1,1*%
%TO.N,Net-(C5-Pad2)*%
X58440000Y-51700000D03*
%TD*%
%TO.P,TP6,1,1*%
%TO.N,Net-(C8-Pad1)*%
X69400000Y-67400000D03*
%TD*%
%TO.P,TP1,1,1*%
%TO.N,Net-(D2-Pad2)*%
X59900000Y-62200000D03*
%TD*%
D12*
%TO.P,J2,1*%
%TO.N,GND*%
X73750000Y-75200000D03*
D11*
%TO.P,J2,2*%
%TO.N,Net-(J2-Pad2)*%
X71250000Y-75200000D03*
%TD*%
D13*
%TO.P,TP9,1,1*%
%TO.N,effect_in*%
X53900000Y-65700000D03*
%TD*%
D15*
%TO.P,H4,1,1*%
%TO.N,GND*%
X73000000Y-71400000D03*
D14*
X73000000Y-71400000D03*
%TD*%
D17*
%TO.P,SW1,1*%
%TO.N,gain_out*%
X67200000Y-72450000D03*
D11*
%TO.P,SW1,2*%
%TO.N,Net-(J2-Pad2)*%
X67200000Y-74950000D03*
%TO.P,SW1,3*%
%TO.N,audio_in*%
X62200000Y-74950000D03*
%TO.P,SW1,4*%
%TO.N,+8V*%
X64700000Y-74950000D03*
%TO.P,SW1,5*%
%TO.N,Net-(D6-Pad2)*%
X62200000Y-72450000D03*
%TO.P,SW1,6*%
%TO.N,GND*%
X64700000Y-72450000D03*
%TD*%
D14*
%TO.P,H2,1,1*%
%TO.N,GND*%
X73000000Y-49500000D03*
D15*
X73000000Y-49500000D03*
%TD*%
D17*
%TO.P,J1,1*%
%TO.N,GND*%
X47050000Y-75200000D03*
D11*
%TO.P,J1,2*%
%TO.N,audio_in*%
X49550000Y-75200000D03*
%TD*%
D18*
%TO.P,Rcc2,1*%
%TO.N,Net-(J3-PadB5)*%
X59400000Y-47700000D03*
%TO.P,Rcc2,2*%
%TO.N,GND*%
X59400000Y-49700000D03*
%TD*%
%TO.P,Rcc3,1*%
%TO.N,+5V*%
X61600000Y-42300000D03*
%TO.P,Rcc3,2*%
%TO.N,Net-(J3-PadA5)*%
X61600000Y-44300000D03*
%TD*%
%TO.P,Rcc4,1*%
%TO.N,+5V*%
X59400000Y-42300000D03*
%TO.P,Rcc4,2*%
%TO.N,Net-(J3-PadB5)*%
X59400000Y-44300000D03*
%TD*%
%TO.P,Rcc1,1*%
%TO.N,Net-(J3-PadA5)*%
X61600000Y-47700000D03*
%TO.P,Rcc1,2*%
%TO.N,GND*%
X61600000Y-49700000D03*
%TD*%
D19*
%TO.N,GND*%
X56970000Y-68190000D03*
X56940000Y-66090000D03*
X55130000Y-67160000D03*
X67380000Y-66480000D03*
X62610000Y-63910000D03*
X73000000Y-54800000D03*
X59700000Y-53900000D03*
X55400000Y-73600000D03*
X68400000Y-51100000D03*
X52050000Y-48800000D03*
X72600000Y-52600000D03*
X59190000Y-59300000D03*
X66400000Y-48900000D03*
X51100000Y-48200000D03*
X57000000Y-62510000D03*
X62400000Y-65800000D03*
X63280000Y-43590000D03*
X59600000Y-72700000D03*
X67800000Y-60050000D03*
X65570000Y-59720000D03*
X48700000Y-51100000D03*
X55300000Y-70800000D03*
X55500000Y-75700000D03*
X57750000Y-43750000D03*
%TO.N,+9V*%
X53210000Y-45720000D03*
X46500000Y-48230000D03*
%TO.N,+8V*%
X51300000Y-76100000D03*
X69100000Y-58950000D03*
X64900000Y-66900000D03*
X64450000Y-54300000D03*
X55350000Y-53400000D03*
X59050000Y-68200000D03*
%TO.N,Net-(J3-PadA5)*%
X61000000Y-46000000D03*
%TO.N,Net-(J3-PadB5)*%
X60000000Y-46000000D03*
%TO.N,Net-(R6-Pad2)*%
X67700000Y-56800000D03*
X63150000Y-59530000D03*
%TO.N,+4V*%
X59200000Y-71700000D03*
X71200000Y-64430600D03*
X69000000Y-54300000D03*
X54100000Y-64350000D03*
X48450000Y-64800000D03*
X72300000Y-59200000D03*
%TD*%
D20*
%TO.N,audio_in*%
X49550000Y-75200000D02*
X49800000Y-74950000D01*
X49800000Y-74950000D02*
X62200000Y-74950000D01*
%TO.N,+5V*%
X66800000Y-44160000D02*
X66800000Y-45600000D01*
X64940000Y-42300000D02*
X66800000Y-44160000D01*
X61600000Y-42300000D02*
X64940000Y-42300000D01*
X59400000Y-42300000D02*
X61600000Y-42300000D01*
%TO.N,Net-(J3-PadA5)*%
X61600000Y-44300000D02*
X61600000Y-45400000D01*
X61600000Y-45400000D02*
X61000000Y-46000000D01*
X61600000Y-46600000D02*
X61600000Y-47700000D01*
X61000000Y-46000000D02*
X61600000Y-46600000D01*
%TO.N,Net-(J3-PadB5)*%
X59400000Y-44300000D02*
X59400000Y-45400000D01*
X59400000Y-45400000D02*
X60000000Y-46000000D01*
X59400000Y-46600000D02*
X59400000Y-47700000D01*
X60000000Y-46000000D02*
X59400000Y-46600000D01*
%TO.N,Net-(R6-Pad2)*%
X63150000Y-59530000D02*
X63150000Y-59500000D01*
X63150000Y-59500000D02*
X65850000Y-56800000D01*
X65850000Y-56800000D02*
X67700000Y-56800000D01*
%TD*%
%TA.AperFunction,Conductor*%
%TO.N,GND*%
G36*
X53439880Y-40220502D02*
G01*
X53486373Y-40274158D01*
X53496477Y-40344432D01*
X53466983Y-40409012D01*
X53436181Y-40434786D01*
X53356333Y-40482290D01*
X53346735Y-40492623D01*
X53350222Y-40501012D01*
X53927188Y-41077978D01*
X53941132Y-41085592D01*
X53942965Y-41085461D01*
X53949580Y-41081210D01*
X54526232Y-40504558D01*
X54532992Y-40492178D01*
X54526962Y-40484123D01*
X54460095Y-40441933D01*
X54453883Y-40438768D01*
X54402267Y-40390020D01*
X54385200Y-40321105D01*
X54408100Y-40253904D01*
X54463697Y-40209751D01*
X54511084Y-40200500D01*
X55639680Y-40200500D01*
X55707801Y-40220502D01*
X55754294Y-40274158D01*
X55764398Y-40344432D01*
X55746766Y-40392897D01*
X55695796Y-40475102D01*
X55688872Y-40490654D01*
X55652597Y-40615512D01*
X55650273Y-40628427D01*
X55650169Y-40629836D01*
X55650000Y-40634462D01*
X55650000Y-40827885D01*
X55654475Y-40843124D01*
X55655865Y-40844329D01*
X55663548Y-40846000D01*
X56691885Y-40846000D01*
X56707124Y-40841525D01*
X56708329Y-40840135D01*
X56710000Y-40832452D01*
X56710000Y-40667912D01*
X56709418Y-40659370D01*
X56696442Y-40564645D01*
X56691864Y-40548247D01*
X56641017Y-40430748D01*
X56632197Y-40416186D01*
X56623782Y-40405794D01*
X56596456Y-40340267D01*
X56608896Y-40270368D01*
X56657150Y-40218292D01*
X56721702Y-40200500D01*
X64279680Y-40200500D01*
X64347801Y-40220502D01*
X64394294Y-40274158D01*
X64404398Y-40344432D01*
X64386766Y-40392897D01*
X64335796Y-40475102D01*
X64328872Y-40490654D01*
X64292597Y-40615512D01*
X64290273Y-40628427D01*
X64290169Y-40629836D01*
X64290000Y-40634462D01*
X64290000Y-40827885D01*
X64294475Y-40843124D01*
X64295865Y-40844329D01*
X64303548Y-40846000D01*
X65331885Y-40846000D01*
X65347124Y-40841525D01*
X65348329Y-40840135D01*
X65350000Y-40832452D01*
X65350000Y-40667912D01*
X65349418Y-40659370D01*
X65336442Y-40564645D01*
X65331864Y-40548247D01*
X65281017Y-40430748D01*
X65272197Y-40416186D01*
X65263782Y-40405794D01*
X65236456Y-40340267D01*
X65248896Y-40270368D01*
X65297150Y-40218292D01*
X65361702Y-40200500D01*
X67962920Y-40200500D01*
X67980242Y-40202466D01*
X67985811Y-40202476D01*
X67999641Y-40205656D01*
X68013482Y-40202524D01*
X68014605Y-40202526D01*
X68026731Y-40203133D01*
X68081618Y-40208539D01*
X68143626Y-40214646D01*
X68167848Y-40219464D01*
X68294085Y-40257757D01*
X68316897Y-40267206D01*
X68417734Y-40321105D01*
X68433232Y-40329389D01*
X68453770Y-40343112D01*
X68555739Y-40426796D01*
X68573204Y-40444261D01*
X68656888Y-40546230D01*
X68670610Y-40566766D01*
X68706794Y-40634462D01*
X68732793Y-40683102D01*
X68742242Y-40705912D01*
X68780538Y-40832156D01*
X68785354Y-40856373D01*
X68787798Y-40881186D01*
X68796917Y-40973770D01*
X68797503Y-40985905D01*
X68794344Y-40999641D01*
X68797475Y-41013480D01*
X68797467Y-41018310D01*
X68799500Y-41036504D01*
X68799500Y-45955524D01*
X68796245Y-45983976D01*
X68794345Y-45992174D01*
X68794344Y-45992892D01*
X68795926Y-45999828D01*
X68796718Y-46006902D01*
X68796510Y-46006925D01*
X68797192Y-46011414D01*
X68808517Y-46155975D01*
X68810520Y-46181547D01*
X68811663Y-46186332D01*
X68811664Y-46186336D01*
X68853356Y-46360812D01*
X68854500Y-46365599D01*
X68856374Y-46370146D01*
X68856375Y-46370149D01*
X68905447Y-46489212D01*
X68926608Y-46540556D01*
X68929170Y-46544760D01*
X68929171Y-46544762D01*
X69005343Y-46669755D01*
X69025083Y-46702148D01*
X69028271Y-46705904D01*
X69028274Y-46705909D01*
X69144332Y-46842673D01*
X69147523Y-46846433D01*
X69290939Y-46969888D01*
X69295132Y-46972484D01*
X69447639Y-47066905D01*
X69447645Y-47066908D01*
X69451833Y-47069501D01*
X69456382Y-47071413D01*
X69456381Y-47071413D01*
X69608473Y-47135356D01*
X69626276Y-47142841D01*
X69810013Y-47188119D01*
X69814923Y-47188539D01*
X69814926Y-47188539D01*
X69978818Y-47202543D01*
X69983774Y-47203341D01*
X69983801Y-47203118D01*
X69990890Y-47203984D01*
X69997832Y-47205645D01*
X69998550Y-47205651D01*
X70008474Y-47203461D01*
X70035628Y-47200500D01*
X74462920Y-47200500D01*
X74480242Y-47202466D01*
X74485811Y-47202476D01*
X74499641Y-47205656D01*
X74513482Y-47202524D01*
X74514605Y-47202526D01*
X74526731Y-47203133D01*
X74581618Y-47208539D01*
X74643626Y-47214646D01*
X74667848Y-47219464D01*
X74794085Y-47257757D01*
X74816897Y-47267206D01*
X74912881Y-47318511D01*
X74933232Y-47329389D01*
X74953770Y-47343112D01*
X75055739Y-47426796D01*
X75073204Y-47444261D01*
X75156888Y-47546230D01*
X75170610Y-47566766D01*
X75181571Y-47587273D01*
X75232793Y-47683102D01*
X75242242Y-47705912D01*
X75280538Y-47832156D01*
X75285354Y-47856373D01*
X75296917Y-47973770D01*
X75297503Y-47985905D01*
X75294344Y-47999641D01*
X75297475Y-48013480D01*
X75297467Y-48018310D01*
X75299500Y-48036504D01*
X75299500Y-75961755D01*
X75297693Y-75977194D01*
X75297630Y-75984383D01*
X75294352Y-75998191D01*
X75297387Y-76012055D01*
X75297376Y-76013284D01*
X75296690Y-76025352D01*
X75288517Y-76103062D01*
X75284332Y-76142857D01*
X75279386Y-76166944D01*
X75240135Y-76293717D01*
X75230605Y-76316385D01*
X75221195Y-76333787D01*
X75199599Y-76373724D01*
X75167477Y-76433125D01*
X75153725Y-76453510D01*
X75069131Y-76555758D01*
X75051686Y-76573082D01*
X74948827Y-76656966D01*
X74928350Y-76670569D01*
X74811173Y-76732869D01*
X74788438Y-76742239D01*
X74661389Y-76780594D01*
X74637269Y-76785370D01*
X74587825Y-76790218D01*
X74519422Y-76796924D01*
X74507055Y-76797518D01*
X74493253Y-76794344D01*
X74479409Y-76797477D01*
X74474585Y-76797468D01*
X74456390Y-76799500D01*
X51475387Y-76799500D01*
X51407266Y-76779498D01*
X51360773Y-76725842D01*
X51350669Y-76655568D01*
X51380163Y-76590988D01*
X51442245Y-76551937D01*
X51481284Y-76541294D01*
X51481286Y-76541293D01*
X51489943Y-76538933D01*
X51605502Y-76467979D01*
X51615859Y-76456537D01*
X51690474Y-76374104D01*
X51690475Y-76374102D01*
X51696502Y-76367444D01*
X51713211Y-76332958D01*
X51751714Y-76253488D01*
X51751715Y-76253486D01*
X51755628Y-76245409D01*
X51778125Y-76111685D01*
X51778268Y-76100000D01*
X51777432Y-76094157D01*
X51760317Y-75974653D01*
X51760316Y-75974651D01*
X51759044Y-75965766D01*
X51752806Y-75952045D01*
X51737990Y-75919461D01*
X51702918Y-75842323D01*
X51614402Y-75739595D01*
X51606871Y-75734714D01*
X51606868Y-75734711D01*
X51508142Y-75670720D01*
X51508140Y-75670719D01*
X51500611Y-75665839D01*
X51492014Y-75663268D01*
X51492012Y-75663267D01*
X51379296Y-75629558D01*
X51379297Y-75629558D01*
X51370693Y-75626985D01*
X51361717Y-75626930D01*
X51361716Y-75626930D01*
X51304770Y-75626582D01*
X51235092Y-75626157D01*
X51104709Y-75663421D01*
X51097122Y-75668208D01*
X51097120Y-75668209D01*
X51036007Y-75706769D01*
X50990025Y-75735781D01*
X50900260Y-75837420D01*
X50896446Y-75845543D01*
X50896445Y-75845545D01*
X50876285Y-75888485D01*
X50842630Y-75960168D01*
X50834594Y-76011779D01*
X50823149Y-76085284D01*
X50823149Y-76085288D01*
X50821768Y-76094157D01*
X50822932Y-76103059D01*
X50822932Y-76103062D01*
X50829743Y-76155143D01*
X50839350Y-76228616D01*
X50893964Y-76352735D01*
X50899740Y-76359606D01*
X50975445Y-76449669D01*
X50975448Y-76449672D01*
X50981219Y-76456537D01*
X51094100Y-76531678D01*
X51102672Y-76534356D01*
X51163093Y-76553233D01*
X51222150Y-76592639D01*
X51250527Y-76657718D01*
X51239215Y-76727808D01*
X51191805Y-76780655D01*
X51125519Y-76799500D01*
X46537080Y-76799500D01*
X46519758Y-76797534D01*
X46514189Y-76797524D01*
X46500359Y-76794344D01*
X46486518Y-76797476D01*
X46485395Y-76797474D01*
X46473269Y-76796867D01*
X46418382Y-76791461D01*
X46356374Y-76785354D01*
X46332152Y-76780536D01*
X46205915Y-76742243D01*
X46183102Y-76732793D01*
X46138703Y-76709061D01*
X46066766Y-76670610D01*
X46046230Y-76656888D01*
X45944261Y-76573204D01*
X45926796Y-76555739D01*
X45843112Y-76453770D01*
X45829389Y-76433232D01*
X45797785Y-76374104D01*
X45767206Y-76316897D01*
X45757758Y-76294088D01*
X45719462Y-76167844D01*
X45714646Y-76143626D01*
X45703860Y-76034114D01*
X45704078Y-76007523D01*
X45705655Y-76000718D01*
X45705656Y-76000000D01*
X45703654Y-75991225D01*
X45700500Y-75963210D01*
X45700500Y-75919461D01*
X45720502Y-75851340D01*
X45774158Y-75804847D01*
X45844432Y-75794743D01*
X45909012Y-75824237D01*
X45947497Y-75884308D01*
X45965007Y-75944579D01*
X45971255Y-75959016D01*
X46044208Y-76082373D01*
X46053857Y-76094811D01*
X46155189Y-76196143D01*
X46167627Y-76205792D01*
X46290984Y-76278745D01*
X46305421Y-76284993D01*
X46444486Y-76325394D01*
X46457073Y-76327693D01*
X46483923Y-76329807D01*
X46488849Y-76330000D01*
X46777885Y-76330000D01*
X46793124Y-76325525D01*
X46794329Y-76324135D01*
X46796000Y-76316452D01*
X46796000Y-76311885D01*
X47304000Y-76311885D01*
X47308475Y-76327124D01*
X47309865Y-76328329D01*
X47317548Y-76330000D01*
X47611151Y-76330000D01*
X47616077Y-76329807D01*
X47642927Y-76327693D01*
X47655514Y-76325394D01*
X47794579Y-76284993D01*
X47809016Y-76278745D01*
X47932373Y-76205792D01*
X47944811Y-76196143D01*
X48046143Y-76094811D01*
X48055792Y-76082373D01*
X48128745Y-75959016D01*
X48134993Y-75944579D01*
X48175394Y-75805514D01*
X48177693Y-75792927D01*
X48179807Y-75766077D01*
X48180000Y-75761151D01*
X48180000Y-75405390D01*
X48200002Y-75337269D01*
X48253658Y-75290776D01*
X48323932Y-75280672D01*
X48388512Y-75310166D01*
X48426896Y-75369892D01*
X48428632Y-75377608D01*
X48428635Y-75377607D01*
X48479779Y-75578985D01*
X48566764Y-75767671D01*
X48686678Y-75937346D01*
X48734946Y-75984367D01*
X48827322Y-76074355D01*
X48835505Y-76082327D01*
X48840301Y-76085532D01*
X48840304Y-76085534D01*
X48909808Y-76131975D01*
X49008261Y-76197759D01*
X49013569Y-76200040D01*
X49013570Y-76200040D01*
X49193857Y-76277497D01*
X49193860Y-76277498D01*
X49199160Y-76279775D01*
X49204790Y-76281049D01*
X49396172Y-76324355D01*
X49396175Y-76324355D01*
X49401808Y-76325630D01*
X49407579Y-76325857D01*
X49407581Y-76325857D01*
X49470503Y-76328329D01*
X49609419Y-76333787D01*
X49725900Y-76316898D01*
X49809327Y-76304802D01*
X49809332Y-76304801D01*
X49815041Y-76303973D01*
X49820505Y-76302118D01*
X49820510Y-76302117D01*
X50006318Y-76239043D01*
X50011786Y-76237187D01*
X50193065Y-76135666D01*
X50352809Y-76002809D01*
X50485666Y-75843065D01*
X50587187Y-75661786D01*
X50610515Y-75593065D01*
X50652117Y-75470510D01*
X50652118Y-75470505D01*
X50653973Y-75465041D01*
X50654801Y-75459332D01*
X50654802Y-75459327D01*
X50673700Y-75328985D01*
X50675667Y-75315419D01*
X50705237Y-75250874D01*
X50765009Y-75212562D01*
X50800363Y-75207500D01*
X61000925Y-75207500D01*
X61069046Y-75227502D01*
X61115539Y-75281158D01*
X61123047Y-75302482D01*
X61128356Y-75323384D01*
X61129779Y-75328985D01*
X61132196Y-75334228D01*
X61214346Y-75512426D01*
X61216764Y-75517671D01*
X61336678Y-75687346D01*
X61485505Y-75832327D01*
X61490301Y-75835532D01*
X61490304Y-75835534D01*
X61559808Y-75881975D01*
X61658261Y-75947759D01*
X61663569Y-75950040D01*
X61663570Y-75950040D01*
X61843857Y-76027497D01*
X61843860Y-76027498D01*
X61849160Y-76029775D01*
X61854790Y-76031049D01*
X62046172Y-76074355D01*
X62046175Y-76074355D01*
X62051808Y-76075630D01*
X62057579Y-76075857D01*
X62057581Y-76075857D01*
X62120985Y-76078348D01*
X62259419Y-76083787D01*
X62362230Y-76068880D01*
X62459327Y-76054802D01*
X62459332Y-76054801D01*
X62465041Y-76053973D01*
X62470505Y-76052118D01*
X62470510Y-76052117D01*
X62644464Y-75993067D01*
X62661786Y-75987187D01*
X62843065Y-75885666D01*
X63002809Y-75752809D01*
X63135666Y-75593065D01*
X63237187Y-75411786D01*
X63262482Y-75337269D01*
X63302117Y-75220510D01*
X63302118Y-75220505D01*
X63303973Y-75215041D01*
X63304801Y-75209332D01*
X63304802Y-75209327D01*
X63325055Y-75069644D01*
X63354625Y-75005098D01*
X63414397Y-74966786D01*
X63485393Y-74966870D01*
X63545074Y-75005325D01*
X63574490Y-75069941D01*
X63575481Y-75079480D01*
X63578635Y-75127607D01*
X63580056Y-75133203D01*
X63580057Y-75133208D01*
X63628358Y-75323390D01*
X63629779Y-75328985D01*
X63632196Y-75334228D01*
X63714346Y-75512426D01*
X63716764Y-75517671D01*
X63836678Y-75687346D01*
X63985505Y-75832327D01*
X63990301Y-75835532D01*
X63990304Y-75835534D01*
X64059808Y-75881975D01*
X64158261Y-75947759D01*
X64163569Y-75950040D01*
X64163570Y-75950040D01*
X64343857Y-76027497D01*
X64343860Y-76027498D01*
X64349160Y-76029775D01*
X64354790Y-76031049D01*
X64546172Y-76074355D01*
X64546175Y-76074355D01*
X64551808Y-76075630D01*
X64557579Y-76075857D01*
X64557581Y-76075857D01*
X64620985Y-76078348D01*
X64759419Y-76083787D01*
X64862230Y-76068880D01*
X64959327Y-76054802D01*
X64959332Y-76054801D01*
X64965041Y-76053973D01*
X64970505Y-76052118D01*
X64970510Y-76052117D01*
X65144464Y-75993067D01*
X65161786Y-75987187D01*
X65343065Y-75885666D01*
X65502809Y-75752809D01*
X65635666Y-75593065D01*
X65737187Y-75411786D01*
X65762482Y-75337269D01*
X65802117Y-75220510D01*
X65802118Y-75220505D01*
X65803973Y-75215041D01*
X65804801Y-75209332D01*
X65804802Y-75209327D01*
X65825055Y-75069644D01*
X65854625Y-75005098D01*
X65914397Y-74966786D01*
X65985393Y-74966870D01*
X66045074Y-75005325D01*
X66074490Y-75069941D01*
X66075481Y-75079480D01*
X66078635Y-75127607D01*
X66080056Y-75133203D01*
X66080057Y-75133208D01*
X66128358Y-75323390D01*
X66129779Y-75328985D01*
X66132196Y-75334228D01*
X66214346Y-75512426D01*
X66216764Y-75517671D01*
X66336678Y-75687346D01*
X66485505Y-75832327D01*
X66490301Y-75835532D01*
X66490304Y-75835534D01*
X66559808Y-75881975D01*
X66658261Y-75947759D01*
X66663569Y-75950040D01*
X66663570Y-75950040D01*
X66843857Y-76027497D01*
X66843860Y-76027498D01*
X66849160Y-76029775D01*
X66854790Y-76031049D01*
X67046172Y-76074355D01*
X67046175Y-76074355D01*
X67051808Y-76075630D01*
X67057579Y-76075857D01*
X67057581Y-76075857D01*
X67120985Y-76078348D01*
X67259419Y-76083787D01*
X67362230Y-76068880D01*
X67459327Y-76054802D01*
X67459332Y-76054801D01*
X67465041Y-76053973D01*
X67470505Y-76052118D01*
X67470510Y-76052117D01*
X67644464Y-75993067D01*
X67661786Y-75987187D01*
X67843065Y-75885666D01*
X68002809Y-75752809D01*
X68135666Y-75593065D01*
X68237187Y-75411786D01*
X68262482Y-75337269D01*
X68302117Y-75220510D01*
X68302118Y-75220505D01*
X68303973Y-75215041D01*
X68304801Y-75209332D01*
X68304802Y-75209327D01*
X68310463Y-75170280D01*
X70115046Y-75170280D01*
X70128635Y-75377607D01*
X70130056Y-75383203D01*
X70130057Y-75383208D01*
X70152637Y-75472115D01*
X70179779Y-75578985D01*
X70266764Y-75767671D01*
X70386678Y-75937346D01*
X70434946Y-75984367D01*
X70527322Y-76074355D01*
X70535505Y-76082327D01*
X70540301Y-76085532D01*
X70540304Y-76085534D01*
X70609808Y-76131975D01*
X70708261Y-76197759D01*
X70713569Y-76200040D01*
X70713570Y-76200040D01*
X70893857Y-76277497D01*
X70893860Y-76277498D01*
X70899160Y-76279775D01*
X70904790Y-76281049D01*
X71096172Y-76324355D01*
X71096175Y-76324355D01*
X71101808Y-76325630D01*
X71107579Y-76325857D01*
X71107581Y-76325857D01*
X71170503Y-76328329D01*
X71309419Y-76333787D01*
X71425900Y-76316898D01*
X71509327Y-76304802D01*
X71509332Y-76304801D01*
X71515041Y-76303973D01*
X71520505Y-76302118D01*
X71520510Y-76302117D01*
X71706318Y-76239043D01*
X71711786Y-76237187D01*
X71893065Y-76135666D01*
X72052809Y-76002809D01*
X72185666Y-75843065D01*
X72287187Y-75661786D01*
X72310515Y-75593065D01*
X72352117Y-75470510D01*
X72352118Y-75470505D01*
X72353973Y-75465041D01*
X72354801Y-75459332D01*
X72354802Y-75459327D01*
X72369304Y-75359306D01*
X72398874Y-75294760D01*
X72458646Y-75256448D01*
X72529642Y-75256532D01*
X72589323Y-75294987D01*
X72618739Y-75359603D01*
X72620000Y-75377386D01*
X72620000Y-75761151D01*
X72620193Y-75766077D01*
X72622307Y-75792927D01*
X72624606Y-75805514D01*
X72665007Y-75944579D01*
X72671255Y-75959016D01*
X72744208Y-76082373D01*
X72753857Y-76094811D01*
X72855189Y-76196143D01*
X72867627Y-76205792D01*
X72990984Y-76278745D01*
X73005421Y-76284993D01*
X73144486Y-76325394D01*
X73157073Y-76327693D01*
X73183923Y-76329807D01*
X73188849Y-76330000D01*
X73477885Y-76330000D01*
X73493124Y-76325525D01*
X73494329Y-76324135D01*
X73496000Y-76316452D01*
X73496000Y-76311885D01*
X74004000Y-76311885D01*
X74008475Y-76327124D01*
X74009865Y-76328329D01*
X74017548Y-76330000D01*
X74311151Y-76330000D01*
X74316077Y-76329807D01*
X74342927Y-76327693D01*
X74355514Y-76325394D01*
X74494579Y-76284993D01*
X74509016Y-76278745D01*
X74632373Y-76205792D01*
X74644811Y-76196143D01*
X74746143Y-76094811D01*
X74755792Y-76082373D01*
X74828745Y-75959016D01*
X74834993Y-75944579D01*
X74875394Y-75805514D01*
X74877693Y-75792927D01*
X74879807Y-75766077D01*
X74880000Y-75761151D01*
X74880000Y-75472115D01*
X74875525Y-75456876D01*
X74874135Y-75455671D01*
X74866452Y-75454000D01*
X74022115Y-75454000D01*
X74006876Y-75458475D01*
X74005671Y-75459865D01*
X74004000Y-75467548D01*
X74004000Y-76311885D01*
X73496000Y-76311885D01*
X73496000Y-74927885D01*
X74004000Y-74927885D01*
X74008475Y-74943124D01*
X74009865Y-74944329D01*
X74017548Y-74946000D01*
X74861885Y-74946000D01*
X74877124Y-74941525D01*
X74878329Y-74940135D01*
X74880000Y-74932452D01*
X74880000Y-74638850D01*
X74879807Y-74633923D01*
X74877693Y-74607073D01*
X74875394Y-74594486D01*
X74834993Y-74455421D01*
X74828745Y-74440984D01*
X74755792Y-74317627D01*
X74746143Y-74305189D01*
X74644811Y-74203857D01*
X74632373Y-74194208D01*
X74509016Y-74121255D01*
X74494579Y-74115007D01*
X74355514Y-74074606D01*
X74342927Y-74072307D01*
X74316077Y-74070193D01*
X74311150Y-74070000D01*
X74022115Y-74070000D01*
X74006876Y-74074475D01*
X74005671Y-74075865D01*
X74004000Y-74083548D01*
X74004000Y-74927885D01*
X73496000Y-74927885D01*
X73496000Y-74088115D01*
X73491525Y-74072876D01*
X73490135Y-74071671D01*
X73482452Y-74070000D01*
X73188850Y-74070000D01*
X73183923Y-74070193D01*
X73157073Y-74072307D01*
X73144486Y-74074606D01*
X73005421Y-74115007D01*
X72990984Y-74121255D01*
X72867627Y-74194208D01*
X72855189Y-74203857D01*
X72753857Y-74305189D01*
X72744208Y-74317627D01*
X72671255Y-74440984D01*
X72665007Y-74455421D01*
X72624606Y-74594486D01*
X72622307Y-74607073D01*
X72620193Y-74633923D01*
X72620000Y-74638850D01*
X72620000Y-75005481D01*
X72599998Y-75073602D01*
X72546342Y-75120095D01*
X72476068Y-75130199D01*
X72411488Y-75100705D01*
X72373104Y-75040979D01*
X72368529Y-75017010D01*
X72366861Y-74998854D01*
X72366860Y-74998851D01*
X72366332Y-74993100D01*
X72354177Y-74950000D01*
X72311502Y-74798689D01*
X72309934Y-74793129D01*
X72218039Y-74606785D01*
X72093724Y-74440307D01*
X71976177Y-74331648D01*
X71945394Y-74303192D01*
X71945392Y-74303190D01*
X71941153Y-74299272D01*
X71765435Y-74188402D01*
X71572455Y-74111411D01*
X71566795Y-74110285D01*
X71566791Y-74110284D01*
X71374344Y-74072004D01*
X71374339Y-74072004D01*
X71368676Y-74070877D01*
X71362901Y-74070801D01*
X71362897Y-74070801D01*
X71258768Y-74069438D01*
X71160922Y-74068157D01*
X71155225Y-74069136D01*
X71155224Y-74069136D01*
X70961842Y-74102365D01*
X70961839Y-74102366D01*
X70956152Y-74103343D01*
X70761222Y-74175256D01*
X70582662Y-74281488D01*
X70426451Y-74418481D01*
X70422880Y-74423011D01*
X70323804Y-74548689D01*
X70297821Y-74581648D01*
X70295133Y-74586757D01*
X70203769Y-74760411D01*
X70203767Y-74760416D01*
X70201080Y-74765523D01*
X70199366Y-74771044D01*
X70144946Y-74946305D01*
X70139467Y-74963949D01*
X70115046Y-75170280D01*
X68310463Y-75170280D01*
X68333254Y-75013093D01*
X68333787Y-75009419D01*
X68335343Y-74950000D01*
X68318900Y-74771044D01*
X68316861Y-74748854D01*
X68316860Y-74748851D01*
X68316332Y-74743100D01*
X68259934Y-74543129D01*
X68168039Y-74356785D01*
X68043724Y-74190307D01*
X67918559Y-74074606D01*
X67895394Y-74053192D01*
X67895392Y-74053190D01*
X67891153Y-74049272D01*
X67715435Y-73938402D01*
X67522455Y-73861411D01*
X67516795Y-73860285D01*
X67516791Y-73860284D01*
X67364938Y-73830079D01*
X67302028Y-73797172D01*
X67266896Y-73735477D01*
X67270696Y-73664582D01*
X67312222Y-73606996D01*
X67378288Y-73581002D01*
X67389519Y-73580500D01*
X67763672Y-73580500D01*
X67766119Y-73580307D01*
X67766130Y-73580307D01*
X67785655Y-73578770D01*
X67799416Y-73577687D01*
X67844046Y-73564721D01*
X67944779Y-73535455D01*
X67944780Y-73535454D01*
X67952392Y-73533243D01*
X68027901Y-73488587D01*
X68082682Y-73456190D01*
X68082685Y-73456188D01*
X68089509Y-73452152D01*
X68202152Y-73339509D01*
X68206188Y-73332685D01*
X68206190Y-73332682D01*
X68279206Y-73209218D01*
X68283243Y-73202392D01*
X68286445Y-73191373D01*
X68325890Y-73055601D01*
X68327687Y-73049416D01*
X68329834Y-73022138D01*
X68330307Y-73016130D01*
X68330307Y-73016119D01*
X68330500Y-73013672D01*
X68330500Y-73005272D01*
X71760000Y-73005272D01*
X71767054Y-73015244D01*
X71800716Y-73043390D01*
X71807648Y-73048425D01*
X72034841Y-73190943D01*
X72042393Y-73194992D01*
X72286833Y-73305362D01*
X72294864Y-73308348D01*
X72552022Y-73384522D01*
X72560374Y-73386389D01*
X72825496Y-73426958D01*
X72834029Y-73427674D01*
X73102199Y-73431887D01*
X73110750Y-73431438D01*
X73377015Y-73399217D01*
X73385416Y-73397615D01*
X73644857Y-73329552D01*
X73652959Y-73326825D01*
X73900753Y-73224185D01*
X73908421Y-73220379D01*
X74139995Y-73085058D01*
X74147068Y-73080251D01*
X74230326Y-73014968D01*
X74238795Y-73003111D01*
X74232279Y-72991489D01*
X73012812Y-71772022D01*
X72998868Y-71764408D01*
X72997035Y-71764539D01*
X72990420Y-71768790D01*
X71767292Y-72991918D01*
X71760000Y-73005272D01*
X68330500Y-73005272D01*
X68330500Y-71886328D01*
X68327687Y-71850584D01*
X68314721Y-71805954D01*
X68285455Y-71705221D01*
X68285454Y-71705220D01*
X68283243Y-71697608D01*
X68255522Y-71650734D01*
X68206190Y-71567318D01*
X68206188Y-71567315D01*
X68202152Y-71560491D01*
X68089509Y-71447848D01*
X68082685Y-71443812D01*
X68082682Y-71443810D01*
X67979812Y-71382973D01*
X70965616Y-71382973D01*
X70981055Y-71650734D01*
X70982128Y-71659234D01*
X71033765Y-71922429D01*
X71035976Y-71930681D01*
X71122856Y-72184439D01*
X71126171Y-72192324D01*
X71246684Y-72431937D01*
X71251041Y-72439303D01*
X71383527Y-72632071D01*
X71393780Y-72640415D01*
X71407521Y-72633269D01*
X72627978Y-71412812D01*
X72634356Y-71401132D01*
X73364408Y-71401132D01*
X73364539Y-71402965D01*
X73368790Y-71409580D01*
X74591467Y-72632257D01*
X74603677Y-72638924D01*
X74615176Y-72630235D01*
X74715452Y-72493725D01*
X74720036Y-72486502D01*
X74848012Y-72250800D01*
X74851580Y-72243006D01*
X74946383Y-71992117D01*
X74948856Y-71983925D01*
X75008735Y-71722484D01*
X75010073Y-71714030D01*
X75034077Y-71445076D01*
X75034323Y-71440139D01*
X75034717Y-71402485D01*
X75034574Y-71397519D01*
X75016209Y-71128131D01*
X75015048Y-71119657D01*
X74960659Y-70857023D01*
X74958355Y-70848769D01*
X74868826Y-70595947D01*
X74865430Y-70588099D01*
X74742411Y-70349755D01*
X74737983Y-70342443D01*
X74615822Y-70168626D01*
X74605300Y-70160246D01*
X74591912Y-70167298D01*
X73372022Y-71387188D01*
X73364408Y-71401132D01*
X72634356Y-71401132D01*
X72635592Y-71398868D01*
X72635461Y-71397035D01*
X72631210Y-71390420D01*
X71408051Y-70167261D01*
X71396040Y-70160702D01*
X71384302Y-70169670D01*
X71273191Y-70324295D01*
X71268677Y-70331576D01*
X71143181Y-70568598D01*
X71139695Y-70576426D01*
X71047524Y-70828294D01*
X71045135Y-70836517D01*
X70987998Y-71098573D01*
X70986749Y-71107029D01*
X70965705Y-71374422D01*
X70965616Y-71382973D01*
X67979812Y-71382973D01*
X67959218Y-71370794D01*
X67959219Y-71370794D01*
X67952392Y-71366757D01*
X67944780Y-71364546D01*
X67944779Y-71364545D01*
X67805601Y-71324110D01*
X67805602Y-71324110D01*
X67799416Y-71322313D01*
X67785655Y-71321230D01*
X67766130Y-71319693D01*
X67766119Y-71319693D01*
X67763672Y-71319500D01*
X66636328Y-71319500D01*
X66633881Y-71319693D01*
X66633870Y-71319693D01*
X66614345Y-71321230D01*
X66600584Y-71322313D01*
X66594398Y-71324110D01*
X66594399Y-71324110D01*
X66455221Y-71364545D01*
X66455220Y-71364546D01*
X66447608Y-71366757D01*
X66440781Y-71370794D01*
X66440782Y-71370794D01*
X66317318Y-71443810D01*
X66317315Y-71443812D01*
X66310491Y-71447848D01*
X66197848Y-71560491D01*
X66193812Y-71567315D01*
X66193810Y-71567318D01*
X66144478Y-71650734D01*
X66116757Y-71697608D01*
X66114546Y-71705220D01*
X66114545Y-71705221D01*
X66085279Y-71805954D01*
X66072313Y-71850584D01*
X66069500Y-71886328D01*
X66069500Y-72255507D01*
X66049498Y-72323628D01*
X65995842Y-72370121D01*
X65925568Y-72380225D01*
X65860988Y-72350731D01*
X65822604Y-72291005D01*
X65818029Y-72267036D01*
X65816367Y-72248946D01*
X65814270Y-72237631D01*
X65761033Y-72048868D01*
X65756911Y-72038129D01*
X65670164Y-71862225D01*
X65669293Y-71860803D01*
X65660587Y-71854270D01*
X65648168Y-71861042D01*
X65072022Y-72437188D01*
X65064408Y-72451132D01*
X65064539Y-72452965D01*
X65068790Y-72459580D01*
X65646398Y-73037188D01*
X65658778Y-73043948D01*
X65665358Y-73039022D01*
X65733906Y-72916622D01*
X65738587Y-72906109D01*
X65801629Y-72720392D01*
X65804314Y-72709209D01*
X65818804Y-72609272D01*
X65848374Y-72544726D01*
X65908146Y-72506414D01*
X65979143Y-72506498D01*
X66038823Y-72544953D01*
X66068239Y-72609569D01*
X66069500Y-72627352D01*
X66069500Y-73013672D01*
X66069693Y-73016119D01*
X66069693Y-73016130D01*
X66070166Y-73022138D01*
X66072313Y-73049416D01*
X66074110Y-73055601D01*
X66113556Y-73191373D01*
X66116757Y-73202392D01*
X66120794Y-73209218D01*
X66193810Y-73332682D01*
X66193812Y-73332685D01*
X66197848Y-73339509D01*
X66310491Y-73452152D01*
X66317315Y-73456188D01*
X66317318Y-73456190D01*
X66372099Y-73488587D01*
X66447608Y-73533243D01*
X66455220Y-73535454D01*
X66455221Y-73535455D01*
X66555954Y-73564721D01*
X66600584Y-73577687D01*
X66614345Y-73578770D01*
X66633870Y-73580307D01*
X66633881Y-73580307D01*
X66636328Y-73580500D01*
X67016705Y-73580500D01*
X67084826Y-73600502D01*
X67131319Y-73654158D01*
X67141423Y-73724432D01*
X67111929Y-73789012D01*
X67052203Y-73827396D01*
X67038043Y-73830680D01*
X66911842Y-73852365D01*
X66911839Y-73852366D01*
X66906152Y-73853343D01*
X66711222Y-73925256D01*
X66532662Y-74031488D01*
X66376451Y-74168481D01*
X66372880Y-74173011D01*
X66268680Y-74305189D01*
X66247821Y-74331648D01*
X66245133Y-74336757D01*
X66153769Y-74510411D01*
X66153767Y-74510416D01*
X66151080Y-74515523D01*
X66130548Y-74581648D01*
X66096444Y-74691480D01*
X66089467Y-74713949D01*
X66088789Y-74719678D01*
X66075102Y-74835318D01*
X66047231Y-74900615D01*
X65988483Y-74940479D01*
X65917509Y-74942253D01*
X65856842Y-74905374D01*
X65825744Y-74841550D01*
X65824504Y-74832037D01*
X65816861Y-74748854D01*
X65816860Y-74748851D01*
X65816332Y-74743100D01*
X65759934Y-74543129D01*
X65668039Y-74356785D01*
X65543724Y-74190307D01*
X65418559Y-74074606D01*
X65395394Y-74053192D01*
X65395392Y-74053190D01*
X65391153Y-74049272D01*
X65215435Y-73938402D01*
X65022455Y-73861411D01*
X65016798Y-73860286D01*
X65016792Y-73860284D01*
X64905793Y-73838205D01*
X64822006Y-73821539D01*
X64759097Y-73788633D01*
X64723965Y-73726938D01*
X64727765Y-73656043D01*
X64769290Y-73598457D01*
X64828507Y-73573265D01*
X64959210Y-73554313D01*
X64970392Y-73551629D01*
X65156109Y-73488587D01*
X65166622Y-73483906D01*
X65284193Y-73418062D01*
X65294058Y-73407984D01*
X65291102Y-73400312D01*
X64712812Y-72822022D01*
X64698868Y-72814408D01*
X64697035Y-72814539D01*
X64690420Y-72818790D01*
X64113400Y-73395810D01*
X64107204Y-73407156D01*
X64117086Y-73419645D01*
X64153697Y-73444108D01*
X64163807Y-73449598D01*
X64344008Y-73527018D01*
X64354951Y-73530573D01*
X64546237Y-73573857D01*
X64563375Y-73576113D01*
X64563060Y-73578509D01*
X64620476Y-73597866D01*
X64664810Y-73653319D01*
X64672125Y-73723938D01*
X64640100Y-73787301D01*
X64578902Y-73823292D01*
X64569565Y-73825263D01*
X64468813Y-73842576D01*
X64411842Y-73852365D01*
X64411839Y-73852366D01*
X64406152Y-73853343D01*
X64211222Y-73925256D01*
X64032662Y-74031488D01*
X63876451Y-74168481D01*
X63872880Y-74173011D01*
X63768680Y-74305189D01*
X63747821Y-74331648D01*
X63745133Y-74336757D01*
X63653769Y-74510411D01*
X63653767Y-74510416D01*
X63651080Y-74515523D01*
X63630548Y-74581648D01*
X63596444Y-74691480D01*
X63589467Y-74713949D01*
X63588789Y-74719678D01*
X63575102Y-74835318D01*
X63547231Y-74900615D01*
X63488483Y-74940479D01*
X63417509Y-74942253D01*
X63356842Y-74905374D01*
X63325744Y-74841550D01*
X63324504Y-74832037D01*
X63316861Y-74748854D01*
X63316860Y-74748851D01*
X63316332Y-74743100D01*
X63259934Y-74543129D01*
X63168039Y-74356785D01*
X63043724Y-74190307D01*
X62918559Y-74074606D01*
X62895394Y-74053192D01*
X62895392Y-74053190D01*
X62891153Y-74049272D01*
X62715435Y-73938402D01*
X62522455Y-73861411D01*
X62516798Y-73860286D01*
X62516792Y-73860284D01*
X62406386Y-73838324D01*
X62323474Y-73821831D01*
X62260565Y-73788925D01*
X62225433Y-73727230D01*
X62229233Y-73656335D01*
X62270758Y-73598749D01*
X62329975Y-73573557D01*
X62378555Y-73566513D01*
X62465041Y-73553973D01*
X62470505Y-73552118D01*
X62470510Y-73552117D01*
X62656318Y-73489043D01*
X62661786Y-73487187D01*
X62843065Y-73385666D01*
X63002809Y-73252809D01*
X63135666Y-73093065D01*
X63237187Y-72911786D01*
X63253179Y-72864675D01*
X63302117Y-72720510D01*
X63302118Y-72720505D01*
X63303973Y-72715041D01*
X63304801Y-72709332D01*
X63304802Y-72709327D01*
X63325400Y-72567263D01*
X63354970Y-72502717D01*
X63414742Y-72464405D01*
X63485738Y-72464489D01*
X63545419Y-72502944D01*
X63574835Y-72567560D01*
X63575826Y-72577102D01*
X63578753Y-72621760D01*
X63580554Y-72633130D01*
X63628830Y-72823218D01*
X63632671Y-72834065D01*
X63714781Y-73012174D01*
X63720533Y-73022138D01*
X63730002Y-73035536D01*
X63740592Y-73043926D01*
X63753892Y-73036898D01*
X64327978Y-72462812D01*
X64335592Y-72448868D01*
X64335461Y-72447035D01*
X64331210Y-72440420D01*
X63752252Y-71861462D01*
X63739872Y-71854702D01*
X63733906Y-71859168D01*
X63654234Y-72010603D01*
X63649830Y-72021236D01*
X63591670Y-72208538D01*
X63589280Y-72219782D01*
X63575322Y-72337713D01*
X63547452Y-72403010D01*
X63488703Y-72442874D01*
X63417729Y-72444648D01*
X63357062Y-72407769D01*
X63325965Y-72343946D01*
X63324724Y-72334432D01*
X63316861Y-72248854D01*
X63316860Y-72248851D01*
X63316332Y-72243100D01*
X63306585Y-72208538D01*
X63265118Y-72061509D01*
X63259934Y-72043129D01*
X63168039Y-71856785D01*
X63054861Y-71705221D01*
X63047177Y-71694931D01*
X63047176Y-71694930D01*
X63043724Y-71690307D01*
X62918610Y-71574653D01*
X62895394Y-71553192D01*
X62895392Y-71553190D01*
X62891153Y-71549272D01*
X62801370Y-71492623D01*
X64106735Y-71492623D01*
X64110222Y-71501012D01*
X64687188Y-72077978D01*
X64701132Y-72085592D01*
X64702965Y-72085461D01*
X64709580Y-72081210D01*
X65286232Y-71504558D01*
X65292992Y-71492178D01*
X65286962Y-71484123D01*
X65220091Y-71441930D01*
X65209843Y-71436709D01*
X65027676Y-71364032D01*
X65016648Y-71360765D01*
X64824291Y-71322503D01*
X64812844Y-71321300D01*
X64616743Y-71318733D01*
X64605263Y-71319636D01*
X64411972Y-71352850D01*
X64400864Y-71355827D01*
X64216857Y-71423710D01*
X64206478Y-71428660D01*
X64116333Y-71482290D01*
X64106735Y-71492623D01*
X62801370Y-71492623D01*
X62715435Y-71438402D01*
X62522455Y-71361411D01*
X62516795Y-71360285D01*
X62516791Y-71360284D01*
X62324344Y-71322004D01*
X62324339Y-71322004D01*
X62318676Y-71320877D01*
X62312901Y-71320801D01*
X62312897Y-71320801D01*
X62208768Y-71319438D01*
X62110922Y-71318157D01*
X62105225Y-71319136D01*
X62105224Y-71319136D01*
X61911842Y-71352365D01*
X61911839Y-71352366D01*
X61906152Y-71353343D01*
X61711222Y-71425256D01*
X61532662Y-71531488D01*
X61376451Y-71668481D01*
X61372880Y-71673011D01*
X61300829Y-71764408D01*
X61247821Y-71831648D01*
X61245133Y-71836757D01*
X61153769Y-72010411D01*
X61153767Y-72010416D01*
X61151080Y-72015523D01*
X61136801Y-72061509D01*
X61096182Y-72192324D01*
X61089467Y-72213949D01*
X61065046Y-72420280D01*
X61078635Y-72627607D01*
X61080056Y-72633203D01*
X61080057Y-72633208D01*
X61126077Y-72814408D01*
X61129779Y-72828985D01*
X61216764Y-73017671D01*
X61336678Y-73187346D01*
X61485505Y-73332327D01*
X61490301Y-73335532D01*
X61490304Y-73335534D01*
X61613816Y-73418062D01*
X61658261Y-73447759D01*
X61663569Y-73450040D01*
X61663570Y-73450040D01*
X61843857Y-73527497D01*
X61843860Y-73527498D01*
X61849160Y-73529775D01*
X62051808Y-73575630D01*
X62057582Y-73575857D01*
X62062602Y-73576518D01*
X62127529Y-73605242D01*
X62166619Y-73664508D01*
X62167462Y-73735500D01*
X62129791Y-73795678D01*
X62067492Y-73825620D01*
X62038043Y-73830680D01*
X61911842Y-73852365D01*
X61911839Y-73852366D01*
X61906152Y-73853343D01*
X61711222Y-73925256D01*
X61532662Y-74031488D01*
X61376451Y-74168481D01*
X61372880Y-74173011D01*
X61268680Y-74305189D01*
X61247821Y-74331648D01*
X61245133Y-74336757D01*
X61153769Y-74510411D01*
X61153767Y-74510416D01*
X61151080Y-74515523D01*
X61130548Y-74581648D01*
X61123649Y-74603865D01*
X61084346Y-74662990D01*
X61019317Y-74691480D01*
X61003317Y-74692500D01*
X50638661Y-74692500D01*
X50570540Y-74672498D01*
X50525656Y-74622230D01*
X50520595Y-74611967D01*
X50520592Y-74611963D01*
X50518039Y-74606785D01*
X50503084Y-74586757D01*
X50397177Y-74444931D01*
X50397176Y-74444930D01*
X50393724Y-74440307D01*
X50276177Y-74331648D01*
X50245394Y-74303192D01*
X50245392Y-74303190D01*
X50241153Y-74299272D01*
X50065435Y-74188402D01*
X49872455Y-74111411D01*
X49866795Y-74110285D01*
X49866791Y-74110284D01*
X49674344Y-74072004D01*
X49674339Y-74072004D01*
X49668676Y-74070877D01*
X49662901Y-74070801D01*
X49662897Y-74070801D01*
X49558768Y-74069438D01*
X49460922Y-74068157D01*
X49455225Y-74069136D01*
X49455224Y-74069136D01*
X49261842Y-74102365D01*
X49261839Y-74102366D01*
X49256152Y-74103343D01*
X49061222Y-74175256D01*
X48882662Y-74281488D01*
X48726451Y-74418481D01*
X48722880Y-74423011D01*
X48623804Y-74548689D01*
X48597821Y-74581648D01*
X48595133Y-74586757D01*
X48503769Y-74760411D01*
X48503767Y-74760416D01*
X48501080Y-74765523D01*
X48499366Y-74771044D01*
X48444946Y-74946305D01*
X48439467Y-74963949D01*
X48438789Y-74969678D01*
X48431127Y-75034413D01*
X48403256Y-75099710D01*
X48344508Y-75139574D01*
X48273534Y-75141348D01*
X48212867Y-75104469D01*
X48181769Y-75040645D01*
X48180000Y-75019603D01*
X48180000Y-74638850D01*
X48179807Y-74633923D01*
X48177693Y-74607073D01*
X48175394Y-74594486D01*
X48134993Y-74455421D01*
X48128745Y-74440984D01*
X48055792Y-74317627D01*
X48046143Y-74305189D01*
X47944811Y-74203857D01*
X47932373Y-74194208D01*
X47809016Y-74121255D01*
X47794579Y-74115007D01*
X47655514Y-74074606D01*
X47642927Y-74072307D01*
X47616077Y-74070193D01*
X47611150Y-74070000D01*
X47322115Y-74070000D01*
X47306876Y-74074475D01*
X47305671Y-74075865D01*
X47304000Y-74083548D01*
X47304000Y-76311885D01*
X46796000Y-76311885D01*
X46796000Y-74088115D01*
X46791525Y-74072876D01*
X46790135Y-74071671D01*
X46782452Y-74070000D01*
X46488850Y-74070000D01*
X46483923Y-74070193D01*
X46457073Y-74072307D01*
X46444486Y-74074606D01*
X46305421Y-74115007D01*
X46290984Y-74121255D01*
X46167627Y-74194208D01*
X46155189Y-74203857D01*
X46053857Y-74305189D01*
X46044208Y-74317627D01*
X45971255Y-74440984D01*
X45965007Y-74455421D01*
X45947497Y-74515692D01*
X45909284Y-74575527D01*
X45844788Y-74605205D01*
X45774485Y-74595302D01*
X45720697Y-74548962D01*
X45700500Y-74480539D01*
X45700500Y-73005272D01*
X46760000Y-73005272D01*
X46767054Y-73015244D01*
X46800716Y-73043390D01*
X46807648Y-73048425D01*
X47034841Y-73190943D01*
X47042393Y-73194992D01*
X47286833Y-73305362D01*
X47294864Y-73308348D01*
X47552022Y-73384522D01*
X47560374Y-73386389D01*
X47825496Y-73426958D01*
X47834029Y-73427674D01*
X48102199Y-73431887D01*
X48110750Y-73431438D01*
X48377015Y-73399217D01*
X48385416Y-73397615D01*
X48644857Y-73329552D01*
X48652959Y-73326825D01*
X48900753Y-73224185D01*
X48908421Y-73220379D01*
X49139995Y-73085058D01*
X49147068Y-73080251D01*
X49230326Y-73014968D01*
X49238795Y-73003111D01*
X49232279Y-72991489D01*
X48012812Y-71772022D01*
X47998868Y-71764408D01*
X47997035Y-71764539D01*
X47990420Y-71768790D01*
X46767292Y-72991918D01*
X46760000Y-73005272D01*
X45700500Y-73005272D01*
X45700500Y-71382973D01*
X45965616Y-71382973D01*
X45981055Y-71650734D01*
X45982128Y-71659234D01*
X46033765Y-71922429D01*
X46035976Y-71930681D01*
X46122856Y-72184439D01*
X46126171Y-72192324D01*
X46246684Y-72431937D01*
X46251041Y-72439303D01*
X46383527Y-72632071D01*
X46393780Y-72640415D01*
X46407521Y-72633269D01*
X47627978Y-71412812D01*
X47634356Y-71401132D01*
X48364408Y-71401132D01*
X48364539Y-71402965D01*
X48368790Y-71409580D01*
X49591467Y-72632257D01*
X49603677Y-72638924D01*
X49615176Y-72630235D01*
X49715452Y-72493725D01*
X49720036Y-72486502D01*
X49848012Y-72250800D01*
X49851580Y-72243006D01*
X49946383Y-71992117D01*
X49948856Y-71983925D01*
X50008735Y-71722484D01*
X50010073Y-71714030D01*
X50011847Y-71694157D01*
X58721768Y-71694157D01*
X58722932Y-71703059D01*
X58722932Y-71703062D01*
X58724687Y-71716482D01*
X58739350Y-71828616D01*
X58793964Y-71952735D01*
X58799740Y-71959606D01*
X58875445Y-72049669D01*
X58875448Y-72049672D01*
X58881219Y-72056537D01*
X58994100Y-72131678D01*
X59123534Y-72172116D01*
X59259115Y-72174601D01*
X59313243Y-72159844D01*
X59381284Y-72141294D01*
X59381286Y-72141293D01*
X59389943Y-72138933D01*
X59505502Y-72067979D01*
X59515859Y-72056537D01*
X59590474Y-71974104D01*
X59590475Y-71974102D01*
X59596502Y-71967444D01*
X59647851Y-71861462D01*
X59651714Y-71853488D01*
X59651715Y-71853486D01*
X59655628Y-71845409D01*
X59678125Y-71711685D01*
X59678268Y-71700000D01*
X59677432Y-71694157D01*
X59660317Y-71574653D01*
X59660316Y-71574651D01*
X59659044Y-71565766D01*
X59652806Y-71552045D01*
X59625788Y-71492623D01*
X59602918Y-71442323D01*
X59514402Y-71339595D01*
X59506871Y-71334714D01*
X59506868Y-71334711D01*
X59408142Y-71270720D01*
X59408140Y-71270719D01*
X59400611Y-71265839D01*
X59392014Y-71263268D01*
X59392012Y-71263267D01*
X59279296Y-71229558D01*
X59279297Y-71229558D01*
X59270693Y-71226985D01*
X59261717Y-71226930D01*
X59261716Y-71226930D01*
X59204770Y-71226582D01*
X59135092Y-71226157D01*
X59004709Y-71263421D01*
X58997122Y-71268208D01*
X58997120Y-71268209D01*
X58936007Y-71306769D01*
X58890025Y-71335781D01*
X58800260Y-71437420D01*
X58796446Y-71445543D01*
X58796445Y-71445545D01*
X58778333Y-71484123D01*
X58742630Y-71560168D01*
X58741250Y-71569034D01*
X58723149Y-71685284D01*
X58723149Y-71685288D01*
X58721768Y-71694157D01*
X50011847Y-71694157D01*
X50034077Y-71445076D01*
X50034323Y-71440139D01*
X50034717Y-71402485D01*
X50034574Y-71397519D01*
X50016209Y-71128131D01*
X50015048Y-71119657D01*
X49960659Y-70857023D01*
X49958355Y-70848769D01*
X49868826Y-70595947D01*
X49865430Y-70588099D01*
X49742411Y-70349755D01*
X49737983Y-70342443D01*
X49615822Y-70168626D01*
X49605300Y-70160246D01*
X49591912Y-70167298D01*
X48372022Y-71387188D01*
X48364408Y-71401132D01*
X47634356Y-71401132D01*
X47635592Y-71398868D01*
X47635461Y-71397035D01*
X47631210Y-71390420D01*
X46408051Y-70167261D01*
X46396040Y-70160702D01*
X46384302Y-70169670D01*
X46273191Y-70324295D01*
X46268677Y-70331576D01*
X46143181Y-70568598D01*
X46139695Y-70576426D01*
X46047524Y-70828294D01*
X46045135Y-70836517D01*
X45987998Y-71098573D01*
X45986749Y-71107029D01*
X45965705Y-71374422D01*
X45965616Y-71382973D01*
X45700500Y-71382973D01*
X45700500Y-69796849D01*
X46760933Y-69796849D01*
X46767329Y-69808119D01*
X47987188Y-71027978D01*
X48001132Y-71035592D01*
X48002965Y-71035461D01*
X48009580Y-71031210D01*
X49232238Y-69808552D01*
X49239429Y-69795383D01*
X49232106Y-69785145D01*
X49182003Y-69744137D01*
X49175041Y-69739189D01*
X48946350Y-69599047D01*
X48938752Y-69595075D01*
X48693173Y-69487273D01*
X48685119Y-69484374D01*
X48427177Y-69410898D01*
X48418799Y-69409116D01*
X48153272Y-69371326D01*
X48144725Y-69370699D01*
X48064742Y-69370280D01*
X61215046Y-69370280D01*
X61228635Y-69577607D01*
X61230056Y-69583203D01*
X61230057Y-69583208D01*
X61266568Y-69726967D01*
X61279779Y-69778985D01*
X61282196Y-69784228D01*
X61315430Y-69856318D01*
X61366764Y-69967671D01*
X61486678Y-70137346D01*
X61635505Y-70282327D01*
X61640301Y-70285532D01*
X61640304Y-70285534D01*
X61654648Y-70295118D01*
X61808261Y-70397759D01*
X61813569Y-70400040D01*
X61813570Y-70400040D01*
X61993857Y-70477497D01*
X61993860Y-70477498D01*
X61999160Y-70479775D01*
X62004790Y-70481049D01*
X62196172Y-70524355D01*
X62196175Y-70524355D01*
X62201808Y-70525630D01*
X62207579Y-70525857D01*
X62207581Y-70525857D01*
X62270985Y-70528348D01*
X62409419Y-70533787D01*
X62512230Y-70518880D01*
X62609327Y-70504802D01*
X62609332Y-70504801D01*
X62615041Y-70503973D01*
X62620505Y-70502118D01*
X62620510Y-70502117D01*
X62806318Y-70439043D01*
X62811786Y-70437187D01*
X62993065Y-70335666D01*
X63152809Y-70202809D01*
X63285666Y-70043065D01*
X63387187Y-69861786D01*
X63413345Y-69784726D01*
X63452117Y-69670510D01*
X63452118Y-69670505D01*
X63453973Y-69665041D01*
X63454801Y-69659332D01*
X63454802Y-69659327D01*
X63468804Y-69562754D01*
X63498374Y-69498208D01*
X63558146Y-69459896D01*
X63629142Y-69459980D01*
X63688823Y-69498435D01*
X63718239Y-69563051D01*
X63719500Y-69580834D01*
X63719500Y-69963672D01*
X63719693Y-69966119D01*
X63719693Y-69966130D01*
X63720186Y-69972387D01*
X63722313Y-69999416D01*
X63724110Y-70005601D01*
X63763556Y-70141373D01*
X63766757Y-70152392D01*
X63770794Y-70159218D01*
X63843810Y-70282682D01*
X63843812Y-70282685D01*
X63847848Y-70289509D01*
X63960491Y-70402152D01*
X63967315Y-70406188D01*
X63967318Y-70406190D01*
X64022870Y-70439043D01*
X64097608Y-70483243D01*
X64105220Y-70485454D01*
X64105221Y-70485455D01*
X64171814Y-70504802D01*
X64250584Y-70527687D01*
X64264345Y-70528770D01*
X64283870Y-70530307D01*
X64283881Y-70530307D01*
X64286328Y-70530500D01*
X65413672Y-70530500D01*
X65416119Y-70530307D01*
X65416130Y-70530307D01*
X65435655Y-70528770D01*
X65449416Y-70527687D01*
X65528186Y-70504802D01*
X65594779Y-70485455D01*
X65594780Y-70485454D01*
X65602392Y-70483243D01*
X65677130Y-70439043D01*
X65732682Y-70406190D01*
X65732685Y-70406188D01*
X65739509Y-70402152D01*
X65852152Y-70289509D01*
X65856188Y-70282685D01*
X65856190Y-70282682D01*
X65929206Y-70159218D01*
X65933243Y-70152392D01*
X65936445Y-70141373D01*
X65975890Y-70005601D01*
X65977687Y-69999416D01*
X65979814Y-69972387D01*
X65980307Y-69966130D01*
X65980307Y-69966119D01*
X65980500Y-69963672D01*
X65980500Y-69796849D01*
X71760933Y-69796849D01*
X71767329Y-69808119D01*
X72987188Y-71027978D01*
X73001132Y-71035592D01*
X73002965Y-71035461D01*
X73009580Y-71031210D01*
X74232238Y-69808552D01*
X74239429Y-69795383D01*
X74232106Y-69785145D01*
X74182003Y-69744137D01*
X74175041Y-69739189D01*
X73946350Y-69599047D01*
X73938752Y-69595075D01*
X73693173Y-69487273D01*
X73685119Y-69484374D01*
X73427177Y-69410898D01*
X73418799Y-69409116D01*
X73153272Y-69371326D01*
X73144725Y-69370699D01*
X72876523Y-69369294D01*
X72867989Y-69369831D01*
X72602074Y-69404840D01*
X72593676Y-69406533D01*
X72334986Y-69477303D01*
X72326891Y-69480122D01*
X72080188Y-69585349D01*
X72072565Y-69589234D01*
X71842429Y-69726967D01*
X71835397Y-69731854D01*
X71769402Y-69784726D01*
X71760933Y-69796849D01*
X65980500Y-69796849D01*
X65980500Y-68836328D01*
X65977687Y-68800584D01*
X65933243Y-68647608D01*
X65888928Y-68572675D01*
X65856190Y-68517318D01*
X65856188Y-68517315D01*
X65852152Y-68510491D01*
X65739509Y-68397848D01*
X65732685Y-68393812D01*
X65732682Y-68393810D01*
X65609218Y-68320794D01*
X65609219Y-68320794D01*
X65602392Y-68316757D01*
X65594780Y-68314546D01*
X65594779Y-68314545D01*
X65455601Y-68274110D01*
X65455602Y-68274110D01*
X65449416Y-68272313D01*
X65435655Y-68271230D01*
X65416130Y-68269693D01*
X65416119Y-68269693D01*
X65413672Y-68269500D01*
X64286328Y-68269500D01*
X64283881Y-68269693D01*
X64283870Y-68269693D01*
X64264345Y-68271230D01*
X64250584Y-68272313D01*
X64244398Y-68274110D01*
X64244399Y-68274110D01*
X64105221Y-68314545D01*
X64105220Y-68314546D01*
X64097608Y-68316757D01*
X64090781Y-68320794D01*
X64090782Y-68320794D01*
X63967318Y-68393810D01*
X63967315Y-68393812D01*
X63960491Y-68397848D01*
X63847848Y-68510491D01*
X63843812Y-68517315D01*
X63843810Y-68517318D01*
X63811072Y-68572675D01*
X63766757Y-68647608D01*
X63722313Y-68800584D01*
X63719500Y-68836328D01*
X63719500Y-69200040D01*
X63699498Y-69268161D01*
X63645842Y-69314654D01*
X63575568Y-69324758D01*
X63510988Y-69295264D01*
X63472604Y-69235538D01*
X63468029Y-69211569D01*
X63466861Y-69198854D01*
X63466860Y-69198851D01*
X63466332Y-69193100D01*
X63409934Y-68993129D01*
X63318039Y-68806785D01*
X63193724Y-68640307D01*
X63041153Y-68499272D01*
X62978286Y-68459606D01*
X62870315Y-68391481D01*
X62865435Y-68388402D01*
X62672455Y-68311411D01*
X62666795Y-68310285D01*
X62666791Y-68310284D01*
X62474344Y-68272004D01*
X62474339Y-68272004D01*
X62468676Y-68270877D01*
X62462901Y-68270801D01*
X62462897Y-68270801D01*
X62358768Y-68269438D01*
X62260922Y-68268157D01*
X62255225Y-68269136D01*
X62255224Y-68269136D01*
X62061842Y-68302365D01*
X62061839Y-68302366D01*
X62056152Y-68303343D01*
X61861222Y-68375256D01*
X61682662Y-68481488D01*
X61526451Y-68618481D01*
X61397821Y-68781648D01*
X61395133Y-68786757D01*
X61303769Y-68960411D01*
X61303767Y-68960416D01*
X61301080Y-68965523D01*
X61239467Y-69163949D01*
X61215046Y-69370280D01*
X48064742Y-69370280D01*
X47876523Y-69369294D01*
X47867989Y-69369831D01*
X47602074Y-69404840D01*
X47593676Y-69406533D01*
X47334986Y-69477303D01*
X47326891Y-69480122D01*
X47080188Y-69585349D01*
X47072565Y-69589234D01*
X46842429Y-69726967D01*
X46835397Y-69731854D01*
X46769402Y-69784726D01*
X46760933Y-69796849D01*
X45700500Y-69796849D01*
X45700500Y-68194157D01*
X58571768Y-68194157D01*
X58589350Y-68328616D01*
X58643964Y-68452735D01*
X58649740Y-68459606D01*
X58725445Y-68549669D01*
X58725448Y-68549672D01*
X58731219Y-68556537D01*
X58738687Y-68561508D01*
X58738688Y-68561509D01*
X58824275Y-68618481D01*
X58844100Y-68631678D01*
X58973534Y-68672116D01*
X59109115Y-68674601D01*
X59208124Y-68647608D01*
X59231284Y-68641294D01*
X59231286Y-68641293D01*
X59239943Y-68638933D01*
X59355502Y-68567979D01*
X59365859Y-68556537D01*
X59440474Y-68474104D01*
X59440475Y-68474102D01*
X59446502Y-68467444D01*
X59480222Y-68397848D01*
X59501714Y-68353488D01*
X59501715Y-68353486D01*
X59505628Y-68345409D01*
X59528125Y-68211685D01*
X59528268Y-68200000D01*
X59527432Y-68194157D01*
X59510317Y-68074653D01*
X59510316Y-68074651D01*
X59509044Y-68065766D01*
X59502806Y-68052045D01*
X59461519Y-67961240D01*
X59452918Y-67942323D01*
X59364402Y-67839595D01*
X59356871Y-67834714D01*
X59356868Y-67834711D01*
X59258142Y-67770720D01*
X59258140Y-67770719D01*
X59250611Y-67765839D01*
X59242014Y-67763268D01*
X59242012Y-67763267D01*
X59129296Y-67729558D01*
X59129297Y-67729558D01*
X59120693Y-67726985D01*
X59111717Y-67726930D01*
X59111716Y-67726930D01*
X59054770Y-67726582D01*
X58985092Y-67726157D01*
X58854709Y-67763421D01*
X58847122Y-67768208D01*
X58847120Y-67768209D01*
X58786007Y-67806769D01*
X58740025Y-67835781D01*
X58650260Y-67937420D01*
X58646446Y-67945543D01*
X58646445Y-67945545D01*
X58628500Y-67983767D01*
X58592630Y-68060168D01*
X58591250Y-68069034D01*
X58573149Y-68185284D01*
X58573149Y-68185288D01*
X58571768Y-68194157D01*
X45700500Y-68194157D01*
X45700500Y-66894157D01*
X64421768Y-66894157D01*
X64439350Y-67028616D01*
X64493964Y-67152735D01*
X64499740Y-67159606D01*
X64575445Y-67249669D01*
X64575448Y-67249672D01*
X64581219Y-67256537D01*
X64694100Y-67331678D01*
X64823534Y-67372116D01*
X64959115Y-67374601D01*
X65013243Y-67359844D01*
X65081284Y-67341294D01*
X65081286Y-67341293D01*
X65089943Y-67338933D01*
X65205502Y-67267979D01*
X65215859Y-67256537D01*
X65290474Y-67174104D01*
X65290475Y-67174102D01*
X65296502Y-67167444D01*
X65355628Y-67045409D01*
X65378125Y-66911685D01*
X65378268Y-66900000D01*
X65377432Y-66894157D01*
X65376428Y-66887145D01*
X68769500Y-66887145D01*
X68769501Y-67912854D01*
X68770709Y-67918928D01*
X68770709Y-67918929D01*
X68774009Y-67935520D01*
X68777071Y-67950919D01*
X68805914Y-67994086D01*
X68849081Y-68022929D01*
X68872420Y-68027571D01*
X68881075Y-68029293D01*
X68881078Y-68029293D01*
X68887145Y-68030500D01*
X69399751Y-68030500D01*
X69912854Y-68030499D01*
X69918928Y-68029291D01*
X69918929Y-68029291D01*
X69938747Y-68025350D01*
X69938749Y-68025349D01*
X69950919Y-68022929D01*
X69994086Y-67994086D01*
X70022929Y-67950919D01*
X70030500Y-67912855D01*
X70030499Y-66887146D01*
X70022929Y-66849081D01*
X69994086Y-66805914D01*
X69950919Y-66777071D01*
X69927580Y-66772429D01*
X69918925Y-66770707D01*
X69918922Y-66770707D01*
X69912855Y-66769500D01*
X69400249Y-66769500D01*
X68887146Y-66769501D01*
X68881072Y-66770709D01*
X68881071Y-66770709D01*
X68861253Y-66774650D01*
X68861251Y-66774651D01*
X68849081Y-66777071D01*
X68805914Y-66805914D01*
X68777071Y-66849081D01*
X68769500Y-66887145D01*
X65376428Y-66887145D01*
X65360317Y-66774653D01*
X65360316Y-66774650D01*
X65359044Y-66765766D01*
X65352806Y-66752045D01*
X65342421Y-66729206D01*
X65302918Y-66642323D01*
X65214402Y-66539595D01*
X65206871Y-66534714D01*
X65206868Y-66534711D01*
X65108142Y-66470720D01*
X65108140Y-66470719D01*
X65100611Y-66465839D01*
X65092014Y-66463268D01*
X65092012Y-66463267D01*
X64979296Y-66429558D01*
X64979297Y-66429558D01*
X64970693Y-66426985D01*
X64961717Y-66426930D01*
X64961716Y-66426930D01*
X64904770Y-66426582D01*
X64835092Y-66426157D01*
X64704709Y-66463421D01*
X64697122Y-66468208D01*
X64697120Y-66468209D01*
X64636007Y-66506769D01*
X64590025Y-66535781D01*
X64500260Y-66637420D01*
X64496446Y-66645543D01*
X64496445Y-66645545D01*
X64468854Y-66704314D01*
X64442630Y-66760168D01*
X64433901Y-66816233D01*
X64423149Y-66885284D01*
X64423149Y-66885288D01*
X64421768Y-66894157D01*
X45700500Y-66894157D01*
X45700500Y-64794157D01*
X47971768Y-64794157D01*
X47972932Y-64803059D01*
X47972932Y-64803062D01*
X47975424Y-64822116D01*
X47989350Y-64928616D01*
X48043964Y-65052735D01*
X48059071Y-65070707D01*
X48125445Y-65149669D01*
X48125448Y-65149672D01*
X48131219Y-65156537D01*
X48138687Y-65161508D01*
X48138688Y-65161509D01*
X48186507Y-65193340D01*
X48244100Y-65231678D01*
X48373534Y-65272116D01*
X48509115Y-65274601D01*
X48563243Y-65259844D01*
X48631284Y-65241294D01*
X48631286Y-65241293D01*
X48639943Y-65238933D01*
X48724287Y-65187145D01*
X53269500Y-65187145D01*
X53269501Y-66212854D01*
X53277071Y-66250919D01*
X53305914Y-66294086D01*
X53349081Y-66322929D01*
X53372420Y-66327571D01*
X53381075Y-66329293D01*
X53381078Y-66329293D01*
X53387145Y-66330500D01*
X53899751Y-66330500D01*
X54412854Y-66330499D01*
X54418928Y-66329291D01*
X54418929Y-66329291D01*
X54438747Y-66325350D01*
X54438749Y-66325349D01*
X54450919Y-66322929D01*
X54494086Y-66294086D01*
X54522929Y-66250919D01*
X54530500Y-66212855D01*
X54530499Y-65187146D01*
X54527621Y-65172675D01*
X54525350Y-65161253D01*
X54525349Y-65161251D01*
X54522929Y-65149081D01*
X54494086Y-65105914D01*
X54483767Y-65099019D01*
X54461240Y-65083967D01*
X54461239Y-65083967D01*
X54450919Y-65077071D01*
X54427580Y-65072429D01*
X54418925Y-65070707D01*
X54418922Y-65070707D01*
X54412855Y-65069500D01*
X54202028Y-65069500D01*
X54133907Y-65049498D01*
X54096375Y-65006183D01*
X54073672Y-65040171D01*
X54008579Y-65068516D01*
X53992859Y-65069500D01*
X53402053Y-65069501D01*
X53387146Y-65069501D01*
X53381072Y-65070709D01*
X53381071Y-65070709D01*
X53361253Y-65074650D01*
X53361251Y-65074651D01*
X53349081Y-65077071D01*
X53305914Y-65105914D01*
X53277071Y-65149081D01*
X53269500Y-65187145D01*
X48724287Y-65187145D01*
X48755502Y-65167979D01*
X48765859Y-65156537D01*
X48840474Y-65074104D01*
X48840475Y-65074102D01*
X48846502Y-65067444D01*
X48857668Y-65044399D01*
X48901714Y-64953488D01*
X48901715Y-64953486D01*
X48905628Y-64945409D01*
X48928125Y-64811685D01*
X48928268Y-64800000D01*
X48927432Y-64794157D01*
X48910317Y-64674653D01*
X48910316Y-64674651D01*
X48909044Y-64665766D01*
X48903448Y-64653457D01*
X48883398Y-64609360D01*
X48852918Y-64542323D01*
X48764402Y-64439595D01*
X48756871Y-64434714D01*
X48756868Y-64434711D01*
X48658142Y-64370720D01*
X48658140Y-64370719D01*
X48650611Y-64365839D01*
X48642014Y-64363268D01*
X48642012Y-64363267D01*
X48578112Y-64344157D01*
X53621768Y-64344157D01*
X53622932Y-64353059D01*
X53622932Y-64353062D01*
X53624287Y-64363421D01*
X53639350Y-64478616D01*
X53693964Y-64602735D01*
X53699740Y-64609606D01*
X53775445Y-64699669D01*
X53775448Y-64699672D01*
X53781219Y-64706537D01*
X53788687Y-64711508D01*
X53788688Y-64711509D01*
X53872528Y-64767318D01*
X53894100Y-64781678D01*
X54005501Y-64816482D01*
X54023534Y-64822116D01*
X54022979Y-64823894D01*
X54077045Y-64849752D01*
X54097107Y-64882220D01*
X54106804Y-64860988D01*
X54168886Y-64821937D01*
X54281284Y-64791294D01*
X54281286Y-64791293D01*
X54289943Y-64788933D01*
X54405502Y-64717979D01*
X54417518Y-64704704D01*
X54490474Y-64624104D01*
X54490475Y-64624102D01*
X54496502Y-64617444D01*
X54516578Y-64576009D01*
X54551714Y-64503488D01*
X54551715Y-64503486D01*
X54555628Y-64495409D01*
X54567514Y-64424757D01*
X70721768Y-64424757D01*
X70722932Y-64433659D01*
X70722932Y-64433662D01*
X70730559Y-64491986D01*
X70739350Y-64559216D01*
X70793964Y-64683335D01*
X70799740Y-64690206D01*
X70875445Y-64780269D01*
X70875448Y-64780272D01*
X70881219Y-64787137D01*
X70888687Y-64792108D01*
X70888688Y-64792109D01*
X70975283Y-64849752D01*
X70994100Y-64862278D01*
X71002672Y-64864956D01*
X71085336Y-64890782D01*
X71123534Y-64902716D01*
X71259115Y-64905201D01*
X71343408Y-64882220D01*
X71381284Y-64871894D01*
X71381286Y-64871893D01*
X71389943Y-64869533D01*
X71484157Y-64811685D01*
X71497854Y-64803275D01*
X71505502Y-64798579D01*
X71520800Y-64781678D01*
X71590474Y-64704704D01*
X71590475Y-64704702D01*
X71596502Y-64698044D01*
X71610558Y-64669034D01*
X71651714Y-64584088D01*
X71651715Y-64584086D01*
X71655628Y-64576009D01*
X71678125Y-64442285D01*
X71678268Y-64430600D01*
X71677432Y-64424757D01*
X71660317Y-64305253D01*
X71660316Y-64305251D01*
X71659044Y-64296366D01*
X71652806Y-64282645D01*
X71606634Y-64181097D01*
X71602918Y-64172923D01*
X71514402Y-64070195D01*
X71506871Y-64065314D01*
X71506868Y-64065311D01*
X71408142Y-64001320D01*
X71408140Y-64001319D01*
X71400611Y-63996439D01*
X71392014Y-63993868D01*
X71392012Y-63993867D01*
X71279296Y-63960158D01*
X71279297Y-63960158D01*
X71270693Y-63957585D01*
X71261717Y-63957530D01*
X71261716Y-63957530D01*
X71204770Y-63957182D01*
X71135092Y-63956757D01*
X71004709Y-63994021D01*
X70997122Y-63998808D01*
X70997120Y-63998809D01*
X70950380Y-64028300D01*
X70890025Y-64066381D01*
X70800260Y-64168020D01*
X70796446Y-64176143D01*
X70796445Y-64176145D01*
X70777843Y-64215766D01*
X70742630Y-64290768D01*
X70735699Y-64335284D01*
X70723149Y-64415884D01*
X70723149Y-64415888D01*
X70721768Y-64424757D01*
X54567514Y-64424757D01*
X54578125Y-64361685D01*
X54578268Y-64350000D01*
X54577432Y-64344157D01*
X54560317Y-64224653D01*
X54560316Y-64224651D01*
X54559044Y-64215766D01*
X54552806Y-64202045D01*
X54541029Y-64176145D01*
X54502918Y-64092323D01*
X54414402Y-63989595D01*
X54406871Y-63984714D01*
X54406868Y-63984711D01*
X54308142Y-63920720D01*
X54308140Y-63920719D01*
X54300611Y-63915839D01*
X54292014Y-63913268D01*
X54292012Y-63913267D01*
X54212327Y-63889436D01*
X54170693Y-63876985D01*
X54161717Y-63876930D01*
X54161716Y-63876930D01*
X54104770Y-63876582D01*
X54035092Y-63876157D01*
X53904709Y-63913421D01*
X53897122Y-63918208D01*
X53897120Y-63918209D01*
X53849316Y-63948371D01*
X53790025Y-63985781D01*
X53700260Y-64087420D01*
X53642630Y-64210168D01*
X53639379Y-64231049D01*
X53623149Y-64335284D01*
X53623149Y-64335288D01*
X53621768Y-64344157D01*
X48578112Y-64344157D01*
X48529296Y-64329558D01*
X48529297Y-64329558D01*
X48520693Y-64326985D01*
X48511717Y-64326930D01*
X48511716Y-64326930D01*
X48454770Y-64326582D01*
X48385092Y-64326157D01*
X48254709Y-64363421D01*
X48247122Y-64368208D01*
X48247120Y-64368209D01*
X48235457Y-64375568D01*
X48140025Y-64435781D01*
X48050260Y-64537420D01*
X48046446Y-64545543D01*
X48046445Y-64545545D01*
X48028349Y-64584088D01*
X47992630Y-64660168D01*
X47984665Y-64711324D01*
X47973149Y-64785284D01*
X47973149Y-64785288D01*
X47971768Y-64794157D01*
X45700500Y-64794157D01*
X45700500Y-63120280D01*
X72765046Y-63120280D01*
X72778635Y-63327607D01*
X72780056Y-63333203D01*
X72780057Y-63333208D01*
X72828358Y-63523390D01*
X72829779Y-63528985D01*
X72916764Y-63717671D01*
X73036678Y-63887346D01*
X73185505Y-64032327D01*
X73190301Y-64035532D01*
X73190304Y-64035534D01*
X73234869Y-64065311D01*
X73358261Y-64147759D01*
X73363569Y-64150040D01*
X73363570Y-64150040D01*
X73543857Y-64227497D01*
X73543860Y-64227498D01*
X73549160Y-64229775D01*
X73647897Y-64252117D01*
X73729610Y-64270607D01*
X73791637Y-64305150D01*
X73825141Y-64367743D01*
X73819487Y-64438515D01*
X73776468Y-64494994D01*
X73709743Y-64519249D01*
X73701802Y-64519500D01*
X73336328Y-64519500D01*
X73333881Y-64519693D01*
X73333870Y-64519693D01*
X73314345Y-64521230D01*
X73300584Y-64522313D01*
X73294398Y-64524110D01*
X73294399Y-64524110D01*
X73155221Y-64564545D01*
X73155220Y-64564546D01*
X73147608Y-64566757D01*
X73140781Y-64570794D01*
X73140782Y-64570794D01*
X73017318Y-64643810D01*
X73017315Y-64643812D01*
X73010491Y-64647848D01*
X72897848Y-64760491D01*
X72893812Y-64767315D01*
X72893810Y-64767318D01*
X72870447Y-64806823D01*
X72816757Y-64897608D01*
X72772313Y-65050584D01*
X72771808Y-65057003D01*
X72770229Y-65077071D01*
X72769500Y-65086328D01*
X72769500Y-66213672D01*
X72769693Y-66216119D01*
X72769693Y-66216130D01*
X72771230Y-66235655D01*
X72772313Y-66249416D01*
X72816757Y-66402392D01*
X72820794Y-66409218D01*
X72893810Y-66532682D01*
X72893812Y-66532685D01*
X72897848Y-66539509D01*
X73010491Y-66652152D01*
X73017315Y-66656188D01*
X73017318Y-66656190D01*
X73120052Y-66716946D01*
X73147608Y-66733243D01*
X73155220Y-66735454D01*
X73155221Y-66735455D01*
X73212324Y-66752045D01*
X73300584Y-66777687D01*
X73314345Y-66778770D01*
X73333870Y-66780307D01*
X73333881Y-66780307D01*
X73336328Y-66780500D01*
X74463672Y-66780500D01*
X74466119Y-66780307D01*
X74466130Y-66780307D01*
X74485655Y-66778770D01*
X74499416Y-66777687D01*
X74587676Y-66752045D01*
X74644779Y-66735455D01*
X74644780Y-66735454D01*
X74652392Y-66733243D01*
X74679948Y-66716946D01*
X74782682Y-66656190D01*
X74782685Y-66656188D01*
X74789509Y-66652152D01*
X74902152Y-66539509D01*
X74906188Y-66532685D01*
X74906190Y-66532682D01*
X74979206Y-66409218D01*
X74983243Y-66402392D01*
X75027687Y-66249416D01*
X75028770Y-66235655D01*
X75030307Y-66216130D01*
X75030307Y-66216119D01*
X75030500Y-66213672D01*
X75030500Y-65086328D01*
X75029772Y-65077071D01*
X75028192Y-65057003D01*
X75027687Y-65050584D01*
X74983243Y-64897608D01*
X74929553Y-64806823D01*
X74906190Y-64767318D01*
X74906188Y-64767315D01*
X74902152Y-64760491D01*
X74789509Y-64647848D01*
X74782685Y-64643812D01*
X74782682Y-64643810D01*
X74659218Y-64570794D01*
X74659219Y-64570794D01*
X74652392Y-64566757D01*
X74644780Y-64564546D01*
X74644779Y-64564545D01*
X74505601Y-64524110D01*
X74505602Y-64524110D01*
X74499416Y-64522313D01*
X74485655Y-64521230D01*
X74466130Y-64519693D01*
X74466119Y-64519693D01*
X74463672Y-64519500D01*
X74080834Y-64519500D01*
X74012713Y-64499498D01*
X73966220Y-64445842D01*
X73956116Y-64375568D01*
X73985610Y-64310988D01*
X74045336Y-64272604D01*
X74062754Y-64268804D01*
X74159327Y-64254802D01*
X74159332Y-64254801D01*
X74165041Y-64253973D01*
X74170505Y-64252118D01*
X74170510Y-64252117D01*
X74356318Y-64189043D01*
X74361786Y-64187187D01*
X74543065Y-64085666D01*
X74702809Y-63952809D01*
X74835666Y-63793065D01*
X74937187Y-63611786D01*
X74953179Y-63564675D01*
X75002117Y-63420510D01*
X75002118Y-63420505D01*
X75003973Y-63415041D01*
X75004801Y-63409332D01*
X75004802Y-63409327D01*
X75033254Y-63213093D01*
X75033787Y-63209419D01*
X75035343Y-63150000D01*
X75016332Y-62943100D01*
X74959934Y-62743129D01*
X74868039Y-62556785D01*
X74743724Y-62390307D01*
X74591153Y-62249272D01*
X74415435Y-62138402D01*
X74222455Y-62061411D01*
X74216795Y-62060285D01*
X74216791Y-62060284D01*
X74024344Y-62022004D01*
X74024339Y-62022004D01*
X74018676Y-62020877D01*
X74012901Y-62020801D01*
X74012897Y-62020801D01*
X73908768Y-62019438D01*
X73810922Y-62018157D01*
X73805225Y-62019136D01*
X73805224Y-62019136D01*
X73611842Y-62052365D01*
X73611839Y-62052366D01*
X73606152Y-62053343D01*
X73411222Y-62125256D01*
X73232662Y-62231488D01*
X73076451Y-62368481D01*
X72947821Y-62531648D01*
X72945133Y-62536757D01*
X72853769Y-62710411D01*
X72853767Y-62710416D01*
X72851080Y-62715523D01*
X72829890Y-62783767D01*
X72817730Y-62822929D01*
X72789467Y-62913949D01*
X72765046Y-63120280D01*
X45700500Y-63120280D01*
X45700500Y-59020280D01*
X46065046Y-59020280D01*
X46078635Y-59227607D01*
X46080056Y-59233203D01*
X46080057Y-59233208D01*
X46121419Y-59396068D01*
X46129779Y-59428985D01*
X46216764Y-59617671D01*
X46336678Y-59787346D01*
X46485505Y-59932327D01*
X46490301Y-59935532D01*
X46490304Y-59935534D01*
X46630643Y-60029305D01*
X46658261Y-60047759D01*
X46663569Y-60050040D01*
X46663570Y-60050040D01*
X46843857Y-60127497D01*
X46843860Y-60127498D01*
X46849160Y-60129775D01*
X46947897Y-60152117D01*
X47029610Y-60170607D01*
X47091637Y-60205150D01*
X47125141Y-60267743D01*
X47119487Y-60338515D01*
X47076468Y-60394994D01*
X47009743Y-60419249D01*
X47001802Y-60419500D01*
X46636328Y-60419500D01*
X46633881Y-60419693D01*
X46633870Y-60419693D01*
X46614345Y-60421230D01*
X46600584Y-60422313D01*
X46594398Y-60424110D01*
X46594399Y-60424110D01*
X46455221Y-60464545D01*
X46455220Y-60464546D01*
X46447608Y-60466757D01*
X46440781Y-60470794D01*
X46440782Y-60470794D01*
X46317318Y-60543810D01*
X46317315Y-60543812D01*
X46310491Y-60547848D01*
X46197848Y-60660491D01*
X46193812Y-60667315D01*
X46193810Y-60667318D01*
X46133054Y-60770052D01*
X46116757Y-60797608D01*
X46072313Y-60950584D01*
X46069500Y-60986328D01*
X46069500Y-62113672D01*
X46069693Y-62116119D01*
X46069693Y-62116130D01*
X46070644Y-62128209D01*
X46072313Y-62149416D01*
X46116757Y-62302392D01*
X46120794Y-62309218D01*
X46193810Y-62432682D01*
X46193812Y-62432685D01*
X46197848Y-62439509D01*
X46310491Y-62552152D01*
X46317315Y-62556188D01*
X46317318Y-62556190D01*
X46420052Y-62616946D01*
X46447608Y-62633243D01*
X46455220Y-62635454D01*
X46455221Y-62635455D01*
X46555954Y-62664721D01*
X46600584Y-62677687D01*
X46614345Y-62678770D01*
X46633870Y-62680307D01*
X46633881Y-62680307D01*
X46636328Y-62680500D01*
X47763672Y-62680500D01*
X47766119Y-62680307D01*
X47766130Y-62680307D01*
X47785655Y-62678770D01*
X47799416Y-62677687D01*
X47844046Y-62664721D01*
X47944779Y-62635455D01*
X47944780Y-62635454D01*
X47952392Y-62633243D01*
X47979948Y-62616946D01*
X48082682Y-62556190D01*
X48082685Y-62556188D01*
X48089509Y-62552152D01*
X48202152Y-62439509D01*
X48206188Y-62432685D01*
X48206190Y-62432682D01*
X48279206Y-62309218D01*
X48283243Y-62302392D01*
X48327687Y-62149416D01*
X48329356Y-62128209D01*
X48330307Y-62116130D01*
X48330307Y-62116119D01*
X48330500Y-62113672D01*
X48330500Y-61687145D01*
X59269500Y-61687145D01*
X59269501Y-62712854D01*
X59277071Y-62750919D01*
X59305914Y-62794086D01*
X59349081Y-62822929D01*
X59372420Y-62827571D01*
X59381075Y-62829293D01*
X59381078Y-62829293D01*
X59387145Y-62830500D01*
X59899751Y-62830500D01*
X60412854Y-62830499D01*
X60418928Y-62829291D01*
X60418929Y-62829291D01*
X60438747Y-62825350D01*
X60438749Y-62825349D01*
X60450919Y-62822929D01*
X60494086Y-62794086D01*
X60522929Y-62750919D01*
X60530500Y-62712855D01*
X60530499Y-61687146D01*
X60522929Y-61649081D01*
X60494086Y-61605914D01*
X60450919Y-61577071D01*
X60427580Y-61572429D01*
X60418925Y-61570707D01*
X60418922Y-61570707D01*
X60412855Y-61569500D01*
X59900249Y-61569500D01*
X59387146Y-61569501D01*
X59381072Y-61570709D01*
X59381071Y-61570709D01*
X59361253Y-61574650D01*
X59361251Y-61574651D01*
X59349081Y-61577071D01*
X59305914Y-61605914D01*
X59277071Y-61649081D01*
X59269500Y-61687145D01*
X48330500Y-61687145D01*
X48330500Y-60986328D01*
X48327687Y-60950584D01*
X48283243Y-60797608D01*
X48266946Y-60770052D01*
X48206190Y-60667318D01*
X48206188Y-60667315D01*
X48202152Y-60660491D01*
X48089509Y-60547848D01*
X48082685Y-60543812D01*
X48082682Y-60543810D01*
X47959218Y-60470794D01*
X47959219Y-60470794D01*
X47952392Y-60466757D01*
X47944780Y-60464546D01*
X47944779Y-60464545D01*
X47805601Y-60424110D01*
X47805602Y-60424110D01*
X47799416Y-60422313D01*
X47785655Y-60421230D01*
X47766130Y-60419693D01*
X47766119Y-60419693D01*
X47763672Y-60419500D01*
X47380834Y-60419500D01*
X47312713Y-60399498D01*
X47266220Y-60345842D01*
X47256116Y-60275568D01*
X47285610Y-60210988D01*
X47345336Y-60172604D01*
X47362754Y-60168804D01*
X47459327Y-60154802D01*
X47459332Y-60154801D01*
X47465041Y-60153973D01*
X47470505Y-60152118D01*
X47470510Y-60152117D01*
X47656318Y-60089043D01*
X47661786Y-60087187D01*
X47843065Y-59985666D01*
X48002809Y-59852809D01*
X48135666Y-59693065D01*
X48230259Y-59524157D01*
X62671768Y-59524157D01*
X62689350Y-59658616D01*
X62743964Y-59782735D01*
X62749740Y-59789606D01*
X62825445Y-59879669D01*
X62825448Y-59879672D01*
X62831219Y-59886537D01*
X62838687Y-59891508D01*
X62838688Y-59891509D01*
X62893958Y-59928300D01*
X62944100Y-59961678D01*
X63073534Y-60002116D01*
X63209115Y-60004601D01*
X63263243Y-59989844D01*
X63331284Y-59971294D01*
X63331286Y-59971293D01*
X63339943Y-59968933D01*
X63455502Y-59897979D01*
X63465859Y-59886537D01*
X63540474Y-59804104D01*
X63540475Y-59804102D01*
X63546502Y-59797444D01*
X63551395Y-59787346D01*
X63601714Y-59683488D01*
X63601715Y-59683486D01*
X63605628Y-59675409D01*
X63628125Y-59541685D01*
X63628268Y-59530000D01*
X63619150Y-59466335D01*
X63629292Y-59396068D01*
X63654782Y-59359378D01*
X64070003Y-58944157D01*
X68621768Y-58944157D01*
X68639350Y-59078616D01*
X68693964Y-59202735D01*
X68706328Y-59217444D01*
X68775445Y-59299669D01*
X68775448Y-59299672D01*
X68781219Y-59306537D01*
X68788687Y-59311508D01*
X68788688Y-59311509D01*
X68860600Y-59359378D01*
X68894100Y-59381678D01*
X69023534Y-59422116D01*
X69159115Y-59424601D01*
X69234880Y-59403945D01*
X69281284Y-59391294D01*
X69281286Y-59391293D01*
X69289943Y-59388933D01*
X69405502Y-59317979D01*
X69411526Y-59311324D01*
X69490474Y-59224104D01*
X69490475Y-59224102D01*
X69496502Y-59217444D01*
X69507785Y-59194157D01*
X71821768Y-59194157D01*
X71822932Y-59203059D01*
X71822932Y-59203062D01*
X71825684Y-59224104D01*
X71839350Y-59328616D01*
X71893964Y-59452735D01*
X71899740Y-59459606D01*
X71975445Y-59549669D01*
X71975448Y-59549672D01*
X71981219Y-59556537D01*
X71988687Y-59561508D01*
X71988688Y-59561509D01*
X72080143Y-59622387D01*
X72094100Y-59631678D01*
X72142927Y-59646932D01*
X72206634Y-59666836D01*
X72223534Y-59672116D01*
X72359115Y-59674601D01*
X72417747Y-59658616D01*
X72481284Y-59641294D01*
X72481286Y-59641293D01*
X72489943Y-59638933D01*
X72577570Y-59585129D01*
X72646089Y-59566531D01*
X72713784Y-59587928D01*
X72759165Y-59642527D01*
X72769500Y-59692504D01*
X72769500Y-60613672D01*
X72772313Y-60649416D01*
X72816757Y-60802392D01*
X72820794Y-60809218D01*
X72893810Y-60932682D01*
X72893812Y-60932685D01*
X72897848Y-60939509D01*
X73010491Y-61052152D01*
X73017315Y-61056188D01*
X73017318Y-61056190D01*
X73120052Y-61116946D01*
X73147608Y-61133243D01*
X73155220Y-61135454D01*
X73155221Y-61135455D01*
X73255954Y-61164721D01*
X73300584Y-61177687D01*
X73314345Y-61178770D01*
X73333870Y-61180307D01*
X73333881Y-61180307D01*
X73336328Y-61180500D01*
X74463672Y-61180500D01*
X74466119Y-61180307D01*
X74466130Y-61180307D01*
X74485655Y-61178770D01*
X74499416Y-61177687D01*
X74544046Y-61164721D01*
X74644779Y-61135455D01*
X74644780Y-61135454D01*
X74652392Y-61133243D01*
X74679948Y-61116946D01*
X74782682Y-61056190D01*
X74782685Y-61056188D01*
X74789509Y-61052152D01*
X74902152Y-60939509D01*
X74906188Y-60932685D01*
X74906190Y-60932682D01*
X74979206Y-60809218D01*
X74983243Y-60802392D01*
X75027687Y-60649416D01*
X75030500Y-60613672D01*
X75030500Y-59486328D01*
X75027687Y-59450584D01*
X74989665Y-59319711D01*
X74985455Y-59305221D01*
X74985454Y-59305220D01*
X74983243Y-59297608D01*
X74945157Y-59233208D01*
X74906190Y-59167318D01*
X74906188Y-59167315D01*
X74902152Y-59160491D01*
X74789509Y-59047848D01*
X74782685Y-59043812D01*
X74782682Y-59043810D01*
X74659218Y-58970794D01*
X74659219Y-58970794D01*
X74652392Y-58966757D01*
X74644780Y-58964546D01*
X74644779Y-58964545D01*
X74505601Y-58924110D01*
X74505602Y-58924110D01*
X74499416Y-58922313D01*
X74485655Y-58921230D01*
X74466130Y-58919693D01*
X74466119Y-58919693D01*
X74463672Y-58919500D01*
X74080834Y-58919500D01*
X74012713Y-58899498D01*
X73966220Y-58845842D01*
X73956116Y-58775568D01*
X73985610Y-58710988D01*
X74045336Y-58672604D01*
X74062754Y-58668804D01*
X74159327Y-58654802D01*
X74159332Y-58654801D01*
X74165041Y-58653973D01*
X74170505Y-58652118D01*
X74170510Y-58652117D01*
X74356318Y-58589043D01*
X74361786Y-58587187D01*
X74543065Y-58485666D01*
X74702809Y-58352809D01*
X74835666Y-58193065D01*
X74937187Y-58011786D01*
X74957358Y-57952365D01*
X75002117Y-57820510D01*
X75002118Y-57820505D01*
X75003973Y-57815041D01*
X75004801Y-57809332D01*
X75004802Y-57809327D01*
X75033254Y-57613093D01*
X75033787Y-57609419D01*
X75035343Y-57550000D01*
X75016332Y-57343100D01*
X75011780Y-57326958D01*
X74965118Y-57161509D01*
X74959934Y-57143129D01*
X74868039Y-56956785D01*
X74756057Y-56806823D01*
X74747177Y-56794931D01*
X74747176Y-56794930D01*
X74743724Y-56790307D01*
X74591153Y-56649272D01*
X74415435Y-56538402D01*
X74222455Y-56461411D01*
X74216795Y-56460285D01*
X74216791Y-56460284D01*
X74024344Y-56422004D01*
X74024339Y-56422004D01*
X74018676Y-56420877D01*
X74012901Y-56420801D01*
X74012897Y-56420801D01*
X73908768Y-56419438D01*
X73810922Y-56418157D01*
X73805225Y-56419136D01*
X73805224Y-56419136D01*
X73611842Y-56452365D01*
X73611839Y-56452366D01*
X73606152Y-56453343D01*
X73411222Y-56525256D01*
X73232662Y-56631488D01*
X73076451Y-56768481D01*
X73072880Y-56773011D01*
X72970318Y-56903111D01*
X72947821Y-56931648D01*
X72945133Y-56936757D01*
X72853769Y-57110411D01*
X72853767Y-57110416D01*
X72851080Y-57115523D01*
X72836801Y-57161509D01*
X72794539Y-57297615D01*
X72789467Y-57313949D01*
X72765046Y-57520280D01*
X72778635Y-57727607D01*
X72780056Y-57733203D01*
X72780057Y-57733208D01*
X72827720Y-57920877D01*
X72829779Y-57928985D01*
X72832196Y-57934228D01*
X72845714Y-57963551D01*
X72916764Y-58117671D01*
X73036678Y-58287346D01*
X73185505Y-58432327D01*
X73190301Y-58435532D01*
X73190304Y-58435534D01*
X73251101Y-58476157D01*
X73358261Y-58547759D01*
X73363569Y-58550040D01*
X73363570Y-58550040D01*
X73543857Y-58627497D01*
X73543860Y-58627498D01*
X73549160Y-58629775D01*
X73647897Y-58652117D01*
X73729610Y-58670607D01*
X73791637Y-58705150D01*
X73825141Y-58767743D01*
X73819487Y-58838515D01*
X73776468Y-58894994D01*
X73709743Y-58919249D01*
X73701802Y-58919500D01*
X73336328Y-58919500D01*
X73333881Y-58919693D01*
X73333870Y-58919693D01*
X73314345Y-58921230D01*
X73300584Y-58922313D01*
X73294398Y-58924110D01*
X73294399Y-58924110D01*
X73155221Y-58964545D01*
X73155220Y-58964546D01*
X73147608Y-58966757D01*
X73140781Y-58970794D01*
X73140782Y-58970794D01*
X73017318Y-59043810D01*
X73017315Y-59043812D01*
X73010491Y-59047848D01*
X72960586Y-59097753D01*
X72898274Y-59131779D01*
X72827459Y-59126714D01*
X72770623Y-59084167D01*
X72756790Y-59060809D01*
X72755797Y-59058624D01*
X72702918Y-58942323D01*
X72614402Y-58839595D01*
X72606871Y-58834714D01*
X72606868Y-58834711D01*
X72508142Y-58770720D01*
X72508140Y-58770719D01*
X72500611Y-58765839D01*
X72492014Y-58763268D01*
X72492012Y-58763267D01*
X72379296Y-58729558D01*
X72379297Y-58729558D01*
X72370693Y-58726985D01*
X72361717Y-58726930D01*
X72361716Y-58726930D01*
X72304770Y-58726582D01*
X72235092Y-58726157D01*
X72104709Y-58763421D01*
X72097122Y-58768208D01*
X72097120Y-58768209D01*
X72085457Y-58775568D01*
X71990025Y-58835781D01*
X71900260Y-58937420D01*
X71896446Y-58945543D01*
X71896445Y-58945545D01*
X71887525Y-58964545D01*
X71842630Y-59060168D01*
X71837453Y-59093421D01*
X71823149Y-59185284D01*
X71823149Y-59185288D01*
X71821768Y-59194157D01*
X69507785Y-59194157D01*
X69523854Y-59160991D01*
X69551714Y-59103488D01*
X69551715Y-59103486D01*
X69555628Y-59095409D01*
X69578125Y-58961685D01*
X69578268Y-58950000D01*
X69577432Y-58944157D01*
X69560317Y-58824653D01*
X69560316Y-58824651D01*
X69559044Y-58815766D01*
X69552806Y-58802045D01*
X69534123Y-58760955D01*
X69502918Y-58692323D01*
X69414402Y-58589595D01*
X69406871Y-58584714D01*
X69406868Y-58584711D01*
X69308142Y-58520720D01*
X69308140Y-58520719D01*
X69300611Y-58515839D01*
X69292014Y-58513268D01*
X69292012Y-58513267D01*
X69179296Y-58479558D01*
X69179297Y-58479558D01*
X69170693Y-58476985D01*
X69161717Y-58476930D01*
X69161716Y-58476930D01*
X69104770Y-58476582D01*
X69035092Y-58476157D01*
X68904709Y-58513421D01*
X68897122Y-58518208D01*
X68897120Y-58518209D01*
X68855374Y-58544549D01*
X68790025Y-58585781D01*
X68700260Y-58687420D01*
X68642630Y-58810168D01*
X68637503Y-58843100D01*
X68623149Y-58935284D01*
X68623149Y-58935288D01*
X68621768Y-58944157D01*
X64070003Y-58944157D01*
X65919755Y-57094405D01*
X65982067Y-57060379D01*
X66008850Y-57057500D01*
X67239281Y-57057500D01*
X67307402Y-57077502D01*
X67335732Y-57102424D01*
X67375445Y-57149669D01*
X67375448Y-57149672D01*
X67381219Y-57156537D01*
X67388687Y-57161508D01*
X67388688Y-57161509D01*
X67454567Y-57205362D01*
X67494100Y-57231678D01*
X67623534Y-57272116D01*
X67759115Y-57274601D01*
X67813243Y-57259844D01*
X67881284Y-57241294D01*
X67881286Y-57241293D01*
X67889943Y-57238933D01*
X68005502Y-57167979D01*
X68015859Y-57156537D01*
X68090474Y-57074104D01*
X68090475Y-57074102D01*
X68096502Y-57067444D01*
X68114402Y-57030500D01*
X68151714Y-56953488D01*
X68151715Y-56953486D01*
X68155628Y-56945409D01*
X68178125Y-56811685D01*
X68178268Y-56800000D01*
X68173210Y-56764676D01*
X68160317Y-56674653D01*
X68160316Y-56674651D01*
X68159044Y-56665766D01*
X68102918Y-56542323D01*
X68014402Y-56439595D01*
X68006871Y-56434714D01*
X68006868Y-56434711D01*
X67908142Y-56370720D01*
X67908140Y-56370719D01*
X67900611Y-56365839D01*
X67892014Y-56363268D01*
X67892012Y-56363267D01*
X67779296Y-56329558D01*
X67779297Y-56329558D01*
X67770693Y-56326985D01*
X67761717Y-56326930D01*
X67761716Y-56326930D01*
X67704770Y-56326582D01*
X67635092Y-56326157D01*
X67504709Y-56363421D01*
X67497122Y-56368208D01*
X67497120Y-56368209D01*
X67456680Y-56393725D01*
X67390025Y-56435781D01*
X67384083Y-56442509D01*
X67333390Y-56499908D01*
X67273304Y-56537726D01*
X67238949Y-56542500D01*
X65887772Y-56542500D01*
X65863194Y-56540079D01*
X65850000Y-56537455D01*
X65837828Y-56539876D01*
X65835118Y-56540415D01*
X65749529Y-56557439D01*
X65685855Y-56599985D01*
X65685853Y-56599987D01*
X65664353Y-56614353D01*
X65657460Y-56624669D01*
X65656880Y-56625537D01*
X65641210Y-56644630D01*
X63266030Y-59019810D01*
X63203718Y-59053836D01*
X63176166Y-59056713D01*
X63146527Y-59056532D01*
X63085092Y-59056157D01*
X62954709Y-59093421D01*
X62947122Y-59098208D01*
X62947120Y-59098209D01*
X62901943Y-59126714D01*
X62840025Y-59165781D01*
X62750260Y-59267420D01*
X62746446Y-59275543D01*
X62746445Y-59275545D01*
X62730585Y-59309327D01*
X62692630Y-59390168D01*
X62687269Y-59424601D01*
X62673149Y-59515284D01*
X62673149Y-59515288D01*
X62671768Y-59524157D01*
X48230259Y-59524157D01*
X48237187Y-59511786D01*
X48260062Y-59444399D01*
X48302117Y-59320510D01*
X48302118Y-59320505D01*
X48303973Y-59315041D01*
X48304801Y-59309332D01*
X48304802Y-59309327D01*
X48333254Y-59113093D01*
X48333787Y-59109419D01*
X48335343Y-59050000D01*
X48316332Y-58843100D01*
X48306319Y-58807595D01*
X48261502Y-58648689D01*
X48259934Y-58643129D01*
X48168039Y-58456785D01*
X48043724Y-58290307D01*
X47891153Y-58149272D01*
X47715435Y-58038402D01*
X47522455Y-57961411D01*
X47516795Y-57960285D01*
X47516791Y-57960284D01*
X47324344Y-57922004D01*
X47324339Y-57922004D01*
X47318676Y-57920877D01*
X47312901Y-57920801D01*
X47312897Y-57920801D01*
X47208768Y-57919438D01*
X47110922Y-57918157D01*
X47105225Y-57919136D01*
X47105224Y-57919136D01*
X46911842Y-57952365D01*
X46911839Y-57952366D01*
X46906152Y-57953343D01*
X46711222Y-58025256D01*
X46532662Y-58131488D01*
X46376451Y-58268481D01*
X46247821Y-58431648D01*
X46245133Y-58436757D01*
X46153769Y-58610411D01*
X46153767Y-58610416D01*
X46151080Y-58615523D01*
X46129883Y-58683787D01*
X46101385Y-58775568D01*
X46089467Y-58813949D01*
X46065046Y-59020280D01*
X45700500Y-59020280D01*
X45700500Y-56905272D01*
X46760000Y-56905272D01*
X46767054Y-56915244D01*
X46800716Y-56943390D01*
X46807648Y-56948425D01*
X47034841Y-57090943D01*
X47042393Y-57094992D01*
X47286833Y-57205362D01*
X47294864Y-57208348D01*
X47552022Y-57284522D01*
X47560374Y-57286389D01*
X47825496Y-57326958D01*
X47834029Y-57327674D01*
X48102199Y-57331887D01*
X48110750Y-57331438D01*
X48377015Y-57299217D01*
X48385416Y-57297615D01*
X48644857Y-57229552D01*
X48652959Y-57226825D01*
X48900753Y-57124185D01*
X48908421Y-57120379D01*
X49139995Y-56985058D01*
X49147068Y-56980251D01*
X49230326Y-56914968D01*
X49238795Y-56903111D01*
X49232279Y-56891489D01*
X48012812Y-55672022D01*
X47998868Y-55664408D01*
X47997035Y-55664539D01*
X47990420Y-55668790D01*
X46767292Y-56891918D01*
X46760000Y-56905272D01*
X45700500Y-56905272D01*
X45700500Y-55282973D01*
X45965616Y-55282973D01*
X45981055Y-55550734D01*
X45982128Y-55559234D01*
X46033765Y-55822429D01*
X46035976Y-55830681D01*
X46122856Y-56084439D01*
X46126171Y-56092324D01*
X46246684Y-56331937D01*
X46251041Y-56339303D01*
X46383527Y-56532071D01*
X46393780Y-56540415D01*
X46407521Y-56533269D01*
X47627978Y-55312812D01*
X47634356Y-55301132D01*
X48364408Y-55301132D01*
X48364539Y-55302965D01*
X48368790Y-55309580D01*
X49591467Y-56532257D01*
X49603677Y-56538924D01*
X49615176Y-56530235D01*
X49715452Y-56393725D01*
X49720036Y-56386502D01*
X49848012Y-56150800D01*
X49851580Y-56143006D01*
X49946383Y-55892117D01*
X49947884Y-55887145D01*
X60719500Y-55887145D01*
X60719501Y-56912854D01*
X60720709Y-56918928D01*
X60720709Y-56918929D01*
X60724255Y-56936757D01*
X60727071Y-56950919D01*
X60755914Y-56994086D01*
X60799081Y-57022929D01*
X60822420Y-57027571D01*
X60831075Y-57029293D01*
X60831078Y-57029293D01*
X60837145Y-57030500D01*
X61349751Y-57030500D01*
X61862854Y-57030499D01*
X61868928Y-57029291D01*
X61868929Y-57029291D01*
X61888747Y-57025350D01*
X61888749Y-57025349D01*
X61900919Y-57022929D01*
X61944086Y-56994086D01*
X61972929Y-56950919D01*
X61980500Y-56912855D01*
X61980499Y-55887146D01*
X61972929Y-55849081D01*
X61944086Y-55805914D01*
X61900919Y-55777071D01*
X61877580Y-55772429D01*
X61868925Y-55770707D01*
X61868922Y-55770707D01*
X61862855Y-55769500D01*
X61350249Y-55769500D01*
X60837146Y-55769501D01*
X60831072Y-55770709D01*
X60831071Y-55770709D01*
X60811253Y-55774650D01*
X60811251Y-55774651D01*
X60799081Y-55777071D01*
X60755914Y-55805914D01*
X60727071Y-55849081D01*
X60719500Y-55887145D01*
X49947884Y-55887145D01*
X49948856Y-55883925D01*
X50008735Y-55622484D01*
X50010073Y-55614030D01*
X50034077Y-55345076D01*
X50034323Y-55340139D01*
X50034717Y-55302485D01*
X50034574Y-55297519D01*
X50016209Y-55028131D01*
X50015048Y-55019657D01*
X49960659Y-54757023D01*
X49958355Y-54748769D01*
X49868826Y-54495947D01*
X49865430Y-54488099D01*
X49765329Y-54294157D01*
X63971768Y-54294157D01*
X63989350Y-54428616D01*
X64043964Y-54552735D01*
X64049740Y-54559606D01*
X64125445Y-54649669D01*
X64125448Y-54649672D01*
X64131219Y-54656537D01*
X64244100Y-54731678D01*
X64373534Y-54772116D01*
X64509115Y-54774601D01*
X64573590Y-54757023D01*
X64631284Y-54741294D01*
X64631286Y-54741293D01*
X64639943Y-54738933D01*
X64755502Y-54667979D01*
X64765859Y-54656537D01*
X64840474Y-54574104D01*
X64840475Y-54574102D01*
X64846502Y-54567444D01*
X64881143Y-54495947D01*
X64901714Y-54453488D01*
X64901715Y-54453486D01*
X64905628Y-54445409D01*
X64928125Y-54311685D01*
X64928268Y-54300000D01*
X64927432Y-54294157D01*
X68521768Y-54294157D01*
X68539350Y-54428616D01*
X68593964Y-54552735D01*
X68599740Y-54559606D01*
X68675445Y-54649669D01*
X68675448Y-54649672D01*
X68681219Y-54656537D01*
X68794100Y-54731678D01*
X68923534Y-54772116D01*
X69059115Y-54774601D01*
X69123590Y-54757023D01*
X69181284Y-54741294D01*
X69181286Y-54741293D01*
X69189943Y-54738933D01*
X69305502Y-54667979D01*
X69315859Y-54656537D01*
X69390474Y-54574104D01*
X69390475Y-54574102D01*
X69396502Y-54567444D01*
X69431143Y-54495947D01*
X69451714Y-54453488D01*
X69451715Y-54453486D01*
X69455628Y-54445409D01*
X69478125Y-54311685D01*
X69478268Y-54300000D01*
X69477432Y-54294157D01*
X69460317Y-54174653D01*
X69460316Y-54174651D01*
X69459044Y-54165766D01*
X69452806Y-54152045D01*
X69414273Y-54067298D01*
X69402918Y-54042323D01*
X69314402Y-53939595D01*
X69306871Y-53934714D01*
X69306868Y-53934711D01*
X69208142Y-53870720D01*
X69208140Y-53870719D01*
X69200611Y-53865839D01*
X69192014Y-53863268D01*
X69192012Y-53863267D01*
X69079296Y-53829558D01*
X69079297Y-53829558D01*
X69070693Y-53826985D01*
X69061717Y-53826930D01*
X69061716Y-53826930D01*
X69004770Y-53826582D01*
X68935092Y-53826157D01*
X68804709Y-53863421D01*
X68797122Y-53868208D01*
X68797120Y-53868209D01*
X68736007Y-53906769D01*
X68690025Y-53935781D01*
X68600260Y-54037420D01*
X68596446Y-54045543D01*
X68596445Y-54045545D01*
X68568854Y-54104314D01*
X68542630Y-54160168D01*
X68541250Y-54169034D01*
X68523149Y-54285284D01*
X68523149Y-54285288D01*
X68521768Y-54294157D01*
X64927432Y-54294157D01*
X64910317Y-54174653D01*
X64910316Y-54174651D01*
X64909044Y-54165766D01*
X64902806Y-54152045D01*
X64864273Y-54067298D01*
X64852918Y-54042323D01*
X64764402Y-53939595D01*
X64756871Y-53934714D01*
X64756868Y-53934711D01*
X64658142Y-53870720D01*
X64658140Y-53870719D01*
X64650611Y-53865839D01*
X64642014Y-53863268D01*
X64642012Y-53863267D01*
X64529296Y-53829558D01*
X64529297Y-53829558D01*
X64520693Y-53826985D01*
X64511717Y-53826930D01*
X64511716Y-53826930D01*
X64454770Y-53826582D01*
X64385092Y-53826157D01*
X64254709Y-53863421D01*
X64247122Y-53868208D01*
X64247120Y-53868209D01*
X64186007Y-53906769D01*
X64140025Y-53935781D01*
X64050260Y-54037420D01*
X64046446Y-54045543D01*
X64046445Y-54045545D01*
X64018854Y-54104314D01*
X63992630Y-54160168D01*
X63991250Y-54169034D01*
X63973149Y-54285284D01*
X63973149Y-54285288D01*
X63971768Y-54294157D01*
X49765329Y-54294157D01*
X49742411Y-54249755D01*
X49737983Y-54242443D01*
X49615822Y-54068626D01*
X49605300Y-54060246D01*
X49591912Y-54067298D01*
X48372022Y-55287188D01*
X48364408Y-55301132D01*
X47634356Y-55301132D01*
X47635592Y-55298868D01*
X47635461Y-55297035D01*
X47631210Y-55290420D01*
X46408051Y-54067261D01*
X46396040Y-54060702D01*
X46384302Y-54069670D01*
X46273191Y-54224295D01*
X46268677Y-54231576D01*
X46143181Y-54468598D01*
X46139695Y-54476426D01*
X46047524Y-54728294D01*
X46045135Y-54736517D01*
X45987998Y-54998573D01*
X45986749Y-55007029D01*
X45965705Y-55274422D01*
X45965616Y-55282973D01*
X45700500Y-55282973D01*
X45700500Y-53696849D01*
X46760933Y-53696849D01*
X46767329Y-53708119D01*
X47987188Y-54927978D01*
X48001132Y-54935592D01*
X48002965Y-54935461D01*
X48009580Y-54931210D01*
X49232238Y-53708552D01*
X49239429Y-53695383D01*
X49232106Y-53685145D01*
X49182003Y-53644137D01*
X49175041Y-53639189D01*
X48946350Y-53499047D01*
X48938752Y-53495075D01*
X48708855Y-53394157D01*
X54871768Y-53394157D01*
X54889350Y-53528616D01*
X54943964Y-53652735D01*
X54949740Y-53659606D01*
X55025445Y-53749669D01*
X55025448Y-53749672D01*
X55031219Y-53756537D01*
X55038687Y-53761508D01*
X55038688Y-53761509D01*
X55135889Y-53826212D01*
X55144100Y-53831678D01*
X55152672Y-53834356D01*
X55253443Y-53865839D01*
X55273534Y-53872116D01*
X55409115Y-53874601D01*
X55463243Y-53859844D01*
X55531284Y-53841294D01*
X55531286Y-53841293D01*
X55539943Y-53838933D01*
X55655502Y-53767979D01*
X55665859Y-53756537D01*
X55740474Y-53674104D01*
X55740475Y-53674102D01*
X55746502Y-53667444D01*
X55757795Y-53644137D01*
X55801714Y-53553488D01*
X55801715Y-53553486D01*
X55805628Y-53545409D01*
X55828125Y-53411685D01*
X55828268Y-53400000D01*
X55827432Y-53394157D01*
X55810317Y-53274653D01*
X55810316Y-53274651D01*
X55809044Y-53265766D01*
X55802806Y-53252045D01*
X55756634Y-53150497D01*
X55752918Y-53142323D01*
X55664402Y-53039595D01*
X55656871Y-53034714D01*
X55656868Y-53034711D01*
X55558142Y-52970720D01*
X55558140Y-52970719D01*
X55550611Y-52965839D01*
X55542014Y-52963268D01*
X55542012Y-52963267D01*
X55429296Y-52929558D01*
X55429297Y-52929558D01*
X55420693Y-52926985D01*
X55411717Y-52926930D01*
X55411716Y-52926930D01*
X55354770Y-52926582D01*
X55285092Y-52926157D01*
X55154709Y-52963421D01*
X55147122Y-52968208D01*
X55147120Y-52968209D01*
X55086007Y-53006769D01*
X55040025Y-53035781D01*
X54950260Y-53137420D01*
X54892630Y-53260168D01*
X54890893Y-53271326D01*
X54873149Y-53385284D01*
X54873149Y-53385288D01*
X54871768Y-53394157D01*
X48708855Y-53394157D01*
X48693173Y-53387273D01*
X48685119Y-53384374D01*
X48427177Y-53310898D01*
X48418799Y-53309116D01*
X48153272Y-53271326D01*
X48144725Y-53270699D01*
X47876523Y-53269294D01*
X47867989Y-53269831D01*
X47602074Y-53304840D01*
X47593676Y-53306533D01*
X47334986Y-53377303D01*
X47326891Y-53380122D01*
X47080188Y-53485349D01*
X47072565Y-53489234D01*
X46842429Y-53626967D01*
X46835397Y-53631854D01*
X46769402Y-53684726D01*
X46760933Y-53696849D01*
X45700500Y-53696849D01*
X45700500Y-50287145D01*
X51869500Y-50287145D01*
X51869501Y-51312854D01*
X51877071Y-51350919D01*
X51905914Y-51394086D01*
X51949081Y-51422929D01*
X51968669Y-51426825D01*
X51981075Y-51429293D01*
X51981078Y-51429293D01*
X51987145Y-51430500D01*
X52499751Y-51430500D01*
X53012854Y-51430499D01*
X53018928Y-51429291D01*
X53018929Y-51429291D01*
X53038747Y-51425350D01*
X53038749Y-51425349D01*
X53050919Y-51422929D01*
X53094086Y-51394086D01*
X53122929Y-51350919D01*
X53127571Y-51327580D01*
X53129293Y-51318925D01*
X53129293Y-51318922D01*
X53130500Y-51312855D01*
X53130500Y-51187145D01*
X57809500Y-51187145D01*
X57809501Y-52212854D01*
X57817071Y-52250919D01*
X57845914Y-52294086D01*
X57889081Y-52322929D01*
X57912420Y-52327571D01*
X57921075Y-52329293D01*
X57921078Y-52329293D01*
X57927145Y-52330500D01*
X58439751Y-52330500D01*
X58952854Y-52330499D01*
X58958928Y-52329291D01*
X58958929Y-52329291D01*
X58978747Y-52325350D01*
X58978749Y-52325349D01*
X58990919Y-52322929D01*
X59034086Y-52294086D01*
X59062929Y-52250919D01*
X59070500Y-52212855D01*
X59070499Y-51187146D01*
X59062929Y-51149081D01*
X59034086Y-51105914D01*
X59033125Y-51105272D01*
X71760000Y-51105272D01*
X71767054Y-51115244D01*
X71800716Y-51143390D01*
X71807648Y-51148425D01*
X72034841Y-51290943D01*
X72042393Y-51294992D01*
X72286833Y-51405362D01*
X72294864Y-51408348D01*
X72552022Y-51484522D01*
X72560374Y-51486389D01*
X72825496Y-51526958D01*
X72834029Y-51527674D01*
X73102199Y-51531887D01*
X73110750Y-51531438D01*
X73377015Y-51499217D01*
X73385416Y-51497615D01*
X73644857Y-51429552D01*
X73652959Y-51426825D01*
X73900753Y-51324185D01*
X73908421Y-51320379D01*
X74139995Y-51185058D01*
X74147068Y-51180251D01*
X74230326Y-51114968D01*
X74238795Y-51103111D01*
X74232279Y-51091489D01*
X73012812Y-49872022D01*
X72998868Y-49864408D01*
X72997035Y-49864539D01*
X72990420Y-49868790D01*
X71767292Y-51091918D01*
X71760000Y-51105272D01*
X59033125Y-51105272D01*
X59023767Y-51099019D01*
X59001240Y-51083967D01*
X59001239Y-51083967D01*
X58990919Y-51077071D01*
X58967580Y-51072429D01*
X58958925Y-51070707D01*
X58958922Y-51070707D01*
X58952855Y-51069500D01*
X58440249Y-51069500D01*
X57927146Y-51069501D01*
X57921072Y-51070709D01*
X57921071Y-51070709D01*
X57901253Y-51074650D01*
X57901251Y-51074651D01*
X57889081Y-51077071D01*
X57845914Y-51105914D01*
X57817071Y-51149081D01*
X57809500Y-51187145D01*
X53130500Y-51187145D01*
X53130499Y-50287146D01*
X53122929Y-50249081D01*
X53094086Y-50205914D01*
X53050919Y-50177071D01*
X53027580Y-50172429D01*
X53018925Y-50170707D01*
X53018922Y-50170707D01*
X53012855Y-50169500D01*
X52500249Y-50169500D01*
X51987146Y-50169501D01*
X51981072Y-50170709D01*
X51981071Y-50170709D01*
X51961253Y-50174650D01*
X51961251Y-50174651D01*
X51949081Y-50177071D01*
X51905914Y-50205914D01*
X51877071Y-50249081D01*
X51869500Y-50287145D01*
X45700500Y-50287145D01*
X45700500Y-50081410D01*
X58570000Y-50081410D01*
X58570670Y-50090570D01*
X58579569Y-50151018D01*
X58585311Y-50169498D01*
X58632162Y-50264920D01*
X58644118Y-50281620D01*
X58718914Y-50356285D01*
X58735637Y-50368214D01*
X58831150Y-50414903D01*
X58849615Y-50420610D01*
X58909469Y-50429341D01*
X58918544Y-50430000D01*
X59127885Y-50430000D01*
X59143124Y-50425525D01*
X59144329Y-50424135D01*
X59146000Y-50416452D01*
X59146000Y-50411885D01*
X59654000Y-50411885D01*
X59658475Y-50427124D01*
X59659865Y-50428329D01*
X59667548Y-50430000D01*
X59881410Y-50430000D01*
X59890570Y-50429330D01*
X59951018Y-50420431D01*
X59969498Y-50414689D01*
X60064920Y-50367838D01*
X60081620Y-50355882D01*
X60156285Y-50281086D01*
X60168214Y-50264363D01*
X60214903Y-50168850D01*
X60220610Y-50150385D01*
X60229341Y-50090531D01*
X60230000Y-50081456D01*
X60230000Y-50081410D01*
X60770000Y-50081410D01*
X60770670Y-50090570D01*
X60779569Y-50151018D01*
X60785311Y-50169498D01*
X60832162Y-50264920D01*
X60844118Y-50281620D01*
X60918914Y-50356285D01*
X60935637Y-50368214D01*
X61031150Y-50414903D01*
X61049615Y-50420610D01*
X61109469Y-50429341D01*
X61118544Y-50430000D01*
X61327885Y-50430000D01*
X61343124Y-50425525D01*
X61344329Y-50424135D01*
X61346000Y-50416452D01*
X61346000Y-50411885D01*
X61854000Y-50411885D01*
X61858475Y-50427124D01*
X61859865Y-50428329D01*
X61867548Y-50430000D01*
X62081410Y-50430000D01*
X62090570Y-50429330D01*
X62151018Y-50420431D01*
X62169498Y-50414689D01*
X62264920Y-50367838D01*
X62281620Y-50355882D01*
X62356285Y-50281086D01*
X62368214Y-50264363D01*
X62414903Y-50168850D01*
X62420610Y-50150385D01*
X62429341Y-50090531D01*
X62430000Y-50081456D01*
X62430000Y-49972115D01*
X62425525Y-49956876D01*
X62424135Y-49955671D01*
X62416452Y-49954000D01*
X61872115Y-49954000D01*
X61856876Y-49958475D01*
X61855671Y-49959865D01*
X61854000Y-49967548D01*
X61854000Y-50411885D01*
X61346000Y-50411885D01*
X61346000Y-49972115D01*
X61341525Y-49956876D01*
X61340135Y-49955671D01*
X61332452Y-49954000D01*
X60788115Y-49954000D01*
X60772876Y-49958475D01*
X60771671Y-49959865D01*
X60770000Y-49967548D01*
X60770000Y-50081410D01*
X60230000Y-50081410D01*
X60230000Y-49972115D01*
X60225525Y-49956876D01*
X60224135Y-49955671D01*
X60216452Y-49954000D01*
X59672115Y-49954000D01*
X59656876Y-49958475D01*
X59655671Y-49959865D01*
X59654000Y-49967548D01*
X59654000Y-50411885D01*
X59146000Y-50411885D01*
X59146000Y-49972115D01*
X59141525Y-49956876D01*
X59140135Y-49955671D01*
X59132452Y-49954000D01*
X58588115Y-49954000D01*
X58572876Y-49958475D01*
X58571671Y-49959865D01*
X58570000Y-49967548D01*
X58570000Y-50081410D01*
X45700500Y-50081410D01*
X45700500Y-49482973D01*
X70965616Y-49482973D01*
X70981055Y-49750734D01*
X70982128Y-49759234D01*
X71033765Y-50022429D01*
X71035976Y-50030681D01*
X71122856Y-50284439D01*
X71126171Y-50292324D01*
X71246684Y-50531937D01*
X71251041Y-50539303D01*
X71383527Y-50732071D01*
X71393780Y-50740415D01*
X71407521Y-50733269D01*
X72627978Y-49512812D01*
X72634356Y-49501132D01*
X73364408Y-49501132D01*
X73364539Y-49502965D01*
X73368790Y-49509580D01*
X74591467Y-50732257D01*
X74603677Y-50738924D01*
X74615176Y-50730235D01*
X74715452Y-50593725D01*
X74720036Y-50586502D01*
X74848012Y-50350800D01*
X74851580Y-50343006D01*
X74946383Y-50092117D01*
X74948856Y-50083925D01*
X75008735Y-49822484D01*
X75010073Y-49814030D01*
X75034077Y-49545076D01*
X75034323Y-49540139D01*
X75034717Y-49502485D01*
X75034574Y-49497519D01*
X75016209Y-49228131D01*
X75015048Y-49219657D01*
X74960659Y-48957023D01*
X74958355Y-48948769D01*
X74868826Y-48695947D01*
X74865430Y-48688099D01*
X74742411Y-48449755D01*
X74737983Y-48442443D01*
X74615822Y-48268626D01*
X74605300Y-48260246D01*
X74591912Y-48267298D01*
X73372022Y-49487188D01*
X73364408Y-49501132D01*
X72634356Y-49501132D01*
X72635592Y-49498868D01*
X72635461Y-49497035D01*
X72631210Y-49490420D01*
X71408051Y-48267261D01*
X71396040Y-48260702D01*
X71384302Y-48269670D01*
X71273191Y-48424295D01*
X71268677Y-48431576D01*
X71143181Y-48668598D01*
X71139695Y-48676426D01*
X71047524Y-48928294D01*
X71045135Y-48936517D01*
X70987998Y-49198573D01*
X70986749Y-49207029D01*
X70965705Y-49474422D01*
X70965616Y-49482973D01*
X45700500Y-49482973D01*
X45700500Y-49427885D01*
X58570000Y-49427885D01*
X58574475Y-49443124D01*
X58575865Y-49444329D01*
X58583548Y-49446000D01*
X59127885Y-49446000D01*
X59143124Y-49441525D01*
X59144329Y-49440135D01*
X59146000Y-49432452D01*
X59146000Y-49427885D01*
X59654000Y-49427885D01*
X59658475Y-49443124D01*
X59659865Y-49444329D01*
X59667548Y-49446000D01*
X60211885Y-49446000D01*
X60227124Y-49441525D01*
X60228329Y-49440135D01*
X60230000Y-49432452D01*
X60230000Y-49427885D01*
X60770000Y-49427885D01*
X60774475Y-49443124D01*
X60775865Y-49444329D01*
X60783548Y-49446000D01*
X61327885Y-49446000D01*
X61343124Y-49441525D01*
X61344329Y-49440135D01*
X61346000Y-49432452D01*
X61346000Y-49427885D01*
X61854000Y-49427885D01*
X61858475Y-49443124D01*
X61859865Y-49444329D01*
X61867548Y-49446000D01*
X62411885Y-49446000D01*
X62427124Y-49441525D01*
X62428329Y-49440135D01*
X62430000Y-49432452D01*
X62430000Y-49318590D01*
X62429330Y-49309430D01*
X62420431Y-49248982D01*
X62414689Y-49230502D01*
X62367838Y-49135080D01*
X62355882Y-49118380D01*
X62281086Y-49043715D01*
X62264363Y-49031786D01*
X62168850Y-48985097D01*
X62150385Y-48979390D01*
X62090531Y-48970659D01*
X62081456Y-48970000D01*
X61872115Y-48970000D01*
X61856876Y-48974475D01*
X61855671Y-48975865D01*
X61854000Y-48983548D01*
X61854000Y-49427885D01*
X61346000Y-49427885D01*
X61346000Y-48988115D01*
X61341525Y-48972876D01*
X61340135Y-48971671D01*
X61332452Y-48970000D01*
X61118590Y-48970000D01*
X61109430Y-48970670D01*
X61048982Y-48979569D01*
X61030502Y-48985311D01*
X60935080Y-49032162D01*
X60918380Y-49044118D01*
X60843715Y-49118914D01*
X60831786Y-49135637D01*
X60785097Y-49231150D01*
X60779390Y-49249615D01*
X60770659Y-49309469D01*
X60770000Y-49318544D01*
X60770000Y-49427885D01*
X60230000Y-49427885D01*
X60230000Y-49318590D01*
X60229330Y-49309430D01*
X60220431Y-49248982D01*
X60214689Y-49230502D01*
X60167838Y-49135080D01*
X60155882Y-49118380D01*
X60081086Y-49043715D01*
X60064363Y-49031786D01*
X59968850Y-48985097D01*
X59950385Y-48979390D01*
X59890531Y-48970659D01*
X59881456Y-48970000D01*
X59672115Y-48970000D01*
X59656876Y-48974475D01*
X59655671Y-48975865D01*
X59654000Y-48983548D01*
X59654000Y-49427885D01*
X59146000Y-49427885D01*
X59146000Y-48988115D01*
X59141525Y-48972876D01*
X59140135Y-48971671D01*
X59132452Y-48970000D01*
X58918590Y-48970000D01*
X58909430Y-48970670D01*
X58848982Y-48979569D01*
X58830502Y-48985311D01*
X58735080Y-49032162D01*
X58718380Y-49044118D01*
X58643715Y-49118914D01*
X58631786Y-49135637D01*
X58585097Y-49231150D01*
X58579390Y-49249615D01*
X58570659Y-49309469D01*
X58570000Y-49318544D01*
X58570000Y-49427885D01*
X45700500Y-49427885D01*
X45700500Y-48224157D01*
X46021768Y-48224157D01*
X46022932Y-48233059D01*
X46022932Y-48233062D01*
X46027136Y-48265212D01*
X46039350Y-48358616D01*
X46093964Y-48482735D01*
X46099740Y-48489606D01*
X46175445Y-48579669D01*
X46175448Y-48579672D01*
X46181219Y-48586537D01*
X46294100Y-48661678D01*
X46423534Y-48702116D01*
X46559115Y-48704601D01*
X46619643Y-48688099D01*
X46681284Y-48671294D01*
X46681286Y-48671293D01*
X46689943Y-48668933D01*
X46805502Y-48597979D01*
X46815859Y-48586537D01*
X46890474Y-48504104D01*
X46890475Y-48504102D01*
X46896502Y-48497444D01*
X46919608Y-48449755D01*
X46951714Y-48383488D01*
X46951715Y-48383486D01*
X46955628Y-48375409D01*
X46978125Y-48241685D01*
X46978268Y-48230000D01*
X46977432Y-48224157D01*
X46960317Y-48104653D01*
X46960316Y-48104651D01*
X46959044Y-48095766D01*
X46954632Y-48086062D01*
X58569500Y-48086062D01*
X58580509Y-48160852D01*
X58584826Y-48169644D01*
X58584826Y-48169645D01*
X58616851Y-48234871D01*
X58636337Y-48274560D01*
X58725987Y-48364054D01*
X58735343Y-48368627D01*
X58735344Y-48368628D01*
X58749217Y-48375409D01*
X58839793Y-48419683D01*
X58890870Y-48427135D01*
X58909413Y-48429840D01*
X58909415Y-48429840D01*
X58913938Y-48430500D01*
X59886062Y-48430500D01*
X59960852Y-48419491D01*
X59969645Y-48415174D01*
X60065212Y-48368253D01*
X60065214Y-48368252D01*
X60074560Y-48363663D01*
X60164054Y-48274013D01*
X60170561Y-48260702D01*
X60192761Y-48215284D01*
X60219683Y-48160207D01*
X60230500Y-48086062D01*
X60230500Y-47313938D01*
X60219491Y-47239148D01*
X60202114Y-47203755D01*
X60168253Y-47134788D01*
X60168252Y-47134786D01*
X60163663Y-47125440D01*
X60108502Y-47070375D01*
X60081384Y-47043304D01*
X60081383Y-47043304D01*
X60074013Y-47035946D01*
X60064657Y-47031373D01*
X60064656Y-47031372D01*
X60022649Y-47010839D01*
X59960207Y-46980317D01*
X59906516Y-46972484D01*
X59890587Y-46970160D01*
X59890585Y-46970160D01*
X59886062Y-46969500D01*
X59783500Y-46969500D01*
X59715379Y-46949498D01*
X59668886Y-46895842D01*
X59657500Y-46843500D01*
X59657500Y-46758850D01*
X59677502Y-46690729D01*
X59694405Y-46669755D01*
X59854745Y-46509415D01*
X59917057Y-46475389D01*
X59946148Y-46472531D01*
X60050138Y-46474437D01*
X60050142Y-46474437D01*
X60059115Y-46474601D01*
X60113243Y-46459844D01*
X60181284Y-46441294D01*
X60181286Y-46441293D01*
X60189943Y-46438933D01*
X60305502Y-46367979D01*
X60396502Y-46267444D01*
X60397891Y-46264577D01*
X60450323Y-46221147D01*
X60520804Y-46212607D01*
X60584713Y-46243528D01*
X60596556Y-46255819D01*
X60681219Y-46356537D01*
X60688687Y-46361508D01*
X60688688Y-46361509D01*
X60733307Y-46391210D01*
X60794100Y-46431678D01*
X60802672Y-46434356D01*
X60899541Y-46464620D01*
X60923534Y-46472116D01*
X61059115Y-46474601D01*
X61059051Y-46478093D01*
X61112541Y-46486804D01*
X61147167Y-46511327D01*
X61305595Y-46669755D01*
X61339621Y-46732067D01*
X61342500Y-46758850D01*
X61342500Y-46843500D01*
X61322498Y-46911621D01*
X61268842Y-46958114D01*
X61216500Y-46969500D01*
X61113938Y-46969500D01*
X61039148Y-46980509D01*
X61030356Y-46984826D01*
X61030355Y-46984826D01*
X60934788Y-47031747D01*
X60934786Y-47031748D01*
X60925440Y-47036337D01*
X60835946Y-47125987D01*
X60831373Y-47135343D01*
X60831372Y-47135344D01*
X60827444Y-47143380D01*
X60780317Y-47239793D01*
X60769500Y-47313938D01*
X60769500Y-48086062D01*
X60780509Y-48160852D01*
X60784826Y-48169644D01*
X60784826Y-48169645D01*
X60816851Y-48234871D01*
X60836337Y-48274560D01*
X60925987Y-48364054D01*
X60935343Y-48368627D01*
X60935344Y-48368628D01*
X60949217Y-48375409D01*
X61039793Y-48419683D01*
X61090870Y-48427135D01*
X61109413Y-48429840D01*
X61109415Y-48429840D01*
X61113938Y-48430500D01*
X62086062Y-48430500D01*
X62160852Y-48419491D01*
X62169645Y-48415174D01*
X62265212Y-48368253D01*
X62265214Y-48368252D01*
X62274560Y-48363663D01*
X62364054Y-48274013D01*
X62370561Y-48260702D01*
X62392761Y-48215284D01*
X62419683Y-48160207D01*
X62430500Y-48086062D01*
X62430500Y-47896849D01*
X71760933Y-47896849D01*
X71767329Y-47908119D01*
X72987188Y-49127978D01*
X73001132Y-49135592D01*
X73002965Y-49135461D01*
X73009580Y-49131210D01*
X74232238Y-47908552D01*
X74239429Y-47895383D01*
X74232106Y-47885145D01*
X74182003Y-47844137D01*
X74175041Y-47839189D01*
X73946350Y-47699047D01*
X73938752Y-47695075D01*
X73693173Y-47587273D01*
X73685119Y-47584374D01*
X73427177Y-47510898D01*
X73418799Y-47509116D01*
X73153272Y-47471326D01*
X73144725Y-47470699D01*
X72876523Y-47469294D01*
X72867989Y-47469831D01*
X72602074Y-47504840D01*
X72593676Y-47506533D01*
X72334986Y-47577303D01*
X72326891Y-47580122D01*
X72080188Y-47685349D01*
X72072565Y-47689234D01*
X71842429Y-47826967D01*
X71835397Y-47831854D01*
X71769402Y-47884726D01*
X71760933Y-47896849D01*
X62430500Y-47896849D01*
X62430500Y-47313938D01*
X62419491Y-47239148D01*
X62402114Y-47203755D01*
X62368253Y-47134788D01*
X62368252Y-47134786D01*
X62363663Y-47125440D01*
X62308502Y-47070375D01*
X62281384Y-47043304D01*
X62281383Y-47043304D01*
X62274013Y-47035946D01*
X62264657Y-47031373D01*
X62264656Y-47031372D01*
X62222649Y-47010839D01*
X62160207Y-46980317D01*
X62106516Y-46972484D01*
X62090587Y-46970160D01*
X62090585Y-46970160D01*
X62086062Y-46969500D01*
X61983500Y-46969500D01*
X61915379Y-46949498D01*
X61868886Y-46895842D01*
X61857500Y-46843500D01*
X61857500Y-46637767D01*
X61859921Y-46613186D01*
X61860123Y-46612170D01*
X61862544Y-46600000D01*
X61857500Y-46574641D01*
X61857500Y-46574637D01*
X61851558Y-46544762D01*
X61844981Y-46511698D01*
X61844981Y-46511697D01*
X61842560Y-46499528D01*
X61825904Y-46474601D01*
X61792541Y-46424670D01*
X61792540Y-46424669D01*
X61785647Y-46414353D01*
X61775331Y-46407460D01*
X61775329Y-46407458D01*
X61774463Y-46406880D01*
X61755370Y-46391210D01*
X61509332Y-46145172D01*
X61475306Y-46082860D01*
X61474174Y-46035171D01*
X61477317Y-46016489D01*
X61477317Y-46016487D01*
X61478125Y-46011685D01*
X61478268Y-46000000D01*
X61472908Y-45962577D01*
X61483049Y-45892311D01*
X61508540Y-45855620D01*
X61755370Y-45608790D01*
X61774463Y-45593120D01*
X61775329Y-45592542D01*
X61775331Y-45592540D01*
X61785647Y-45585647D01*
X61798883Y-45565839D01*
X61835667Y-45510788D01*
X61842560Y-45500472D01*
X61848523Y-45470497D01*
X61857500Y-45425363D01*
X61857500Y-45425359D01*
X61860123Y-45412172D01*
X61860123Y-45412171D01*
X61862544Y-45400000D01*
X61859920Y-45386808D01*
X61857500Y-45362233D01*
X61857500Y-45332088D01*
X64290000Y-45332088D01*
X64290582Y-45340630D01*
X64303558Y-45435355D01*
X64308136Y-45451753D01*
X64358983Y-45569252D01*
X64367803Y-45583814D01*
X64448372Y-45683309D01*
X64460780Y-45694961D01*
X64551235Y-45759245D01*
X64563847Y-45763597D01*
X64566000Y-45754704D01*
X64566000Y-45747336D01*
X65074000Y-45747336D01*
X65077973Y-45760867D01*
X65081329Y-45761349D01*
X65083239Y-45760743D01*
X65117668Y-45743201D01*
X65131645Y-45733487D01*
X65225887Y-45646826D01*
X65236740Y-45633706D01*
X65304202Y-45524902D01*
X65311128Y-45509346D01*
X65347403Y-45384488D01*
X65349727Y-45371573D01*
X65349831Y-45370164D01*
X65350000Y-45365538D01*
X65350000Y-45172115D01*
X65345525Y-45156876D01*
X65344135Y-45155671D01*
X65336452Y-45154000D01*
X65092115Y-45154000D01*
X65076876Y-45158475D01*
X65075671Y-45159865D01*
X65074000Y-45167548D01*
X65074000Y-45747336D01*
X64566000Y-45747336D01*
X64566000Y-45172115D01*
X64561525Y-45156876D01*
X64560135Y-45155671D01*
X64552452Y-45154000D01*
X64308115Y-45154000D01*
X64292876Y-45158475D01*
X64291671Y-45159865D01*
X64290000Y-45167548D01*
X64290000Y-45332088D01*
X61857500Y-45332088D01*
X61857500Y-45156500D01*
X61877502Y-45088379D01*
X61931158Y-45041886D01*
X61983500Y-45030500D01*
X62086062Y-45030500D01*
X62160852Y-45019491D01*
X62188505Y-45005914D01*
X62265212Y-44968253D01*
X62265214Y-44968252D01*
X62274560Y-44963663D01*
X62364054Y-44874013D01*
X62378969Y-44843501D01*
X62388555Y-44823889D01*
X62419683Y-44760207D01*
X62430500Y-44686062D01*
X62430500Y-44627885D01*
X64290000Y-44627885D01*
X64294475Y-44643124D01*
X64295865Y-44644329D01*
X64303548Y-44646000D01*
X64547885Y-44646000D01*
X64563124Y-44641525D01*
X64564329Y-44640135D01*
X64566000Y-44632452D01*
X64566000Y-44627885D01*
X65074000Y-44627885D01*
X65078475Y-44643124D01*
X65079865Y-44644329D01*
X65087548Y-44646000D01*
X65331885Y-44646000D01*
X65347124Y-44641525D01*
X65348329Y-44640135D01*
X65350000Y-44632452D01*
X65350000Y-44467912D01*
X65349418Y-44459370D01*
X65336442Y-44364645D01*
X65331864Y-44348247D01*
X65281017Y-44230748D01*
X65272197Y-44216186D01*
X65191628Y-44116691D01*
X65179220Y-44105039D01*
X65088765Y-44040755D01*
X65076153Y-44036403D01*
X65074000Y-44045296D01*
X65074000Y-44627885D01*
X64566000Y-44627885D01*
X64566000Y-44052664D01*
X64562027Y-44039133D01*
X64558671Y-44038651D01*
X64556761Y-44039257D01*
X64522332Y-44056799D01*
X64508355Y-44066513D01*
X64414113Y-44153174D01*
X64403260Y-44166294D01*
X64335798Y-44275098D01*
X64328872Y-44290654D01*
X64292597Y-44415512D01*
X64290273Y-44428427D01*
X64290169Y-44429836D01*
X64290000Y-44434462D01*
X64290000Y-44627885D01*
X62430500Y-44627885D01*
X62430500Y-43913938D01*
X62419491Y-43839148D01*
X62363663Y-43725440D01*
X62274013Y-43635946D01*
X62264657Y-43631373D01*
X62264656Y-43631372D01*
X62223889Y-43611445D01*
X62160207Y-43580317D01*
X62109130Y-43572865D01*
X62090587Y-43570160D01*
X62090585Y-43570160D01*
X62086062Y-43569500D01*
X61113938Y-43569500D01*
X61039148Y-43580509D01*
X61030356Y-43584826D01*
X61030355Y-43584826D01*
X60934788Y-43631747D01*
X60934786Y-43631748D01*
X60925440Y-43636337D01*
X60835946Y-43725987D01*
X60780317Y-43839793D01*
X60769500Y-43913938D01*
X60769500Y-44686062D01*
X60780509Y-44760852D01*
X60784826Y-44769644D01*
X60784826Y-44769645D01*
X60821882Y-44845118D01*
X60836337Y-44874560D01*
X60843707Y-44881917D01*
X60911406Y-44949498D01*
X60925987Y-44964054D01*
X60935343Y-44968627D01*
X60935344Y-44968628D01*
X60947664Y-44974650D01*
X61039793Y-45019683D01*
X61090870Y-45027135D01*
X61109413Y-45029840D01*
X61109415Y-45029840D01*
X61113938Y-45030500D01*
X61216500Y-45030500D01*
X61284621Y-45050502D01*
X61331114Y-45104158D01*
X61342500Y-45156500D01*
X61342500Y-45241150D01*
X61322498Y-45309271D01*
X61305595Y-45330245D01*
X61145848Y-45489992D01*
X61083536Y-45524018D01*
X61055984Y-45526895D01*
X61001881Y-45526565D01*
X60935092Y-45526157D01*
X60804709Y-45563421D01*
X60797122Y-45568208D01*
X60797120Y-45568209D01*
X60772388Y-45583814D01*
X60690025Y-45635781D01*
X60600260Y-45737420D01*
X60599604Y-45736841D01*
X60551269Y-45777881D01*
X60480897Y-45787279D01*
X60416616Y-45757139D01*
X60403505Y-45741817D01*
X60402918Y-45742323D01*
X60320263Y-45646397D01*
X60314402Y-45639595D01*
X60306871Y-45634714D01*
X60306868Y-45634711D01*
X60208142Y-45570720D01*
X60208140Y-45570719D01*
X60200611Y-45565839D01*
X60192014Y-45563268D01*
X60192012Y-45563267D01*
X60079296Y-45529558D01*
X60079297Y-45529558D01*
X60070693Y-45526985D01*
X60061717Y-45526930D01*
X60061716Y-45526930D01*
X59996627Y-45526533D01*
X59941780Y-45526198D01*
X59873783Y-45505780D01*
X59853455Y-45489295D01*
X59694405Y-45330245D01*
X59660379Y-45267933D01*
X59657500Y-45241150D01*
X59657500Y-45156500D01*
X59677502Y-45088379D01*
X59731158Y-45041886D01*
X59783500Y-45030500D01*
X59886062Y-45030500D01*
X59960852Y-45019491D01*
X59988505Y-45005914D01*
X60065212Y-44968253D01*
X60065214Y-44968252D01*
X60074560Y-44963663D01*
X60164054Y-44874013D01*
X60178969Y-44843501D01*
X60188555Y-44823889D01*
X60219683Y-44760207D01*
X60230500Y-44686062D01*
X60230500Y-43913938D01*
X60219491Y-43839148D01*
X60163663Y-43725440D01*
X60074013Y-43635946D01*
X60064657Y-43631373D01*
X60064656Y-43631372D01*
X60023889Y-43611445D01*
X59960207Y-43580317D01*
X59909130Y-43572865D01*
X59890587Y-43570160D01*
X59890585Y-43570160D01*
X59886062Y-43569500D01*
X58913938Y-43569500D01*
X58839148Y-43580509D01*
X58830356Y-43584826D01*
X58830355Y-43584826D01*
X58734788Y-43631747D01*
X58734786Y-43631748D01*
X58725440Y-43636337D01*
X58635946Y-43725987D01*
X58580317Y-43839793D01*
X58569500Y-43913938D01*
X58569500Y-44686062D01*
X58580509Y-44760852D01*
X58584826Y-44769644D01*
X58584826Y-44769645D01*
X58621882Y-44845118D01*
X58636337Y-44874560D01*
X58643707Y-44881917D01*
X58711406Y-44949498D01*
X58725987Y-44964054D01*
X58735343Y-44968627D01*
X58735344Y-44968628D01*
X58747664Y-44974650D01*
X58839793Y-45019683D01*
X58890870Y-45027135D01*
X58909413Y-45029840D01*
X58909415Y-45029840D01*
X58913938Y-45030500D01*
X59016500Y-45030500D01*
X59084621Y-45050502D01*
X59131114Y-45104158D01*
X59142500Y-45156500D01*
X59142500Y-45362227D01*
X59140079Y-45386808D01*
X59137455Y-45400000D01*
X59139876Y-45412171D01*
X59142500Y-45425363D01*
X59151478Y-45470497D01*
X59157440Y-45500472D01*
X59164333Y-45510788D01*
X59201118Y-45565839D01*
X59214353Y-45585647D01*
X59224669Y-45592540D01*
X59224671Y-45592542D01*
X59225537Y-45593120D01*
X59244630Y-45608790D01*
X59491099Y-45855259D01*
X59525125Y-45917571D01*
X59526504Y-45963738D01*
X59523149Y-45985283D01*
X59523149Y-45985288D01*
X59521768Y-45994157D01*
X59527131Y-46035171D01*
X59527588Y-46038664D01*
X59516586Y-46108803D01*
X59491746Y-46144094D01*
X59244630Y-46391210D01*
X59225537Y-46406880D01*
X59224671Y-46407458D01*
X59224669Y-46407460D01*
X59214353Y-46414353D01*
X59207460Y-46424669D01*
X59207459Y-46424670D01*
X59201067Y-46434237D01*
X59157440Y-46499528D01*
X59157440Y-46499529D01*
X59152984Y-46521928D01*
X59152984Y-46521929D01*
X59148057Y-46546701D01*
X59137455Y-46600000D01*
X59139876Y-46612170D01*
X59139876Y-46612171D01*
X59140079Y-46613192D01*
X59142500Y-46637773D01*
X59142500Y-46843500D01*
X59122498Y-46911621D01*
X59068842Y-46958114D01*
X59016500Y-46969500D01*
X58913938Y-46969500D01*
X58839148Y-46980509D01*
X58830356Y-46984826D01*
X58830355Y-46984826D01*
X58734788Y-47031747D01*
X58734786Y-47031748D01*
X58725440Y-47036337D01*
X58635946Y-47125987D01*
X58631373Y-47135343D01*
X58631372Y-47135344D01*
X58627444Y-47143380D01*
X58580317Y-47239793D01*
X58569500Y-47313938D01*
X58569500Y-48086062D01*
X46954632Y-48086062D01*
X46952806Y-48082045D01*
X46932099Y-48036504D01*
X46902918Y-47972323D01*
X46814402Y-47869595D01*
X46806871Y-47864714D01*
X46806868Y-47864711D01*
X46708142Y-47800720D01*
X46708140Y-47800719D01*
X46700611Y-47795839D01*
X46692014Y-47793268D01*
X46692012Y-47793267D01*
X46579296Y-47759558D01*
X46579297Y-47759558D01*
X46570693Y-47756985D01*
X46561717Y-47756930D01*
X46561716Y-47756930D01*
X46504770Y-47756582D01*
X46435092Y-47756157D01*
X46304709Y-47793421D01*
X46297122Y-47798208D01*
X46297120Y-47798209D01*
X46259550Y-47821914D01*
X46190025Y-47865781D01*
X46100260Y-47967420D01*
X46096446Y-47975543D01*
X46096445Y-47975545D01*
X46080734Y-48009008D01*
X46042630Y-48090168D01*
X46041250Y-48099034D01*
X46023149Y-48215284D01*
X46023149Y-48215288D01*
X46021768Y-48224157D01*
X45700500Y-48224157D01*
X45700500Y-48029856D01*
X45702586Y-48007024D01*
X45702903Y-48005306D01*
X45702903Y-48005305D01*
X45705474Y-47991351D01*
X45701757Y-47977724D01*
X45701868Y-47965181D01*
X45705286Y-47908119D01*
X45708909Y-47847640D01*
X45713153Y-47821914D01*
X45715971Y-47811620D01*
X45747663Y-47695822D01*
X45757111Y-47671522D01*
X45816830Y-47555238D01*
X45831077Y-47533401D01*
X45913460Y-47431889D01*
X45931889Y-47413460D01*
X46033403Y-47331075D01*
X46055236Y-47316831D01*
X46163252Y-47261358D01*
X46171522Y-47257111D01*
X46195822Y-47247663D01*
X46226934Y-47239148D01*
X46321918Y-47213152D01*
X46347641Y-47208910D01*
X46465604Y-47201843D01*
X46477314Y-47201759D01*
X46490634Y-47205443D01*
X46504595Y-47202921D01*
X46504596Y-47202921D01*
X46506886Y-47202507D01*
X46529286Y-47200500D01*
X50962629Y-47200500D01*
X50991082Y-47203755D01*
X50992324Y-47204043D01*
X50992331Y-47204044D01*
X50999282Y-47205655D01*
X51000000Y-47205656D01*
X51006931Y-47204075D01*
X51014013Y-47203282D01*
X51014033Y-47203463D01*
X51018833Y-47202729D01*
X51188380Y-47189386D01*
X51193187Y-47188232D01*
X51193193Y-47188231D01*
X51308915Y-47160448D01*
X51372122Y-47145274D01*
X51382605Y-47140932D01*
X51542127Y-47074856D01*
X51542131Y-47074854D01*
X51546701Y-47072961D01*
X51707818Y-46974228D01*
X51711573Y-46971021D01*
X51711577Y-46971018D01*
X51847750Y-46854714D01*
X51851506Y-46851506D01*
X51895924Y-46799500D01*
X51971018Y-46711577D01*
X51971021Y-46711573D01*
X51974228Y-46707818D01*
X52072961Y-46546701D01*
X52075507Y-46540556D01*
X52143380Y-46376695D01*
X52143381Y-46376693D01*
X52145274Y-46372122D01*
X52173936Y-46252735D01*
X52188231Y-46193193D01*
X52188232Y-46193187D01*
X52189386Y-46188380D01*
X52202647Y-46019895D01*
X52203437Y-46014786D01*
X52203228Y-46014762D01*
X52204045Y-46007667D01*
X52205655Y-46000718D01*
X52205656Y-46000000D01*
X52203654Y-45991225D01*
X52200500Y-45963210D01*
X52200500Y-45714157D01*
X52731768Y-45714157D01*
X52732932Y-45723059D01*
X52732932Y-45723062D01*
X52737876Y-45760867D01*
X52749350Y-45848616D01*
X52803964Y-45972735D01*
X52809740Y-45979606D01*
X52885445Y-46069669D01*
X52885448Y-46069672D01*
X52891219Y-46076537D01*
X52898687Y-46081508D01*
X52898688Y-46081509D01*
X52954903Y-46118929D01*
X53004100Y-46151678D01*
X53012672Y-46154356D01*
X53121576Y-46188380D01*
X53133534Y-46192116D01*
X53269115Y-46194601D01*
X53323243Y-46179844D01*
X53391284Y-46161294D01*
X53391286Y-46161293D01*
X53399943Y-46158933D01*
X53515502Y-46087979D01*
X53525859Y-46076537D01*
X53600474Y-45994104D01*
X53600475Y-45994102D01*
X53606502Y-45987444D01*
X53618244Y-45963210D01*
X53661714Y-45873488D01*
X53661715Y-45873486D01*
X53665628Y-45865409D01*
X53688125Y-45731685D01*
X53688268Y-45720000D01*
X53687432Y-45714157D01*
X53670317Y-45594653D01*
X53670316Y-45594651D01*
X53669044Y-45585766D01*
X53662806Y-45572045D01*
X53642277Y-45526895D01*
X53612918Y-45462323D01*
X53524402Y-45359595D01*
X53516868Y-45354712D01*
X53516865Y-45354709D01*
X53481965Y-45332088D01*
X55650000Y-45332088D01*
X55650582Y-45340630D01*
X55663558Y-45435355D01*
X55668136Y-45451753D01*
X55718983Y-45569252D01*
X55727803Y-45583814D01*
X55808372Y-45683309D01*
X55820780Y-45694961D01*
X55911235Y-45759245D01*
X55923847Y-45763597D01*
X55926000Y-45754704D01*
X55926000Y-45747336D01*
X56434000Y-45747336D01*
X56437973Y-45760867D01*
X56441329Y-45761349D01*
X56443239Y-45760743D01*
X56477668Y-45743201D01*
X56491645Y-45733487D01*
X56585887Y-45646826D01*
X56596740Y-45633706D01*
X56664202Y-45524902D01*
X56671128Y-45509346D01*
X56707403Y-45384488D01*
X56709727Y-45371573D01*
X56709831Y-45370164D01*
X56710000Y-45365538D01*
X56710000Y-45172115D01*
X56705525Y-45156876D01*
X56704135Y-45155671D01*
X56696452Y-45154000D01*
X56452115Y-45154000D01*
X56436876Y-45158475D01*
X56435671Y-45159865D01*
X56434000Y-45167548D01*
X56434000Y-45747336D01*
X55926000Y-45747336D01*
X55926000Y-45172115D01*
X55921525Y-45156876D01*
X55920135Y-45155671D01*
X55912452Y-45154000D01*
X55668115Y-45154000D01*
X55652876Y-45158475D01*
X55651671Y-45159865D01*
X55650000Y-45167548D01*
X55650000Y-45332088D01*
X53481965Y-45332088D01*
X53451331Y-45312232D01*
X53405047Y-45258396D01*
X53395216Y-45188084D01*
X53424960Y-45123618D01*
X53484835Y-45085467D01*
X53519863Y-45080500D01*
X54503672Y-45080500D01*
X54506119Y-45080307D01*
X54506130Y-45080307D01*
X54525655Y-45078770D01*
X54539416Y-45077687D01*
X54662643Y-45041886D01*
X54684779Y-45035455D01*
X54684780Y-45035454D01*
X54692392Y-45033243D01*
X54738603Y-45005914D01*
X54822682Y-44956190D01*
X54822685Y-44956188D01*
X54829509Y-44952152D01*
X54942152Y-44839509D01*
X54946188Y-44832685D01*
X54946190Y-44832682D01*
X55019206Y-44709218D01*
X55023243Y-44702392D01*
X55026664Y-44690619D01*
X55044890Y-44627885D01*
X55650000Y-44627885D01*
X55654475Y-44643124D01*
X55655865Y-44644329D01*
X55663548Y-44646000D01*
X55907885Y-44646000D01*
X55923124Y-44641525D01*
X55924329Y-44640135D01*
X55926000Y-44632452D01*
X55926000Y-44627885D01*
X56434000Y-44627885D01*
X56438475Y-44643124D01*
X56439865Y-44644329D01*
X56447548Y-44646000D01*
X56691885Y-44646000D01*
X56707124Y-44641525D01*
X56708329Y-44640135D01*
X56710000Y-44632452D01*
X56710000Y-44467912D01*
X56709418Y-44459370D01*
X56696442Y-44364645D01*
X56691864Y-44348247D01*
X56641017Y-44230748D01*
X56632197Y-44216186D01*
X56551628Y-44116691D01*
X56539220Y-44105039D01*
X56448765Y-44040755D01*
X56436153Y-44036403D01*
X56434000Y-44045296D01*
X56434000Y-44627885D01*
X55926000Y-44627885D01*
X55926000Y-44052664D01*
X55922027Y-44039133D01*
X55918671Y-44038651D01*
X55916761Y-44039257D01*
X55882332Y-44056799D01*
X55868355Y-44066513D01*
X55774113Y-44153174D01*
X55763260Y-44166294D01*
X55695798Y-44275098D01*
X55688872Y-44290654D01*
X55652597Y-44415512D01*
X55650273Y-44428427D01*
X55650169Y-44429836D01*
X55650000Y-44434462D01*
X55650000Y-44627885D01*
X55044890Y-44627885D01*
X55065890Y-44555601D01*
X55067687Y-44549416D01*
X55070500Y-44513672D01*
X55070500Y-43386328D01*
X55067687Y-43350584D01*
X55023243Y-43197608D01*
X55006946Y-43170052D01*
X54946190Y-43067318D01*
X54946188Y-43067315D01*
X54942152Y-43060491D01*
X54829509Y-42947848D01*
X54822685Y-42943812D01*
X54822682Y-42943810D01*
X54699218Y-42870794D01*
X54699219Y-42870794D01*
X54692392Y-42866757D01*
X54684780Y-42864546D01*
X54684779Y-42864545D01*
X54545601Y-42824110D01*
X54545602Y-42824110D01*
X54539416Y-42822313D01*
X54525655Y-42821230D01*
X54506130Y-42819693D01*
X54506119Y-42819693D01*
X54503672Y-42819500D01*
X54117352Y-42819500D01*
X54049231Y-42799498D01*
X54002738Y-42745842D01*
X53994143Y-42686062D01*
X58569500Y-42686062D01*
X58580509Y-42760852D01*
X58584826Y-42769644D01*
X58584826Y-42769645D01*
X58609399Y-42819693D01*
X58636337Y-42874560D01*
X58643707Y-42881917D01*
X58715372Y-42953457D01*
X58725987Y-42964054D01*
X58735343Y-42968627D01*
X58735344Y-42968628D01*
X58776111Y-42988555D01*
X58839793Y-43019683D01*
X58890870Y-43027135D01*
X58909413Y-43029840D01*
X58909415Y-43029840D01*
X58913938Y-43030500D01*
X59886062Y-43030500D01*
X59960852Y-43019491D01*
X60064448Y-42968628D01*
X60065212Y-42968253D01*
X60065214Y-42968252D01*
X60074560Y-42963663D01*
X60164054Y-42874013D01*
X60219683Y-42760207D01*
X60230500Y-42686062D01*
X60230500Y-42681490D01*
X60230830Y-42676942D01*
X60232392Y-42677055D01*
X60250502Y-42615379D01*
X60304158Y-42568886D01*
X60356500Y-42557500D01*
X60643500Y-42557500D01*
X60711621Y-42577502D01*
X60758114Y-42631158D01*
X60768074Y-42676944D01*
X60769164Y-42676864D01*
X60769500Y-42681454D01*
X60769500Y-42686062D01*
X60780509Y-42760852D01*
X60784826Y-42769644D01*
X60784826Y-42769645D01*
X60809399Y-42819693D01*
X60836337Y-42874560D01*
X60843707Y-42881917D01*
X60915372Y-42953457D01*
X60925987Y-42964054D01*
X60935343Y-42968627D01*
X60935344Y-42968628D01*
X60976111Y-42988555D01*
X61039793Y-43019683D01*
X61090870Y-43027135D01*
X61109413Y-43029840D01*
X61109415Y-43029840D01*
X61113938Y-43030500D01*
X62086062Y-43030500D01*
X62160852Y-43019491D01*
X62264448Y-42968628D01*
X62265212Y-42968253D01*
X62265214Y-42968252D01*
X62274560Y-42963663D01*
X62364054Y-42874013D01*
X62419683Y-42760207D01*
X62430500Y-42686062D01*
X62430500Y-42681490D01*
X62430830Y-42676942D01*
X62432392Y-42677055D01*
X62450502Y-42615379D01*
X62504158Y-42568886D01*
X62556500Y-42557500D01*
X64781150Y-42557500D01*
X64849271Y-42577502D01*
X64870245Y-42594405D01*
X66505595Y-44229755D01*
X66539621Y-44292067D01*
X66542500Y-44318850D01*
X66542500Y-44843501D01*
X66522498Y-44911622D01*
X66468842Y-44958115D01*
X66416500Y-44969501D01*
X66287146Y-44969501D01*
X66281072Y-44970709D01*
X66281071Y-44970709D01*
X66261253Y-44974650D01*
X66261251Y-44974651D01*
X66249081Y-44977071D01*
X66205914Y-45005914D01*
X66199019Y-45016233D01*
X66186176Y-45035455D01*
X66177071Y-45049081D01*
X66174650Y-45061255D01*
X66170822Y-45080500D01*
X66169500Y-45087145D01*
X66169501Y-46112854D01*
X66170709Y-46118928D01*
X66170709Y-46118929D01*
X66172636Y-46128616D01*
X66177071Y-46150919D01*
X66205914Y-46194086D01*
X66249081Y-46222929D01*
X66272420Y-46227571D01*
X66281075Y-46229293D01*
X66281078Y-46229293D01*
X66287145Y-46230500D01*
X66799751Y-46230500D01*
X67312854Y-46230499D01*
X67318928Y-46229291D01*
X67318929Y-46229291D01*
X67338747Y-46225350D01*
X67338749Y-46225349D01*
X67350919Y-46222929D01*
X67394086Y-46194086D01*
X67422929Y-46150919D01*
X67430500Y-46112855D01*
X67430499Y-45087146D01*
X67422929Y-45049081D01*
X67394086Y-45005914D01*
X67350919Y-44977071D01*
X67327580Y-44972429D01*
X67318925Y-44970707D01*
X67318922Y-44970707D01*
X67312855Y-44969500D01*
X67183500Y-44969500D01*
X67115379Y-44949498D01*
X67068886Y-44895842D01*
X67057500Y-44843500D01*
X67057500Y-44197767D01*
X67059921Y-44173186D01*
X67060123Y-44172170D01*
X67062544Y-44160000D01*
X67057500Y-44134641D01*
X67057500Y-44134637D01*
X67042560Y-44059528D01*
X66985647Y-43974353D01*
X66975331Y-43967460D01*
X66975329Y-43967458D01*
X66974463Y-43966880D01*
X66955370Y-43951210D01*
X65148790Y-42144630D01*
X65133120Y-42125537D01*
X65132541Y-42124670D01*
X65132540Y-42124669D01*
X65125647Y-42114353D01*
X65122542Y-42112278D01*
X65091396Y-42055234D01*
X65096463Y-41984419D01*
X65129231Y-41935707D01*
X65225884Y-41846830D01*
X65236740Y-41833706D01*
X65304202Y-41724902D01*
X65311128Y-41709346D01*
X65347403Y-41584488D01*
X65349727Y-41571573D01*
X65349831Y-41570164D01*
X65350000Y-41565538D01*
X65350000Y-41372115D01*
X65345525Y-41356876D01*
X65344135Y-41355671D01*
X65336452Y-41354000D01*
X64308115Y-41354000D01*
X64292876Y-41358475D01*
X64291671Y-41359865D01*
X64290000Y-41367548D01*
X64290000Y-41532088D01*
X64290582Y-41540630D01*
X64303558Y-41635355D01*
X64308136Y-41651753D01*
X64358983Y-41769252D01*
X64367800Y-41783810D01*
X64411039Y-41837205D01*
X64438365Y-41902733D01*
X64425925Y-41972631D01*
X64377671Y-42024708D01*
X64313119Y-42042500D01*
X62556500Y-42042500D01*
X62488379Y-42022498D01*
X62441886Y-41968842D01*
X62431926Y-41923056D01*
X62430836Y-41923136D01*
X62430500Y-41918546D01*
X62430500Y-41913938D01*
X62419491Y-41839148D01*
X62407344Y-41814408D01*
X62368253Y-41734788D01*
X62368252Y-41734786D01*
X62363663Y-41725440D01*
X62274013Y-41635946D01*
X62264657Y-41631373D01*
X62264656Y-41631372D01*
X62223889Y-41611445D01*
X62160207Y-41580317D01*
X62109130Y-41572865D01*
X62090587Y-41570160D01*
X62090585Y-41570160D01*
X62086062Y-41569500D01*
X61113938Y-41569500D01*
X61039148Y-41580509D01*
X61030356Y-41584826D01*
X61030355Y-41584826D01*
X60934788Y-41631747D01*
X60934786Y-41631748D01*
X60925440Y-41636337D01*
X60835946Y-41725987D01*
X60780317Y-41839793D01*
X60769500Y-41913938D01*
X60769500Y-41918510D01*
X60769170Y-41923058D01*
X60767608Y-41922945D01*
X60749498Y-41984621D01*
X60695842Y-42031114D01*
X60643500Y-42042500D01*
X60356500Y-42042500D01*
X60288379Y-42022498D01*
X60241886Y-41968842D01*
X60231926Y-41923056D01*
X60230836Y-41923136D01*
X60230500Y-41918546D01*
X60230500Y-41913938D01*
X60219491Y-41839148D01*
X60207344Y-41814408D01*
X60168253Y-41734788D01*
X60168252Y-41734786D01*
X60163663Y-41725440D01*
X60074013Y-41635946D01*
X60064657Y-41631373D01*
X60064656Y-41631372D01*
X60023889Y-41611445D01*
X59960207Y-41580317D01*
X59909130Y-41572865D01*
X59890587Y-41570160D01*
X59890585Y-41570160D01*
X59886062Y-41569500D01*
X58913938Y-41569500D01*
X58839148Y-41580509D01*
X58830356Y-41584826D01*
X58830355Y-41584826D01*
X58734788Y-41631747D01*
X58734786Y-41631748D01*
X58725440Y-41636337D01*
X58635946Y-41725987D01*
X58580317Y-41839793D01*
X58569500Y-41913938D01*
X58569500Y-42686062D01*
X53994143Y-42686062D01*
X53992634Y-42675568D01*
X54022128Y-42610988D01*
X54081854Y-42572604D01*
X54099272Y-42568804D01*
X54199209Y-42554314D01*
X54210392Y-42551629D01*
X54396109Y-42488587D01*
X54406622Y-42483906D01*
X54524193Y-42418062D01*
X54534058Y-42407984D01*
X54531102Y-42400312D01*
X53952812Y-41822022D01*
X53938868Y-41814408D01*
X53937035Y-41814539D01*
X53930420Y-41818790D01*
X53353400Y-42395810D01*
X53347204Y-42407156D01*
X53357086Y-42419645D01*
X53393697Y-42444108D01*
X53403807Y-42449598D01*
X53584008Y-42527018D01*
X53594951Y-42530573D01*
X53771876Y-42570607D01*
X53833902Y-42605150D01*
X53867407Y-42667743D01*
X53861753Y-42738514D01*
X53818734Y-42794994D01*
X53752010Y-42819249D01*
X53744068Y-42819500D01*
X53376328Y-42819500D01*
X53373881Y-42819693D01*
X53373870Y-42819693D01*
X53354345Y-42821230D01*
X53340584Y-42822313D01*
X53334398Y-42824110D01*
X53334399Y-42824110D01*
X53195221Y-42864545D01*
X53195220Y-42864546D01*
X53187608Y-42866757D01*
X53180781Y-42870794D01*
X53180782Y-42870794D01*
X53057318Y-42943810D01*
X53057315Y-42943812D01*
X53050491Y-42947848D01*
X52937848Y-43060491D01*
X52933812Y-43067315D01*
X52933810Y-43067318D01*
X52873054Y-43170052D01*
X52856757Y-43197608D01*
X52812313Y-43350584D01*
X52809500Y-43386328D01*
X52809500Y-44513672D01*
X52812313Y-44549416D01*
X52814110Y-44555601D01*
X52853337Y-44690619D01*
X52856757Y-44702392D01*
X52860794Y-44709218D01*
X52933810Y-44832682D01*
X52933812Y-44832685D01*
X52937848Y-44839509D01*
X53050491Y-44952152D01*
X53057315Y-44956188D01*
X53057318Y-44956190D01*
X53164348Y-45019487D01*
X53212801Y-45071380D01*
X53225506Y-45141230D01*
X53198431Y-45206861D01*
X53134835Y-45249089D01*
X53014709Y-45283421D01*
X52900025Y-45355781D01*
X52810260Y-45457420D01*
X52752630Y-45580168D01*
X52750375Y-45594653D01*
X52733149Y-45705284D01*
X52733149Y-45705288D01*
X52731768Y-45714157D01*
X52200500Y-45714157D01*
X52200500Y-41426059D01*
X52805926Y-41426059D01*
X52818753Y-41621760D01*
X52820554Y-41633130D01*
X52868830Y-41823218D01*
X52872671Y-41834065D01*
X52954781Y-42012174D01*
X52960533Y-42022138D01*
X52970002Y-42035536D01*
X52980592Y-42043926D01*
X52993892Y-42036898D01*
X53567978Y-41462812D01*
X53574356Y-41451132D01*
X54304408Y-41451132D01*
X54304539Y-41452965D01*
X54308790Y-41459580D01*
X54886398Y-42037188D01*
X54898778Y-42043948D01*
X54905358Y-42039022D01*
X54973906Y-41916622D01*
X54978587Y-41906109D01*
X55041629Y-41720392D01*
X55044314Y-41709209D01*
X55069995Y-41532088D01*
X55650000Y-41532088D01*
X55650582Y-41540630D01*
X55663558Y-41635355D01*
X55668136Y-41651753D01*
X55718983Y-41769252D01*
X55727803Y-41783814D01*
X55808372Y-41883309D01*
X55820780Y-41894961D01*
X55911235Y-41959245D01*
X55923847Y-41963597D01*
X55926000Y-41954704D01*
X55926000Y-41947336D01*
X56434000Y-41947336D01*
X56437973Y-41960867D01*
X56441329Y-41961349D01*
X56443239Y-41960743D01*
X56477668Y-41943201D01*
X56491645Y-41933487D01*
X56585887Y-41846826D01*
X56596740Y-41833706D01*
X56664202Y-41724902D01*
X56671128Y-41709346D01*
X56707403Y-41584488D01*
X56709727Y-41571573D01*
X56709831Y-41570164D01*
X56710000Y-41565538D01*
X56710000Y-41372115D01*
X56705525Y-41356876D01*
X56704135Y-41355671D01*
X56696452Y-41354000D01*
X56452115Y-41354000D01*
X56436876Y-41358475D01*
X56435671Y-41359865D01*
X56434000Y-41367548D01*
X56434000Y-41947336D01*
X55926000Y-41947336D01*
X55926000Y-41372115D01*
X55921525Y-41356876D01*
X55920135Y-41355671D01*
X55912452Y-41354000D01*
X55668115Y-41354000D01*
X55652876Y-41358475D01*
X55651671Y-41359865D01*
X55650000Y-41367548D01*
X55650000Y-41532088D01*
X55069995Y-41532088D01*
X55072753Y-41513067D01*
X55073383Y-41505684D01*
X55074744Y-41453704D01*
X55074501Y-41446305D01*
X55056367Y-41248946D01*
X55054270Y-41237631D01*
X55001033Y-41048868D01*
X54996911Y-41038129D01*
X54910164Y-40862225D01*
X54909293Y-40860803D01*
X54900587Y-40854270D01*
X54888168Y-40861042D01*
X54312022Y-41437188D01*
X54304408Y-41451132D01*
X53574356Y-41451132D01*
X53575592Y-41448868D01*
X53575461Y-41447035D01*
X53571210Y-41440420D01*
X52992252Y-40861462D01*
X52979872Y-40854702D01*
X52973906Y-40859168D01*
X52894234Y-41010603D01*
X52889830Y-41021236D01*
X52831670Y-41208538D01*
X52829280Y-41219782D01*
X52806227Y-41414558D01*
X52805926Y-41426059D01*
X52200500Y-41426059D01*
X52200500Y-41037371D01*
X52203755Y-41008918D01*
X52204043Y-41007676D01*
X52204044Y-41007669D01*
X52205655Y-41000718D01*
X52205656Y-41000000D01*
X52204074Y-40993064D01*
X52204010Y-40992493D01*
X52203836Y-40966133D01*
X52214646Y-40856374D01*
X52219462Y-40832156D01*
X52257758Y-40705912D01*
X52267207Y-40683102D01*
X52293206Y-40634462D01*
X52329390Y-40566766D01*
X52343112Y-40546230D01*
X52426796Y-40444261D01*
X52444261Y-40426796D01*
X52546230Y-40343112D01*
X52566768Y-40329389D01*
X52582267Y-40321105D01*
X52683103Y-40267206D01*
X52705912Y-40257758D01*
X52832156Y-40219462D01*
X52856373Y-40214646D01*
X52881186Y-40212202D01*
X52973770Y-40203083D01*
X52985905Y-40202497D01*
X52999641Y-40205656D01*
X53013480Y-40202525D01*
X53018310Y-40202533D01*
X53036504Y-40200500D01*
X53371759Y-40200500D01*
X53439880Y-40220502D01*
G37*
%TD.AperFunction*%
%TD*%
M02*
