M48
; DRILL file {KiCad (6.0.9-0)} date 2022 December 16, Friday 17:36:55
; FORMAT={-:-/ absolute / inch / decimal}
; #@! TF.CreationDate,2022-12-16T17:36:55+01:00
; #@! TF.GenerationSoftware,Kicad,Pcbnew,(6.0.9-0)
; #@! TF.FileFunction,Plated,1,4,PTH
FMAT,2
INCH
; #@! TA.AperFunction,Plated,PTH,ViaDrill
T1C0.0130
; #@! TA.AperFunction,Plated,PTH,ComponentDrill
T2C0.0197
; #@! TA.AperFunction,Plated,PTH,ComponentDrill
T3C0.0236
; #@! TA.AperFunction,Plated,PTH,ComponentDrill
T4C0.0394
; #@! TA.AperFunction,Plated,PTH,ComponentDrill
T5C0.0866
%
G90
G05
T1
X1.8307Y-1.8988
X1.9075Y-2.5512
X1.9173Y-2.0118
X2.0118Y-1.8976
X2.0197Y-2.9961
X2.0492Y-1.9213
X2.0949Y-1.8
X2.1299Y-2.5335
X2.1705Y-2.6441
X2.1772Y-2.7874
X2.1791Y-2.1024
X2.1811Y-2.8976
X2.185Y-2.9803
X2.2417Y-2.602
X2.2429Y-2.6846
X2.2441Y-2.461
X2.2736Y-1.7224
X2.3248Y-2.685
X2.3303Y-2.3346
X2.3307Y-2.8228
X2.3465Y-2.8622
X2.3504Y-2.122
X2.3622Y-1.811
X2.4016Y-1.811
X2.4567Y-2.5906
X2.465Y-2.5161
X2.4862Y-2.3437
X2.4913Y-1.7161
X2.5374Y-2.1378
X2.5551Y-2.6339
X2.5815Y-2.3512
X2.6142Y-1.9252
X2.6528Y-2.6173
X2.6654Y-2.2362
X2.6693Y-2.3642
X2.6929Y-2.0118
X2.7165Y-2.1378
X2.7205Y-2.3209
X2.8031Y-2.5366
X2.8465Y-2.3307
X2.8583Y-2.0709
X2.874Y-2.1575
T2
X2.0669Y-2.0
X2.122Y-2.5866
X2.3008Y-2.0354
X2.3583Y-2.4488
X2.4154Y-2.2205
X2.6299Y-1.7953
X2.7323Y-2.6535
T4
X1.8524Y-2.9606
X1.8583Y-2.3248
X1.8583Y-2.3248
X1.8583Y-2.4232
X1.9508Y-2.9606
X2.1236Y-1.6319
X2.1236Y-1.7303
X2.4488Y-2.8524
X2.4488Y-2.9508
X2.4547Y-2.7323
X2.5472Y-2.8524
X2.5472Y-2.9508
X2.5531Y-2.7323
X2.6457Y-2.8524
X2.6457Y-2.9508
X2.8051Y-2.9606
X2.9035Y-2.9606
X2.9094Y-2.2657
X2.9094Y-2.3642
X2.9094Y-2.3642
X2.9094Y-2.4862
X2.9094Y-2.4862
X2.9094Y-2.5846
T5
X1.8898Y-2.1772
X1.8898Y-2.811
X2.874Y-1.9488
X2.874Y-2.811
T3
G00X2.2118Y-1.6299
M15
G01X2.2118Y-1.6063
M16
G05
G00X2.2118Y-1.7795
M15
G01X2.2118Y-1.7559
M16
G05
G00X2.552Y-1.6299
M15
G01X2.552Y-1.6063
M16
G05
G00X2.552Y-1.7795
M15
G01X2.552Y-1.7559
M16
G05
T0
M30
