%TF.GenerationSoftware,KiCad,Pcbnew,(6.0.9-0)*%
%TF.CreationDate,2022-12-16T17:36:52+01:00*%
%TF.ProjectId,distortion-pedal,64697374-6f72-4746-996f-6e2d70656461,rev?*%
%TF.SameCoordinates,Original*%
%TF.FileFunction,Copper,L3,Inr*%
%TF.FilePolarity,Positive*%
%FSLAX46Y46*%
G04 Gerber Fmt 4.6, Leading zero omitted, Abs format (unit mm)*
G04 Created by KiCad (PCBNEW (6.0.9-0)) date 2022-12-16 17:36:52*
%MOMM*%
%LPD*%
G01*
G04 APERTURE LIST*
G04 Aperture macros list*
%AMRoundRect*
0 Rectangle with rounded corners*
0 $1 Rounding radius*
0 $2 $3 $4 $5 $6 $7 $8 $9 X,Y pos of 4 corners*
0 Add a 4 corners polygon primitive as box body*
4,1,4,$2,$3,$4,$5,$6,$7,$8,$9,$2,$3,0*
0 Add four circle primitives for the rounded corners*
1,1,$1+$1,$2,$3*
1,1,$1+$1,$4,$5*
1,1,$1+$1,$6,$7*
1,1,$1+$1,$8,$9*
0 Add four rect primitives between the rounded corners*
20,1,$1+$1,$2,$3,$4,$5,0*
20,1,$1+$1,$4,$5,$6,$7,0*
20,1,$1+$1,$6,$7,$8,$9,0*
20,1,$1+$1,$8,$9,$2,$3,0*%
G04 Aperture macros list end*
%TA.AperFunction,ComponentPad*%
%ADD10RoundRect,0.500000X0.500000X-0.500000X0.500000X0.500000X-0.500000X0.500000X-0.500000X-0.500000X0*%
%TD*%
%TA.AperFunction,ComponentPad*%
%ADD11C,2.000000*%
%TD*%
%TA.AperFunction,ComponentPad*%
%ADD12RoundRect,0.500000X0.500000X0.500000X-0.500000X0.500000X-0.500000X-0.500000X0.500000X-0.500000X0*%
%TD*%
%TA.AperFunction,ComponentPad*%
%ADD13R,1.000000X1.000000*%
%TD*%
%TA.AperFunction,ComponentPad*%
%ADD14C,2.600000*%
%TD*%
%TA.AperFunction,ComponentPad*%
%ADD15O,0.800000X1.600000*%
%TD*%
%TA.AperFunction,ComponentPad*%
%ADD16RoundRect,0.500000X-0.500000X-0.500000X0.500000X-0.500000X0.500000X0.500000X-0.500000X0.500000X0*%
%TD*%
%TA.AperFunction,ViaPad*%
%ADD17C,0.685800*%
%TD*%
G04 APERTURE END LIST*
D10*
%TO.N,+9V*%
%TO.C,J4*%
X53940000Y-43950000D03*
D11*
%TO.N,GND*%
X53940000Y-41450000D03*
%TD*%
D12*
%TO.N,Net-(D6-Pad1)*%
%TO.C,D6*%
X64850000Y-69400000D03*
D11*
%TO.N,Net-(D6-Pad2)*%
X62350000Y-69400000D03*
%TD*%
D10*
%TO.N,Net-(Level1-Pad1)*%
%TO.C,Level1*%
X47200000Y-61550000D03*
D11*
%TO.N,Net-(D1-Pad1)*%
X47200000Y-59050000D03*
X47200000Y-59050000D03*
%TD*%
D10*
%TO.N,Net-(Gain1-Pad1)*%
%TO.C,Gain1*%
X73900000Y-65650000D03*
D11*
%TO.N,Net-(Gain1-Pad2)*%
X73900000Y-63150000D03*
X73900000Y-63150000D03*
%TD*%
D13*
%TO.N,+5V*%
%TO.C,TP3*%
X66800000Y-45600000D03*
%TD*%
%TO.N,effect_out*%
%TO.C,TP2*%
X61350000Y-56400000D03*
%TD*%
D14*
%TO.N,GND*%
%TO.C,H1*%
X48000000Y-55300000D03*
%TD*%
D15*
%TO.N,GND*%
%TO.C,J3*%
X64820000Y-44900000D03*
X56180000Y-44900000D03*
X64820000Y-41100000D03*
X56180000Y-41100000D03*
%TD*%
D13*
%TO.N,Net-(JP2-Pad1)*%
%TO.C,TP5*%
X52500000Y-50800000D03*
%TD*%
D10*
%TO.N,Net-(C10-Pad1)*%
%TO.C,Tone1*%
X73900000Y-60050000D03*
X73900000Y-60050000D03*
D11*
%TO.N,Net-(R6-Pad1)*%
X73900000Y-57550000D03*
%TD*%
D14*
%TO.N,GND*%
%TO.C,H3*%
X48000000Y-71400000D03*
%TD*%
D13*
%TO.N,Net-(C5-Pad2)*%
%TO.C,TP4*%
X58440000Y-51700000D03*
%TD*%
%TO.N,Net-(C8-Pad1)*%
%TO.C,TP6*%
X69400000Y-67400000D03*
%TD*%
%TO.N,Net-(D2-Pad2)*%
%TO.C,TP1*%
X59900000Y-62200000D03*
%TD*%
D12*
%TO.N,GND*%
%TO.C,J2*%
X73750000Y-75200000D03*
D11*
%TO.N,Net-(J2-Pad2)*%
X71250000Y-75200000D03*
%TD*%
D13*
%TO.N,effect_in*%
%TO.C,TP9*%
X53900000Y-65700000D03*
%TD*%
D14*
%TO.N,GND*%
%TO.C,H4*%
X73000000Y-71400000D03*
%TD*%
D16*
%TO.N,gain_out*%
%TO.C,SW1*%
X67200000Y-72450000D03*
D11*
%TO.N,Net-(J2-Pad2)*%
X67200000Y-74950000D03*
%TO.N,audio_in*%
X62200000Y-74950000D03*
%TO.N,+8V*%
X64700000Y-74950000D03*
%TO.N,Net-(D6-Pad2)*%
X62200000Y-72450000D03*
%TO.N,GND*%
X64700000Y-72450000D03*
%TD*%
D14*
%TO.N,GND*%
%TO.C,H2*%
X73000000Y-49500000D03*
%TD*%
D16*
%TO.N,GND*%
%TO.C,J1*%
X47050000Y-75200000D03*
D11*
%TO.N,audio_in*%
X49550000Y-75200000D03*
%TD*%
D17*
%TO.N,GND*%
X56970000Y-68190000D03*
X56940000Y-66090000D03*
X55130000Y-67160000D03*
X67380000Y-66480000D03*
X62610000Y-63910000D03*
X73000000Y-54800000D03*
X59700000Y-53900000D03*
X55400000Y-73600000D03*
X68400000Y-51100000D03*
X52050000Y-48800000D03*
X72600000Y-52600000D03*
X59190000Y-59300000D03*
X66400000Y-48900000D03*
X51100000Y-48200000D03*
X57000000Y-62510000D03*
X62400000Y-65800000D03*
X63280000Y-43590000D03*
X59600000Y-72700000D03*
X67800000Y-60050000D03*
X65570000Y-59720000D03*
X48700000Y-51100000D03*
X55300000Y-70800000D03*
X55500000Y-75700000D03*
X57750000Y-43750000D03*
%TO.N,+9V*%
X53210000Y-45720000D03*
X46500000Y-48230000D03*
%TO.N,+8V*%
X51300000Y-76100000D03*
X69100000Y-58950000D03*
X64900000Y-66900000D03*
X64450000Y-54300000D03*
X55350000Y-53400000D03*
X59050000Y-68200000D03*
%TO.N,Net-(J3-PadA5)*%
X61000000Y-46000000D03*
%TO.N,Net-(J3-PadB5)*%
X60000000Y-46000000D03*
%TO.N,Net-(R6-Pad2)*%
X67700000Y-56800000D03*
X63150000Y-59530000D03*
%TO.N,+4V*%
X59200000Y-71700000D03*
X71200000Y-64430600D03*
X69000000Y-54300000D03*
X54100000Y-64350000D03*
X48450000Y-64800000D03*
X72300000Y-59200000D03*
%TD*%
%TA.AperFunction,Conductor*%
%TO.N,+8V*%
G36*
X55533097Y-40274502D02*
G01*
X55579590Y-40328158D01*
X55589694Y-40398432D01*
X55575392Y-40441199D01*
X55570444Y-40450199D01*
X55570442Y-40450204D01*
X55566625Y-40457147D01*
X55525500Y-40617317D01*
X55525500Y-41541178D01*
X55541024Y-41664061D01*
X55601899Y-41817814D01*
X55606557Y-41824225D01*
X55606558Y-41824227D01*
X55650498Y-41884705D01*
X55699098Y-41951597D01*
X55826514Y-42057005D01*
X55976141Y-42127414D01*
X56071298Y-42145566D01*
X56130791Y-42156915D01*
X56130793Y-42156915D01*
X56138577Y-42158400D01*
X56303616Y-42148017D01*
X56377415Y-42124038D01*
X56453351Y-42099365D01*
X56453354Y-42099364D01*
X56460887Y-42096916D01*
X56467577Y-42092670D01*
X56467580Y-42092669D01*
X56537636Y-42048210D01*
X56600510Y-42008309D01*
X56713710Y-41887763D01*
X56793375Y-41742853D01*
X56834500Y-41582683D01*
X56834500Y-40658822D01*
X56818976Y-40535939D01*
X56775798Y-40426883D01*
X56769319Y-40356183D01*
X56802091Y-40293203D01*
X56863711Y-40257940D01*
X56892950Y-40254500D01*
X64104976Y-40254500D01*
X64173097Y-40274502D01*
X64219590Y-40328158D01*
X64229694Y-40398432D01*
X64215392Y-40441199D01*
X64210444Y-40450199D01*
X64210442Y-40450204D01*
X64206625Y-40457147D01*
X64165500Y-40617317D01*
X64165500Y-41541178D01*
X64181024Y-41664061D01*
X64241899Y-41817814D01*
X64246557Y-41824225D01*
X64246558Y-41824227D01*
X64290498Y-41884705D01*
X64339098Y-41951597D01*
X64466514Y-42057005D01*
X64616141Y-42127414D01*
X64711298Y-42145566D01*
X64770791Y-42156915D01*
X64770793Y-42156915D01*
X64778577Y-42158400D01*
X64943616Y-42148017D01*
X65017415Y-42124038D01*
X65093351Y-42099365D01*
X65093354Y-42099364D01*
X65100887Y-42096916D01*
X65107577Y-42092670D01*
X65107580Y-42092669D01*
X65177636Y-42048210D01*
X65240510Y-42008309D01*
X65353710Y-41887763D01*
X65433375Y-41742853D01*
X65474500Y-41582683D01*
X65474500Y-40658822D01*
X65458976Y-40535939D01*
X65415798Y-40426883D01*
X65409319Y-40356183D01*
X65442091Y-40293203D01*
X65503711Y-40257940D01*
X65532950Y-40254500D01*
X67962524Y-40254500D01*
X67987103Y-40256921D01*
X68000000Y-40259486D01*
X68012170Y-40257065D01*
X68019856Y-40257065D01*
X68032207Y-40257672D01*
X68133092Y-40267609D01*
X68157309Y-40272425D01*
X68273426Y-40307649D01*
X68296226Y-40317093D01*
X68403239Y-40374292D01*
X68423770Y-40388011D01*
X68517556Y-40464981D01*
X68535019Y-40482444D01*
X68611989Y-40576230D01*
X68625708Y-40596761D01*
X68682907Y-40703774D01*
X68692351Y-40726574D01*
X68727575Y-40842691D01*
X68732391Y-40866908D01*
X68742328Y-40967793D01*
X68742935Y-40980144D01*
X68742935Y-40987830D01*
X68740514Y-41000000D01*
X68742935Y-41012170D01*
X68743079Y-41012894D01*
X68745500Y-41037476D01*
X68745500Y-45955414D01*
X68743079Y-45979996D01*
X68740514Y-45992891D01*
X68742263Y-46001683D01*
X68757014Y-46189983D01*
X68758157Y-46194768D01*
X68758158Y-46194772D01*
X68779788Y-46285290D01*
X68802961Y-46382265D01*
X68804839Y-46386821D01*
X68804840Y-46386825D01*
X68876413Y-46560485D01*
X68876416Y-46560491D01*
X68878293Y-46565045D01*
X68880858Y-46569254D01*
X68880860Y-46569258D01*
X68909854Y-46616835D01*
X68981171Y-46733863D01*
X69000902Y-46757114D01*
X69105904Y-46880850D01*
X69105908Y-46880854D01*
X69109086Y-46884599D01*
X69258916Y-47013574D01*
X69427003Y-47117642D01*
X69609247Y-47194261D01*
X69801201Y-47241564D01*
X69806111Y-47241984D01*
X69806126Y-47241986D01*
X69981124Y-47256939D01*
X69981134Y-47256939D01*
X69989185Y-47257627D01*
X69998171Y-47259480D01*
X70012416Y-47256751D01*
X70036124Y-47254500D01*
X74462524Y-47254500D01*
X74487103Y-47256921D01*
X74500000Y-47259486D01*
X74512170Y-47257065D01*
X74519856Y-47257065D01*
X74532207Y-47257672D01*
X74633092Y-47267609D01*
X74657309Y-47272425D01*
X74773426Y-47307649D01*
X74796226Y-47317093D01*
X74903239Y-47374292D01*
X74923770Y-47388011D01*
X75017556Y-47464981D01*
X75035019Y-47482444D01*
X75111989Y-47576230D01*
X75125708Y-47596761D01*
X75182907Y-47703774D01*
X75192351Y-47726574D01*
X75227575Y-47842691D01*
X75232391Y-47866908D01*
X75242328Y-47967793D01*
X75242935Y-47980144D01*
X75242935Y-47987830D01*
X75240514Y-48000000D01*
X75242935Y-48012170D01*
X75243079Y-48012894D01*
X75245500Y-48037476D01*
X75245500Y-56898684D01*
X75225498Y-56966805D01*
X75171842Y-57013298D01*
X75101568Y-57023402D01*
X75036988Y-56993908D01*
X75005305Y-56951934D01*
X74992905Y-56925341D01*
X74992902Y-56925336D01*
X74990579Y-56920354D01*
X74975406Y-56898684D01*
X74867833Y-56745054D01*
X74867831Y-56745051D01*
X74864674Y-56740543D01*
X74709457Y-56585326D01*
X74704949Y-56582169D01*
X74704946Y-56582167D01*
X74534155Y-56462578D01*
X74534153Y-56462577D01*
X74529646Y-56459421D01*
X74524664Y-56457098D01*
X74524659Y-56457095D01*
X74360342Y-56380474D01*
X74330703Y-56366653D01*
X74118674Y-56309839D01*
X73900000Y-56290708D01*
X73681326Y-56309839D01*
X73469297Y-56366653D01*
X73439658Y-56380474D01*
X73275341Y-56457095D01*
X73275336Y-56457098D01*
X73270354Y-56459421D01*
X73265847Y-56462577D01*
X73265845Y-56462578D01*
X73095054Y-56582167D01*
X73095051Y-56582169D01*
X73090543Y-56585326D01*
X72935326Y-56740543D01*
X72932169Y-56745051D01*
X72932167Y-56745054D01*
X72824594Y-56898684D01*
X72809421Y-56920354D01*
X72807098Y-56925336D01*
X72807095Y-56925341D01*
X72778285Y-56987126D01*
X72716653Y-57119297D01*
X72659839Y-57331326D01*
X72640708Y-57550000D01*
X72659839Y-57768674D01*
X72716653Y-57980703D01*
X72718978Y-57985688D01*
X72807095Y-58174659D01*
X72807098Y-58174664D01*
X72809421Y-58179646D01*
X72812577Y-58184153D01*
X72812578Y-58184155D01*
X72852062Y-58240543D01*
X72935326Y-58359457D01*
X73090543Y-58514674D01*
X73095053Y-58517832D01*
X73095059Y-58517837D01*
X73217478Y-58603555D01*
X73261807Y-58659012D01*
X73269116Y-58729631D01*
X73237086Y-58792992D01*
X73185084Y-58826292D01*
X73077763Y-58862097D01*
X73071531Y-58865953D01*
X73071532Y-58865953D01*
X72982071Y-58921313D01*
X72913619Y-58940151D01*
X72845849Y-58918990D01*
X72815805Y-58890873D01*
X72731094Y-58780475D01*
X72731093Y-58780474D01*
X72726071Y-58773929D01*
X72601278Y-58678172D01*
X72455953Y-58617977D01*
X72300000Y-58597445D01*
X72144047Y-58617977D01*
X71998723Y-58678172D01*
X71873929Y-58773929D01*
X71778172Y-58898723D01*
X71717977Y-59044047D01*
X71697445Y-59200000D01*
X71717977Y-59355953D01*
X71778172Y-59501277D01*
X71873929Y-59626071D01*
X71998722Y-59721828D01*
X72144047Y-59782023D01*
X72300000Y-59802555D01*
X72455953Y-59782023D01*
X72463587Y-59778861D01*
X72471285Y-59775673D01*
X72541875Y-59768086D01*
X72605361Y-59799867D01*
X72641587Y-59860926D01*
X72645500Y-59892083D01*
X72645500Y-60600128D01*
X72645837Y-60603374D01*
X72645837Y-60603378D01*
X72650940Y-60652555D01*
X72656417Y-60705343D01*
X72658598Y-60711879D01*
X72658598Y-60711881D01*
X72666215Y-60734711D01*
X72712097Y-60872237D01*
X72804678Y-61021846D01*
X72929194Y-61146144D01*
X73078964Y-61238464D01*
X73085912Y-61240769D01*
X73085913Y-61240769D01*
X73239424Y-61291687D01*
X73239426Y-61291687D01*
X73245955Y-61293853D01*
X73349872Y-61304500D01*
X74450128Y-61304500D01*
X74453374Y-61304163D01*
X74453378Y-61304163D01*
X74548485Y-61294295D01*
X74548489Y-61294294D01*
X74555343Y-61293583D01*
X74561879Y-61291402D01*
X74561881Y-61291402D01*
X74700257Y-61245236D01*
X74722237Y-61237903D01*
X74779253Y-61202620D01*
X74865620Y-61149175D01*
X74865621Y-61149174D01*
X74871846Y-61145322D01*
X74996144Y-61020806D01*
X74999984Y-61014577D01*
X74999986Y-61014574D01*
X75012241Y-60994693D01*
X75065013Y-60947200D01*
X75135085Y-60935778D01*
X75200209Y-60964052D01*
X75239708Y-61023046D01*
X75245500Y-61060810D01*
X75245500Y-62498684D01*
X75225498Y-62566805D01*
X75171842Y-62613298D01*
X75101568Y-62623402D01*
X75036988Y-62593908D01*
X75005305Y-62551934D01*
X74992905Y-62525341D01*
X74992902Y-62525336D01*
X74990579Y-62520354D01*
X74975406Y-62498684D01*
X74867833Y-62345054D01*
X74867831Y-62345051D01*
X74864674Y-62340543D01*
X74709457Y-62185326D01*
X74704949Y-62182169D01*
X74704946Y-62182167D01*
X74534155Y-62062578D01*
X74534153Y-62062577D01*
X74529646Y-62059421D01*
X74524664Y-62057098D01*
X74524659Y-62057095D01*
X74387631Y-61993199D01*
X74330703Y-61966653D01*
X74118674Y-61909839D01*
X73900000Y-61890708D01*
X73681326Y-61909839D01*
X73469297Y-61966653D01*
X73412369Y-61993199D01*
X73275341Y-62057095D01*
X73275336Y-62057098D01*
X73270354Y-62059421D01*
X73265847Y-62062577D01*
X73265845Y-62062578D01*
X73095054Y-62182167D01*
X73095051Y-62182169D01*
X73090543Y-62185326D01*
X72935326Y-62340543D01*
X72932169Y-62345051D01*
X72932167Y-62345054D01*
X72824594Y-62498684D01*
X72809421Y-62520354D01*
X72807098Y-62525336D01*
X72807095Y-62525341D01*
X72775122Y-62593908D01*
X72716653Y-62719297D01*
X72659839Y-62931326D01*
X72640708Y-63150000D01*
X72659839Y-63368674D01*
X72716653Y-63580703D01*
X72718978Y-63585688D01*
X72807095Y-63774659D01*
X72807098Y-63774664D01*
X72809421Y-63779646D01*
X72812577Y-63784153D01*
X72812578Y-63784155D01*
X72906933Y-63918907D01*
X72935326Y-63959457D01*
X73090543Y-64114674D01*
X73095053Y-64117832D01*
X73095059Y-64117837D01*
X73217478Y-64203555D01*
X73261807Y-64259012D01*
X73269116Y-64329631D01*
X73237086Y-64392992D01*
X73185084Y-64426292D01*
X73077763Y-64462097D01*
X73071531Y-64465953D01*
X73071532Y-64465953D01*
X72935688Y-64550016D01*
X72928154Y-64554678D01*
X72803856Y-64679194D01*
X72711536Y-64828964D01*
X72709231Y-64835912D01*
X72709231Y-64835913D01*
X72667985Y-64960266D01*
X72656147Y-64995955D01*
X72645500Y-65099872D01*
X72645500Y-66200128D01*
X72645837Y-66203374D01*
X72645837Y-66203378D01*
X72654527Y-66287126D01*
X72656417Y-66305343D01*
X72658598Y-66311879D01*
X72658598Y-66311881D01*
X72698953Y-66432839D01*
X72712097Y-66472237D01*
X72715953Y-66478468D01*
X72798479Y-66611828D01*
X72804678Y-66621846D01*
X72929194Y-66746144D01*
X73078964Y-66838464D01*
X73085912Y-66840769D01*
X73085913Y-66840769D01*
X73239424Y-66891687D01*
X73239426Y-66891687D01*
X73245955Y-66893853D01*
X73349872Y-66904500D01*
X74450128Y-66904500D01*
X74453374Y-66904163D01*
X74453378Y-66904163D01*
X74548485Y-66894295D01*
X74548489Y-66894294D01*
X74555343Y-66893583D01*
X74561879Y-66891402D01*
X74561881Y-66891402D01*
X74700257Y-66845236D01*
X74722237Y-66837903D01*
X74799033Y-66790380D01*
X74865620Y-66749175D01*
X74865621Y-66749174D01*
X74871846Y-66745322D01*
X74996144Y-66620806D01*
X74999984Y-66614577D01*
X74999986Y-66614574D01*
X75012241Y-66594693D01*
X75065013Y-66547200D01*
X75135085Y-66535778D01*
X75200209Y-66564052D01*
X75239708Y-66623046D01*
X75245500Y-66660810D01*
X75245500Y-74537339D01*
X75225498Y-74605460D01*
X75171842Y-74651953D01*
X75101568Y-74662057D01*
X75036988Y-74632563D01*
X74998604Y-74572837D01*
X74995539Y-74557278D01*
X74994295Y-74551515D01*
X74993583Y-74544657D01*
X74984516Y-74517478D01*
X74940221Y-74384711D01*
X74937903Y-74377763D01*
X74874758Y-74275722D01*
X74849175Y-74234380D01*
X74849174Y-74234379D01*
X74845322Y-74228154D01*
X74720806Y-74103856D01*
X74571036Y-74011536D01*
X74564087Y-74009231D01*
X74410576Y-73958313D01*
X74410574Y-73958313D01*
X74404045Y-73956147D01*
X74300128Y-73945500D01*
X73199872Y-73945500D01*
X73196626Y-73945837D01*
X73196622Y-73945837D01*
X73101515Y-73955705D01*
X73101511Y-73955706D01*
X73094657Y-73956417D01*
X73088121Y-73958598D01*
X73088119Y-73958598D01*
X73008006Y-73985326D01*
X72927763Y-74012097D01*
X72915758Y-74019526D01*
X72785688Y-74100016D01*
X72778154Y-74104678D01*
X72653856Y-74229194D01*
X72561536Y-74378964D01*
X72559231Y-74385912D01*
X72559231Y-74385913D01*
X72526392Y-74484919D01*
X72485961Y-74543278D01*
X72420397Y-74570515D01*
X72350515Y-74557981D01*
X72303586Y-74517522D01*
X72217833Y-74395054D01*
X72217831Y-74395051D01*
X72214674Y-74390543D01*
X72059457Y-74235326D01*
X72054949Y-74232169D01*
X72054946Y-74232167D01*
X71884155Y-74112578D01*
X71884153Y-74112577D01*
X71879646Y-74109421D01*
X71874664Y-74107098D01*
X71874659Y-74107095D01*
X71773884Y-74060104D01*
X71680703Y-74016653D01*
X71468674Y-73959839D01*
X71250000Y-73940708D01*
X71031326Y-73959839D01*
X70819297Y-74016653D01*
X70726116Y-74060104D01*
X70625341Y-74107095D01*
X70625336Y-74107098D01*
X70620354Y-74109421D01*
X70615847Y-74112577D01*
X70615845Y-74112578D01*
X70445054Y-74232167D01*
X70445051Y-74232169D01*
X70440543Y-74235326D01*
X70285326Y-74390543D01*
X70282169Y-74395051D01*
X70282167Y-74395054D01*
X70162578Y-74565845D01*
X70159421Y-74570354D01*
X70157098Y-74575336D01*
X70157095Y-74575341D01*
X70122341Y-74649872D01*
X70066653Y-74769297D01*
X70009839Y-74981326D01*
X69990708Y-75200000D01*
X70009839Y-75418674D01*
X70066653Y-75630703D01*
X70102785Y-75708188D01*
X70157095Y-75824659D01*
X70157098Y-75824664D01*
X70159421Y-75829646D01*
X70162577Y-75834153D01*
X70162578Y-75834155D01*
X70282164Y-76004941D01*
X70285326Y-76009457D01*
X70440543Y-76164674D01*
X70445051Y-76167831D01*
X70445054Y-76167833D01*
X70615845Y-76287422D01*
X70620354Y-76290579D01*
X70625336Y-76292902D01*
X70625341Y-76292905D01*
X70726116Y-76339896D01*
X70819297Y-76383347D01*
X71031326Y-76440161D01*
X71250000Y-76459292D01*
X71468674Y-76440161D01*
X71680703Y-76383347D01*
X71773884Y-76339896D01*
X71874659Y-76292905D01*
X71874664Y-76292902D01*
X71879646Y-76290579D01*
X71884155Y-76287422D01*
X72054946Y-76167833D01*
X72054949Y-76167831D01*
X72059457Y-76164674D01*
X72214674Y-76009457D01*
X72217833Y-76004946D01*
X72217837Y-76004941D01*
X72303555Y-75882522D01*
X72359012Y-75838193D01*
X72429631Y-75830884D01*
X72492992Y-75862914D01*
X72526292Y-75914916D01*
X72562097Y-76022237D01*
X72565953Y-76028468D01*
X72644924Y-76156083D01*
X72654678Y-76171846D01*
X72779194Y-76296144D01*
X72928964Y-76388464D01*
X72935912Y-76390769D01*
X72935913Y-76390769D01*
X73089424Y-76441687D01*
X73089426Y-76441687D01*
X73095955Y-76443853D01*
X73199872Y-76454500D01*
X74300128Y-76454500D01*
X74303374Y-76454163D01*
X74303378Y-76454163D01*
X74398485Y-76444295D01*
X74398489Y-76444294D01*
X74405343Y-76443583D01*
X74411879Y-76441402D01*
X74411881Y-76441402D01*
X74550257Y-76395236D01*
X74572237Y-76387903D01*
X74678588Y-76322091D01*
X74715620Y-76299175D01*
X74715621Y-76299174D01*
X74721846Y-76295322D01*
X74846144Y-76170806D01*
X74938464Y-76021036D01*
X74945018Y-76001277D01*
X74991687Y-75860576D01*
X74991687Y-75860574D01*
X74993853Y-75854045D01*
X74994554Y-75847201D01*
X74995996Y-75840475D01*
X74998289Y-75840967D01*
X75020998Y-75785359D01*
X75079113Y-75744578D01*
X75150051Y-75741690D01*
X75211289Y-75777612D01*
X75243385Y-75840940D01*
X75245500Y-75863930D01*
X75245500Y-75961165D01*
X75243031Y-75985363D01*
X75243026Y-75986019D01*
X75240520Y-75998171D01*
X75242854Y-76010357D01*
X75242799Y-76018194D01*
X75242111Y-76030481D01*
X75231436Y-76131994D01*
X75226490Y-76156082D01*
X75206135Y-76221828D01*
X75190357Y-76272787D01*
X75180826Y-76295456D01*
X75122707Y-76402930D01*
X75108960Y-76423309D01*
X75031078Y-76517445D01*
X75013638Y-76534763D01*
X74918944Y-76611988D01*
X74898470Y-76625589D01*
X74790594Y-76682944D01*
X74767859Y-76692314D01*
X74650901Y-76727623D01*
X74626781Y-76732399D01*
X74562920Y-76738660D01*
X74525435Y-76742335D01*
X74513140Y-76742936D01*
X74505068Y-76742936D01*
X74492895Y-76740514D01*
X74480723Y-76742935D01*
X74480722Y-76742935D01*
X74479999Y-76743079D01*
X74455419Y-76745500D01*
X46537476Y-76745500D01*
X46512897Y-76743079D01*
X46500000Y-76740514D01*
X46487830Y-76742935D01*
X46480144Y-76742935D01*
X46467793Y-76742328D01*
X46366908Y-76732391D01*
X46342691Y-76727575D01*
X46226574Y-76692351D01*
X46203774Y-76682907D01*
X46096761Y-76625708D01*
X46076230Y-76611989D01*
X46076222Y-76611982D01*
X46028719Y-76572997D01*
X45982444Y-76535019D01*
X45964981Y-76517556D01*
X45958623Y-76509809D01*
X45930868Y-76444462D01*
X45942849Y-76374484D01*
X45990761Y-76322091D01*
X46059392Y-76303919D01*
X46122137Y-76322615D01*
X46228964Y-76388464D01*
X46235912Y-76390769D01*
X46235913Y-76390769D01*
X46389424Y-76441687D01*
X46389426Y-76441687D01*
X46395955Y-76443853D01*
X46499872Y-76454500D01*
X47600128Y-76454500D01*
X47603374Y-76454163D01*
X47603378Y-76454163D01*
X47698485Y-76444295D01*
X47698489Y-76444294D01*
X47705343Y-76443583D01*
X47711879Y-76441402D01*
X47711881Y-76441402D01*
X47850257Y-76395236D01*
X47872237Y-76387903D01*
X47978588Y-76322091D01*
X48015620Y-76299175D01*
X48015621Y-76299174D01*
X48021846Y-76295322D01*
X48146144Y-76170806D01*
X48238464Y-76021036D01*
X48273608Y-75915081D01*
X48314039Y-75856722D01*
X48379603Y-75829485D01*
X48449485Y-75842019D01*
X48496414Y-75882478D01*
X48582164Y-76004941D01*
X48585326Y-76009457D01*
X48740543Y-76164674D01*
X48745051Y-76167831D01*
X48745054Y-76167833D01*
X48915845Y-76287422D01*
X48920354Y-76290579D01*
X48925336Y-76292902D01*
X48925341Y-76292905D01*
X49026116Y-76339896D01*
X49119297Y-76383347D01*
X49331326Y-76440161D01*
X49550000Y-76459292D01*
X49768674Y-76440161D01*
X49980703Y-76383347D01*
X50073884Y-76339896D01*
X50174659Y-76292905D01*
X50174664Y-76292902D01*
X50179646Y-76290579D01*
X50184155Y-76287422D01*
X50354946Y-76167833D01*
X50354949Y-76167831D01*
X50359457Y-76164674D01*
X50514674Y-76009457D01*
X50517837Y-76004941D01*
X50637422Y-75834155D01*
X50637423Y-75834153D01*
X50640579Y-75829646D01*
X50642902Y-75824664D01*
X50642905Y-75824659D01*
X50697215Y-75708188D01*
X50701033Y-75700000D01*
X54897445Y-75700000D01*
X54917977Y-75855953D01*
X54978172Y-76001277D01*
X55073929Y-76126071D01*
X55198722Y-76221828D01*
X55344047Y-76282023D01*
X55500000Y-76302555D01*
X55655953Y-76282023D01*
X55801278Y-76221828D01*
X55926071Y-76126071D01*
X56021828Y-76001277D01*
X56082023Y-75855953D01*
X56102555Y-75700000D01*
X56082023Y-75544047D01*
X56021828Y-75398723D01*
X55926071Y-75273929D01*
X55801278Y-75178172D01*
X55655953Y-75117977D01*
X55500000Y-75097445D01*
X55344047Y-75117977D01*
X55198723Y-75178172D01*
X55073929Y-75273929D01*
X54978172Y-75398723D01*
X54917977Y-75544047D01*
X54897445Y-75700000D01*
X50701033Y-75700000D01*
X50733347Y-75630703D01*
X50790161Y-75418674D01*
X50809292Y-75200000D01*
X50790161Y-74981326D01*
X50781767Y-74950000D01*
X60940708Y-74950000D01*
X60959839Y-75168674D01*
X61016653Y-75380703D01*
X61039577Y-75429863D01*
X61107095Y-75574659D01*
X61107098Y-75574664D01*
X61109421Y-75579646D01*
X61112577Y-75584153D01*
X61112578Y-75584155D01*
X61228794Y-75750128D01*
X61235326Y-75759457D01*
X61390543Y-75914674D01*
X61395051Y-75917831D01*
X61395054Y-75917833D01*
X61565227Y-76036989D01*
X61570354Y-76040579D01*
X61575336Y-76042902D01*
X61575341Y-76042905D01*
X61676116Y-76089896D01*
X61769297Y-76133347D01*
X61981326Y-76190161D01*
X62200000Y-76209292D01*
X62418674Y-76190161D01*
X62630703Y-76133347D01*
X62723884Y-76089896D01*
X62824659Y-76042905D01*
X62824664Y-76042902D01*
X62829646Y-76040579D01*
X62834773Y-76036989D01*
X62891471Y-75997289D01*
X64017265Y-75997289D01*
X64026561Y-76009304D01*
X64066100Y-76036989D01*
X64075590Y-76042469D01*
X64264486Y-76130553D01*
X64274778Y-76134299D01*
X64476098Y-76188242D01*
X64486893Y-76190145D01*
X64694525Y-76208311D01*
X64705475Y-76208311D01*
X64913107Y-76190145D01*
X64923902Y-76188242D01*
X65125222Y-76134299D01*
X65135514Y-76130553D01*
X65324410Y-76042469D01*
X65333900Y-76036989D01*
X65374278Y-76008717D01*
X65382652Y-75998242D01*
X65375583Y-75984793D01*
X64712812Y-75322022D01*
X64698868Y-75314408D01*
X64697035Y-75314539D01*
X64690420Y-75318790D01*
X64023695Y-75985515D01*
X64017265Y-75997289D01*
X62891471Y-75997289D01*
X63004946Y-75917833D01*
X63004949Y-75917831D01*
X63009457Y-75914674D01*
X63164674Y-75759457D01*
X63171207Y-75750128D01*
X63287422Y-75584155D01*
X63287423Y-75584153D01*
X63290579Y-75579646D01*
X63292902Y-75574664D01*
X63292905Y-75574659D01*
X63336081Y-75482067D01*
X63382998Y-75428782D01*
X63451276Y-75409321D01*
X63519236Y-75429863D01*
X63564471Y-75482067D01*
X63607531Y-75574410D01*
X63613011Y-75583900D01*
X63641283Y-75624278D01*
X63651758Y-75632652D01*
X63665207Y-75625583D01*
X64327978Y-74962812D01*
X64335592Y-74948868D01*
X64335461Y-74947035D01*
X64331210Y-74940420D01*
X63664485Y-74273695D01*
X63652711Y-74267265D01*
X63640696Y-74276561D01*
X63613011Y-74316100D01*
X63607531Y-74325590D01*
X63564471Y-74417933D01*
X63517554Y-74471218D01*
X63449276Y-74490679D01*
X63381316Y-74470137D01*
X63336081Y-74417933D01*
X63292905Y-74325341D01*
X63292902Y-74325336D01*
X63290579Y-74320354D01*
X63259915Y-74276561D01*
X63167833Y-74145054D01*
X63167831Y-74145051D01*
X63164674Y-74140543D01*
X63009457Y-73985326D01*
X63004949Y-73982169D01*
X63004946Y-73982167D01*
X62834155Y-73862578D01*
X62834153Y-73862577D01*
X62829646Y-73859421D01*
X62824664Y-73857098D01*
X62824659Y-73857095D01*
X62732658Y-73814195D01*
X62679373Y-73767278D01*
X62659912Y-73699001D01*
X62680454Y-73631041D01*
X62732658Y-73585805D01*
X62824659Y-73542905D01*
X62824664Y-73542902D01*
X62829646Y-73540579D01*
X62967508Y-73444047D01*
X63004946Y-73417833D01*
X63004949Y-73417831D01*
X63009457Y-73414674D01*
X63164674Y-73259457D01*
X63167837Y-73254941D01*
X63287422Y-73084155D01*
X63287423Y-73084153D01*
X63290579Y-73079646D01*
X63292902Y-73074664D01*
X63292905Y-73074659D01*
X63335805Y-72982658D01*
X63382722Y-72929373D01*
X63450999Y-72909912D01*
X63518959Y-72930454D01*
X63564195Y-72982658D01*
X63607095Y-73074659D01*
X63607098Y-73074664D01*
X63609421Y-73079646D01*
X63612577Y-73084153D01*
X63612578Y-73084155D01*
X63732164Y-73254941D01*
X63735326Y-73259457D01*
X63890543Y-73414674D01*
X63895051Y-73417831D01*
X63895054Y-73417833D01*
X63932492Y-73444047D01*
X64070354Y-73540579D01*
X64075336Y-73542902D01*
X64075341Y-73542905D01*
X64167933Y-73586081D01*
X64221218Y-73632998D01*
X64240679Y-73701276D01*
X64220137Y-73769236D01*
X64167933Y-73814471D01*
X64075590Y-73857531D01*
X64066100Y-73863011D01*
X64025722Y-73891283D01*
X64017348Y-73901758D01*
X64024417Y-73915207D01*
X64687188Y-74577978D01*
X64701132Y-74585592D01*
X64702965Y-74585461D01*
X64709580Y-74581210D01*
X65376305Y-73914485D01*
X65382735Y-73902711D01*
X65373439Y-73890696D01*
X65333900Y-73863011D01*
X65324410Y-73857531D01*
X65232067Y-73814471D01*
X65178782Y-73767554D01*
X65159321Y-73699276D01*
X65179863Y-73631316D01*
X65232067Y-73586081D01*
X65324659Y-73542905D01*
X65324664Y-73542902D01*
X65329646Y-73540579D01*
X65467508Y-73444047D01*
X65504946Y-73417833D01*
X65504949Y-73417831D01*
X65509457Y-73414674D01*
X65664674Y-73259457D01*
X65667833Y-73254946D01*
X65667837Y-73254941D01*
X65753555Y-73132522D01*
X65809012Y-73088193D01*
X65879631Y-73080884D01*
X65942992Y-73112914D01*
X65976292Y-73164916D01*
X65979299Y-73173929D01*
X66012097Y-73272237D01*
X66104678Y-73421846D01*
X66229194Y-73546144D01*
X66378964Y-73638464D01*
X66385912Y-73640769D01*
X66385913Y-73640769D01*
X66484919Y-73673608D01*
X66543278Y-73714039D01*
X66570515Y-73779603D01*
X66557981Y-73849485D01*
X66517522Y-73896414D01*
X66395054Y-73982167D01*
X66395051Y-73982169D01*
X66390543Y-73985326D01*
X66235326Y-74140543D01*
X66232169Y-74145051D01*
X66232167Y-74145054D01*
X66140085Y-74276561D01*
X66109421Y-74320354D01*
X66107098Y-74325336D01*
X66107095Y-74325341D01*
X66063919Y-74417933D01*
X66017002Y-74471218D01*
X65948724Y-74490679D01*
X65880764Y-74470137D01*
X65835529Y-74417933D01*
X65792469Y-74325590D01*
X65786989Y-74316100D01*
X65758717Y-74275722D01*
X65748242Y-74267348D01*
X65734793Y-74274417D01*
X65072022Y-74937188D01*
X65064408Y-74951132D01*
X65064539Y-74952965D01*
X65068790Y-74959580D01*
X65735515Y-75626305D01*
X65747289Y-75632735D01*
X65759304Y-75623439D01*
X65786989Y-75583900D01*
X65792469Y-75574410D01*
X65835529Y-75482067D01*
X65882446Y-75428782D01*
X65950724Y-75409321D01*
X66018684Y-75429863D01*
X66063919Y-75482067D01*
X66107095Y-75574659D01*
X66107098Y-75574664D01*
X66109421Y-75579646D01*
X66112577Y-75584153D01*
X66112578Y-75584155D01*
X66228794Y-75750128D01*
X66235326Y-75759457D01*
X66390543Y-75914674D01*
X66395051Y-75917831D01*
X66395054Y-75917833D01*
X66565227Y-76036989D01*
X66570354Y-76040579D01*
X66575336Y-76042902D01*
X66575341Y-76042905D01*
X66676116Y-76089896D01*
X66769297Y-76133347D01*
X66981326Y-76190161D01*
X67200000Y-76209292D01*
X67418674Y-76190161D01*
X67630703Y-76133347D01*
X67723884Y-76089896D01*
X67824659Y-76042905D01*
X67824664Y-76042902D01*
X67829646Y-76040579D01*
X67834773Y-76036989D01*
X68004946Y-75917833D01*
X68004949Y-75917831D01*
X68009457Y-75914674D01*
X68164674Y-75759457D01*
X68171207Y-75750128D01*
X68287422Y-75584155D01*
X68287423Y-75584153D01*
X68290579Y-75579646D01*
X68292902Y-75574664D01*
X68292905Y-75574659D01*
X68360423Y-75429863D01*
X68383347Y-75380703D01*
X68440161Y-75168674D01*
X68459292Y-74950000D01*
X68440161Y-74731326D01*
X68383347Y-74519297D01*
X68325412Y-74395054D01*
X68292905Y-74325341D01*
X68292902Y-74325336D01*
X68290579Y-74320354D01*
X68259915Y-74276561D01*
X68167833Y-74145054D01*
X68167831Y-74145051D01*
X68164674Y-74140543D01*
X68009457Y-73985326D01*
X68004947Y-73982168D01*
X68004941Y-73982163D01*
X67882522Y-73896445D01*
X67838193Y-73840988D01*
X67830884Y-73770369D01*
X67862914Y-73707008D01*
X67914916Y-73673708D01*
X67974646Y-73653780D01*
X68022237Y-73637903D01*
X68106426Y-73585805D01*
X68165620Y-73549175D01*
X68165621Y-73549174D01*
X68171846Y-73545322D01*
X68296144Y-73420806D01*
X68388464Y-73271036D01*
X68406453Y-73216801D01*
X68441687Y-73110576D01*
X68441687Y-73110574D01*
X68443853Y-73104045D01*
X68454500Y-73000128D01*
X68454500Y-71899872D01*
X68453105Y-71886425D01*
X68444295Y-71801515D01*
X68444294Y-71801511D01*
X68443583Y-71794657D01*
X68387903Y-71627763D01*
X68295322Y-71478154D01*
X68217031Y-71400000D01*
X71440693Y-71400000D01*
X71459891Y-71643929D01*
X71461045Y-71648736D01*
X71461046Y-71648742D01*
X71489563Y-71767522D01*
X71517011Y-71881852D01*
X71518904Y-71886423D01*
X71518905Y-71886425D01*
X71569192Y-72007828D01*
X71610647Y-72107911D01*
X71738494Y-72316538D01*
X71897403Y-72502597D01*
X72083462Y-72661506D01*
X72292089Y-72789353D01*
X72296659Y-72791246D01*
X72296663Y-72791248D01*
X72499807Y-72875392D01*
X72518148Y-72882989D01*
X72600452Y-72902748D01*
X72751258Y-72938954D01*
X72751264Y-72938955D01*
X72756071Y-72940109D01*
X73000000Y-72959307D01*
X73243929Y-72940109D01*
X73248736Y-72938955D01*
X73248742Y-72938954D01*
X73399548Y-72902748D01*
X73481852Y-72882989D01*
X73500193Y-72875392D01*
X73703337Y-72791248D01*
X73703341Y-72791246D01*
X73707911Y-72789353D01*
X73916538Y-72661506D01*
X74102597Y-72502597D01*
X74261506Y-72316538D01*
X74389353Y-72107911D01*
X74430809Y-72007828D01*
X74481095Y-71886425D01*
X74481096Y-71886423D01*
X74482989Y-71881852D01*
X74510437Y-71767522D01*
X74538954Y-71648742D01*
X74538955Y-71648736D01*
X74540109Y-71643929D01*
X74559307Y-71400000D01*
X74540109Y-71156071D01*
X74531723Y-71121138D01*
X74484144Y-70922960D01*
X74482989Y-70918148D01*
X74481095Y-70913575D01*
X74391248Y-70696663D01*
X74391246Y-70696659D01*
X74389353Y-70692089D01*
X74261506Y-70483462D01*
X74102597Y-70297403D01*
X73916538Y-70138494D01*
X73707911Y-70010647D01*
X73703341Y-70008754D01*
X73703337Y-70008752D01*
X73486425Y-69918905D01*
X73486423Y-69918904D01*
X73481852Y-69917011D01*
X73399548Y-69897252D01*
X73248742Y-69861046D01*
X73248736Y-69861045D01*
X73243929Y-69859891D01*
X73000000Y-69840693D01*
X72756071Y-69859891D01*
X72751264Y-69861045D01*
X72751258Y-69861046D01*
X72600452Y-69897252D01*
X72518148Y-69917011D01*
X72513577Y-69918904D01*
X72513575Y-69918905D01*
X72296663Y-70008752D01*
X72296659Y-70008754D01*
X72292089Y-70010647D01*
X72083462Y-70138494D01*
X71897403Y-70297403D01*
X71738494Y-70483462D01*
X71610647Y-70692089D01*
X71608754Y-70696659D01*
X71608752Y-70696663D01*
X71518905Y-70913575D01*
X71517011Y-70918148D01*
X71515856Y-70922960D01*
X71468278Y-71121138D01*
X71459891Y-71156071D01*
X71440693Y-71400000D01*
X68217031Y-71400000D01*
X68170806Y-71353856D01*
X68021036Y-71261536D01*
X68014087Y-71259231D01*
X67860576Y-71208313D01*
X67860574Y-71208313D01*
X67854045Y-71206147D01*
X67750128Y-71195500D01*
X66649872Y-71195500D01*
X66646626Y-71195837D01*
X66646622Y-71195837D01*
X66551515Y-71205705D01*
X66551511Y-71205706D01*
X66544657Y-71206417D01*
X66538121Y-71208598D01*
X66538119Y-71208598D01*
X66399743Y-71254764D01*
X66377763Y-71262097D01*
X66358643Y-71273929D01*
X66235688Y-71350016D01*
X66228154Y-71354678D01*
X66103856Y-71479194D01*
X66011536Y-71628964D01*
X66009231Y-71635912D01*
X66009231Y-71635913D01*
X65976392Y-71734919D01*
X65935961Y-71793278D01*
X65870397Y-71820515D01*
X65800515Y-71807981D01*
X65753586Y-71767522D01*
X65667833Y-71645054D01*
X65667831Y-71645051D01*
X65664674Y-71640543D01*
X65509457Y-71485326D01*
X65504949Y-71482169D01*
X65504946Y-71482167D01*
X65334155Y-71362578D01*
X65334153Y-71362577D01*
X65329646Y-71359421D01*
X65324664Y-71357098D01*
X65324659Y-71357095D01*
X65160342Y-71280474D01*
X65130703Y-71266653D01*
X64918674Y-71209839D01*
X64700000Y-71190708D01*
X64481326Y-71209839D01*
X64269297Y-71266653D01*
X64239658Y-71280474D01*
X64075341Y-71357095D01*
X64075336Y-71357098D01*
X64070354Y-71359421D01*
X64065847Y-71362577D01*
X64065845Y-71362578D01*
X63895054Y-71482167D01*
X63895051Y-71482169D01*
X63890543Y-71485326D01*
X63735326Y-71640543D01*
X63732169Y-71645051D01*
X63732167Y-71645054D01*
X63612578Y-71815845D01*
X63609421Y-71820354D01*
X63607098Y-71825336D01*
X63607095Y-71825341D01*
X63564195Y-71917342D01*
X63517278Y-71970627D01*
X63449001Y-71990088D01*
X63381041Y-71969546D01*
X63335805Y-71917342D01*
X63292905Y-71825341D01*
X63292902Y-71825336D01*
X63290579Y-71820354D01*
X63287422Y-71815845D01*
X63167833Y-71645054D01*
X63167831Y-71645051D01*
X63164674Y-71640543D01*
X63009457Y-71485326D01*
X63004949Y-71482169D01*
X63004946Y-71482167D01*
X62834155Y-71362578D01*
X62834153Y-71362577D01*
X62829646Y-71359421D01*
X62824664Y-71357098D01*
X62824659Y-71357095D01*
X62660342Y-71280474D01*
X62630703Y-71266653D01*
X62418674Y-71209839D01*
X62200000Y-71190708D01*
X61981326Y-71209839D01*
X61769297Y-71266653D01*
X61739658Y-71280474D01*
X61575341Y-71357095D01*
X61575336Y-71357098D01*
X61570354Y-71359421D01*
X61565847Y-71362577D01*
X61565845Y-71362578D01*
X61395054Y-71482167D01*
X61395051Y-71482169D01*
X61390543Y-71485326D01*
X61235326Y-71640543D01*
X61232169Y-71645051D01*
X61232167Y-71645054D01*
X61112578Y-71815845D01*
X61109421Y-71820354D01*
X61107098Y-71825336D01*
X61107095Y-71825341D01*
X61082988Y-71877040D01*
X61016653Y-72019297D01*
X60959839Y-72231326D01*
X60940708Y-72450000D01*
X60959839Y-72668674D01*
X61016653Y-72880703D01*
X61053306Y-72959307D01*
X61107095Y-73074659D01*
X61107098Y-73074664D01*
X61109421Y-73079646D01*
X61112577Y-73084153D01*
X61112578Y-73084155D01*
X61232164Y-73254941D01*
X61235326Y-73259457D01*
X61390543Y-73414674D01*
X61395051Y-73417831D01*
X61395054Y-73417833D01*
X61432492Y-73444047D01*
X61570354Y-73540579D01*
X61575336Y-73542902D01*
X61575341Y-73542905D01*
X61667342Y-73585805D01*
X61720627Y-73632722D01*
X61740088Y-73700999D01*
X61719546Y-73768959D01*
X61667342Y-73814195D01*
X61575341Y-73857095D01*
X61575336Y-73857098D01*
X61570354Y-73859421D01*
X61565847Y-73862577D01*
X61565845Y-73862578D01*
X61395054Y-73982167D01*
X61395051Y-73982169D01*
X61390543Y-73985326D01*
X61235326Y-74140543D01*
X61232169Y-74145051D01*
X61232167Y-74145054D01*
X61140085Y-74276561D01*
X61109421Y-74320354D01*
X61107098Y-74325336D01*
X61107095Y-74325341D01*
X61074588Y-74395054D01*
X61016653Y-74519297D01*
X60959839Y-74731326D01*
X60940708Y-74950000D01*
X50781767Y-74950000D01*
X50733347Y-74769297D01*
X50677659Y-74649872D01*
X50642905Y-74575341D01*
X50642902Y-74575336D01*
X50640579Y-74570354D01*
X50637422Y-74565845D01*
X50517833Y-74395054D01*
X50517831Y-74395051D01*
X50514674Y-74390543D01*
X50359457Y-74235326D01*
X50354949Y-74232169D01*
X50354946Y-74232167D01*
X50184155Y-74112578D01*
X50184153Y-74112577D01*
X50179646Y-74109421D01*
X50174664Y-74107098D01*
X50174659Y-74107095D01*
X50073884Y-74060104D01*
X49980703Y-74016653D01*
X49768674Y-73959839D01*
X49550000Y-73940708D01*
X49331326Y-73959839D01*
X49119297Y-74016653D01*
X49026116Y-74060104D01*
X48925341Y-74107095D01*
X48925336Y-74107098D01*
X48920354Y-74109421D01*
X48915847Y-74112577D01*
X48915845Y-74112578D01*
X48745054Y-74232167D01*
X48745051Y-74232169D01*
X48740543Y-74235326D01*
X48585326Y-74390543D01*
X48582168Y-74395053D01*
X48582163Y-74395059D01*
X48496445Y-74517478D01*
X48440988Y-74561807D01*
X48370369Y-74569116D01*
X48307008Y-74537086D01*
X48273708Y-74485084D01*
X48240221Y-74384711D01*
X48237903Y-74377763D01*
X48174758Y-74275722D01*
X48149175Y-74234380D01*
X48149174Y-74234379D01*
X48145322Y-74228154D01*
X48020806Y-74103856D01*
X47871036Y-74011536D01*
X47864087Y-74009231D01*
X47710576Y-73958313D01*
X47710574Y-73958313D01*
X47704045Y-73956147D01*
X47600128Y-73945500D01*
X46499872Y-73945500D01*
X46496626Y-73945837D01*
X46496622Y-73945837D01*
X46401515Y-73955705D01*
X46401511Y-73955706D01*
X46394657Y-73956417D01*
X46388121Y-73958598D01*
X46388119Y-73958598D01*
X46308006Y-73985326D01*
X46227763Y-74012097D01*
X46215758Y-74019526D01*
X46085688Y-74100016D01*
X46078154Y-74104678D01*
X46072980Y-74109861D01*
X45969673Y-74213349D01*
X45907391Y-74247429D01*
X45836571Y-74242426D01*
X45779698Y-74199929D01*
X45754829Y-74133431D01*
X45754500Y-74124332D01*
X45754500Y-73600000D01*
X54797445Y-73600000D01*
X54817977Y-73755953D01*
X54878172Y-73901277D01*
X54973929Y-74026071D01*
X55098722Y-74121828D01*
X55244047Y-74182023D01*
X55400000Y-74202555D01*
X55555953Y-74182023D01*
X55701278Y-74121828D01*
X55826071Y-74026071D01*
X55921828Y-73901277D01*
X55982023Y-73755953D01*
X56002555Y-73600000D01*
X55982023Y-73444047D01*
X55921828Y-73298723D01*
X55826071Y-73173929D01*
X55701278Y-73078172D01*
X55555953Y-73017977D01*
X55400000Y-72997445D01*
X55244047Y-73017977D01*
X55098723Y-73078172D01*
X54973929Y-73173929D01*
X54878172Y-73298723D01*
X54817977Y-73444047D01*
X54797445Y-73600000D01*
X45754500Y-73600000D01*
X45754500Y-71400000D01*
X46440693Y-71400000D01*
X46459891Y-71643929D01*
X46461045Y-71648736D01*
X46461046Y-71648742D01*
X46489563Y-71767522D01*
X46517011Y-71881852D01*
X46518904Y-71886423D01*
X46518905Y-71886425D01*
X46569192Y-72007828D01*
X46610647Y-72107911D01*
X46738494Y-72316538D01*
X46897403Y-72502597D01*
X47083462Y-72661506D01*
X47292089Y-72789353D01*
X47296659Y-72791246D01*
X47296663Y-72791248D01*
X47499807Y-72875392D01*
X47518148Y-72882989D01*
X47600452Y-72902748D01*
X47751258Y-72938954D01*
X47751264Y-72938955D01*
X47756071Y-72940109D01*
X48000000Y-72959307D01*
X48243929Y-72940109D01*
X48248736Y-72938955D01*
X48248742Y-72938954D01*
X48399548Y-72902748D01*
X48481852Y-72882989D01*
X48500193Y-72875392D01*
X48703337Y-72791248D01*
X48703341Y-72791246D01*
X48707911Y-72789353D01*
X48916538Y-72661506D01*
X49102597Y-72502597D01*
X49261506Y-72316538D01*
X49389353Y-72107911D01*
X49430809Y-72007828D01*
X49481095Y-71886425D01*
X49481096Y-71886423D01*
X49482989Y-71881852D01*
X49510437Y-71767522D01*
X49526648Y-71700000D01*
X58597445Y-71700000D01*
X58617977Y-71855953D01*
X58678172Y-72001277D01*
X58773929Y-72126071D01*
X58898722Y-72221828D01*
X58906349Y-72224987D01*
X58906354Y-72224990D01*
X58998024Y-72262960D01*
X59053306Y-72307508D01*
X59075727Y-72374871D01*
X59066216Y-72427587D01*
X59017977Y-72544047D01*
X58997445Y-72700000D01*
X59017977Y-72855953D01*
X59078172Y-73001277D01*
X59173929Y-73126071D01*
X59298722Y-73221828D01*
X59444047Y-73282023D01*
X59600000Y-73302555D01*
X59755953Y-73282023D01*
X59901278Y-73221828D01*
X60026071Y-73126071D01*
X60121828Y-73001277D01*
X60182023Y-72855953D01*
X60202555Y-72700000D01*
X60182023Y-72544047D01*
X60121828Y-72398723D01*
X60026071Y-72273929D01*
X59901278Y-72178172D01*
X59893651Y-72175013D01*
X59893646Y-72175010D01*
X59801976Y-72137040D01*
X59746694Y-72092492D01*
X59724273Y-72025129D01*
X59733784Y-71972413D01*
X59771295Y-71881852D01*
X59782023Y-71855953D01*
X59802555Y-71700000D01*
X59782023Y-71544047D01*
X59721828Y-71398723D01*
X59626071Y-71273929D01*
X59615677Y-71265953D01*
X59563701Y-71226071D01*
X59501278Y-71178172D01*
X59355953Y-71117977D01*
X59200000Y-71097445D01*
X59044047Y-71117977D01*
X58898723Y-71178172D01*
X58773929Y-71273929D01*
X58678172Y-71398723D01*
X58617977Y-71544047D01*
X58597445Y-71700000D01*
X49526648Y-71700000D01*
X49538954Y-71648742D01*
X49538955Y-71648736D01*
X49540109Y-71643929D01*
X49559307Y-71400000D01*
X49540109Y-71156071D01*
X49531723Y-71121138D01*
X49484144Y-70922960D01*
X49482989Y-70918148D01*
X49481095Y-70913575D01*
X49434051Y-70800000D01*
X54697445Y-70800000D01*
X54717977Y-70955953D01*
X54778172Y-71101277D01*
X54873929Y-71226071D01*
X54998722Y-71321828D01*
X55144047Y-71382023D01*
X55300000Y-71402555D01*
X55455953Y-71382023D01*
X55601278Y-71321828D01*
X55726071Y-71226071D01*
X55821828Y-71101277D01*
X55882023Y-70955953D01*
X55902555Y-70800000D01*
X55882023Y-70644047D01*
X55821828Y-70498723D01*
X55726071Y-70373929D01*
X55715243Y-70365620D01*
X55607829Y-70283199D01*
X55601278Y-70278172D01*
X55455953Y-70217977D01*
X55300000Y-70197445D01*
X55144047Y-70217977D01*
X54998723Y-70278172D01*
X54873929Y-70373929D01*
X54778172Y-70498723D01*
X54717977Y-70644047D01*
X54697445Y-70800000D01*
X49434051Y-70800000D01*
X49391248Y-70696663D01*
X49391246Y-70696659D01*
X49389353Y-70692089D01*
X49261506Y-70483462D01*
X49102597Y-70297403D01*
X48916538Y-70138494D01*
X48707911Y-70010647D01*
X48703341Y-70008754D01*
X48703337Y-70008752D01*
X48486425Y-69918905D01*
X48486423Y-69918904D01*
X48481852Y-69917011D01*
X48399548Y-69897252D01*
X48248742Y-69861046D01*
X48248736Y-69861045D01*
X48243929Y-69859891D01*
X48000000Y-69840693D01*
X47756071Y-69859891D01*
X47751264Y-69861045D01*
X47751258Y-69861046D01*
X47600452Y-69897252D01*
X47518148Y-69917011D01*
X47513577Y-69918904D01*
X47513575Y-69918905D01*
X47296663Y-70008752D01*
X47296659Y-70008754D01*
X47292089Y-70010647D01*
X47083462Y-70138494D01*
X46897403Y-70297403D01*
X46738494Y-70483462D01*
X46610647Y-70692089D01*
X46608754Y-70696659D01*
X46608752Y-70696663D01*
X46518905Y-70913575D01*
X46517011Y-70918148D01*
X46515856Y-70922960D01*
X46468278Y-71121138D01*
X46459891Y-71156071D01*
X46440693Y-71400000D01*
X45754500Y-71400000D01*
X45754500Y-69400000D01*
X61090708Y-69400000D01*
X61109839Y-69618674D01*
X61166653Y-69830703D01*
X61180802Y-69861046D01*
X61257095Y-70024659D01*
X61257098Y-70024664D01*
X61259421Y-70029646D01*
X61262577Y-70034153D01*
X61262578Y-70034155D01*
X61382164Y-70204941D01*
X61385326Y-70209457D01*
X61540543Y-70364674D01*
X61545051Y-70367831D01*
X61545054Y-70367833D01*
X61704813Y-70479697D01*
X61720354Y-70490579D01*
X61725336Y-70492902D01*
X61725341Y-70492905D01*
X61826116Y-70539896D01*
X61919297Y-70583347D01*
X62131326Y-70640161D01*
X62350000Y-70659292D01*
X62568674Y-70640161D01*
X62780703Y-70583347D01*
X62873884Y-70539896D01*
X62974659Y-70492905D01*
X62974664Y-70492902D01*
X62979646Y-70490579D01*
X62995187Y-70479697D01*
X63154946Y-70367833D01*
X63154949Y-70367831D01*
X63159457Y-70364674D01*
X63314674Y-70209457D01*
X63317833Y-70204946D01*
X63317837Y-70204941D01*
X63403555Y-70082522D01*
X63459012Y-70038193D01*
X63529631Y-70030884D01*
X63592992Y-70062914D01*
X63626292Y-70114916D01*
X63662097Y-70222237D01*
X63754678Y-70371846D01*
X63879194Y-70496144D01*
X64028964Y-70588464D01*
X64035912Y-70590769D01*
X64035913Y-70590769D01*
X64189424Y-70641687D01*
X64189426Y-70641687D01*
X64195955Y-70643853D01*
X64299872Y-70654500D01*
X65400128Y-70654500D01*
X65403374Y-70654163D01*
X65403378Y-70654163D01*
X65498485Y-70644295D01*
X65498489Y-70644294D01*
X65505343Y-70643583D01*
X65511879Y-70641402D01*
X65511881Y-70641402D01*
X65650257Y-70595236D01*
X65672237Y-70587903D01*
X65804020Y-70506353D01*
X65815620Y-70499175D01*
X65815621Y-70499174D01*
X65821846Y-70495322D01*
X65946144Y-70370806D01*
X66038464Y-70221036D01*
X66084408Y-70082522D01*
X66091687Y-70060576D01*
X66091687Y-70060574D01*
X66093853Y-70054045D01*
X66104500Y-69950128D01*
X66104500Y-68849872D01*
X66096767Y-68775341D01*
X66094295Y-68751515D01*
X66094294Y-68751511D01*
X66093583Y-68744657D01*
X66082631Y-68711828D01*
X66040221Y-68584711D01*
X66037903Y-68577763D01*
X65945322Y-68428154D01*
X65820806Y-68303856D01*
X65671036Y-68211536D01*
X65664087Y-68209231D01*
X65510576Y-68158313D01*
X65510574Y-68158313D01*
X65504045Y-68156147D01*
X65400128Y-68145500D01*
X64299872Y-68145500D01*
X64296626Y-68145837D01*
X64296622Y-68145837D01*
X64201515Y-68155705D01*
X64201511Y-68155706D01*
X64194657Y-68156417D01*
X64188121Y-68158598D01*
X64188119Y-68158598D01*
X64049743Y-68204764D01*
X64027763Y-68212097D01*
X63970747Y-68247380D01*
X63885688Y-68300016D01*
X63878154Y-68304678D01*
X63753856Y-68429194D01*
X63661536Y-68578964D01*
X63659231Y-68585912D01*
X63659231Y-68585913D01*
X63626392Y-68684919D01*
X63585961Y-68743278D01*
X63520397Y-68770515D01*
X63450515Y-68757981D01*
X63403586Y-68717522D01*
X63317833Y-68595054D01*
X63317831Y-68595051D01*
X63314674Y-68590543D01*
X63159457Y-68435326D01*
X63154949Y-68432169D01*
X63154946Y-68432167D01*
X62984155Y-68312578D01*
X62984153Y-68312577D01*
X62979646Y-68309421D01*
X62974664Y-68307098D01*
X62974659Y-68307095D01*
X62873884Y-68260104D01*
X62780703Y-68216653D01*
X62568674Y-68159839D01*
X62350000Y-68140708D01*
X62131326Y-68159839D01*
X61919297Y-68216653D01*
X61826116Y-68260104D01*
X61725341Y-68307095D01*
X61725336Y-68307098D01*
X61720354Y-68309421D01*
X61715847Y-68312577D01*
X61715845Y-68312578D01*
X61545054Y-68432167D01*
X61545051Y-68432169D01*
X61540543Y-68435326D01*
X61385326Y-68590543D01*
X61382169Y-68595051D01*
X61382167Y-68595054D01*
X61262578Y-68765845D01*
X61259421Y-68770354D01*
X61257098Y-68775336D01*
X61257095Y-68775341D01*
X61223857Y-68846622D01*
X61166653Y-68969297D01*
X61109839Y-69181326D01*
X61090708Y-69400000D01*
X45754500Y-69400000D01*
X45754500Y-68190000D01*
X56367445Y-68190000D01*
X56387977Y-68345953D01*
X56448172Y-68491277D01*
X56543929Y-68616071D01*
X56668722Y-68711828D01*
X56814047Y-68772023D01*
X56970000Y-68792555D01*
X57125953Y-68772023D01*
X57271278Y-68711828D01*
X57396071Y-68616071D01*
X57491828Y-68491277D01*
X57552023Y-68345953D01*
X57572555Y-68190000D01*
X57552023Y-68034047D01*
X57491828Y-67888723D01*
X57396071Y-67763929D01*
X57271278Y-67668172D01*
X57125953Y-67607977D01*
X56970000Y-67587445D01*
X56814047Y-67607977D01*
X56668723Y-67668172D01*
X56543929Y-67763929D01*
X56448172Y-67888723D01*
X56387977Y-68034047D01*
X56367445Y-68190000D01*
X45754500Y-68190000D01*
X45754500Y-67160000D01*
X54527445Y-67160000D01*
X54547977Y-67315953D01*
X54608172Y-67461277D01*
X54703929Y-67586071D01*
X54828722Y-67681828D01*
X54974047Y-67742023D01*
X55130000Y-67762555D01*
X55285953Y-67742023D01*
X55431278Y-67681828D01*
X55556071Y-67586071D01*
X55651828Y-67461277D01*
X55712023Y-67315953D01*
X55732555Y-67160000D01*
X55712023Y-67004047D01*
X55651828Y-66858723D01*
X55556071Y-66733929D01*
X55431278Y-66638172D01*
X55285953Y-66577977D01*
X55130000Y-66557445D01*
X54974047Y-66577977D01*
X54828723Y-66638172D01*
X54703929Y-66733929D01*
X54608172Y-66858723D01*
X54547977Y-67004047D01*
X54527445Y-67160000D01*
X45754500Y-67160000D01*
X45754500Y-64800000D01*
X47847445Y-64800000D01*
X47867977Y-64955953D01*
X47928172Y-65101277D01*
X48023929Y-65226071D01*
X48148722Y-65321828D01*
X48294047Y-65382023D01*
X48450000Y-65402555D01*
X48605953Y-65382023D01*
X48751278Y-65321828D01*
X48876071Y-65226071D01*
X48915310Y-65174933D01*
X53145500Y-65174933D01*
X53145501Y-66225066D01*
X53160266Y-66299301D01*
X53167161Y-66309620D01*
X53167162Y-66309622D01*
X53182273Y-66332236D01*
X53216516Y-66383484D01*
X53300699Y-66439734D01*
X53374933Y-66454500D01*
X53899915Y-66454500D01*
X54425066Y-66454499D01*
X54460818Y-66447388D01*
X54487126Y-66442156D01*
X54487128Y-66442155D01*
X54499301Y-66439734D01*
X54509621Y-66432839D01*
X54509622Y-66432838D01*
X54573168Y-66390377D01*
X54583484Y-66383484D01*
X54639734Y-66299301D01*
X54654500Y-66225067D01*
X54654500Y-66090000D01*
X56337445Y-66090000D01*
X56357977Y-66245953D01*
X56418172Y-66391277D01*
X56513929Y-66516071D01*
X56638722Y-66611828D01*
X56784047Y-66672023D01*
X56940000Y-66692555D01*
X57095953Y-66672023D01*
X57241278Y-66611828D01*
X57366071Y-66516071D01*
X57393749Y-66480000D01*
X66777445Y-66480000D01*
X66797977Y-66635953D01*
X66858172Y-66781277D01*
X66953929Y-66906071D01*
X67078722Y-67001828D01*
X67224047Y-67062023D01*
X67380000Y-67082555D01*
X67535953Y-67062023D01*
X67681278Y-67001828D01*
X67806071Y-66906071D01*
X67829964Y-66874933D01*
X68645500Y-66874933D01*
X68645501Y-67925066D01*
X68660266Y-67999301D01*
X68667161Y-68009620D01*
X68667162Y-68009622D01*
X68707516Y-68070015D01*
X68716516Y-68083484D01*
X68800699Y-68139734D01*
X68874933Y-68154500D01*
X69399915Y-68154500D01*
X69925066Y-68154499D01*
X69968662Y-68145828D01*
X69987126Y-68142156D01*
X69987128Y-68142155D01*
X69999301Y-68139734D01*
X70009621Y-68132839D01*
X70009622Y-68132838D01*
X70073168Y-68090377D01*
X70083484Y-68083484D01*
X70139734Y-67999301D01*
X70154500Y-67925067D01*
X70154499Y-66874934D01*
X70139734Y-66800699D01*
X70126757Y-66781277D01*
X70090377Y-66726832D01*
X70083484Y-66716516D01*
X69999301Y-66660266D01*
X69925067Y-66645500D01*
X69400085Y-66645500D01*
X68874934Y-66645501D01*
X68839182Y-66652612D01*
X68812874Y-66657844D01*
X68812872Y-66657845D01*
X68800699Y-66660266D01*
X68790379Y-66667161D01*
X68790378Y-66667162D01*
X68781490Y-66673101D01*
X68716516Y-66716516D01*
X68660266Y-66800699D01*
X68645500Y-66874933D01*
X67829964Y-66874933D01*
X67901828Y-66781277D01*
X67962023Y-66635953D01*
X67982555Y-66480000D01*
X67962023Y-66324047D01*
X67901828Y-66178723D01*
X67806071Y-66053929D01*
X67681278Y-65958172D01*
X67535953Y-65897977D01*
X67380000Y-65877445D01*
X67224047Y-65897977D01*
X67078723Y-65958172D01*
X66953929Y-66053929D01*
X66858172Y-66178723D01*
X66797977Y-66324047D01*
X66777445Y-66480000D01*
X57393749Y-66480000D01*
X57461828Y-66391277D01*
X57522023Y-66245953D01*
X57542555Y-66090000D01*
X57522023Y-65934047D01*
X57466499Y-65800000D01*
X61797445Y-65800000D01*
X61817977Y-65955953D01*
X61878172Y-66101277D01*
X61973929Y-66226071D01*
X61980475Y-66231094D01*
X61980531Y-66231137D01*
X62098722Y-66321828D01*
X62244047Y-66382023D01*
X62400000Y-66402555D01*
X62555953Y-66382023D01*
X62701278Y-66321828D01*
X62819469Y-66231137D01*
X62819525Y-66231094D01*
X62826071Y-66226071D01*
X62921828Y-66101277D01*
X62982023Y-65955953D01*
X63002555Y-65800000D01*
X62982023Y-65644047D01*
X62921828Y-65498723D01*
X62826071Y-65373929D01*
X62701278Y-65278172D01*
X62555953Y-65217977D01*
X62400000Y-65197445D01*
X62244047Y-65217977D01*
X62098723Y-65278172D01*
X61973929Y-65373929D01*
X61878172Y-65498723D01*
X61817977Y-65644047D01*
X61797445Y-65800000D01*
X57466499Y-65800000D01*
X57461828Y-65788723D01*
X57366071Y-65663929D01*
X57241278Y-65568172D01*
X57095953Y-65507977D01*
X56940000Y-65487445D01*
X56784047Y-65507977D01*
X56638723Y-65568172D01*
X56513929Y-65663929D01*
X56418172Y-65788723D01*
X56357977Y-65934047D01*
X56337445Y-66090000D01*
X54654500Y-66090000D01*
X54654499Y-65174934D01*
X54639734Y-65100699D01*
X54583484Y-65016516D01*
X54573168Y-65009623D01*
X54573166Y-65009621D01*
X54531497Y-64981779D01*
X54485969Y-64927303D01*
X54477120Y-64856860D01*
X54507761Y-64792815D01*
X54513887Y-64787146D01*
X54513680Y-64786939D01*
X54519525Y-64781094D01*
X54526071Y-64776071D01*
X54621828Y-64651277D01*
X54682023Y-64505953D01*
X54702555Y-64350000D01*
X54682023Y-64194047D01*
X54621828Y-64048723D01*
X54526071Y-63923929D01*
X54507918Y-63910000D01*
X62007445Y-63910000D01*
X62027977Y-64065953D01*
X62088172Y-64211277D01*
X62183929Y-64336071D01*
X62308722Y-64431828D01*
X62454047Y-64492023D01*
X62610000Y-64512555D01*
X62765953Y-64492023D01*
X62911278Y-64431828D01*
X62912878Y-64430600D01*
X70597445Y-64430600D01*
X70617977Y-64586553D01*
X70678172Y-64731877D01*
X70773929Y-64856671D01*
X70898722Y-64952428D01*
X71044047Y-65012623D01*
X71200000Y-65033155D01*
X71355953Y-65012623D01*
X71501278Y-64952428D01*
X71626071Y-64856671D01*
X71721828Y-64731877D01*
X71782023Y-64586553D01*
X71802555Y-64430600D01*
X71782023Y-64274647D01*
X71721828Y-64129323D01*
X71626071Y-64004529D01*
X71501278Y-63908772D01*
X71355953Y-63848577D01*
X71200000Y-63828045D01*
X71044047Y-63848577D01*
X70898723Y-63908772D01*
X70773929Y-64004529D01*
X70678172Y-64129323D01*
X70617977Y-64274647D01*
X70597445Y-64430600D01*
X62912878Y-64430600D01*
X63036071Y-64336071D01*
X63131828Y-64211277D01*
X63192023Y-64065953D01*
X63212555Y-63910000D01*
X63192023Y-63754047D01*
X63131828Y-63608723D01*
X63036071Y-63483929D01*
X62911278Y-63388172D01*
X62765953Y-63327977D01*
X62610000Y-63307445D01*
X62454047Y-63327977D01*
X62308723Y-63388172D01*
X62183929Y-63483929D01*
X62088172Y-63608723D01*
X62027977Y-63754047D01*
X62007445Y-63910000D01*
X54507918Y-63910000D01*
X54401278Y-63828172D01*
X54255953Y-63767977D01*
X54100000Y-63747445D01*
X53944047Y-63767977D01*
X53798723Y-63828172D01*
X53673929Y-63923929D01*
X53578172Y-64048723D01*
X53517977Y-64194047D01*
X53497445Y-64350000D01*
X53517977Y-64505953D01*
X53578172Y-64651277D01*
X53583199Y-64657828D01*
X53583201Y-64657832D01*
X53648397Y-64742798D01*
X53673997Y-64809018D01*
X53659732Y-64878567D01*
X53610130Y-64929362D01*
X53548435Y-64945501D01*
X53374934Y-64945501D01*
X53340107Y-64952428D01*
X53312874Y-64957844D01*
X53312872Y-64957845D01*
X53300699Y-64960266D01*
X53290379Y-64967161D01*
X53290378Y-64967162D01*
X53249230Y-64994657D01*
X53216516Y-65016516D01*
X53160266Y-65100699D01*
X53145500Y-65174933D01*
X48915310Y-65174933D01*
X48971828Y-65101277D01*
X49032023Y-64955953D01*
X49052555Y-64800000D01*
X49032023Y-64644047D01*
X48971828Y-64498723D01*
X48876071Y-64373929D01*
X48751278Y-64278172D01*
X48605953Y-64217977D01*
X48450000Y-64197445D01*
X48294047Y-64217977D01*
X48148723Y-64278172D01*
X48023929Y-64373929D01*
X47928172Y-64498723D01*
X47867977Y-64644047D01*
X47847445Y-64800000D01*
X45754500Y-64800000D01*
X45754500Y-62375926D01*
X45774502Y-62307805D01*
X45828158Y-62261312D01*
X45898432Y-62251208D01*
X45963012Y-62280702D01*
X46000024Y-62336050D01*
X46012097Y-62372237D01*
X46015953Y-62378468D01*
X46092281Y-62501812D01*
X46104678Y-62521846D01*
X46229194Y-62646144D01*
X46378964Y-62738464D01*
X46385912Y-62740769D01*
X46385913Y-62740769D01*
X46539424Y-62791687D01*
X46539426Y-62791687D01*
X46545955Y-62793853D01*
X46649872Y-62804500D01*
X47750128Y-62804500D01*
X47753374Y-62804163D01*
X47753378Y-62804163D01*
X47848485Y-62794295D01*
X47848489Y-62794294D01*
X47855343Y-62793583D01*
X47861879Y-62791402D01*
X47861881Y-62791402D01*
X48000257Y-62745236D01*
X48022237Y-62737903D01*
X48151740Y-62657764D01*
X48165620Y-62649175D01*
X48165621Y-62649174D01*
X48171846Y-62645322D01*
X48296144Y-62520806D01*
X48302805Y-62510000D01*
X56397445Y-62510000D01*
X56417977Y-62665953D01*
X56478172Y-62811277D01*
X56573929Y-62936071D01*
X56698722Y-63031828D01*
X56844047Y-63092023D01*
X57000000Y-63112555D01*
X57155953Y-63092023D01*
X57301278Y-63031828D01*
X57426071Y-62936071D01*
X57521828Y-62811277D01*
X57582023Y-62665953D01*
X57602555Y-62510000D01*
X57582023Y-62354047D01*
X57521828Y-62208723D01*
X57426071Y-62083929D01*
X57301278Y-61988172D01*
X57155953Y-61927977D01*
X57000000Y-61907445D01*
X56844047Y-61927977D01*
X56698723Y-61988172D01*
X56573929Y-62083929D01*
X56478172Y-62208723D01*
X56417977Y-62354047D01*
X56397445Y-62510000D01*
X48302805Y-62510000D01*
X48388464Y-62371036D01*
X48399871Y-62336646D01*
X48441687Y-62210576D01*
X48441687Y-62210574D01*
X48443853Y-62204045D01*
X48454500Y-62100128D01*
X48454500Y-61674933D01*
X59145500Y-61674933D01*
X59145501Y-62725066D01*
X59160266Y-62799301D01*
X59167161Y-62809620D01*
X59167162Y-62809622D01*
X59207516Y-62870015D01*
X59216516Y-62883484D01*
X59300699Y-62939734D01*
X59374933Y-62954500D01*
X59899915Y-62954500D01*
X60425066Y-62954499D01*
X60460818Y-62947388D01*
X60487126Y-62942156D01*
X60487128Y-62942155D01*
X60499301Y-62939734D01*
X60509621Y-62932839D01*
X60509622Y-62932838D01*
X60573168Y-62890377D01*
X60583484Y-62883484D01*
X60609309Y-62844835D01*
X60632839Y-62809620D01*
X60639734Y-62799301D01*
X60654500Y-62725067D01*
X60654499Y-61674934D01*
X60639734Y-61600699D01*
X60583484Y-61516516D01*
X60499301Y-61460266D01*
X60425067Y-61445500D01*
X59900085Y-61445500D01*
X59374934Y-61445501D01*
X59339182Y-61452612D01*
X59312874Y-61457844D01*
X59312872Y-61457845D01*
X59300699Y-61460266D01*
X59290379Y-61467161D01*
X59290378Y-61467162D01*
X59229985Y-61507516D01*
X59216516Y-61516516D01*
X59160266Y-61600699D01*
X59145500Y-61674933D01*
X48454500Y-61674933D01*
X48454500Y-60999872D01*
X48453963Y-60994693D01*
X48444295Y-60901515D01*
X48444294Y-60901511D01*
X48443583Y-60894657D01*
X48435703Y-60871036D01*
X48390221Y-60734711D01*
X48387903Y-60727763D01*
X48295322Y-60578154D01*
X48170806Y-60453856D01*
X48021036Y-60361536D01*
X47990107Y-60351277D01*
X47915081Y-60326392D01*
X47856722Y-60285961D01*
X47829485Y-60220397D01*
X47842019Y-60150515D01*
X47882478Y-60103586D01*
X48004946Y-60017833D01*
X48004949Y-60017831D01*
X48009457Y-60014674D01*
X48164674Y-59859457D01*
X48188810Y-59824988D01*
X48287422Y-59684155D01*
X48287423Y-59684153D01*
X48290579Y-59679646D01*
X48292902Y-59674664D01*
X48292905Y-59674659D01*
X48358868Y-59533199D01*
X48383347Y-59480703D01*
X48431767Y-59300000D01*
X58587445Y-59300000D01*
X58607977Y-59455953D01*
X58668172Y-59601277D01*
X58763929Y-59726071D01*
X58888722Y-59821828D01*
X59034047Y-59882023D01*
X59190000Y-59902555D01*
X59345953Y-59882023D01*
X59491278Y-59821828D01*
X59616071Y-59726071D01*
X59711828Y-59601277D01*
X59741352Y-59530000D01*
X62547445Y-59530000D01*
X62567977Y-59685953D01*
X62628172Y-59831277D01*
X62723929Y-59956071D01*
X62848722Y-60051828D01*
X62994047Y-60112023D01*
X63150000Y-60132555D01*
X63305953Y-60112023D01*
X63451278Y-60051828D01*
X63576071Y-59956071D01*
X63671828Y-59831277D01*
X63717920Y-59720000D01*
X64967445Y-59720000D01*
X64987977Y-59875953D01*
X65048172Y-60021277D01*
X65143929Y-60146071D01*
X65268722Y-60241828D01*
X65414047Y-60302023D01*
X65570000Y-60322555D01*
X65725953Y-60302023D01*
X65871278Y-60241828D01*
X65996071Y-60146071D01*
X66069788Y-60050000D01*
X67197445Y-60050000D01*
X67217977Y-60205953D01*
X67278172Y-60351277D01*
X67373929Y-60476071D01*
X67498722Y-60571828D01*
X67644047Y-60632023D01*
X67800000Y-60652555D01*
X67955953Y-60632023D01*
X68101278Y-60571828D01*
X68226071Y-60476071D01*
X68321828Y-60351277D01*
X68382023Y-60205953D01*
X68402555Y-60050000D01*
X68382023Y-59894047D01*
X68321828Y-59748723D01*
X68226071Y-59623929D01*
X68101278Y-59528172D01*
X67955953Y-59467977D01*
X67800000Y-59447445D01*
X67644047Y-59467977D01*
X67498723Y-59528172D01*
X67373929Y-59623929D01*
X67278172Y-59748723D01*
X67217977Y-59894047D01*
X67197445Y-60050000D01*
X66069788Y-60050000D01*
X66091828Y-60021277D01*
X66152023Y-59875953D01*
X66172555Y-59720000D01*
X66152023Y-59564047D01*
X66091828Y-59418723D01*
X65996071Y-59293929D01*
X65871278Y-59198172D01*
X65725953Y-59137977D01*
X65570000Y-59117445D01*
X65414047Y-59137977D01*
X65268723Y-59198172D01*
X65143929Y-59293929D01*
X65048172Y-59418723D01*
X64987977Y-59564047D01*
X64967445Y-59720000D01*
X63717920Y-59720000D01*
X63732023Y-59685953D01*
X63752555Y-59530000D01*
X63732023Y-59374047D01*
X63671828Y-59228723D01*
X63576071Y-59103929D01*
X63451278Y-59008172D01*
X63305953Y-58947977D01*
X63150000Y-58927445D01*
X62994047Y-58947977D01*
X62848723Y-59008172D01*
X62723929Y-59103929D01*
X62628172Y-59228723D01*
X62567977Y-59374047D01*
X62547445Y-59530000D01*
X59741352Y-59530000D01*
X59772023Y-59455953D01*
X59792555Y-59300000D01*
X59772023Y-59144047D01*
X59711828Y-58998723D01*
X59616071Y-58873929D01*
X59605677Y-58865953D01*
X59560550Y-58831326D01*
X59491278Y-58778172D01*
X59345953Y-58717977D01*
X59190000Y-58697445D01*
X59034047Y-58717977D01*
X58888723Y-58778172D01*
X58763929Y-58873929D01*
X58668172Y-58998723D01*
X58607977Y-59144047D01*
X58587445Y-59300000D01*
X48431767Y-59300000D01*
X48440161Y-59268674D01*
X48459292Y-59050000D01*
X48440161Y-58831326D01*
X48383347Y-58619297D01*
X48332744Y-58510777D01*
X48292905Y-58425341D01*
X48292902Y-58425336D01*
X48290579Y-58420354D01*
X48250667Y-58363354D01*
X48167833Y-58245054D01*
X48167831Y-58245051D01*
X48164674Y-58240543D01*
X48009457Y-58085326D01*
X48004949Y-58082169D01*
X48004946Y-58082167D01*
X47834155Y-57962578D01*
X47834153Y-57962577D01*
X47829646Y-57959421D01*
X47824664Y-57957098D01*
X47824659Y-57957095D01*
X47723884Y-57910104D01*
X47630703Y-57866653D01*
X47418674Y-57809839D01*
X47200000Y-57790708D01*
X46981326Y-57809839D01*
X46769297Y-57866653D01*
X46676116Y-57910104D01*
X46575341Y-57957095D01*
X46575336Y-57957098D01*
X46570354Y-57959421D01*
X46565847Y-57962577D01*
X46565845Y-57962578D01*
X46395054Y-58082167D01*
X46395051Y-58082169D01*
X46390543Y-58085326D01*
X46235326Y-58240543D01*
X46232169Y-58245051D01*
X46232167Y-58245054D01*
X46149333Y-58363354D01*
X46109421Y-58420354D01*
X46107098Y-58425336D01*
X46107095Y-58425341D01*
X46067256Y-58510777D01*
X46016653Y-58619297D01*
X46015230Y-58624608D01*
X46015226Y-58624619D01*
X46002206Y-58673209D01*
X45965255Y-58733831D01*
X45901394Y-58764853D01*
X45830899Y-58756424D01*
X45776153Y-58711220D01*
X45754500Y-58640597D01*
X45754500Y-55605500D01*
X45774502Y-55537379D01*
X45828158Y-55490886D01*
X45880500Y-55479500D01*
X46330516Y-55479500D01*
X46333888Y-55479204D01*
X46334000Y-55479227D01*
X46336009Y-55479139D01*
X46336031Y-55479634D01*
X46403495Y-55493172D01*
X46454502Y-55542556D01*
X46467424Y-55575307D01*
X46517011Y-55781852D01*
X46518904Y-55786423D01*
X46518905Y-55786425D01*
X46555567Y-55874934D01*
X46610647Y-56007911D01*
X46738494Y-56216538D01*
X46897403Y-56402597D01*
X47083462Y-56561506D01*
X47292089Y-56689353D01*
X47296659Y-56691246D01*
X47296663Y-56691248D01*
X47513575Y-56781095D01*
X47518148Y-56782989D01*
X47554899Y-56791812D01*
X47751258Y-56838954D01*
X47751264Y-56838955D01*
X47756071Y-56840109D01*
X48000000Y-56859307D01*
X48243929Y-56840109D01*
X48248736Y-56838955D01*
X48248742Y-56838954D01*
X48445101Y-56791812D01*
X48481852Y-56782989D01*
X48486425Y-56781095D01*
X48703337Y-56691248D01*
X48703341Y-56691246D01*
X48707911Y-56689353D01*
X48916538Y-56561506D01*
X49102597Y-56402597D01*
X49261506Y-56216538D01*
X49389353Y-56007911D01*
X49444434Y-55874934D01*
X49444434Y-55874933D01*
X60595500Y-55874933D01*
X60595501Y-56925066D01*
X60610266Y-56999301D01*
X60617161Y-57009620D01*
X60617162Y-57009622D01*
X60626370Y-57023402D01*
X60666516Y-57083484D01*
X60750699Y-57139734D01*
X60824933Y-57154500D01*
X61349915Y-57154500D01*
X61875066Y-57154499D01*
X61910818Y-57147388D01*
X61937126Y-57142156D01*
X61937128Y-57142155D01*
X61949301Y-57139734D01*
X61959621Y-57132839D01*
X61959622Y-57132838D01*
X62023168Y-57090377D01*
X62033484Y-57083484D01*
X62089734Y-56999301D01*
X62104500Y-56925067D01*
X62104500Y-56800000D01*
X67097445Y-56800000D01*
X67117977Y-56955953D01*
X67178172Y-57101277D01*
X67273929Y-57226071D01*
X67398722Y-57321828D01*
X67544047Y-57382023D01*
X67700000Y-57402555D01*
X67855953Y-57382023D01*
X68001278Y-57321828D01*
X68126071Y-57226071D01*
X68221828Y-57101277D01*
X68282023Y-56955953D01*
X68302555Y-56800000D01*
X68282023Y-56644047D01*
X68221828Y-56498723D01*
X68126071Y-56373929D01*
X68001278Y-56278172D01*
X67855953Y-56217977D01*
X67700000Y-56197445D01*
X67544047Y-56217977D01*
X67398723Y-56278172D01*
X67273929Y-56373929D01*
X67178172Y-56498723D01*
X67117977Y-56644047D01*
X67097445Y-56800000D01*
X62104500Y-56800000D01*
X62104499Y-55874934D01*
X62089734Y-55800699D01*
X62080197Y-55786425D01*
X62040377Y-55726832D01*
X62033484Y-55716516D01*
X61949301Y-55660266D01*
X61875067Y-55645500D01*
X61350085Y-55645500D01*
X60824934Y-55645501D01*
X60789182Y-55652612D01*
X60762874Y-55657844D01*
X60762872Y-55657845D01*
X60750699Y-55660266D01*
X60740379Y-55667161D01*
X60740378Y-55667162D01*
X60679985Y-55707516D01*
X60666516Y-55716516D01*
X60610266Y-55800699D01*
X60595500Y-55874933D01*
X49444434Y-55874933D01*
X49481095Y-55786425D01*
X49481096Y-55786423D01*
X49482989Y-55781852D01*
X49532635Y-55575061D01*
X49567987Y-55513492D01*
X49631014Y-55480809D01*
X49664144Y-55478796D01*
X49665026Y-55478859D01*
X49669484Y-55479500D01*
X54524000Y-55479500D01*
X54527346Y-55479140D01*
X54527351Y-55479140D01*
X54575795Y-55473932D01*
X54575801Y-55473931D01*
X54579159Y-55473570D01*
X54631501Y-55462184D01*
X54658291Y-55454834D01*
X54665142Y-55450933D01*
X54665144Y-55450932D01*
X54740899Y-55407794D01*
X54746278Y-55404731D01*
X54768030Y-55385883D01*
X54797811Y-55360078D01*
X54797816Y-55360073D01*
X54799934Y-55358238D01*
X54832056Y-55324949D01*
X54878987Y-55235230D01*
X54898989Y-55167109D01*
X54909500Y-55094000D01*
X54909500Y-53900000D01*
X59097445Y-53900000D01*
X59117977Y-54055953D01*
X59178172Y-54201277D01*
X59273929Y-54326071D01*
X59398722Y-54421828D01*
X59544047Y-54482023D01*
X59700000Y-54502555D01*
X59855953Y-54482023D01*
X60001278Y-54421828D01*
X60126071Y-54326071D01*
X60146076Y-54300000D01*
X68397445Y-54300000D01*
X68417977Y-54455953D01*
X68478172Y-54601277D01*
X68573929Y-54726071D01*
X68698722Y-54821828D01*
X68844047Y-54882023D01*
X69000000Y-54902555D01*
X69155953Y-54882023D01*
X69301278Y-54821828D01*
X69329725Y-54800000D01*
X72397445Y-54800000D01*
X72417977Y-54955953D01*
X72478172Y-55101277D01*
X72573929Y-55226071D01*
X72698722Y-55321828D01*
X72844047Y-55382023D01*
X73000000Y-55402555D01*
X73155953Y-55382023D01*
X73301278Y-55321828D01*
X73426071Y-55226071D01*
X73521828Y-55101277D01*
X73582023Y-54955953D01*
X73602555Y-54800000D01*
X73582023Y-54644047D01*
X73521828Y-54498723D01*
X73426071Y-54373929D01*
X73301278Y-54278172D01*
X73155953Y-54217977D01*
X73000000Y-54197445D01*
X72844047Y-54217977D01*
X72698723Y-54278172D01*
X72573929Y-54373929D01*
X72478172Y-54498723D01*
X72417977Y-54644047D01*
X72397445Y-54800000D01*
X69329725Y-54800000D01*
X69426071Y-54726071D01*
X69521828Y-54601277D01*
X69582023Y-54455953D01*
X69602555Y-54300000D01*
X69582023Y-54144047D01*
X69521828Y-53998723D01*
X69426071Y-53873929D01*
X69301278Y-53778172D01*
X69155953Y-53717977D01*
X69000000Y-53697445D01*
X68844047Y-53717977D01*
X68698723Y-53778172D01*
X68573929Y-53873929D01*
X68478172Y-53998723D01*
X68417977Y-54144047D01*
X68397445Y-54300000D01*
X60146076Y-54300000D01*
X60221828Y-54201277D01*
X60282023Y-54055953D01*
X60302555Y-53900000D01*
X60282023Y-53744047D01*
X60221828Y-53598723D01*
X60126071Y-53473929D01*
X60001278Y-53378172D01*
X59855953Y-53317977D01*
X59700000Y-53297445D01*
X59544047Y-53317977D01*
X59398723Y-53378172D01*
X59273929Y-53473929D01*
X59178172Y-53598723D01*
X59117977Y-53744047D01*
X59097445Y-53900000D01*
X54909500Y-53900000D01*
X54909500Y-52600000D01*
X71997445Y-52600000D01*
X72017977Y-52755953D01*
X72078172Y-52901277D01*
X72173929Y-53026071D01*
X72298722Y-53121828D01*
X72444047Y-53182023D01*
X72600000Y-53202555D01*
X72755953Y-53182023D01*
X72901278Y-53121828D01*
X73026071Y-53026071D01*
X73121828Y-52901277D01*
X73182023Y-52755953D01*
X73202555Y-52600000D01*
X73182023Y-52444047D01*
X73121828Y-52298723D01*
X73026071Y-52173929D01*
X72901278Y-52078172D01*
X72755953Y-52017977D01*
X72600000Y-51997445D01*
X72444047Y-52017977D01*
X72298723Y-52078172D01*
X72173929Y-52173929D01*
X72078172Y-52298723D01*
X72017977Y-52444047D01*
X71997445Y-52600000D01*
X54909500Y-52600000D01*
X54909500Y-51174933D01*
X57685500Y-51174933D01*
X57685501Y-52225066D01*
X57700266Y-52299301D01*
X57756516Y-52383484D01*
X57840699Y-52439734D01*
X57914933Y-52454500D01*
X58439915Y-52454500D01*
X58965066Y-52454499D01*
X59000818Y-52447388D01*
X59027126Y-52442156D01*
X59027128Y-52442155D01*
X59039301Y-52439734D01*
X59049621Y-52432839D01*
X59049622Y-52432838D01*
X59113168Y-52390377D01*
X59123484Y-52383484D01*
X59179734Y-52299301D01*
X59194500Y-52225067D01*
X59194499Y-51174934D01*
X59179734Y-51100699D01*
X59179267Y-51100000D01*
X67797445Y-51100000D01*
X67817977Y-51255953D01*
X67878172Y-51401277D01*
X67973929Y-51526071D01*
X68098722Y-51621828D01*
X68244047Y-51682023D01*
X68400000Y-51702555D01*
X68555953Y-51682023D01*
X68701278Y-51621828D01*
X68826071Y-51526071D01*
X68921828Y-51401277D01*
X68982023Y-51255953D01*
X69002555Y-51100000D01*
X68982023Y-50944047D01*
X68921828Y-50798723D01*
X68826071Y-50673929D01*
X68701278Y-50578172D01*
X68555953Y-50517977D01*
X68400000Y-50497445D01*
X68244047Y-50517977D01*
X68098723Y-50578172D01*
X67973929Y-50673929D01*
X67878172Y-50798723D01*
X67817977Y-50944047D01*
X67797445Y-51100000D01*
X59179267Y-51100000D01*
X59152077Y-51059307D01*
X59130377Y-51026832D01*
X59123484Y-51016516D01*
X59084835Y-50990691D01*
X59049620Y-50967161D01*
X59039301Y-50960266D01*
X58965067Y-50945500D01*
X58440085Y-50945500D01*
X57914934Y-50945501D01*
X57881072Y-50952236D01*
X57852874Y-50957844D01*
X57852872Y-50957845D01*
X57840699Y-50960266D01*
X57830379Y-50967161D01*
X57830378Y-50967162D01*
X57769985Y-51007516D01*
X57756516Y-51016516D01*
X57700266Y-51100699D01*
X57685500Y-51174933D01*
X54909500Y-51174933D01*
X54909500Y-48900000D01*
X65797445Y-48900000D01*
X65817977Y-49055953D01*
X65878172Y-49201277D01*
X65973929Y-49326071D01*
X66098722Y-49421828D01*
X66244047Y-49482023D01*
X66400000Y-49502555D01*
X66419407Y-49500000D01*
X71440693Y-49500000D01*
X71459891Y-49743929D01*
X71517011Y-49981852D01*
X71610647Y-50207911D01*
X71738494Y-50416538D01*
X71897403Y-50602597D01*
X72083462Y-50761506D01*
X72292089Y-50889353D01*
X72296659Y-50891246D01*
X72296663Y-50891248D01*
X72513575Y-50981095D01*
X72518148Y-50982989D01*
X72600452Y-51002748D01*
X72751258Y-51038954D01*
X72751264Y-51038955D01*
X72756071Y-51040109D01*
X73000000Y-51059307D01*
X73243929Y-51040109D01*
X73248736Y-51038955D01*
X73248742Y-51038954D01*
X73399548Y-51002748D01*
X73481852Y-50982989D01*
X73486425Y-50981095D01*
X73703337Y-50891248D01*
X73703341Y-50891246D01*
X73707911Y-50889353D01*
X73916538Y-50761506D01*
X74102597Y-50602597D01*
X74261506Y-50416538D01*
X74389353Y-50207911D01*
X74482989Y-49981852D01*
X74540109Y-49743929D01*
X74559307Y-49500000D01*
X74540109Y-49256071D01*
X74526955Y-49201277D01*
X74484144Y-49022960D01*
X74482989Y-49018148D01*
X74481095Y-49013575D01*
X74391248Y-48796663D01*
X74391246Y-48796659D01*
X74389353Y-48792089D01*
X74261506Y-48583462D01*
X74102597Y-48397403D01*
X73916538Y-48238494D01*
X73707911Y-48110647D01*
X73703341Y-48108754D01*
X73703337Y-48108752D01*
X73486425Y-48018905D01*
X73486423Y-48018904D01*
X73481852Y-48017011D01*
X73399548Y-47997252D01*
X73248742Y-47961046D01*
X73248736Y-47961045D01*
X73243929Y-47959891D01*
X73000000Y-47940693D01*
X72756071Y-47959891D01*
X72751264Y-47961045D01*
X72751258Y-47961046D01*
X72600452Y-47997252D01*
X72518148Y-48017011D01*
X72513577Y-48018904D01*
X72513575Y-48018905D01*
X72296663Y-48108752D01*
X72296659Y-48108754D01*
X72292089Y-48110647D01*
X72083462Y-48238494D01*
X71897403Y-48397403D01*
X71738494Y-48583462D01*
X71610647Y-48792089D01*
X71608754Y-48796659D01*
X71608752Y-48796663D01*
X71518905Y-49013575D01*
X71517011Y-49018148D01*
X71515856Y-49022960D01*
X71473046Y-49201277D01*
X71459891Y-49256071D01*
X71440693Y-49500000D01*
X66419407Y-49500000D01*
X66555953Y-49482023D01*
X66701278Y-49421828D01*
X66826071Y-49326071D01*
X66921828Y-49201277D01*
X66982023Y-49055953D01*
X67002555Y-48900000D01*
X66982023Y-48744047D01*
X66921828Y-48598723D01*
X66826071Y-48473929D01*
X66701278Y-48378172D01*
X66555953Y-48317977D01*
X66400000Y-48297445D01*
X66244047Y-48317977D01*
X66098723Y-48378172D01*
X65973929Y-48473929D01*
X65878172Y-48598723D01*
X65817977Y-48744047D01*
X65797445Y-48900000D01*
X54909500Y-48900000D01*
X54909500Y-46000000D01*
X59397445Y-46000000D01*
X59417977Y-46155953D01*
X59478172Y-46301277D01*
X59573929Y-46426071D01*
X59698722Y-46521828D01*
X59844047Y-46582023D01*
X60000000Y-46602555D01*
X60155953Y-46582023D01*
X60301278Y-46521828D01*
X60307831Y-46516800D01*
X60307834Y-46516798D01*
X60423296Y-46428201D01*
X60489516Y-46402600D01*
X60559065Y-46416865D01*
X60576704Y-46428201D01*
X60692166Y-46516798D01*
X60692169Y-46516800D01*
X60698722Y-46521828D01*
X60844047Y-46582023D01*
X61000000Y-46602555D01*
X61155953Y-46582023D01*
X61301278Y-46521828D01*
X61426071Y-46426071D01*
X61521828Y-46301277D01*
X61582023Y-46155953D01*
X61602555Y-46000000D01*
X61582023Y-45844047D01*
X61521828Y-45698723D01*
X61426071Y-45573929D01*
X61301278Y-45478172D01*
X61155953Y-45417977D01*
X61000000Y-45397445D01*
X60844047Y-45417977D01*
X60698723Y-45478172D01*
X60580476Y-45568906D01*
X60576704Y-45571800D01*
X60510483Y-45597400D01*
X60440935Y-45583135D01*
X60423296Y-45571799D01*
X60307834Y-45483202D01*
X60307829Y-45483199D01*
X60301278Y-45478172D01*
X60155953Y-45417977D01*
X60000000Y-45397445D01*
X59844047Y-45417977D01*
X59698723Y-45478172D01*
X59573929Y-45573929D01*
X59478172Y-45698723D01*
X59417977Y-45844047D01*
X59397445Y-46000000D01*
X54909500Y-46000000D01*
X54909500Y-45341178D01*
X55525500Y-45341178D01*
X55541024Y-45464061D01*
X55601899Y-45617814D01*
X55606557Y-45624225D01*
X55606558Y-45624227D01*
X55650498Y-45684705D01*
X55699098Y-45751597D01*
X55826514Y-45857005D01*
X55976141Y-45927414D01*
X56071298Y-45945566D01*
X56130791Y-45956915D01*
X56130793Y-45956915D01*
X56138577Y-45958400D01*
X56303616Y-45948017D01*
X56377415Y-45924038D01*
X56453351Y-45899365D01*
X56453354Y-45899364D01*
X56460887Y-45896916D01*
X56467577Y-45892670D01*
X56467580Y-45892669D01*
X56556220Y-45836416D01*
X56600510Y-45808309D01*
X56713710Y-45687763D01*
X56793375Y-45542853D01*
X56834500Y-45382683D01*
X56834500Y-45341178D01*
X64165500Y-45341178D01*
X64181024Y-45464061D01*
X64241899Y-45617814D01*
X64246557Y-45624225D01*
X64246558Y-45624227D01*
X64290498Y-45684705D01*
X64339098Y-45751597D01*
X64466514Y-45857005D01*
X64616141Y-45927414D01*
X64711298Y-45945566D01*
X64770791Y-45956915D01*
X64770793Y-45956915D01*
X64778577Y-45958400D01*
X64943616Y-45948017D01*
X65017415Y-45924038D01*
X65093351Y-45899365D01*
X65093354Y-45899364D01*
X65100887Y-45896916D01*
X65107577Y-45892670D01*
X65107580Y-45892669D01*
X65196220Y-45836416D01*
X65240510Y-45808309D01*
X65353710Y-45687763D01*
X65433375Y-45542853D01*
X65474500Y-45382683D01*
X65474500Y-45074933D01*
X66045500Y-45074933D01*
X66045501Y-46125066D01*
X66050016Y-46147764D01*
X66057436Y-46185071D01*
X66060266Y-46199301D01*
X66116516Y-46283484D01*
X66200699Y-46339734D01*
X66274933Y-46354500D01*
X66799915Y-46354500D01*
X67325066Y-46354499D01*
X67360818Y-46347388D01*
X67387126Y-46342156D01*
X67387128Y-46342155D01*
X67399301Y-46339734D01*
X67409621Y-46332839D01*
X67409622Y-46332838D01*
X67473168Y-46290377D01*
X67483484Y-46283484D01*
X67539734Y-46199301D01*
X67554500Y-46125067D01*
X67554499Y-45074934D01*
X67539734Y-45000699D01*
X67483484Y-44916516D01*
X67399301Y-44860266D01*
X67325067Y-44845500D01*
X66800085Y-44845500D01*
X66274934Y-44845501D01*
X66239182Y-44852612D01*
X66212874Y-44857844D01*
X66212872Y-44857845D01*
X66200699Y-44860266D01*
X66190379Y-44867161D01*
X66190378Y-44867162D01*
X66129985Y-44907516D01*
X66116516Y-44916516D01*
X66060266Y-45000699D01*
X66045500Y-45074933D01*
X65474500Y-45074933D01*
X65474500Y-44458822D01*
X65458976Y-44335939D01*
X65398101Y-44182186D01*
X65391501Y-44173101D01*
X65343083Y-44106460D01*
X65300902Y-44048403D01*
X65173486Y-43942995D01*
X65023859Y-43872586D01*
X64913243Y-43851485D01*
X64869209Y-43843085D01*
X64869207Y-43843085D01*
X64861423Y-43841600D01*
X64696384Y-43851983D01*
X64688840Y-43854434D01*
X64688841Y-43854434D01*
X64546649Y-43900635D01*
X64546646Y-43900636D01*
X64539113Y-43903084D01*
X64532423Y-43907330D01*
X64532420Y-43907331D01*
X64476223Y-43942995D01*
X64399490Y-43991691D01*
X64286290Y-44112237D01*
X64206625Y-44257147D01*
X64165500Y-44417317D01*
X64165500Y-45341178D01*
X56834500Y-45341178D01*
X56834500Y-44458822D01*
X56818976Y-44335939D01*
X56758101Y-44182186D01*
X56751501Y-44173101D01*
X56703083Y-44106460D01*
X56660902Y-44048403D01*
X56533486Y-43942995D01*
X56383859Y-43872586D01*
X56273243Y-43851485D01*
X56229209Y-43843085D01*
X56229207Y-43843085D01*
X56221423Y-43841600D01*
X56056384Y-43851983D01*
X56048840Y-43854434D01*
X56048841Y-43854434D01*
X55906649Y-43900635D01*
X55906646Y-43900636D01*
X55899113Y-43903084D01*
X55892423Y-43907330D01*
X55892420Y-43907331D01*
X55836223Y-43942995D01*
X55759490Y-43991691D01*
X55646290Y-44112237D01*
X55566625Y-44257147D01*
X55525500Y-44417317D01*
X55525500Y-45341178D01*
X54909500Y-45341178D01*
X54909500Y-45327159D01*
X54900381Y-45258972D01*
X54882982Y-45195083D01*
X54877799Y-45180672D01*
X54873567Y-45109802D01*
X54908321Y-45047893D01*
X54909810Y-45046582D01*
X54911846Y-45045322D01*
X55036144Y-44920806D01*
X55128464Y-44771036D01*
X55183853Y-44604045D01*
X55194500Y-44500128D01*
X55194500Y-43750000D01*
X57147445Y-43750000D01*
X57167977Y-43905953D01*
X57228172Y-44051277D01*
X57323929Y-44176071D01*
X57448722Y-44271828D01*
X57594047Y-44332023D01*
X57750000Y-44352555D01*
X57905953Y-44332023D01*
X58051278Y-44271828D01*
X58176071Y-44176071D01*
X58271828Y-44051277D01*
X58332023Y-43905953D01*
X58352555Y-43750000D01*
X58332023Y-43594047D01*
X58330347Y-43590000D01*
X62677445Y-43590000D01*
X62697977Y-43745953D01*
X62758172Y-43891277D01*
X62853929Y-44016071D01*
X62978722Y-44111828D01*
X63124047Y-44172023D01*
X63280000Y-44192555D01*
X63435953Y-44172023D01*
X63581278Y-44111828D01*
X63706071Y-44016071D01*
X63801828Y-43891277D01*
X63862023Y-43745953D01*
X63882555Y-43590000D01*
X63862023Y-43434047D01*
X63801828Y-43288723D01*
X63706071Y-43163929D01*
X63581278Y-43068172D01*
X63435953Y-43007977D01*
X63280000Y-42987445D01*
X63124047Y-43007977D01*
X62978723Y-43068172D01*
X62853929Y-43163929D01*
X62758172Y-43288723D01*
X62697977Y-43434047D01*
X62677445Y-43590000D01*
X58330347Y-43590000D01*
X58271828Y-43448723D01*
X58176071Y-43323929D01*
X58146861Y-43301515D01*
X58057829Y-43233199D01*
X58051278Y-43228172D01*
X57905953Y-43167977D01*
X57750000Y-43147445D01*
X57594047Y-43167977D01*
X57448723Y-43228172D01*
X57323929Y-43323929D01*
X57228172Y-43448723D01*
X57167977Y-43594047D01*
X57147445Y-43750000D01*
X55194500Y-43750000D01*
X55194500Y-43399872D01*
X55194163Y-43396622D01*
X55184295Y-43301515D01*
X55184294Y-43301511D01*
X55183583Y-43294657D01*
X55127903Y-43127763D01*
X55041739Y-42988523D01*
X55039175Y-42984380D01*
X55039174Y-42984379D01*
X55035322Y-42978154D01*
X54910806Y-42853856D01*
X54761036Y-42761536D01*
X54655081Y-42726392D01*
X54596722Y-42685961D01*
X54569485Y-42620397D01*
X54582019Y-42550515D01*
X54622478Y-42503586D01*
X54744946Y-42417833D01*
X54744949Y-42417831D01*
X54749457Y-42414674D01*
X54904674Y-42259457D01*
X54982357Y-42148515D01*
X55027422Y-42084155D01*
X55027423Y-42084153D01*
X55030579Y-42079646D01*
X55032902Y-42074664D01*
X55032905Y-42074659D01*
X55079896Y-41973884D01*
X55123347Y-41880703D01*
X55180161Y-41668674D01*
X55199292Y-41450000D01*
X55180161Y-41231326D01*
X55123347Y-41019297D01*
X55079896Y-40926116D01*
X55032905Y-40825341D01*
X55032902Y-40825336D01*
X55030579Y-40820354D01*
X54964921Y-40726584D01*
X54907833Y-40645054D01*
X54907831Y-40645051D01*
X54904674Y-40640543D01*
X54749457Y-40485326D01*
X54744946Y-40482167D01*
X54740733Y-40478632D01*
X54741943Y-40477190D01*
X54702829Y-40428265D01*
X54695514Y-40357647D01*
X54727540Y-40294284D01*
X54788738Y-40258294D01*
X54819424Y-40254500D01*
X55464976Y-40254500D01*
X55533097Y-40274502D01*
G37*
%TD.AperFunction*%
%TD*%
%TA.AperFunction,Conductor*%
%TO.N,+9V*%
G36*
X53128697Y-40274502D02*
G01*
X53175190Y-40328158D01*
X53185294Y-40398432D01*
X53155800Y-40463012D01*
X53138928Y-40478227D01*
X53139267Y-40478632D01*
X53135054Y-40482167D01*
X53130543Y-40485326D01*
X52975326Y-40640543D01*
X52972169Y-40645051D01*
X52972167Y-40645054D01*
X52915079Y-40726584D01*
X52849421Y-40820354D01*
X52847098Y-40825336D01*
X52847095Y-40825341D01*
X52800104Y-40926116D01*
X52756653Y-41019297D01*
X52699839Y-41231326D01*
X52680708Y-41450000D01*
X52699839Y-41668674D01*
X52756653Y-41880703D01*
X52758978Y-41885688D01*
X52847095Y-42074659D01*
X52847098Y-42074664D01*
X52849421Y-42079646D01*
X52975326Y-42259457D01*
X53130543Y-42414674D01*
X53135053Y-42417832D01*
X53135059Y-42417837D01*
X53257988Y-42503912D01*
X53302317Y-42559369D01*
X53309626Y-42629988D01*
X53277596Y-42693348D01*
X53225595Y-42726648D01*
X53124919Y-42760237D01*
X53111755Y-42766403D01*
X52974686Y-42851223D01*
X52963297Y-42860250D01*
X52849420Y-42974326D01*
X52840409Y-42985736D01*
X52755835Y-43122943D01*
X52749687Y-43136126D01*
X52698804Y-43289533D01*
X52695939Y-43302894D01*
X52686328Y-43396704D01*
X52686000Y-43403119D01*
X52686000Y-43677885D01*
X52690475Y-43693124D01*
X52691865Y-43694329D01*
X52699548Y-43696000D01*
X54068000Y-43696000D01*
X54136121Y-43716002D01*
X54182614Y-43769658D01*
X54194000Y-43822000D01*
X54194000Y-45185885D01*
X54198475Y-45201124D01*
X54199865Y-45202329D01*
X54207548Y-45204000D01*
X54486831Y-45204000D01*
X54493355Y-45203662D01*
X54510999Y-45201832D01*
X54580820Y-45214698D01*
X54632601Y-45263270D01*
X54650000Y-45327159D01*
X54650000Y-55094000D01*
X54629998Y-55162121D01*
X54576342Y-55208614D01*
X54524000Y-55220000D01*
X49669484Y-55220000D01*
X49601363Y-55199998D01*
X49554870Y-55146342D01*
X49543872Y-55103886D01*
X49540497Y-55061005D01*
X49540109Y-55056071D01*
X49482989Y-54818148D01*
X49389353Y-54592089D01*
X49261506Y-54383462D01*
X49102597Y-54197403D01*
X48916538Y-54038494D01*
X48707911Y-53910647D01*
X48703341Y-53908754D01*
X48703337Y-53908752D01*
X48486425Y-53818905D01*
X48486423Y-53818904D01*
X48481852Y-53817011D01*
X48399548Y-53797252D01*
X48248742Y-53761046D01*
X48248736Y-53761045D01*
X48243929Y-53759891D01*
X48000000Y-53740693D01*
X47756071Y-53759891D01*
X47751264Y-53761045D01*
X47751258Y-53761046D01*
X47600452Y-53797252D01*
X47518148Y-53817011D01*
X47513577Y-53818904D01*
X47513575Y-53818905D01*
X47296663Y-53908752D01*
X47296659Y-53908754D01*
X47292089Y-53910647D01*
X47083462Y-54038494D01*
X46897403Y-54197403D01*
X46738494Y-54383462D01*
X46610647Y-54592089D01*
X46517011Y-54818148D01*
X46459891Y-55056071D01*
X46459503Y-55061005D01*
X46456128Y-55103886D01*
X46430843Y-55170227D01*
X46373705Y-55212367D01*
X46330516Y-55220000D01*
X45880500Y-55220000D01*
X45812379Y-55199998D01*
X45765886Y-55146342D01*
X45754500Y-55094000D01*
X45754500Y-51100000D01*
X48097445Y-51100000D01*
X48117977Y-51255953D01*
X48178172Y-51401277D01*
X48273929Y-51526071D01*
X48398722Y-51621828D01*
X48544047Y-51682023D01*
X48700000Y-51702555D01*
X48855953Y-51682023D01*
X49001278Y-51621828D01*
X49126071Y-51526071D01*
X49221828Y-51401277D01*
X49282023Y-51255953D01*
X49302555Y-51100000D01*
X49282023Y-50944047D01*
X49221828Y-50798723D01*
X49126071Y-50673929D01*
X49001278Y-50578172D01*
X48855953Y-50517977D01*
X48700000Y-50497445D01*
X48544047Y-50517977D01*
X48398723Y-50578172D01*
X48273929Y-50673929D01*
X48178172Y-50798723D01*
X48117977Y-50944047D01*
X48097445Y-51100000D01*
X45754500Y-51100000D01*
X45754500Y-50274933D01*
X51745500Y-50274933D01*
X51745501Y-51325066D01*
X51760266Y-51399301D01*
X51816516Y-51483484D01*
X51900699Y-51539734D01*
X51974933Y-51554500D01*
X52499915Y-51554500D01*
X53025066Y-51554499D01*
X53060818Y-51547388D01*
X53087126Y-51542156D01*
X53087128Y-51542155D01*
X53099301Y-51539734D01*
X53109621Y-51532839D01*
X53109622Y-51532838D01*
X53173168Y-51490377D01*
X53183484Y-51483484D01*
X53239734Y-51399301D01*
X53254500Y-51325067D01*
X53254499Y-50274934D01*
X53239734Y-50200699D01*
X53183484Y-50116516D01*
X53099301Y-50060266D01*
X53025067Y-50045500D01*
X52500085Y-50045500D01*
X51974934Y-50045501D01*
X51939182Y-50052612D01*
X51912874Y-50057844D01*
X51912872Y-50057845D01*
X51900699Y-50060266D01*
X51890379Y-50067161D01*
X51890378Y-50067162D01*
X51829985Y-50107516D01*
X51816516Y-50116516D01*
X51760266Y-50200699D01*
X51745500Y-50274933D01*
X45754500Y-50274933D01*
X45754500Y-48200000D01*
X50497445Y-48200000D01*
X50517977Y-48355953D01*
X50578172Y-48501277D01*
X50673929Y-48626071D01*
X50798722Y-48721828D01*
X50944047Y-48782023D01*
X51100000Y-48802555D01*
X51255953Y-48782023D01*
X51263588Y-48778861D01*
X51263590Y-48778860D01*
X51283594Y-48770575D01*
X51354183Y-48762986D01*
X51417670Y-48794766D01*
X51453897Y-48855825D01*
X51456731Y-48870533D01*
X51467977Y-48955953D01*
X51528172Y-49101277D01*
X51623929Y-49226071D01*
X51748722Y-49321828D01*
X51894047Y-49382023D01*
X52050000Y-49402555D01*
X52205953Y-49382023D01*
X52351278Y-49321828D01*
X52476071Y-49226071D01*
X52571828Y-49101277D01*
X52632023Y-48955953D01*
X52652555Y-48800000D01*
X52632023Y-48644047D01*
X52571828Y-48498723D01*
X52476071Y-48373929D01*
X52351278Y-48278172D01*
X52205953Y-48217977D01*
X52050000Y-48197445D01*
X51894047Y-48217977D01*
X51886412Y-48221139D01*
X51886410Y-48221140D01*
X51866406Y-48229425D01*
X51795817Y-48237014D01*
X51732330Y-48205234D01*
X51696103Y-48144175D01*
X51693268Y-48129462D01*
X51683101Y-48052237D01*
X51683101Y-48052236D01*
X51682023Y-48044047D01*
X51621828Y-47898723D01*
X51526071Y-47773929D01*
X51401278Y-47678172D01*
X51255953Y-47617977D01*
X51100000Y-47597445D01*
X50944047Y-47617977D01*
X50798723Y-47678172D01*
X50673929Y-47773929D01*
X50578172Y-47898723D01*
X50517977Y-48044047D01*
X50497445Y-48200000D01*
X45754500Y-48200000D01*
X45754500Y-48029077D01*
X45755963Y-48009932D01*
X45757352Y-48000898D01*
X45757352Y-48000897D01*
X45759237Y-47988635D01*
X45756287Y-47976586D01*
X45756026Y-47970634D01*
X45756130Y-47957585D01*
X45762189Y-47856431D01*
X45766433Y-47830704D01*
X45780180Y-47780474D01*
X45797994Y-47715386D01*
X45807436Y-47691099D01*
X45862060Y-47584738D01*
X45876303Y-47562908D01*
X45951644Y-47470073D01*
X45970073Y-47451644D01*
X46062910Y-47376301D01*
X46084738Y-47362060D01*
X46191099Y-47307436D01*
X46215386Y-47297994D01*
X46330706Y-47266433D01*
X46356429Y-47262189D01*
X46390537Y-47260146D01*
X46457585Y-47256130D01*
X46470634Y-47256026D01*
X46476586Y-47256287D01*
X46488635Y-47259237D01*
X46500897Y-47257352D01*
X46500898Y-47257352D01*
X46509932Y-47255963D01*
X46529077Y-47254500D01*
X50962524Y-47254500D01*
X50987103Y-47256921D01*
X51000000Y-47259486D01*
X51009209Y-47257654D01*
X51196854Y-47242886D01*
X51201661Y-47241732D01*
X51201667Y-47241731D01*
X51322853Y-47212637D01*
X51388860Y-47196790D01*
X51393433Y-47194896D01*
X51566718Y-47123119D01*
X51566722Y-47123117D01*
X51571292Y-47121224D01*
X51739657Y-47018050D01*
X51743412Y-47014843D01*
X51743416Y-47014840D01*
X51886052Y-46893016D01*
X51889808Y-46889808D01*
X51912184Y-46863609D01*
X52014840Y-46743416D01*
X52014843Y-46743412D01*
X52018050Y-46739657D01*
X52121224Y-46571292D01*
X52196790Y-46388860D01*
X52242886Y-46196854D01*
X52257654Y-46009209D01*
X52259486Y-46000000D01*
X52256921Y-45987103D01*
X52254500Y-45962524D01*
X52254500Y-44496831D01*
X52686000Y-44496831D01*
X52686337Y-44503350D01*
X52696198Y-44598384D01*
X52699091Y-44611779D01*
X52750237Y-44765081D01*
X52756403Y-44778245D01*
X52841223Y-44915314D01*
X52850250Y-44926703D01*
X52964326Y-45040580D01*
X52975736Y-45049591D01*
X53112943Y-45134165D01*
X53126126Y-45140313D01*
X53279533Y-45191196D01*
X53292894Y-45194061D01*
X53386704Y-45203672D01*
X53393119Y-45204000D01*
X53667885Y-45204000D01*
X53683124Y-45199525D01*
X53684329Y-45198135D01*
X53686000Y-45190452D01*
X53686000Y-44222115D01*
X53681525Y-44206876D01*
X53680135Y-44205671D01*
X53672452Y-44204000D01*
X52704115Y-44204000D01*
X52688876Y-44208475D01*
X52687671Y-44209865D01*
X52686000Y-44217548D01*
X52686000Y-44496831D01*
X52254500Y-44496831D01*
X52254500Y-41037476D01*
X52256921Y-41012894D01*
X52257065Y-41012170D01*
X52259486Y-41000000D01*
X52257065Y-40987830D01*
X52257065Y-40980144D01*
X52257672Y-40967793D01*
X52267609Y-40866908D01*
X52272425Y-40842691D01*
X52307649Y-40726574D01*
X52317093Y-40703774D01*
X52374292Y-40596761D01*
X52388011Y-40576230D01*
X52464981Y-40482444D01*
X52482444Y-40464981D01*
X52576230Y-40388011D01*
X52596761Y-40374292D01*
X52703774Y-40317093D01*
X52726574Y-40307649D01*
X52842691Y-40272425D01*
X52866908Y-40267609D01*
X52967793Y-40257672D01*
X52980144Y-40257065D01*
X52987830Y-40257065D01*
X53000000Y-40259486D01*
X53012897Y-40256921D01*
X53037476Y-40254500D01*
X53060576Y-40254500D01*
X53128697Y-40274502D01*
G37*
%TD.AperFunction*%
%TD*%
M02*
